<?xml version="1.0" encoding="utf-8"?>
<!-- Generator: Adobe Illustrator 24.2.0, SVG Export Plug-In . SVG Version: 6.00 Build 0)  -->
<svg version="1.1" id="Layer_1" xmlns="http://www.w3.org/2000/svg" xmlns:xlink="http://www.w3.org/1999/xlink" x="0px" y="0px"
	 width="60px" height="60px" viewBox="0 0 60 60" style="enable-background:new 0 0 60 60;" xml:space="preserve">
<style type="text/css">
	.st0{fill:#FFB15C;}
</style>
<g>
	<g id="Web-Template-Presentation_1_" transform="translate(-635.000000, -4315.000000)">
		<g id="Inner-Pages_1_" transform="translate(345.000000, 3929.000000)">
			<g id="nav_tabs_1_" transform="translate(0.000000, 170.000000)">
				<g id="tab_1_" transform="translate(266.000000, 192.000000)">
					<g transform="translate(24.000000, 24.000000)">
						<path id="Path_1_" class="st0" d="M13.3,18.6c0.2,0,0.4-0.1,0.6-0.2c0.2-0.2,0.2-0.4,0.2-0.6s-0.1-0.4-0.2-0.6
							C13.7,17,13.5,17,13.3,17c-0.2,0-0.4,0.1-0.6,0.2c-0.2,0.2-0.2,0.4-0.2,0.6s0.1,0.4,0.2,0.6C12.8,18.5,13,18.6,13.3,18.6z"/>
						<path class="st0" d="M14.9,18.6c0.2,0,0.4-0.1,0.6-0.2c0.2-0.2,0.2-0.4,0.2-0.6s-0.1-0.4-0.2-0.6C15.3,17,15.1,17,14.9,17
							c-0.2,0-0.4,0.1-0.6,0.2c-0.2,0.2-0.2,0.4-0.2,0.6s0.1,0.4,0.2,0.6C14.5,18.5,14.7,18.6,14.9,18.6z"/>
						<path class="st0" d="M16.5,18.6c0.2,0,0.4-0.1,0.6-0.2c0.2-0.2,0.2-0.4,0.2-0.6s-0.1-0.4-0.2-0.6C16.9,17,16.7,17,16.5,17
							s-0.4,0.1-0.6,0.2c-0.2,0.2-0.2,0.4-0.2,0.6s0.1,0.4,0.2,0.6C16.1,18.5,16.3,18.6,16.5,18.6z"/>
						<path class="st0" d="M19.6,18.6h23.3c0.3,0,0.6-0.4,0.6-0.8S43.2,17,42.9,17H19.6c-0.3,0-0.6,0.4-0.6,0.8S19.2,18.6,19.6,18.6
							z"/>
						<path class="st0" d="M45.7,18.6H47c0.3,0,0.6-0.4,0.6-0.8S47.3,17,47,17h-1.3c-0.3,0-0.6,0.4-0.6,0.8S45.4,18.6,45.7,18.6z"/>
						<path class="st0" d="M46.9,14.5H13.1c-1.7,0-3.1,1.4-3.1,3.1v24.9c0,1.7,1.4,3.1,3.1,3.1h33.8c1.7,0,3.1-1.4,3.1-3.1V17.6
							C50,15.9,48.6,14.5,46.9,14.5z M13.1,15.7h33.8c1.1,0,1.9,0.9,1.9,1.9v1.9H11.2v-1.9C11.2,16.5,12,15.7,13.1,15.7z M46.9,44.3
							H13.1c-1.1,0-1.9-0.9-1.9-1.9V20.6h37.7v21.8C48.8,43.5,48,44.3,46.9,44.3z"/>
						<path class="st0" d="M29.8,36.9c0.7,0,1.3-0.1,2-0.4l3.3,3.3c0.4,0.4,1,0.6,1.5,0.6c0.5,0,1.1-0.2,1.5-0.6
							c0.8-0.8,0.8-2.2,0-3l-3.3-3.3c2-5.4-4.6-9.8-8.8-5.7C22.7,31.1,25.1,36.9,29.8,36.9z M37.1,38.8c-0.3,0.3-0.7,0.3-1,0
							l-1.2-1.2l1-1l1.2,1.2C37.4,38.1,37.4,38.5,37.1,38.8L37.1,38.8z M34.9,35.6l-1,1l-0.8-0.8c0.4-0.3,0.7-0.6,1-1L34.9,35.6z
							 M27.1,28.8c1.5-1.5,4.1-1.5,5.6,0c3.5,3.8-1.7,9.1-5.6,5.6C25.5,32.9,25.5,30.2,27.1,28.8L27.1,28.8z"/>
					</g>
				</g>
			</g>
		</g>
	</g>
</g>
</svg>
