<?xml version="1.0" encoding="utf-8"?>
<!-- Generator: Adobe Illustrator 26.0.1, SVG Export Plug-In . SVG Version: 6.00 Build 0)  -->
<svg version="1.1" id="Capa_1" xmlns="http://www.w3.org/2000/svg" xmlns:xlink="http://www.w3.org/1999/xlink" x="0px" y="0px"
	 viewBox="0 0 794.5 436.7" style="enable-background:new 0 0 794.5 436.7;" xml:space="preserve">
<style type="text/css">
	.st0{fill:#1D1C3A;}
	.st1{fill:#FFFFFF;}
	.st2{fill:#F9B03D;}
	.st3{fill:#2DABE3;}
	.st4{fill:none;}
	.st5{fill:#E5CBAD;}
	.st6{fill:#E28323;}
	.st7{fill:#FFF8F0;}
	.st8{fill:#C9C0B9;}
	.st9{fill:#ED7875;}
	.st10{fill:#C94948;}
	.st11{fill:#FFD765;}
	.st12{fill:#1D1C3B;}
</style>
<g>
	<g>
		<g>
			<path class="st0" d="M277.3,386.5c-6.2,0-12-1.3-17.2-3.8c-5.1-2.5-9.5-5.9-13.2-10.1c-3.6-4.1-6.3-9-8.3-14.4
				c-1.9-5.3-2.9-11-2.9-17c0-6.7,0.9-13.1,2.7-19c1.9-6.2,4.8-11.7,8.6-16.4c3.9-4.8,8.9-8.7,14.6-11.4c5.8-2.7,12.3-4.1,19.5-4.1
				c2.8,0,5.7,0.2,8.6,0.7c3.3,0.5,6.5,1.6,9.6,3.1c3.9,1.9,6.2,6,5.8,10.3l-1.8,22c-0.3,3.1-1.9,6-4.5,7.8s-5.9,2.3-8.9,1.4
				c-0.4-0.1-0.7-0.2-1-0.2c-0.5-0.1-1.1-0.1-1.6-0.1c-1.3,0-2.5,0.2-3.7,0.5c-0.8,0.2-1.5,0.6-2,1c-0.2,0.2-0.6,0.5-1,1.3
				c-0.1,0.3-0.4,1-0.4,2.3c0,0.5,0,0.8,0.1,1c0.2,0,0.5,0.1,0.9,0.1c0.5,0,1-0.1,1.6-0.2c0.8-0.2,1.6-0.4,2.4-0.7
				c0.9-0.3,1.7-0.7,2.5-1c0.8-0.4,1.6-0.8,2.3-1.3c3.3-2.1,7.5-2.3,10.9-0.4s5.5,5.6,5.3,9.5l-0.8,24.5c-0.1,3.7-2.2,7.1-5.5,8.9
				c-1.7,0.9-3.6,1.8-5.5,2.5c-1.8,0.7-3.6,1.2-5.5,1.7s-3.9,0.9-5.9,1.1C281.1,386.4,279.1,386.5,277.3,386.5z M281.2,311.3
				c-4.1,0-7.6,0.7-10.5,2.1c-3,1.4-5.4,3.3-7.3,5.7c-2.1,2.6-3.7,5.7-4.8,9.3c-1.2,3.9-1.8,8.2-1.8,12.9c0,3.5,0.6,6.9,1.6,9.9
				c1.1,3,2.5,5.6,4.4,7.8c1.8,2.1,3.9,3.7,6.4,4.9c2.4,1.2,5,1.7,8.1,1.7c0.9,0,2-0.1,3-0.2c1.1-0.2,2.3-0.4,3.4-0.7
				c0.3-0.1,0.7-0.2,1-0.3l0.1-2.2c-1.2,0.1-2.4,0.2-3.5,0.2c-2.9,0-5.6-0.4-8.1-1.3c-2.9-1-5.4-2.5-7.5-4.5s-3.8-4.6-4.9-7.5
				c-1-2.6-1.5-5.6-1.5-8.8c0-4.3,0.8-8.2,2.5-11.6c1.6-3.4,3.9-6.2,6.8-8.5c2.7-2.1,5.7-3.7,9.1-4.7c1.8-0.5,3.7-0.9,5.6-1.1
				l0.3-3.1C282.8,311.3,282,311.3,281.2,311.3z M279.9,341.3L279.9,341.3L279.9,341.3z"/>
		</g>
		<g>
			<path class="st0" d="M328.1,380.1c-3.9,0-7.8-0.6-11.4-1.6c-3.5-1.1-6.9-2.6-10-4.5s-5.9-4.3-8.5-7c-2.5-2.7-4.6-5.7-6.4-9
				c-1.7-3.2-3-6.7-4-10.3c-1-3.7-1.4-7.6-1.4-11.5c0-3.8,0.4-7.6,1.3-11.3c0.9-3.7,2.1-7.2,3.8-10.5c1.7-3.3,3.7-6.4,6.1-9.2
				c2.4-2.8,5.2-5.3,8.2-7.4c3.1-2.1,6.5-3.8,10-5c3.7-1.2,7.6-1.8,11.6-1.8c6.1,0,11.7,1,16.9,3.1c5.3,2.1,9.9,5.2,13.7,9.2
				c3.7,3.9,6.7,8.7,8.7,14.1c1.9,5.3,2.9,11.1,2.9,17.4c0,3.9-0.4,7.8-1.3,11.5s-2.1,7.3-3.8,10.6c-1.7,3.3-3.7,6.4-6.1,9.2
				c-2.5,2.9-5.3,5.3-8.4,7.4s-6.5,3.7-10.2,4.8C336.1,379.5,332.2,380.1,328.1,380.1z M327.5,311.9c-1.8,0-3.5,0.3-5.1,0.8
				c-1.7,0.6-3.2,1.3-4.7,2.3s-2.9,2.3-4.1,3.7c-1.3,1.5-2.4,3.2-3.3,5s-1.6,3.8-2.1,5.9s-0.7,4.3-0.7,6.5s0.3,4.3,0.8,6.3
				s1.3,3.9,2.2,5.7c0.9,1.7,2,3.2,3.2,4.6c1.2,1.3,2.6,2.5,4.1,3.4s3.2,1.7,4.9,2.2c1.7,0.5,3.5,0.8,5.4,0.8c2,0,3.8-0.3,5.5-0.8
				c1.8-0.6,3.4-1.3,4.9-2.3s2.9-2.2,4.1-3.6c1.3-1.5,2.4-3.1,3.3-4.9s1.6-3.8,2.1-5.9s0.8-4.4,0.8-6.8c0-3.8-0.5-7.2-1.6-10.2
				c-1-2.8-2.4-5.1-4.2-6.9c-1.7-1.8-3.8-3.2-6.3-4.2C333.9,312.5,330.9,311.9,327.5,311.9z M327.5,358.4c-3.5,0-6.8-0.9-9.6-2.7
				c-2.4-1.5-4.5-3.5-6.1-5.9c-1.4-2.1-2.5-4.5-3.2-7c-0.6-2.3-0.9-4.7-0.9-7.1c0-2.7,0.4-5.2,1.2-7.7c0.9-2.6,2.2-5,3.9-7
				c1.8-2.1,4-3.8,6.5-5.1c2.7-1.3,5.6-2,8.7-2c3.4,0,6.5,0.8,9.3,2.4c2.4,1.4,4.5,3.3,6.2,5.6c1.5,2.1,2.6,4.4,3.3,6.9
				c0.7,2.4,1,4.8,1,7.3c0,2.6-0.4,5.2-1.2,7.6c-0.8,2.6-2.1,4.9-3.7,7c-1.8,2.3-4,4.1-6.5,5.5C333.8,357.7,330.7,358.4,327.5,358.4
				z"/>
		</g>
		<g>
			<path class="st0" d="M397.7,384.7c-2.8,0-5.5-1.1-7.4-3.1c-1.9,1.7-4.4,2.8-7.1,2.8h-21.1c-2.8,0-5.5-1.1-7.5-3.1s-3.1-4.7-3-7.6
				c0.2-7.9,0.3-15.8,0.5-23.6c0.1-7.8,0.3-15.8,0.5-23.7c0.1-4,0.1-7.9,0.2-11.8c0.1-4,0.2-8.1,0.4-12.2c0.2-4.1,2.8-7.7,6.6-9.2
				c2.6-1,5.3-1.9,7.9-2.6s5.2-1.2,7.9-1.6c2.5-0.4,5.2-0.6,7.8-0.8c2.5-0.1,5-0.2,7.6-0.2c4.8,0,9.5,0.7,13.9,2.1
				c4.7,1.5,9,3.8,12.7,6.8c3.8,3.1,6.9,7.1,9.2,11.6c2.3,4.7,3.5,10.1,3.5,16.1c0,3.4-0.3,6.6-0.9,9.4c-0.6,3.2-1.7,6.1-3,8.8
				c-1.4,2.6-3.1,5.1-5.2,7.4l7.7,14.6c1.5,2.9,1.6,6.4,0.2,9.4c-1.4,3-4.1,5.1-7.4,5.8l-22,4.6
				C399.1,384.6,398.4,384.7,397.7,384.7z M372.9,363.4h0.3l0.5-11.6c0.1-3.2,1.7-6.1,4.1-7.9c-0.2-0.2-0.4-0.4-0.6-0.6
				c-2-2.1-3-4.8-2.9-7.7l0.8-19.4c0.1-2.5,1.1-4.7,2.6-6.5c-1.2,0.2-2.5,0.5-3.7,0.8c0,1.5-0.1,2.9-0.1,4.4
				c-0.1,3.9-0.1,7.9-0.2,11.9v0.1c-0.2,7.8-0.4,15.8-0.5,23.6C373,354.7,373,359,372.9,363.4z M397.1,344c0.3,0.3,0.6,0.6,0.9,0.9
				c0.1-0.6,0.3-1.1,0.6-1.6C398,343.6,397.5,343.8,397.1,344z M404.4,312.9c1.4,1.8,2.4,3.8,3.1,6.1c0.7,2.2,1,4.6,1,7.1
				c0,3.5-0.8,6.6-2.3,9.4c0.7-0.8,1.3-1.6,1.7-2.4c0.5-1,0.9-2.1,1.1-3.3c0.3-1.5,0.5-3.3,0.5-5.3c0-2.7-0.4-5-1.3-6.8
				C407.2,315.8,406,314.2,404.4,312.9C404.4,313,404.4,312.9,404.4,312.9z M387.4,325.2L387.4,325.2L387.4,325.2z"/>
		</g>
		<g>
			<path class="st0" d="M454,385.7c-6.1,0-11.9-1.1-17.2-3.4s-9.9-5.5-13.8-9.5c-3.8-4-6.8-8.8-9-14.3c-2.1-5.4-3.2-11.3-3.2-17.6
				c0-4.6,0.5-9.1,1.5-13.4s2.4-8.5,4.3-12.3c1.9-3.9,4.2-7.5,7-10.8s6-6.3,9.6-8.7c3.6-2.4,7.6-4.4,11.9-5.7c4.3-1.3,8.9-2,13.7-2
				c1.7,0,3.4,0.1,5.3,0.2c2,0.2,4,0.4,5.9,0.8c2.1,0.4,4.2,0.9,6.1,1.6c2.2,0.8,4.3,1.7,6.2,2.9c3.3,2,5.2,5.8,5,9.7l-1.1,16.1
				c1.1,0.5,2.1,1.1,3,2c2.1,1.9,3.2,4.6,3.3,7.5l0.6,34c0,2.3-0.7,4.6-2.1,6.5c-2.2,3-5,5.6-8.2,7.8c-2.9,2-6,3.6-9.3,4.9
				c-3.2,1.2-6.5,2.2-9.8,2.8C460.3,385.4,457,385.7,454,385.7z M458.8,309.1c-2.7,0-5.2,0.4-7.5,1.1s-4.5,1.7-6.4,3
				c-2,1.3-3.7,2.9-5.3,4.8s-3,4.1-4.2,6.4c-1.2,2.4-2.1,5-2.7,7.8c-0.6,2.8-1,5.7-1,8.7c0,3.6,0.6,7,1.7,10
				c1.1,2.9,2.7,5.4,4.6,7.4c1.9,2,4.1,3.6,6.8,4.7c2.7,1.2,5.6,1.7,9,1.7c1.8,0,3.8-0.2,5.8-0.6s4.1-1,6-1.7
				c1.8-0.7,3.6-1.6,5.2-2.7c0.4-0.2,0.7-0.5,1-0.7v-2.7c-0.4,0.5-0.9,1-1.4,1.5c-2.2,1.9-4.8,3.3-7.7,4c-2.2,0.6-4.4,0.9-6.5,0.9
				c-3.7,0-7.1-0.9-10.1-2.6c-2.7-1.5-5-3.6-6.8-6.1c-1.7-2.3-2.9-5-3.7-7.8c-0.7-2.6-1.1-5.2-1.1-8c0-4.4,0.8-8.4,2.4-11.9
				c1.6-3.6,3.9-6.7,6.7-9.1c2.7-2.4,5.9-4.2,9.5-5.3c3.3-1.1,6.9-1.6,10.6-1.6c0.6,0,1.1,0,1.7,0v-0.5c-1.1-0.2-2.2-0.3-3.3-0.4
				C461.1,309.2,459.9,309.1,458.8,309.1z"/>
		</g>
		<g>
			<path class="st0" d="M487.8,383.9c-2.6,0-5.2-1-7.1-2.8c-2.1-1.9-3.3-4.6-3.4-7.4l-2-70.7c-0.2-5.7,4.2-10.4,9.9-10.8l26.1-1.5
				c3-0.2,5.9,0.9,8,3s3.2,5,3.1,8l-3.4,71c-0.3,5.4-4.5,9.7-9.9,10l-20.7,1.1C488.2,383.9,488,383.9,487.8,383.9z M496.6,312.7
				l1.4,49.7h0.5l2.4-49.9L496.6,312.7z"/>
		</g>
	</g>
	<g>
		<g>
			<path class="st0" d="M270.8,377.5c-6.4,0-12.4-1.2-17.8-3.7c-5.3-2.4-10-5.8-13.8-10c-3.8-4.1-6.7-9-8.8-14.4
				c-2-5.4-3.1-11.2-3.1-17.2c0-6.8,1-13.2,2.9-19.2c2-6.2,5.1-11.8,9.2-16.4c4.1-4.8,9.3-8.6,15.3-11.3c6-2.7,12.8-4,20.2-4
				c2.9,0,5.9,0.2,8.9,0.7c3.4,0.5,6.7,1.5,9.9,3c4,1.9,6.4,6,6.1,10.4l-1.9,22c-0.3,3.1-1.9,5.9-4.5,7.7c-2.6,1.8-5.8,2.3-8.8,1.5
				c-0.5-0.1-0.9-0.2-1.3-0.3c-0.6-0.1-1.2-0.1-1.9-0.1c-1.5,0-2.9,0.2-4.2,0.6c-1,0.3-1.8,0.7-2.5,1.2c-0.5,0.3-0.8,0.8-1.1,1.3
				c-0.2,0.4-0.3,1.2-0.3,2.1c0,0.4,0,0.7,0.1,0.9c0.3,0.1,0.9,0.2,1.7,0.2c0.6,0,1.3-0.1,2-0.2c0.9-0.2,1.8-0.4,2.7-0.7
				c1-0.3,1.9-0.7,2.7-1.1c0.9-0.4,1.7-0.9,2.5-1.3c3.3-2,7.4-2.1,10.8-0.1c3.3,1.9,5.3,5.6,5.2,9.4l-0.8,24.5
				c-0.1,3.8-2.3,7.2-5.7,9c-1.8,0.9-3.7,1.7-5.8,2.4c-1.9,0.6-3.8,1.2-5.8,1.7s-4.1,0.9-6.1,1.1
				C274.7,377.3,272.7,377.5,270.8,377.5z M274.9,302.2c-4.5,0-8.4,0.7-11.7,2.2c-3.2,1.4-5.9,3.4-8,5.8c-2.2,2.6-3.9,5.6-5.1,9.2
				c-1.3,3.9-1.9,8.1-1.9,12.7c0,3.5,0.6,6.7,1.7,9.7s2.7,5.5,4.7,7.7c2,2.1,4.2,3.8,7,5.1c2.7,1.2,5.7,1.8,9.1,1.8
				c1,0,2.2-0.1,3.4-0.2c1.3-0.2,2.5-0.4,3.8-0.7c0.5-0.1,0.9-0.2,1.4-0.4l0.1-2.1c-1.5,0.2-3,0.3-4.4,0.3c-2.9,0-5.7-0.4-8.2-1.2
				c-2.9-0.9-5.5-2.4-7.7-4.4c-2.3-2-4-4.6-5.2-7.5c-1.1-2.7-1.6-5.7-1.6-9c0-4.4,0.9-8.3,2.7-11.8c1.8-3.4,4.2-6.2,7.1-8.4
				c2.8-2.1,5.9-3.6,9.4-4.6c2-0.6,4.1-0.9,6.2-1.2l0.3-3C277,302.2,276,302.2,274.9,302.2z"/>
		</g>
		<g>
			<path class="st0" d="M324.8,371c-4.1,0-8-0.5-11.8-1.6c-3.7-1-7.2-2.5-10.4-4.4c-3.3-1.9-6.2-4.2-8.9-6.9c-2.6-2.7-4.9-5.7-6.8-9
				c-1.8-3.2-3.3-6.7-4.3-10.4c-1-3.7-1.5-7.7-1.5-11.7c0-3.9,0.5-7.7,1.4-11.4c0.9-3.7,2.3-7.3,4.1-10.6c1.8-3.3,3.9-6.4,6.4-9.2
				c2.6-2.8,5.5-5.3,8.6-7.4c3.2-2.1,6.7-3.7,10.4-4.9c3.8-1.2,7.8-1.8,12-1.8c6.3,0,12.2,1,17.5,3c5.5,2.1,10.3,5.1,14.3,9
				s7.1,8.7,9.2,14.2c2.1,5.3,3.1,11.2,3.1,17.6c0,4-0.5,7.9-1.4,11.7c-0.9,3.8-2.3,7.3-4.1,10.7c-1.8,3.3-4,6.4-6.5,9.2
				c-2.6,2.8-5.6,5.3-8.8,7.3c-3.2,2-6.8,3.6-10.6,4.7C333.1,370.4,329,371,324.8,371z M324.2,302.8c-2.1,0-4,0.3-5.8,0.8
				c-1.9,0.6-3.6,1.4-5.2,2.4c-1.6,1.1-3.1,2.3-4.5,3.8s-2.5,3.2-3.5,5s-1.7,3.8-2.2,5.8c-0.5,2.1-0.8,4.2-0.8,6.3
				c0,2.1,0.3,4.2,0.8,6.1c0.5,2,1.3,3.9,2.3,5.6s2.1,3.2,3.5,4.6c1.3,1.4,2.9,2.5,4.5,3.5c1.7,1,3.5,1.8,5.5,2.3
				c1.9,0.5,3.9,0.8,6.1,0.8s4.3-0.3,6.2-0.8c2-0.6,3.8-1.4,5.4-2.4s3.1-2.3,4.5-3.7c1.4-1.5,2.5-3.1,3.5-4.9s1.7-3.8,2.2-5.9
				s0.8-4.3,0.8-6.6c0-3.7-0.6-7.1-1.7-10c-1.1-2.8-2.5-5-4.4-6.9s-4.2-3.3-7-4.3C331.3,303.4,327.9,302.8,324.2,302.8z
				 M324.2,349.3c-3.5,0-6.8-0.9-9.6-2.6c-2.5-1.5-4.6-3.5-6.3-5.8c-1.5-2.1-2.7-4.5-3.4-7.1c-0.7-2.4-1-4.8-1-7.3
				c0-2.7,0.4-5.4,1.3-7.9c0.9-2.7,2.4-5.1,4.2-7.1c1.9-2.1,4.1-3.8,6.7-4.9c2.7-1.2,5.6-1.8,8.8-1.8c3.4,0,6.5,0.8,9.3,2.3
				c2.5,1.4,4.7,3.2,6.4,5.5c1.6,2.1,2.8,4.4,3.6,7c0.7,2.4,1.1,4.9,1.1,7.4c0,2.7-0.4,5.3-1.3,7.8c-0.9,2.6-2.2,5-3.9,7.1
				c-1.9,2.2-4.1,4-6.8,5.3C330.5,348.6,327.4,349.3,324.2,349.3z M324.9,325.6L324.9,325.6L324.9,325.6z"/>
		</g>
		<g>
			<path class="st0" d="M398.9,375.6c-3,0-5.9-1.3-7.9-3.5c-1.9,2-4.6,3.2-7.6,3.2H361c-2.8,0-5.5-1.1-7.5-3.2c-2-2-3.1-4.7-3-7.6
				c0.2-8,0.3-15.9,0.5-23.6c0.2-7.8,0.3-15.8,0.5-23.7c0.1-4,0.1-7.9,0.2-11.8c0.1-4,0.2-8.1,0.4-12.2c0.2-4.2,2.9-7.8,6.8-9.3
				c2.8-1,5.6-1.9,8.3-2.6c2.7-0.7,5.5-1.2,8.2-1.6s5.4-0.6,8.2-0.8c2.6-0.1,5.3-0.2,8.1-0.2c4.9,0,9.8,0.7,14.5,2.1
				c4.9,1.5,9.4,3.7,13.2,6.7c4,3.1,7.3,7,9.7,11.6c2.5,4.8,3.8,10.3,3.8,16.3c0,3.4-0.3,6.6-0.9,9.6c-0.7,3.2-1.8,6.2-3.3,8.9
				c-1.4,2.6-3.2,5-5.4,7.2l8,14.3c1.6,2.9,1.8,6.5,0.4,9.5c-1.4,3.1-4.2,5.2-7.5,5.9l-23.5,4.6
				C400.2,375.5,399.6,375.6,398.9,375.6z M371.8,354.3h1.6l0.5-11.6c0.1-3.2,1.7-6.1,4.1-7.9c-0.2-0.2-0.4-0.4-0.6-0.6
				c-2-2.1-3-4.8-2.9-7.7l0.8-19.4c0.1-2.5,1.1-4.8,2.7-6.6c-1.7,0.3-3.5,0.6-5.2,1c0,1.4-0.1,2.8-0.1,4.2
				c-0.1,3.9-0.1,7.9-0.2,11.9v0.1c-0.2,7.8-0.4,15.8-0.5,23.6C372,345.6,371.9,349.9,371.8,354.3z M404.9,350.8l0.8,2.2l0.4-0.1
				L404.9,350.8z M397.8,335c0.7,0.6,1.3,1.3,1.8,2c0.2-1.3,0.6-2.5,1.2-3.6l0,0C399.8,334,398.8,334.5,397.8,335z M404.4,302.5
				c0.1,0.1,0.2,0.3,0.3,0.4c1.7,2,3,4.2,3.9,6.8c0.7,2.3,1.1,4.7,1.1,7.3c0,3.7-0.9,7.1-2.8,10c-0.3,0.5-0.6,0.9-0.9,1.3
				c0.9-0.7,1.7-1.3,2.4-2c0.9-0.8,1.5-1.7,2-2.6c0.5-1,0.9-2,1.2-3.2c0.3-1.5,0.5-3.2,0.5-5.2c0-2.6-0.5-4.8-1.4-6.5
				c-1-1.9-2.3-3.5-4-4.8C406,303.5,405.2,303,404.4,302.5z"/>
		</g>
		<g>
			<path class="st0" d="M458.7,376.6c-6.4,0-12.4-1.1-17.8-3.3c-5.5-2.2-10.4-5.4-14.4-9.4c-4.1-4-7.3-8.8-9.5-14.3
				c-2.3-5.5-3.4-11.4-3.4-17.8c0-4.6,0.5-9.2,1.6-13.5c1.1-4.4,2.6-8.5,4.6-12.4s4.5-7.5,7.4-10.8c3-3.3,6.4-6.2,10.1-8.6
				c3.8-2.4,8-4.3,12.4-5.6c4.5-1.3,9.2-2,14.2-2c1.7,0,3.6,0.1,5.5,0.2c2.1,0.1,4.1,0.4,6.1,0.8c2.2,0.4,4.3,0.9,6.4,1.6
				c2.3,0.7,4.4,1.7,6.4,2.8c3.5,2,5.5,5.8,5.2,9.8l-1.2,15.9c1.3,0.5,2.4,1.2,3.4,2.2c2.1,1.9,3.2,4.6,3.3,7.4l0.6,34
				c0,2.4-0.8,4.8-2.3,6.7c-2.3,2.9-5.2,5.5-8.6,7.7c-3,1.9-6.3,3.5-9.7,4.8c-3.3,1.2-6.8,2.1-10.3,2.8
				C465.3,376.3,461.9,376.6,458.7,376.6z M463.8,300c-2.9,0-5.7,0.4-8.3,1.1s-4.9,1.8-7,3.1c-2.1,1.4-4.1,3-5.7,4.9
				c-1.7,1.9-3.2,4.1-4.4,6.4c-1.2,2.4-2.2,5-2.9,7.7c-0.7,2.8-1,5.6-1,8.6c0,3.6,0.6,6.8,1.8,9.8c1.2,2.9,2.8,5.3,4.9,7.4
				c2.1,2.1,4.5,3.7,7.5,4.8c3,1.2,6.3,1.8,10,1.8c2,0,4.2-0.2,6.4-0.6c2.3-0.4,4.5-1,6.6-1.8c2-0.7,3.9-1.7,5.7-2.8
				c0.4-0.3,0.8-0.5,1.1-0.8l-0.1-4.4c-0.7,1.4-1.6,2.6-2.8,3.6c-2.2,1.8-4.9,3.1-7.8,3.9c-2.2,0.5-4.4,0.8-6.6,0.8
				c-3.7,0-7.1-0.8-10.1-2.5c-2.8-1.5-5.2-3.5-7.1-6c-1.8-2.3-3.1-5-3.9-7.9c-0.8-2.6-1.1-5.4-1.1-8.1c0-4.4,0.9-8.5,2.6-12.1
				c1.7-3.6,4.1-6.7,7.1-9.1c2.8-2.3,6.1-4.1,9.8-5.2c3.4-1.1,7.1-1.6,10.9-1.6c0.8,0,1.6,0,2.5,0.1v-0.4c0,0,0,0-0.1,0
				c-1.3-0.2-2.7-0.4-4-0.5C466.4,300.1,465.1,300,463.8,300z M477.9,330.8c0.1,0.2,0.2,0.4,0.3,0.5v-0.6
				C478.1,330.8,478,330.8,477.9,330.8z"/>
		</g>
		<g>
			<path class="st0" d="M494.7,374.8c-2.6,0-5.2-1-7.1-2.8c-2.1-1.9-3.3-4.6-3.4-7.4l-2.1-70.7c-0.2-5.7,4.2-10.5,9.9-10.8l27.7-1.5
				c3-0.2,5.9,1,8,3.1s3.2,5,3.1,8l-3.6,71c-0.3,5.4-4.6,9.7-9.9,9.9l-22,1.1C495,374.8,494.9,374.8,494.7,374.8z M503.4,303.6
				l1.5,49.7l1.8-0.1l2.6-49.9L503.4,303.6z"/>
		</g>
	</g>
	<g>
		<g>
			<path class="st1" d="M289.3,294.4l-1.9,22c-1-0.3-2-0.5-3-0.6s-2-0.2-3-0.2c-2.5,0-4.8,0.3-7.1,0.9c-2.2,0.6-4.2,1.6-5.9,2.9
				c-1.7,1.3-3.1,2.9-4.1,4.9s-1.5,4.3-1.5,7c0,1.9,0.3,3.6,0.9,5.1c0.6,1.4,1.4,2.6,2.4,3.6c1.1,1,2.3,1.7,3.9,2.2
				c1.5,0.5,3.2,0.7,5,0.7c1.3,0,2.6-0.1,4-0.4s2.7-0.6,4.1-1.1s2.7-1,3.9-1.6c1.3-0.6,2.4-1.2,3.5-1.9l-0.8,24.5
				c-1.4,0.7-2.8,1.3-4.4,1.9c-1.6,0.5-3.2,1-4.8,1.4c-1.7,0.4-3.3,0.7-5,0.9c-1.7,0.2-3.2,0.3-4.7,0.3c-4.9,0-9.4-0.9-13.5-2.8
				c-4-1.8-7.5-4.4-10.4-7.5c-2.9-3.2-5.2-6.9-6.7-11.1c-1.6-4.2-2.4-8.7-2.4-13.4c0-5.7,0.8-11,2.4-15.9s4-9.2,7.1-12.8
				c3.1-3.6,7-6.5,11.7-8.5c4.6-2.1,10-3.1,16-3.1c2.4,0,4.8,0.2,7.3,0.6C284.7,292.7,287,293.4,289.3,294.4z"/>
		</g>
		<g>
			<path class="st1" d="M357.8,325.7c0,3.2-0.4,6.2-1.1,9.1s-1.8,5.7-3.2,8.3c-1.4,2.6-3,4.9-5,7.1c-2,2.1-4.2,4-6.6,5.5
				s-5.1,2.7-8,3.6s-5.9,1.3-9.2,1.3c-3.1,0-6.1-0.4-8.9-1.2c-2.8-0.8-5.5-1.9-7.9-3.4c-2.5-1.4-4.7-3.2-6.7-5.2s-3.7-4.3-5.1-6.8
				s-2.5-5.2-3.3-8s-1.2-5.8-1.2-8.9c0-3,0.4-6,1.1-8.9s1.8-5.6,3.2-8.2c1.4-2.6,3-4.9,5-7.1c1.9-2.2,4.1-4,6.5-5.6s5-2.8,7.8-3.6
				c2.8-0.9,5.8-1.3,8.9-1.3c5,0,9.6,0.8,13.8,2.3c4.2,1.6,7.7,3.8,10.6,6.7c2.9,2.9,5.2,6.4,6.8,10.5
				C357,316,357.8,320.6,357.8,325.7z M334.7,327c0-1.5-0.2-2.9-0.7-4.4c-0.4-1.4-1.1-2.7-1.9-3.8c-0.8-1.1-1.9-2-3.1-2.7
				s-2.6-1-4.2-1s-3.1,0.3-4.4,0.9s-2.4,1.4-3.3,2.4s-1.6,2.2-2.1,3.6s-0.7,2.8-0.7,4.4c0,1.5,0.2,2.9,0.6,4.4s1,2.8,1.9,4
				c0.8,1.2,1.9,2.1,3.1,2.9c1.2,0.7,2.7,1.1,4.3,1.1c1.6,0,3.1-0.3,4.4-1c1.3-0.6,2.4-1.5,3.3-2.6s1.6-2.4,2.1-3.8
				C334.5,330.1,334.7,328.6,334.7,327z"/>
		</g>
		<g>
			<path class="st1" d="M422.6,315.4c0,2.7-0.2,5.2-0.7,7.4c-0.5,2.2-1.2,4.2-2.2,6.1c-1,1.8-2.3,3.5-3.9,5.1
				c-1.6,1.6-3.5,3.1-5.8,4.5l12.4,22.1l-23.5,4.6l-8-22.2l-6.5,0.2l-0.9,21.7h-22.4c0.2-7.9,0.3-15.8,0.5-23.7
				c0.2-7.9,0.3-15.7,0.5-23.7c0.1-4,0.1-8,0.2-11.9s0.2-7.9,0.4-11.9c2.4-0.9,4.8-1.6,7.2-2.2c2.4-0.6,4.7-1.1,7.1-1.4
				s4.8-0.6,7.2-0.7c2.4-0.1,5-0.2,7.5-0.2c4,0,7.8,0.5,11.5,1.6s7,2.7,9.8,4.9c2.8,2.2,5.1,4.9,6.9,8.2
				C421.7,307.2,422.6,311,422.6,315.4z M399.2,317c0-1.5-0.2-2.8-0.6-4s-1-2.3-1.8-3.2s-1.8-1.6-2.9-2.1c-1.2-0.5-2.5-0.8-4.1-0.8
				c-0.7,0-1.4,0-2,0.1c-0.7,0.1-1.3,0.2-1.9,0.4l-0.8,19.4h1.3c1.5,0,3-0.2,4.6-0.6c1.5-0.4,2.9-1,4.2-1.8c1.2-0.8,2.2-1.8,3-3.1
				C398.8,320.3,399.2,318.8,399.2,317z"/>
		</g>
		<g>
			<path class="st1" d="M489.2,353.9c-1.6,2.1-3.6,3.8-6,5.4c-2.4,1.5-5,2.8-7.7,3.8s-5.6,1.8-8.4,2.3c-2.9,0.5-5.6,0.8-8.2,0.8
				c-5,0-9.7-0.9-13.9-2.6s-7.9-4.1-11-7.1s-5.5-6.7-7.2-10.9c-1.7-4.2-2.6-8.8-2.6-13.8c0-3.8,0.4-7.5,1.3-11
				c0.9-3.6,2.1-6.9,3.7-10.1c1.6-3.1,3.6-6,5.9-8.6c2.3-2.6,5-4.8,7.9-6.7c3-1.9,6.2-3.3,9.7-4.4c3.5-1,7.3-1.5,11.2-1.5
				c1.5,0,3.1,0.1,4.8,0.2s3.4,0.3,5.1,0.6c1.7,0.3,3.3,0.7,4.9,1.2c1.6,0.5,3.1,1.2,4.4,1.9l-1.5,19.9c-1.9-0.7-4-1.2-6-1.5
				c-2.1-0.3-4.1-0.4-6.1-0.4c-2.8,0-5.4,0.4-7.8,1.1c-2.4,0.7-4.5,1.9-6.3,3.3c-1.8,1.5-3.2,3.3-4.2,5.5s-1.6,4.7-1.6,7.6
				c0,1.8,0.2,3.6,0.7,5.2c0.5,1.7,1.2,3.2,2.2,4.5s2.2,2.4,3.7,3.2c1.5,0.8,3.2,1.2,5.1,1.2c1.3,0,2.7-0.2,4.1-0.5
				c1.4-0.3,2.6-0.9,3.6-1.8l0.2-4.1l-12.5-0.2l0.6-15.6c5.2-0.2,10.4-0.3,15.5-0.4c5.2-0.1,10.4-0.3,15.6-0.5L489.2,353.9z"/>
		</g>
		<g>
			<path class="st1" d="M520.3,292.2l-3.6,71l-22,1.1l-2.1-70.7L520.3,292.2z"/>
		</g>
	</g>
</g>
<g>
	<g>
		<g>
			<path class="st0" d="M316.2,409.1h-9.3c-3.9,0-7-3.1-7-7c0-1.5,0-3,0-4.5V389c0-1.4,0-2.9,0-4.5c0,0,0,0,0-0.1c0-1.6,0-3.1,0-4.7
				c0-1.8,0-3.5,0.1-5.3c0.1-3,2.1-5.5,5-6.4c2-0.6,4.1-1.1,6.1-1.4s4.2-0.5,6.3-0.5c1.4,0,2.8,0.1,4.2,0.3c1.5,0.2,3,0.6,4.3,1.2
				c1.4,0.5,2.8,1.2,4,2.1c1.4,0.9,2.7,2.1,3.7,3.4c1.1,1.3,1.9,2.9,2.5,4.5c0.6,1.7,0.9,3.6,0.9,5.5c0,2.2-0.4,4.2-1.1,6
				s-1.7,3.4-2.9,4.8c-1.2,1.3-2.6,2.4-4.1,3.3c-1.3,0.8-2.8,1.4-4.2,1.8c-0.5,0.2-1.1,0.3-1.6,0.4v2.4
				C323.2,406,320.1,409.1,316.2,409.1z M317.3,380.5c-0.2,0-0.5,0.1-0.7,0.2c-0.4,0.1-0.7,0.3-1,0.6c-0.3,0.3-0.6,0.7-0.8,1.1
				c-0.3,0.6-0.4,1.2-0.4,1.8c0,0.7,0.3,1.7,1,2.6c0.3,0,0.6-0.1,0.9-0.1c0.1,0,0.3,0,0.4,0l0.5-3.5l-0.4-1.5h0.6l0.2-1.1
				C317.4,380.5,317.4,380.5,317.3,380.5z"/>
		</g>
		<g>
			<path class="st0" d="M344.2,409.3c-1.5,0-2.9-0.5-4.1-1.4c-0.1,0-0.1,0-0.2,0c-1.8,0-3.5-0.4-5.1-1.1c-1.5-0.6-2.8-1.4-4-2.5
				c-1.1-0.9-2.1-2-3-3.3c-0.8-1.1-1.5-2.3-2-3.6c-0.5-1.2-1-2.5-1.3-3.8c-0.3-1.4-0.5-2.7-0.5-4s0-2.6,0.1-4s0.1-2.8,0.3-4.3
				c0.1-1.4,0.3-2.9,0.5-4.3c0.2-1.5,0.5-2.9,0.9-4.3c0.8-3.2,3.8-5.4,7.1-5.3c1.6,0.1,3.2,0.2,4.8,0.2c1.5,0.1,2.9,0.1,4.4,0.1
				c1.2-0.8,2.6-1.2,4.1-1.2c0.8,0,1.7,0,2.5,0.1c1.5,0,2.9,0,4.4,0c0.6,0,1.1,0,1.7-0.1c2.1-0.1,4.1,0.7,5.5,2.2s2.1,3.6,1.8,5.7
				c-0.6,4.6-1.1,9.2-1.5,13.8c-0.4,4.6-0.8,9.3-1.2,14c-0.3,3.4-3,6.1-6.5,6.4l-8.2,0.6C344.5,409.3,344.4,409.3,344.2,409.3z"/>
		</g>
		<g>
			<path class="st0" d="M365.8,409.1h-9.3c-3.9,0-7-3.1-7-7c0-1.5,0-3,0-4.5V389c0-1.5,0-2.9,0-4.5c0,0,0,0,0-0.1c0-1.6,0-3.1,0-4.7
				c0-1.7,0-3.5,0.1-5.3c0.1-3,2.1-5.5,5-6.4c2-0.6,4.1-1.1,6.1-1.4s4.2-0.5,6.3-0.5c1.4,0,2.8,0.1,4.2,0.3c1.5,0.2,3,0.6,4.3,1.2
				c1.4,0.5,2.8,1.2,4,2.1c1.4,0.9,2.7,2.1,3.7,3.4c1.1,1.3,1.9,2.9,2.5,4.5c0.6,1.7,0.9,3.6,0.9,5.5c0,2.2-0.4,4.2-1.1,6
				s-1.7,3.4-2.9,4.8c-1.2,1.3-2.6,2.4-4.1,3.3c-1.3,0.8-2.8,1.4-4.3,1.8c-0.5,0.2-1.1,0.3-1.6,0.4v2.4
				C372.8,406,369.6,409.1,365.8,409.1z M366.8,380.5c-0.2,0-0.5,0.1-0.7,0.2c-0.4,0.1-0.7,0.3-1,0.6c-0.3,0.3-0.6,0.7-0.8,1.1
				c-0.3,0.6-0.4,1.2-0.4,1.8c0,0.7,0.3,1.7,1,2.6c0.3,0,0.6-0.1,0.9-0.1c0.1,0,0.3,0,0.4,0l0.5-3.5l-0.4-1.5h0.6l0.2-1.1
				C366.9,380.5,366.9,380.5,366.8,380.5z"/>
		</g>
		<g>
			<path class="st0" d="M390.2,409.1h-9.3c-3.9,0-7-3.1-7-7c0-1.5,0-3,0-4.5V389c0-1.4,0-2.9,0-4.5c0,0,0,0,0-0.1c0-1.6,0-3.1,0-4.7
				c0-1.8,0-3.5,0.1-5.3c0.1-3,2.1-5.5,5-6.4c2-0.6,4.1-1.1,6.1-1.4s4.2-0.5,6.3-0.5c1.4,0,2.8,0.1,4.2,0.3c1.5,0.2,3,0.6,4.3,1.2
				c1.4,0.5,2.8,1.2,4,2.1c1.4,0.9,2.7,2.1,3.7,3.4c1.1,1.3,1.9,2.9,2.5,4.5c0.6,1.7,0.9,3.6,0.9,5.5c0,2.2-0.4,4.2-1.1,6
				c-0.7,1.8-1.7,3.4-2.9,4.8c-1.2,1.3-2.6,2.4-4.1,3.3c-1.3,0.8-2.8,1.4-4.2,1.8c-0.5,0.2-1.1,0.3-1.6,0.4v2.4
				C397.2,406,394.1,409.1,390.2,409.1z M391.3,380.5c-0.2,0-0.5,0.1-0.7,0.2c-0.4,0.1-0.7,0.3-1,0.6c-0.3,0.3-0.6,0.7-0.8,1.1
				c-0.3,0.6-0.4,1.2-0.4,1.8c0,0.7,0.3,1.7,1,2.6c0.3,0,0.6-0.1,0.9-0.1c0.1,0,0.3,0,0.4,0l0.5-3.5l-0.4-1.5h0.6l0.2-1.1
				C391.4,380.5,391.3,380.5,391.3,380.5z"/>
		</g>
		<g>
			<path class="st0" d="M405.9,408.4c-1.8,0-3.4-0.7-4.7-1.9c-1.4-1.3-2.2-3.1-2.3-4.9l-0.8-27.1c-0.1-3.8,2.8-7,6.6-7.2l10.6-0.6
				c2-0.1,3.9,0.6,5.3,2c1.4,1.4,2.1,3.3,2,5.3l-1.4,27.3c-0.2,3.6-3,6.4-6.6,6.6l-8.4,0.4C406.1,408.4,406,408.4,405.9,408.4z"/>
		</g>
		<g>
			<path class="st0" d="M428.6,409.3c-2.1,0-4-0.3-5.8-0.9s-3.4-1.4-4.9-2.5c-1.4-1-2.7-2.3-3.8-3.7c-1-1.3-1.9-2.8-2.5-4.4
				c-0.6-1.5-1.1-3.1-1.4-4.7c-0.3-1.6-0.5-3.2-0.5-4.9c0-1.7,0.2-3.3,0.5-5s0.8-3.4,1.4-4.9c0.7-1.7,1.5-3.2,2.5-4.7
				c1.1-1.5,2.4-2.9,3.8-4c1.5-1.2,3.3-2.2,5.2-2.8c1.9-0.7,4-1,6.2-1c1.9,0,3.8,0.3,5.5,0.8c1.7,0.6,3.3,1.4,4.6,2.4
				s2.5,2.2,3.5,3.6c0.9,1.3,1.6,2.7,2.2,4.2c0.5,1.4,0.9,2.9,1.2,4.4c0.2,1.4,0.4,2.9,0.4,4.4s-0.1,3-0.3,4.4
				c-0.3,1.9-1.2,3.5-2.6,4.6l-0.7,6.2c-0.2,1.9-1.2,3.6-2.7,4.8c-0.9,0.7-1.9,1.3-3,1.8c-1,0.4-2,0.8-3,1.1c-1,0.3-2,0.4-2.9,0.6
				C430.5,409.3,429.5,409.3,428.6,409.3z"/>
		</g>
		<g>
			<path class="st0" d="M449.4,409.1c-1.2,0-2.4-0.1-3.7-0.4c-1-0.2-2-0.5-3-0.8s-1.9-0.6-2.8-1c-0.9-0.4-1.6-0.7-2.3-1
				c-2.7-1.3-4.3-4.1-4-7.1l0.9-7.8c0.1-0.5,0.2-1,0.4-1.5c-0.1-0.2-0.2-0.4-0.2-0.5c-0.7-1.8-1.1-3.7-1.1-5.7
				c0-2.7,0.6-5.2,1.7-7.4c1.1-2.1,2.5-3.9,4.3-5.4c1.7-1.4,3.7-2.5,5.9-3.2c2.1-0.7,4.3-1.1,6.5-1.1c0.8,0,1.6,0,2.5,0.1
				s1.9,0.2,2.8,0.3c0.9,0.2,1.8,0.4,2.7,0.6c1,0.3,2,0.7,3,1.1c2.6,1.3,4.2,4,3.9,7l-0.8,8.1l0,0c0.6,0.9,1.1,2,1.5,3.1
				c0.6,1.6,0.9,3.4,0.9,5.3c0,2.9-0.5,5.5-1.6,7.7c-1.1,2.3-2.7,4.3-4.6,5.8c-1.8,1.4-3.9,2.5-6.3,3.1
				C453.9,408.8,451.7,409.1,449.4,409.1z"/>
		</g>
	</g>
	<g>
		<g>
			<path class="st2" d="M330.2,383.4c0,1.3-0.2,2.4-0.6,3.4s-0.9,1.9-1.6,2.6c-0.7,0.8-1.5,1.4-2.4,1.9s-1.9,0.9-2.9,1.3
				c-1,0.3-2.1,0.6-3.2,0.7c-1.1,0.2-2.2,0.2-3.3,0.2v8.5h-9.3c0-1.5,0-3,0-4.4s0-2.9,0-4.3s0-2.9,0-4.3s0-2.9,0-4.5s0-3.3,0-4.9
				s0-3.3,0.1-4.9c1.7-0.5,3.4-0.9,5.1-1.1c1.7-0.3,3.5-0.4,5.3-0.4c1,0,2.1,0.1,3.1,0.3c1,0.2,2,0.4,3,0.8c0.9,0.4,1.8,0.8,2.6,1.4
				c0.8,0.5,1.5,1.2,2.1,1.9s1.1,1.6,1.4,2.6C330,381.2,330.2,382.2,330.2,383.4z M321.3,384.1c0-0.9-0.3-1.5-0.8-2
				s-1.2-0.7-2.1-0.7c-0.3,0-0.6,0-0.9,0.1c-0.3,0-0.6,0.1-0.9,0.2l-0.2,5.8c0.2,0,0.4,0,0.5,0s0.4,0,0.5,0c0.5,0,0.9-0.1,1.4-0.2
				c0.4-0.2,0.8-0.4,1.2-0.7c0.3-0.3,0.6-0.7,0.8-1.1C321.2,385,321.3,384.6,321.3,384.1z"/>
		</g>
		<g>
			<path class="st2" d="M355.2,373.7c-0.6,4.7-1.1,9.4-1.5,14c-0.4,4.7-0.8,9.3-1.2,14l-8.2,0.6l0.4-3.1c-0.3,0.3-0.6,0.6-0.9,0.8
				c-0.4,0.2-0.7,0.4-1.1,0.6c-0.4,0.1-0.8,0.2-1.2,0.3c-0.4,0.1-0.8,0.1-1.2,0.1c-0.9,0-1.8-0.2-2.6-0.5c-0.8-0.3-1.5-0.8-2.2-1.4
				s-1.3-1.2-1.8-2s-1-1.5-1.4-2.4c-0.4-0.8-0.6-1.7-0.8-2.6c-0.2-0.9-0.3-1.7-0.3-2.5c0-1.2,0-2.4,0.1-3.7c0-1.3,0.1-2.6,0.3-3.9
				c0.1-1.3,0.3-2.6,0.5-3.8c0.2-1.3,0.4-2.5,0.7-3.6c1.6,0.1,3.3,0.2,4.9,0.2c1.6,0.1,3.3,0.1,4.9,0.1c-0.3,1.2-0.6,2.3-0.9,3.5
				s-0.6,2.3-0.8,3.5c-0.2,1.2-0.4,2.4-0.6,3.6c-0.1,1.2-0.2,2.4-0.2,3.6c0,0.3,0,0.7,0,1.2s0.1,1,0.2,1.5s0.3,1,0.5,1.3
				c0.2,0.4,0.6,0.6,1,0.6c0.5,0,1-0.2,1.4-0.7c0.4-0.4,0.8-1,1.1-1.8c0.3-0.7,0.6-1.6,0.8-2.5c0.2-1,0.4-2,0.6-3s0.3-2.1,0.4-3.2
				s0.2-2.1,0.2-3s0.1-1.8,0.1-2.5s0-1.3,0-1.7c0-0.3,0-0.5,0-0.8s0-0.5-0.1-0.8c0.9,0,1.7,0,2.6,0.1c0.9,0,1.7,0,2.6,0
				c0.7,0,1.3,0,2,0C353.8,373.7,354.5,373.7,355.2,373.7z"/>
		</g>
		<g>
			<path class="st2" d="M379.7,383.4c0,1.3-0.2,2.4-0.6,3.4s-0.9,1.9-1.6,2.6c-0.7,0.8-1.5,1.4-2.4,1.9s-1.9,0.9-2.9,1.3
				c-1,0.3-2.1,0.6-3.2,0.7c-1.1,0.2-2.2,0.2-3.3,0.2v8.5h-9.3c0-1.5,0-3,0-4.4s0-2.9,0-4.3s0-2.9,0-4.3s0-2.9,0-4.5s0-3.3,0-4.9
				s0-3.3,0.1-4.9c1.7-0.5,3.4-0.9,5.1-1.1c1.7-0.3,3.5-0.4,5.3-0.4c1,0,2.1,0.1,3.1,0.3c1,0.2,2,0.4,3,0.8c0.9,0.4,1.8,0.8,2.6,1.4
				c0.8,0.5,1.5,1.2,2.1,1.9c0.6,0.7,1.1,1.6,1.4,2.6C379.5,381.2,379.7,382.2,379.7,383.4z M370.8,384.1c0-0.9-0.3-1.5-0.8-2
				s-1.2-0.7-2.1-0.7c-0.3,0-0.6,0-0.9,0.1c-0.3,0-0.6,0.1-0.9,0.2l-0.2,5.8c0.2,0,0.4,0,0.5,0c0.2,0,0.4,0,0.5,0
				c0.5,0,0.9-0.1,1.4-0.2c0.4-0.2,0.8-0.4,1.2-0.7c0.3-0.3,0.6-0.7,0.8-1.1C370.7,385,370.8,384.6,370.8,384.1z"/>
		</g>
		<g>
			<path class="st2" d="M404.2,383.4c0,1.3-0.2,2.4-0.6,3.4s-0.9,1.9-1.6,2.6c-0.7,0.8-1.5,1.4-2.4,1.9s-1.9,0.9-2.9,1.3
				c-1,0.3-2.1,0.6-3.2,0.7c-1.1,0.2-2.2,0.2-3.3,0.2v8.5h-9.3c0-1.5,0-3,0-4.4s0-2.9,0-4.3s0-2.9,0-4.3s0-2.9,0-4.5s0-3.3,0-4.9
				s0-3.3,0.1-4.9c1.7-0.5,3.4-0.9,5.1-1.1c1.7-0.3,3.5-0.4,5.3-0.4c1,0,2.1,0.1,3.1,0.3c1,0.2,2,0.4,3,0.8c0.9,0.4,1.8,0.8,2.6,1.4
				c0.8,0.5,1.5,1.2,2.1,1.9c0.6,0.7,1.1,1.6,1.4,2.6C404,381.2,404.2,382.2,404.2,383.4z M395.3,384.1c0-0.9-0.3-1.5-0.8-2
				s-1.2-0.7-2.1-0.7c-0.3,0-0.6,0-0.9,0.1c-0.3,0-0.6,0.1-0.9,0.2l-0.2,5.8c0.2,0,0.4,0,0.5,0s0.4,0,0.5,0c0.5,0,0.9-0.1,1.4-0.2
				c0.4-0.2,0.8-0.4,1.2-0.7c0.3-0.3,0.6-0.7,0.8-1.1C395.2,385,395.3,384.6,395.3,384.1z"/>
		</g>
		<g>
			<path class="st2" d="M415.7,373.7l-1.4,27.3l-8.4,0.4l-0.8-27.1L415.7,373.7z"/>
		</g>
		<g>
			<path class="st2" d="M439.7,385.7c0,1.2-0.1,2.3-0.2,3.5c-2.3,0.1-4.6,0.4-6.8,0.7c-2.3,0.3-4.5,0.7-6.8,1c0.3,1,0.9,1.7,1.6,2.3
				c0.7,0.6,1.6,0.9,2.7,0.9c0.5,0,1.1-0.1,1.8-0.3c0.6-0.2,1.3-0.5,1.9-0.8c0.6-0.3,1.2-0.6,1.8-1c0.6-0.3,1.1-0.7,1.5-0.9l-1,9.1
				c-0.5,0.4-1.1,0.7-1.7,1s-1.2,0.5-1.9,0.7s-1.3,0.3-2,0.4s-1.3,0.1-2,0.1c-1.3,0-2.5-0.2-3.6-0.5c-1.1-0.4-2.1-0.9-3-1.5
				s-1.7-1.4-2.3-2.3c-0.7-0.9-1.2-1.8-1.7-2.9c-0.4-1-0.8-2.1-1-3.3c-0.2-1.2-0.3-2.3-0.3-3.5s0.1-2.5,0.3-3.7s0.6-2.4,1-3.6
				c0.5-1.1,1-2.2,1.7-3.2s1.5-1.8,2.5-2.6c0.9-0.7,2-1.3,3.2-1.7c1.2-0.4,2.5-0.6,3.9-0.6c1.2,0,2.3,0.2,3.3,0.5s1.9,0.8,2.6,1.4
				c0.8,0.6,1.4,1.3,2,2.1c0.6,0.8,1,1.7,1.4,2.6c0.4,1,0.6,2,0.8,3C439.6,383.5,439.7,384.6,439.7,385.7z M431.7,384.6
				c0-0.4,0-0.8-0.1-1.2c-0.1-0.4-0.2-0.8-0.4-1.1c-0.2-0.3-0.4-0.6-0.7-0.8c-0.3-0.2-0.7-0.3-1.1-0.3c-0.5,0-1,0.1-1.4,0.4
				s-0.8,0.6-1.1,1.1c-0.3,0.4-0.5,0.9-0.7,1.4s-0.3,1-0.4,1.4l5.9-0.6V384.6z"/>
		</g>
		<g>
			<path class="st2" d="M461.5,391.6c0,1.8-0.3,3.4-1,4.7c-0.6,1.3-1.5,2.4-2.6,3.3s-2.4,1.5-3.9,1.9s-3.1,0.6-4.8,0.6
				c-0.7,0-1.4-0.1-2.2-0.3c-0.8-0.2-1.6-0.4-2.4-0.7c-0.8-0.3-1.6-0.5-2.3-0.8s-1.4-0.6-2-0.9l0.9-7.8c1.1,0.7,2.4,1.2,3.8,1.6
				c1.4,0.4,2.7,0.5,4.1,0.5c0.3,0,0.6,0,0.9,0c0.4,0,0.7-0.1,1-0.2s0.6-0.3,0.8-0.5s0.3-0.5,0.3-0.9c0-0.3-0.1-0.5-0.2-0.7
				c-0.2-0.2-0.4-0.3-0.6-0.4c-0.3-0.1-0.5-0.2-0.9-0.3c-0.3-0.1-0.6-0.1-0.9-0.1c-0.3,0-0.6,0-0.9,0s-0.5,0-0.6,0
				c-1.1,0-2.2-0.2-3.1-0.5c-0.9-0.4-1.7-0.9-2.4-1.5c-0.7-0.7-1.2-1.5-1.6-2.4c-0.4-0.9-0.6-2-0.6-3.1c0-1.6,0.3-3,1-4.2
				c0.6-1.2,1.5-2.3,2.5-3.2c1.1-0.9,2.3-1.5,3.7-2s2.8-0.7,4.3-0.7c0.7,0,1.3,0,2,0.1c0.7,0,1.4,0.1,2.1,0.3c0.7,0.1,1.4,0.3,2,0.5
				c0.7,0.2,1.3,0.4,1.9,0.7l-0.8,8.1c-0.9-0.3-1.9-0.6-2.9-0.8c-1-0.2-2-0.3-2.9-0.3c-0.2,0-0.4,0-0.7,0s-0.6,0-0.9,0.1
				c-0.3,0-0.6,0.1-0.9,0.2c-0.3,0.1-0.6,0.2-0.8,0.3c-0.2,0.1-0.4,0.3-0.6,0.5c-0.1,0.2-0.2,0.4-0.2,0.7c0,0.3,0.1,0.5,0.3,0.7
				s0.5,0.3,0.8,0.4s0.7,0.1,1.1,0.1s0.8,0,1.2,0s0.7,0,1.1-0.1c0.3,0,0.6,0,0.8,0c1.1,0.1,2,0.3,2.9,0.7c0.9,0.4,1.6,0.9,2.2,1.5
				c0.6,0.6,1,1.4,1.4,2.3C461.4,389.6,461.5,390.5,461.5,391.6z"/>
		</g>
	</g>
</g>
<g>
	<g>
		<path class="st3" d="M279.9,285.3c27.1-6.7,62.8-10.8,102-10.8c41.2,0,78.7,4.5,106.2,11.9C517,259,535,220.2,535,177.2
			c0-83.1-67.4-150.5-150.5-150.5S234,94.1,234,177.2C234.1,219.6,251.7,258,279.9,285.3z"/>
	</g>
	<g>
		<path class="st4" d="M298.1,267L298.1,267l-0.3-0.1C298,266.9,298.1,266.9,298.1,267z"/>
	</g>
	<g>
		<path class="st2" d="M285.2,264.4L285.2,264.4c-3.2-4.1-5.2-8.2-6.1-10.1c-3.6,0.2-7.7,0.6-9.8,1.1c-7.6,1.7-14,5.5-17.9,10.9
			c-1.8,2.5-3.1,5.3-3.7,8.2C252.9,266.8,263.4,259.3,285.2,264.4z"/>
	</g>
	<g>
		<path class="st2" d="M489.9,254.4C489.9,254.4,489.9,254.5,489.9,254.4c-0.8,3.3-2,6.5-3.5,9.5c20.1-4,30.1,3.2,35,10.6
			c-0.6-2.9-1.8-5.7-3.7-8.2c-3.9-5.3-10.2-9.2-17.9-10.9C496.6,254.7,493.3,254.4,489.9,254.4z"/>
	</g>
	<g>
		<path class="st5" d="M492.5,203c-0.1,0.1-0.1,0.2-0.2,0.3c0.1,0.1,0.2,0.1,0.3,0.2C492.6,203.3,492.6,203.2,492.5,203z"/>
	</g>
	<g>
		<path class="st6" d="M489.9,254.4C489.9,254.4,489.9,254.5,489.9,254.4C489.9,254.5,489.9,254.4,489.9,254.4L489.9,254.4z"/>
	</g>
	<g>
		<path class="st7" d="M272.1,292.5c11.1,0.3,13.2-8.6,12.7-14.2c0,0,1.7,9.1,8.4,8.3c6.6-0.8,9.2-6.6,9.1-9.7c0,0-10.8-5.8-17-12.5
			c-21.8-5.2-32.3,2.4-37.4,10.1c-0.4,1.9-0.5,3.9-0.4,5.9c0-0.2,0-0.4,0-0.4s0.6,7.2,4.8,7.7c3.4,0.5,5.1-1.8,5.9-4.5
			c0.4-3.2,1.5-7.1,3.7-11.4c0,0-1,3.3-1.1,7.7C261.3,283.1,263.2,292.3,272.1,292.5z"/>
	</g>
	<g>
		<path class="st7" d="M486.4,263.9c-2.6,5-6.3,9.6-11.6,13.5c-2.1,1.5-4.2,3-6.5,4.3c1.4,2.3,3.9,4.4,7.7,4.9
			c6.6,0.8,8.4-8.3,8.4-8.3c-0.5,5.6,1.6,14.5,12.7,14.2c8.9-0.2,10.8-9.4,11.2-13c-0.1-4.3-1.1-7.7-1.1-7.7
			c2.3,4.4,3.4,8.2,3.7,11.4c0.8,2.7,2.6,5,5.9,4.5c4.3-0.6,4.8-7.7,4.8-7.7s0,0.1,0,0.4c0.2-2,0-4-0.4-5.9
			C516.5,267.1,506.5,259.8,486.4,263.9z"/>
	</g>
	<g>
		<path class="st8" d="M516.8,287.8c-3.4,0.5-5.1-1.8-5.9-4.5c0.6,5.6-0.8,9.5-1.9,11.5c0.7-0.2,1.3-0.3,1.9-0.5
			c5.8-1.9,9.1-5.5,10.3-10.9c0.2-1,0.3-1.9,0.4-2.9c0-0.2,0-0.4,0-0.4S521.1,287.2,516.8,287.8z"/>
	</g>
	<g>
		<path class="st8" d="M497.1,292.5c-11.1,0.3-13.2-8.6-12.7-14.2c0,0-1.7,9.1-8.4,8.3c-3.8-0.4-6.3-2.6-7.7-4.9
			c-0.7,0.4-1.4,0.9-2.2,1.3c2.8,4.2,7.9,7.2,16,9.6c-0.3-2.5-0.4-6,0.9-9.5c0,0,0.6,9.1,5.6,11.2c4.4,1,8.6,1.4,12.4,1.4
			c6.1-3.9,7.4-10.8,7.2-16.2C507.9,283.1,506,292.3,497.1,292.5z"/>
	</g>
	<g>
		<path class="st8" d="M285.2,264.4L285.2,264.4c6.3,6.7,17,12.5,17,12.5c0.1,3-2.5,8.9-9.1,9.7c-6.6,0.8-8.4-8.3-8.4-8.3
			c0.5,5.6-1.6,14.5-12.7,14.2c-8.9-0.2-10.8-9.4-11.2-13c-0.1,5.4,1.1,12.2,7.2,16.2c3.8,0,8-0.4,12.4-1.4
			c5.1-2.1,5.6-11.2,5.6-11.2c1.2,3.5,1.2,6.9,0.9,9.4c12.8-4.3,18.4-11.5,18.8-20.4c-2.7-1.6-5.2-3.3-7.7-5.1c-0.1,0-0.2,0-0.3-0.1
			L285.2,264.4z"/>
	</g>
	<g>
		<path class="st8" d="M252.3,287.8c-4.3-0.6-4.8-7.7-4.8-7.7s0,0.1,0,0.4c0.1,1,0.2,1.9,0.4,2.9c1.2,5.4,4.6,9,10.3,10.9
			c0.6,0.2,1.3,0.4,1.9,0.5c-1.1-2-2.5-5.9-1.9-11.5C257.5,285.9,255.7,288.2,252.3,287.8z"/>
	</g>
	<g>
		<path class="st6" d="M297.9,266.9l0.3,0.1c-5.5-4-10.5-8.2-15-12.8c-1.2,0-2.5,0.1-4,0.1c0.9,2,2.9,6,6.1,10.1L297.9,266.9z"/>
	</g>
	<g>
		<path class="st2" d="M473.8,256.5c-0.4,0.2-0.8,0.4-1.3,0.5l0,0C472.6,257,473,256.9,473.8,256.5z"/>
	</g>
	<g>
		<path class="st2" d="M516.6,103.8c-0.5-5.7-2.5-22.4-7.6-24.9c-6.1-3.1-32.5,10.8-37.8,13.2c-11.5,5.3-21.3,17.1-32.8,17.3
			s-21.9-7.5-35.5-10.2c-13.7-2.4-26.2,1-36.8-3.3c-10.6-4.3-15.5-18.9-24.3-28c-4-4.1-23.6-26.7-30.4-26
			c-5.7,0.6-13.5,15.4-16.1,20.5c-3,8.5-5.5,18.5-7,29.2c-1.2,8-2.1,18-2,29.4c0.1-1.1,0.2-1.7,0.2-1.7c6.4,1.4,9-9.1,9.7-12.4
			c1.2-9.9,3.6-18.2,5.8-24.5c3.1-8.5,6.5-14.7,8.5-17.9c-3.3-2.8-5.6-4.3-5.7-4.3c0,0,19.6-1.8,35.7,31.5c0.3,0.6,2.9,5.4-3,9.1
			c-0.5,0.3-1,0.5-1.5,0.8c-13.8,7.4-24.7,19.3-33,35.9c-5.8,13.6-7,24.4-9.2,31.3c-2.8,8.7-7.4,14.9-10.9,31.6
			c-3.5,16.6-1.9,20.9-1.8,21c2,1.6,4.7,2.8,8.2,3.5c15,3,35.6-26.1,57.5-26.1c21.9-0.1,26.9-9.2,28.4-21.5s1.5-25.1,17.4-22.4
			c15.8,3.1,11.2,15.1,8.1,27.1c-3,12-1.6,22.4,18.8,30.3c20.4,7.9,29.1,42.5,44.2,45.1c3.5,0.6,6.4,0.4,8.9-0.3
			c0,0,3.1-3.4,5.8-20.2s0.7-24.3,1.2-33.4c0.4-7.2,3.2-17.7,2.7-32.5c-1.7-18.5-7.6-33.5-17.8-45.4c-0.4-0.4-0.8-0.8-1.1-1.3
			c-4.1-5.5,0.1-9.1,0.5-9.5c27.1-25.3,44.7-16.5,44.7-16.5c-0.1,0-2.7,0.5-6.9,2c0.7,3.8,1.7,10.7,1.5,19.8c-0.1,6.7-1,15.3-3.4,25
			c-0.6,3.3-1.9,14.1,4.5,15.1c0,0-0.2,0.6-0.5,1.6c4.2-10.6,6.9-20.3,8.7-28.2C515,123.1,516.3,112.9,516.6,103.8z M339.3,126.1
			c11-1.7,17.1,4.7,17.6,9.6c0.6,5-6.9,4.3-15.9,5.3c-9,1.1-16.1,3.5-16.7-1.5C323.9,134.6,330.4,127.4,339.3,126.1z M360.9,177.2
			c-18.3-13.3-35.6-3.8-42.7,1.4c-2.2,1.6-2.6,0.9-1-1.8c3.5-5.9,11.1-15.4,23.3-15.7c14.7-0.4,20.3,8.5,22.4,14.1
			C363.8,177.8,362,178,360.9,177.2z M453.2,203.8c-4.7-7.4-17.4-22.5-39.3-16.7c-1.2,0.3-2.9-0.5-1.1-2.6c3.9-4.5,12.4-10.8,26-5.1
			c11.3,4.7,14.9,16.3,16,23.1C455.3,205.5,454.6,206,453.2,203.8z M461.5,165.1c-2.3,4.4-8.1-0.4-16.1-4.7
			c-8-4.2-15.2-6.3-12.9-10.7s10.3-8.1,19.9-2.6C460.3,151.7,463.8,160.7,461.5,165.1z"/>
	</g>
	<g>
		<path class="st2" d="M280,220.3c0.6,0.6,0.9,0.9,1,1l0,0C280.7,221,280.4,220.6,280,220.3z"/>
	</g>
	<g>
		<path class="st7" d="M452.5,147.2c-9.7-5.5-17.6-1.8-19.9,2.6c-2.3,4.4,4.9,6.5,12.9,10.7s13.7,9.1,16.1,4.7
			C463.8,160.7,460.3,151.7,452.5,147.2z"/>
	</g>
	<g>
		<path class="st9" d="M493.2,108.4c-2.3-1-15.1,10-14.9,12.7c0.3,2.7,9.5,14.3,10.4,35.3v0.1c5.6-14.3,7.2-27.2,7.4-36.3
			c0.1-2.6,0-5-0.1-7.2C495.5,111.1,494.5,108.9,493.2,108.4z"/>
	</g>
	<g>
		<path class="st6" d="M479.6,203.4c-0.5,9.1,1.5,16.6-1.2,33.4s-5.8,20.2-5.8,20.2l0,0c0.4-0.2,0.9-0.3,1.3-0.5
			c1.9-0.9,5.5-3.1,8.4-7.5c1.5-8.5,1.1-18.3,0.6-29.3c-0.4-8.7-0.8-17.8-0.2-27.2c0.5-7.7,0.4-14.9-0.2-21.6
			C482.7,185.7,480,196.2,479.6,203.4z"/>
	</g>
	<g>
		<path class="st6" d="M499.8,145.1c-1.9,7.5-4.7,15.6-9,24c0.6,5.8,0.9,11.9,0.7,18.2c5.1-8.7,9.2-17.4,12.4-25.5
			c0.3-1,0.5-1.6,0.5-1.6C497.9,159.1,499.2,148.4,499.8,145.1z"/>
	</g>
	<g>
		<path class="st10" d="M478.4,121.1c-0.3-2.7,12.5-13.7,14.9-12.7c1.3,0.5,2.3,2.7,2.9,4.6c-0.2-4.2-0.6-7.7-1-10.1
			c-6.9,3.1-15.5,8.2-23,16.2c-0.3,0.3-0.6,1.4-0.5,1.6c8.3,9.9,14,21.8,17.1,35.7C487.9,135.4,478.7,123.8,478.4,121.1z"/>
	</g>
	<g>
		<path class="st7" d="M369.4,278.7c0,0,73.9,16.5,103.1-21.7l0,0l0,0l0,0c-2.4,0.7-5.4,1-8.9,0.3c-15.1-2.6-23.8-37.1-44.2-45.1
			c-20.4-7.9-21.8-18.3-18.8-30.3s7.6-24-8.1-27.1c-15.8-2.8-15.9,10.1-17.4,22.4c-1.5,12.3-6.6,21.4-28.4,21.5
			c-21.9,0.1-42.5,29.1-57.5,26.1c-3.5-0.7-6.1-2-8.2-3.5l0,0C294.5,267.5,369.4,278.7,369.4,278.7z M330.5,231.3
			c1.5-8.5,8.4-13.6,8.4-13.6l0,0c0,0.1-9.2,22.5,6.9,31.4c10.5,5.8,21.1,0.4,25.4-2.6l0.1-0.7l-0.7-4
			c-18.6-8.6-12.9-26.3-12.9-26.3c0,0.1,0,0.2,0,0.2c2.1-9.6,11.9-6.5,24.2-4.2c12.4,2.3,22.6,2.9,21.1,12.6c0-0.1,0.1-0.2,0.1-0.2
			s-1.1,18.6-21.6,19.9l-2.1,3.5l-0.1,0.7c3,4.4,11,13.2,22.8,11.6c18.2-2.5,17.7-26.8,17.7-26.8l0,0c0,0,4.5,7.3,2.9,15.7
			c-0.4,2.2-1.1,4.3-1.9,6.1l0,0c0,0-0.1,0.1-0.2,0.4c-0.7,1.5-1.6,2.9-2.6,4.2c-3.6,4.7-10.9,11.3-23.3,9.4
			c-16.1-2.4-14.7-5.4-22.2-6.8s-7.3,1.9-23.1-1.7c-12.2-2.7-16.7-11.5-18.3-17.2c-0.5-1.5-0.8-3.1-0.9-4.8c0-0.3,0-0.4,0-0.4l0,0
			C330,235.7,330.1,233.6,330.5,231.3z"/>
	</g>
	<g>
		<path class="st7" d="M281,221.3L281,221.3L281,221.3L281,221.3z"/>
	</g>
	<g>
		<path class="st7" d="M341.1,141c9-1.1,16.4-0.4,15.9-5.3c-0.6-5-6.6-11.3-17.6-9.6c-8.9,1.4-15.5,8.5-14.9,13.5
			C325.1,144.5,332.2,142.1,341.1,141z"/>
	</g>
	<g>
		<path class="st9" d="M324.6,92.4c1.2-2.4-6.8-17.3-9.3-17.2c-1.4,0-3.1,1.7-4.4,3.2c-0.9,2-1.8,4.2-2.7,6.7
			c-3.1,8.6-6.3,21.2-6.2,36.6c0,0,0-0.1,0.1-0.1C310.5,102.3,323.4,94.8,324.6,92.4z"/>
	</g>
	<g>
		<path class="st8" d="M380.5,241.9l-1,5.5l2.1-3.5c20.5-1.3,21.6-19.9,21.6-19.9c0,0.1-0.1,0.2-0.1,0.2c0,0.2,0,0.3-0.1,0.5
			C401.2,233.9,391.5,241.7,380.5,241.9z"/>
	</g>
	<g>
		<path class="st8" d="M357.6,216.3c0-0.2,0.1-0.3,0.1-0.5c0-0.1,0-0.2,0-0.2s-5.7,17.7,12.9,26.3l0.7,4l1-5.5
			C362.1,236.3,355.9,225.4,357.6,216.3z"/>
	</g>
	<g>
		<path class="st8" d="M473.8,256.5c-0.7,0.3-1.2,0.5-1.3,0.5l0,0c-29.2,38.2-103.1,21.7-103.1,21.7s-74.9-11.3-88.3-57.4l0,0
			c-0.1,0-0.4-0.4-1-1c-2.9-3-4.5-6.3-5.2-9.2c-1.5,8.2-0.6,16,4.2,23.7c15.7,24.9,47.3,43,89.1,50.8c41.7,7.8,77.8,2.4,101.4-15.2
			c7.5-5.6,11.1-12.8,12.6-21.3C479.3,253.4,475.7,255.6,473.8,256.5z"/>
	</g>
	<g>
		<path class="st8" d="M330.1,237.7c0,0,0,0.1,0,0.4C330.1,238,330.1,237.9,330.1,237.7L330.1,237.7z"/>
	</g>
	<g>
		<path class="st8" d="M420.8,254.7L420.8,254.7c-0.1,0.1-0.1,0.2-0.2,0.4C420.7,254.8,420.8,254.7,420.8,254.7z"/>
	</g>
	<g>
		<path class="st8" d="M402.4,266.9c-3.6,0.4-6.8,0.2-9.6-0.3c-3.8-0.7-6.8-2.1-9.3-3.7l0,0c0,0-6-4.3-10.2-5.1
			c-4.2-0.8-11.3,1-11.3,1l0,0c-2.9,0.6-6.3,0.8-10,0.1c-2.8-0.5-5.8-1.5-9-3.1c-6-3-10.1-7.3-11.8-12.8c1.6,5.7,6.1,14.4,18.3,17.2
			c15.8,3.6,15.7,0.3,23.1,1.7c7.5,1.4,6.1,4.4,22.2,6.8c12.4,1.8,19.7-4.7,23.3-9.4C414.4,263.7,409,266.2,402.4,266.9z"/>
	</g>
	<g>
		<path class="st6" d="M286.3,119.4c0,0-0.1,0.6-0.2,1.7c0.1,8.7,0.7,18.2,2.3,28.2c2.1-6,4.6-11.6,7.2-16.7
			c-0.9-9.3-0.6-17.9,0.3-25.6C295.3,110.3,292.7,120.8,286.3,119.4z"/>
	</g>
	<g>
		<path class="st6" d="M280,220.3c0.3,0.3,0.7,0.6,1,1l0,0l0,0c0,0-1.7-4.3,1.8-21s8.1-22.9,10.9-31.6c2.2-6.9,3.4-17.7,9.2-31.3
			c-3,6.1-5.7,12.7-8,20.1c-2.9,9-6.5,17.2-10,25.2c-4.6,10.4-8.6,19.6-10.2,28.3C275.6,214,277.1,217.4,280,220.3z"/>
	</g>
	<g>
		<path class="st10" d="M331,94.4c0.2-0.1,0.3-1.2,0.2-1.7c-4.1-10.1-10.3-18-15.6-23.4c-1.2,2.1-2.9,5.2-4.6,9
			c1.3-1.5,3-3.2,4.4-3.2c2.5-0.1,10.5,14.8,9.3,17.2c-1.2,2.4-14,9.9-22.4,29.2C310.1,109.8,319.7,100.7,331,94.4z"/>
	</g>
	<g>
		<path class="st11" d="M311.3,42c6.8-0.7,26.4,21.8,30.4,26c8.8,9.1,13.7,23.7,24.3,28c10.6,4.3,23.1,0.9,36.8,3.3
			c13.7,2.8,24.1,10.4,35.5,10.2c11.5-0.2,21.3-12.1,32.8-17.3c5.2-2.4,31.6-16.4,37.8-13.2c5.1,2.6,7.1,19.2,7.6,24.9
			c0.2-8.2-0.4-15.4-1.9-21c-1.2-4.6-3.1-7.8-4.9-8.6c-1.9-0.9-10.2-2.5-37.1,12.3c-10,5.5-19.3,11.5-24.4,14.9
			c-8.8,5.8-14.1,2.7-17.3,1.5c-8.1-3.2-17.2-5.7-27.3-7.6c-10.1-1.9-19.5-2.8-28.2-2.8c-3.4,0-9.4,1-15.6-7.6
			c-3.6-5.1-10-14-17.4-22.7c-19.7-23.5-28-25-30.1-24.9c-2,0.1-4.9,2.5-7.7,6.3c-3.5,4.7-6.7,11.2-9.4,18.9
			C297.8,57.4,305.7,42.6,311.3,42z"/>
	</g>
	<g>
		<path class="st12" d="M438.8,179.5c-13.6-5.7-22,0.6-26,5.1c-1.8,2.1-0.1,2.9,1.1,2.6c21.9-5.8,34.6,9.3,39.3,16.7
			c1.4,2.3,2.1,1.8,1.6-1.3C453.6,195.8,450,184.2,438.8,179.5z"/>
	</g>
	<g>
		<path class="st12" d="M330.1,238.1c0.1,1.7,0.4,3.3,0.9,4.8c1.8,5.5,5.9,9.8,11.8,12.8c3.2,1.6,6.2,2.6,9,3.1
			c3.8,0.7,7.1,0.5,10-0.1l0,0c0,0,7.2-1.8,11.3-1c4.2,0.8,10.2,5.1,10.2,5.1l0,0c2.5,1.6,5.6,3,9.3,3.7c2.8,0.5,6,0.7,9.6,0.3
			c6.6-0.6,12-3.2,15.7-7.7c1-1.2,1.9-2.6,2.6-4.2c0.1-0.1,0.1-0.2,0.2-0.4c0.8-1.8,1.5-3.9,1.9-6.1c1.7-8.5-2.9-15.7-2.9-15.7l0,0
			c0,0.1,0.5,24.3-17.7,26.8c-11.8,1.6-19.8-7.2-22.8-11.6l0.1-0.7l1-5.5c11-0.1,20.8-8,22.5-17.1c0-0.2,0.1-0.3,0.1-0.5
			c1.5-9.7-8.7-10.4-21.1-12.6c-12.4-2.3-22.1-5.4-24.2,4.2c0,0.2-0.1,0.3-0.1,0.5c-1.7,9.1,4.6,19.9,14.8,24l-1,5.5l-0.1,0.7
			c-4.3,3-15,8.4-25.4,2.6c-16.1-8.9-6.9-31.4-6.9-31.4l0,0c0,0-6.9,5.1-8.4,13.6c-0.4,2.3-0.5,4.4-0.4,6.4
			C330.1,237.9,330.1,238,330.1,238.1z"/>
	</g>
	<g>
		<path class="st12" d="M340.5,161.1c-12.2,0.4-19.8,9.9-23.3,15.7c-1.6,2.6-1.1,3.3,1,1.8c7.1-5.2,24.3-14.7,42.7-1.4
			c1,0.7,2.9,0.6,1.9-2C360.8,169.6,355.2,160.7,340.5,161.1z"/>
	</g>
	<g>
		<path class="st4" d="M511,294.2c5.8-1.9,9.1-5.5,10.3-10.9c0.2-1,0.3-1.9,0.4-2.9c0.2-2,0-4-0.4-5.9c-0.6-2.9-1.8-5.7-3.7-8.2
			c-3.9-5.3-10.2-9.2-17.9-10.9c-3.2-0.7-6.5-1-9.9-0.9l0,0l0,0c-0.8,3.3-2,6.4-3.5,9.4c-2.6,5-6.3,9.6-11.6,13.5
			c-2.1,1.5-4.2,3-6.5,4.3c-0.7,0.4-1.4,0.9-2.2,1.3c2.8,4.2,7.9,7.2,16,9.6c-0.3-2.5-0.4-6,0.9-9.5c0,0,0.6,9.1,5.6,11.2
			c4.4,1,8.6,1.4,12.4,1.4c6.1-3.9,7.4-10.8,7.2-16.2c-0.1-4.3-1.1-7.7-1.1-7.7c2.3,4.4,3.4,8.2,3.7,11.4c0.6,5.6-0.8,9.5-1.9,11.5
			C509.7,294.6,510.4,294.4,511,294.2z"/>
	</g>
	<g>
		<path class="st4" d="M331,94.4c0.2-0.1,0.3-1.2,0.2-1.7c-4.1-10.1-10.3-18-15.6-23.4c-1.2,2.1-2.9,5.2-4.6,9
			c-0.9,2-1.8,4.2-2.7,6.7c-3.1,8.6-6.3,21.2-6.2,36.6c0,0,0-0.1,0.1-0.1C310.1,109.8,319.7,100.7,331,94.4z"/>
	</g>
	<g>
		<path class="st4" d="M305.8,272c-2.7-1.6-5.2-3.3-7.7-5.1l0,0c-5.5-4-10.5-8.2-15-12.8c-1.2,0-2.5,0.1-4,0.1
			c-3.6,0.2-7.7,0.6-9.8,1.1c-7.6,1.7-14,5.5-17.9,10.9c-1.8,2.5-3.1,5.3-3.7,8.2c-0.4,1.9-0.5,3.9-0.4,5.9c0.1,1,0.2,1.9,0.4,2.9
			c1.2,5.4,4.6,9,10.3,10.9c0.6,0.2,1.3,0.4,1.9,0.5c-1.1-2-2.5-5.9-1.9-11.5c0.4-3.2,1.5-7.1,3.7-11.4c0,0-1,3.3-1.1,7.7
			c-0.1,5.4,1.1,12.2,7.2,16.2c3.8,0,8-0.4,12.4-1.4c5.1-2.1,5.6-11.2,5.6-11.2c1.2,3.5,1.2,6.9,0.9,9.4
			C299.9,288.2,305.4,281,305.8,272z"/>
	</g>
	<g>
		<path class="st4" d="M285,182.8c-4.6,10.4-8.6,19.6-10.2,28.3c-1.5,8.2-0.6,16,4.2,23.7c15.7,24.9,47.3,43,89.1,50.8
			c41.7,7.8,77.8,2.4,101.4-15.2c7.5-5.6,11.1-12.8,12.6-21.3c1.5-8.5,1.1-18.3,0.6-29.3c-0.4-8.7-0.8-17.8-0.2-27.2
			c0.5-7.7,0.4-14.9-0.2-21.6c-1.7-18.5-7.6-33.5-17.8-45.4c-0.4-0.4-0.8-0.8-1.1-1.3c-4.1-5.5,0.1-9.1,0.5-9.5
			c27.1-25.3,44.7-16.5,44.7-16.5c-0.1,0-2.7,0.5-6.9,2c0.7,3.8,1.7,10.7,1.5,19.8c-0.1,6.7-1,15.3-3.4,25c-1.9,7.5-4.7,15.6-9,24
			c0.6,5.8,0.9,11.9,0.7,18.2c5.1-8.7,9.2-17.4,12.4-25.5c4.2-10.6,6.9-20.3,8.7-28.2c2.4-10.5,3.7-20.7,4-29.7
			c0.2-8.2-0.4-15.4-1.9-21c-1.2-4.6-3.1-7.8-4.9-8.6c-1.9-0.9-10.2-2.5-37.1,12.3c-10,5.5-19.3,11.5-24.4,14.9
			c-8.8,5.8-14.1,2.7-17.3,1.5c-8.1-3.2-17.2-5.7-27.3-7.6c-10.1-1.9-19.5-2.8-28.2-2.8c-3.4,0-9.4,1-15.6-7.6
			c-3.6-5.1-10-14-17.4-22.7c-19.7-23.5-28-25-30.1-24.9c-2,0.1-4.9,2.5-7.7,6.3c-3.5,4.7-6.7,11.2-9.4,18.9c-3,8.5-5.5,18.5-7,29.2
			c-1.2,8-2.1,18-2,29.4c0.1,8.7,0.7,18.2,2.3,28.2c2.1-6,4.6-11.6,7.2-16.7c-0.9-9.3-0.6-17.9,0.3-25.6c1.2-9.9,3.6-18.2,5.8-24.5
			c3.1-8.5,6.5-14.7,8.5-17.9c-3.3-2.8-5.6-4.3-5.7-4.3c0,0,19.6-1.8,35.7,31.5c0.3,0.6,2.9,5.4-3,9.1c-0.5,0.3-1,0.5-1.5,0.8
			c-13.8,7.4-24.7,19.3-33,35.9c-3,6.1-5.7,12.7-8,20.1C292.1,166.5,288.5,174.8,285,182.8z"/>
	</g>
	<g>
		<path class="st4" d="M496.2,120.2c0.1-2.6,0-5-0.1-7.2c-0.2-4.2-0.6-7.7-1-10.1c-6.9,3.1-15.5,8.2-23,16.2
			c-0.3,0.3-0.6,1.4-0.5,1.6c8.3,9.9,14,21.8,17.1,35.7v0.1C494.4,142.3,496,129.3,496.2,120.2z"/>
	</g>
	<g>
		<path class="st12" d="M278.1,142.1c0.9,7.7,2.3,15.8,4.4,24.2c-1.8,4.4-3.7,8.8-5.5,13c-2.2,4.9-4.3,9.8-6.1,14.6
			c-5.9,15.5-8.7,30.5,0.8,45.6c1.3,2,2.6,3.9,4,5.8c-2.5,0.1-5,0.4-7.4,0.9c-8.9,1.9-15.2,6.1-15.2,6.1c-3.5,2.3-6.6,5.2-9,8.5
			c-0.8,1.1-1.5,2.3-2.2,3.5c-3.5,6.4-4.6,13.7-3,21c0.2,0.7,0.3,1.4,0.6,2.1c0.8,2.5,1.9,4.8,3.4,6.9c0.1,0.1,5.9,5.6,6.2,5.7
			c1.9,1.2,4,2.2,6.3,2.9c3.9,1.3,8.3,1.9,13.1,1.9c4.4,0,9.1-0.5,14.1-1.6c9.7-2.1,20.4-5.5,26.8-13.1c11.4-1,22.6-1.6,32.8-2
			c7.7,2.4,15.9,4.4,24.5,6c5.1,0.9,10.1,1.7,15,2.3c13.5,1.6,26.4,1.8,38.4,0.6c11.7-1.2,22.6-3.7,32.4-7.4
			c2.5,0.2,5.1,0.4,7.6,0.6c6.3,7.6,17,11,26.8,13.1c4.9,1.1,9.7,1.6,14.1,1.6c4.8,0,9.2-0.6,13.1-1.9c2.4-0.8,4.6-1.9,6.6-3.2
			c0.1-0.1,5.9-5.7,6.2-6c1.3-1.9,2.4-4.1,3.1-6.4c0.2-0.7,0.4-1.4,0.6-2.1c1.6-7.2,0.5-14.6-3-21c-0.6-1.2-1.4-2.3-2.2-3.5
			c-1.5-2-3.2-3.9-5.1-5.5c-4.6-3.9-13.7-9.5-28.6-10.1c0.8-8.2,0.4-16.9,0-25.9c-0.2-4.6-0.4-9.4-0.5-14.1c0.4-0.6,0.9-1.3,1.3-1.9
			c0.1-0.1,0.1-0.2,0.2-0.3c5.7-8.4,10.4-16.8,14.3-24.9c3.5-7.3,6.3-14.3,8.6-20.9c2.8-8,4.8-15.3,6.2-21.6
			c0.9-3.9,1.6-7.8,2.2-11.7c0.2-1.4,0.4-2.8,0.6-4.2l1-9.8c0.8-11.5,0.2-21.8-1.9-29.6c-2.1-7.6-5.5-12.6-10.1-14.7
			c-8.3-3.8-23.2,0.4-45.5,12.7c-11,6.1-20.9,12.5-25.9,15.9c-1.9,1.3-6.6,1-8.3,0.3c-8.5-3.3-18-5.9-28.5-7.9l0,0h-0.1h-0.1l0,0
			c-10.5-1.9-20.3-2.9-29.4-2.9c-1.8,0-6.3-1.5-7.6-3.3c-3.5-5-10.4-14.6-18.4-24.2c-16.5-19.4-28.9-28.7-38-28.2
			c-5.1,0.3-10,3.7-14.7,10c-8.2,11.1-14.9,30.6-18.1,52.2c-0.7,4.6-1.3,9.9-1.7,15.8l-0.4,9.7C276.7,123.9,277,132.7,278.1,142.1z
			 M287,292.5c0.3-2.5,0.3-5.9-0.9-9.4c0,0-0.6,9.1-5.6,11.2c-4.4,1-8.6,1.4-12.4,1.4c-6.1-3.9-7.4-10.8-7.2-16.2
			c0.1-4.3,1.1-7.7,1.1-7.7c-2.3,4.4-3.4,8.2-3.7,11.4c-0.6,5.6,0.8,9.5,1.9,11.5c-0.7-0.2-1.3-0.3-1.9-0.5
			c-5.8-1.9-9.1-5.5-10.3-10.9c-0.2-1-0.3-1.9-0.4-2.9c-0.2-2,0-4,0.4-5.9c0.6-2.9,1.8-5.7,3.7-8.2c3.9-5.3,10.2-9.2,17.9-10.9
			c2.1-0.5,6.2-0.9,9.8-1.1c1.5-0.1,2.8-0.1,4-0.1c4.4,4.6,9.4,8.9,15,12.8l0,0c2.5,1.8,5,3.5,7.7,5.1
			C305.4,281,299.9,288.2,287,292.5z M499.8,255.4c7.6,1.7,14,5.5,17.9,10.9c1.8,2.5,3.1,5.3,3.7,8.2c0.4,1.9,0.5,3.9,0.4,5.9
			c-0.1,1-0.2,1.9-0.4,2.9c-1.2,5.4-4.6,9-10.3,10.9c-0.6,0.2-1.3,0.4-1.9,0.5c1.1-2,2.5-5.9,1.9-11.5c-0.4-3.2-1.5-7.1-3.7-11.4
			c0,0,1,3.3,1.1,7.7c0.1,5.4-1.1,12.2-7.2,16.2c-3.8,0-8-0.4-12.4-1.4c-5.1-2.1-5.6-11.2-5.6-11.2c-1.3,3.6-1.2,7-0.9,9.5
			c-8.1-2.4-13.3-5.4-16-9.6c0.7-0.4,1.5-0.9,2.2-1.3c2.2-1.4,4.4-2.8,6.5-4.3c5.3-3.9,9-8.5,11.6-13.5c1.5-3,2.7-6.1,3.5-9.4l0,0
			l0,0C493.3,254.4,496.6,254.7,499.8,255.4z M471.7,120.7c-0.2-0.2,0.1-1.3,0.5-1.6c7.5-8,16.1-13,23-16.2c0.4,2.4,0.8,5.9,1,10.1
			c0.1,2.2,0.1,4.6,0.1,7.2c-0.2,9.1-1.8,22.1-7.4,36.3v-0.1C485.7,142.6,479.9,130.6,471.7,120.7z M303,137.5
			c8.3-16.6,19.2-28.6,33-35.9c0.5-0.3,1-0.5,1.5-0.8c5.8-3.7,3.2-8.5,3-9.1c-16.2-33.3-35.7-31.5-35.7-31.5c0.1,0,2.4,1.5,5.7,4.3
			c-2,3.3-5.4,9.4-8.5,17.9c-2.3,6.3-4.6,14.6-5.8,24.5c-0.9,7.7-1.2,16.2-0.3,25.6c-2.7,5.2-5.1,10.7-7.2,16.7
			c-1.6-10-2.3-19.5-2.3-28.2c-0.1-11.4,0.9-21.4,2-29.4c1.6-10.6,4-20.6,7-29.2c2.7-7.7,5.9-14.2,9.4-18.9c2.8-3.8,5.7-6.1,7.7-6.3
			c2.1-0.1,10.4,1.3,30.1,24.9c7.3,8.8,13.8,17.7,17.4,22.7c6.1,8.6,12.2,7.6,15.6,7.6c8.7,0,18.1,0.9,28.2,2.8
			c10.1,1.9,19.2,4.4,27.3,7.6c3.1,1.2,8.4,4.3,17.3-1.5c5.2-3.4,14.4-9.4,24.4-14.9c26.9-14.8,35.2-13.2,37.1-12.3
			c1.9,0.8,3.7,4.1,4.9,8.6c1.5,5.6,2.2,12.9,1.9,21c-0.3,9.1-1.6,19.3-4,29.7c-1.8,7.9-4.5,17.6-8.7,28.2
			c-3.2,8.1-7.2,16.7-12.4,25.5c0.2-6.4-0.1-12.4-0.7-18.2c4.2-8.4,7.1-16.5,9-24c2.4-9.7,3.3-18.3,3.4-25c0.2-9.1-0.8-16-1.5-19.8
			c4.1-1.4,6.8-2,6.9-2c0,0-17.6-8.8-44.7,16.5c-0.5,0.4-4.6,4-0.5,9.5c0.3,0.5,0.7,0.8,1.1,1.3c10.2,11.8,16.1,26.9,17.8,45.4
			c0.6,6.7,0.7,13.9,0.2,21.6c-0.6,9.4-0.2,18.4,0.2,27.2c0.5,11,0.9,20.8-0.6,29.3s-5.1,15.7-12.6,21.3
			c-23.7,17.6-59.7,23-101.4,15.2s-73.4-25.8-89.1-50.8c-4.8-7.7-5.7-15.4-4.2-23.7c1.5-8.7,5.6-18,10.2-28.3
			c3.5-8,7.2-16.3,10-25.2C297.3,150.2,300,143.5,303,137.5z M302.1,121.7c-0.1-15.3,3.1-28,6.2-36.6c0.9-2.4,1.8-4.7,2.7-6.7
			c1.7-3.9,3.4-6.9,4.6-9c5.3,5.4,11.4,13.3,15.6,23.4c0.2,0.4,0.1,1.5-0.2,1.7C319.7,100.7,310.1,109.8,302.1,121.7
			C302.1,121.6,302.1,121.6,302.1,121.7z"/>
	</g>
</g>
</svg>
