<?xml version="1.0" encoding="utf-8"?>
<!-- Generator: Adobe Illustrator 26.0.1, SVG Export Plug-In . SVG Version: 6.00 Build 0)  -->
<svg version="1.1" id="Capa_1" xmlns="http://www.w3.org/2000/svg" xmlns:xlink="http://www.w3.org/1999/xlink" x="0px" y="0px"
	 viewBox="0 0 799.1 436.7" style="enable-background:new 0 0 799.1 436.7;" xml:space="preserve">
<style type="text/css">
	.st0{fill:#1B1B1B;}
	.st1{fill:#E7E6E6;}
	.st2{fill:#CAC8C8;}
	.st3{fill:#FFFFFF;}
</style>
<path class="st0" d="M368.3,363.3c-118.7,23.7-192.1-53.1-162-167.9c9.2-35.1,21.7-57,14.4-95.8c-5-26.6-16.2-49.7,19-67.9l7-3.7
	c6.2,19.3,12.1,38.6,18.7,57.7l55.8,161.5c4.2,12.1,11.1,27.4,10.9,39.3c14.4,2.5,27.2,9.7,36.7,20c10.5,11.3,17.1,26.2,17.7,42.5
	l39.4,49L368.3,363.3L368.3,363.3z"/>
<path class="st1" d="M309.2,308.2c8.7-8.7,11-19.6,8.1-31.2c-0.9-3.5-2.2-7.2-3.5-10.9l-53.3-153.5c0,0-12.1,65.6,0.9,111.5
	c-2.5-3.6-9-22.7-14.2-45.6c-15.1,50.5-5.9,118.9,23.9,135.2C282.9,320,298.5,318.9,309.2,308.2L309.2,308.2z"/>
<path class="st2" d="M309.2,308.2c1.5-1.5,2.9-3.2,4-4.8c-30,6.9-51.8-79.3-51.8-79.3c-2.5-3.6-9-22.7-14.2-45.6
	c-15.1,50.5-5.9,118.9,23.9,135.2C282.9,320,298.5,318.9,309.2,308.2z"/>
<path class="st1" d="M372.8,346.5c-2.2-23.4-19.9-42.6-42.9-46.8c-4.4,13.2-14,22.9-25.5,27.7c-43.6,18.4-80.1-32.2-89-69.8
	c5.4,42.5,30.8,76.4,72,89.8C316.7,357.1,353.5,354.9,372.8,346.5L372.8,346.5z"/>
<path class="st2" d="M329.7,299.8c-4.4,13.2-14,22.9-25.5,27.7c-43.6,18.4-80.1-32.2-89-69.8c4.8,37.8,25.4,68.6,58.6,84.5
	C300.4,354.7,332.9,325.7,329.7,299.8z"/>
<circle class="st0" cx="356.4" cy="336.7" r="5.4"/>
<circle class="st3" cx="356.4" cy="331.8" r="2"/>
<path class="st0" d="M287.4,395.8c-9.2-1.3-18.1-3.5-26.7-6.5l4.4,14.8l-12.9,3.8l-7.6-25.5c-32.9-16.5-57.8-45.6-69.3-80.6
	l-23.4-6.6l3.6-13l15.8,4.4c-1.8-9-2.8-18.2-2.8-27.7l0,0v-0.3H182v0.3l0,0c0,62.1,45.7,114.8,107.3,123.3L287.4,395.8L287.4,395.8z
	"/>
<path class="st3" d="M163.6,230.1c4.7,0.7,8.9,3.8,10.7,8.4c1.8,4.7,0.9,9.8-2,13.5c-4.7-0.7-8.9-3.8-10.7-8.4
	C159.7,239,160.6,233.8,163.6,230.1L163.6,230.1z"/>
<path class="st3" d="M140.6,267.3c3.5-3.2,8.4-4.6,13.3-3.2c4.8,1.4,8.3,5.3,9.5,9.9c-3.5,3.2-8.4,4.6-13.3,3.2
	C145.3,275.9,141.8,271.9,140.6,267.3z"/>
<path class="st3" d="M145.5,313.3c1.2-4.6,4.7-8.4,9.6-9.7c4.8-1.4,9.9,0.1,13.3,3.5c-1.2,4.6-4.7,8.4-9.6,9.7
	S149,316.6,145.5,313.3z"/>
<path class="st3" d="M316.7,395.7c-3.1,3.6-8,5.4-12.9,4.4s-8.8-4.5-10.3-9c3.1-3.6,8-5.4,12.9-4.4
	C311.4,387.6,315.2,391.2,316.7,395.7z"/>
<path class="st3" d="M284.6,417.6c-4.7,0.2-9.5-2.1-12.1-6.3c-2.8-4.3-2.8-9.5-0.6-13.7c4.7-0.2,9.5,2.1,12.1,6.3
	C286.8,408.2,286.8,413.4,284.6,417.6z"/>
<path class="st3" d="M232.9,407.9c-3.1-3.6-4.3-8.7-2.7-13.5c1.6-4.8,5.7-8.1,10.4-9c3.1,3.6,4.3,8.7,2.7,13.5
	C241.7,403.8,237.6,407,232.9,407.9L232.9,407.9z"/>
<path class="st0" d="M427.4,226.8c0,15.9-12.1,25-35.5,25h-44.4V159h41.6c21.4,0,33.3,9,33.3,24c0,10-5.2,17.2-12.5,20.7
	C420.6,206.7,427.4,214.6,427.4,226.8z M360.9,169.7v29.7h27.2c13.5,0,21.3-5.1,21.3-14.8s-7.7-14.8-21.3-14.8L360.9,169.7
	L360.9,169.7z M414.1,225.8c0-10.8-8-15.6-22.7-15.6h-30.6v30.9h30.6C406.1,241.2,414.1,236.6,414.1,225.8z"/>
<path class="st0" d="M443.9,159.8c0-4.7,3.8-8.3,8.6-8.3c4.9,0,8.6,3.6,8.6,8.2c0,4.8-3.6,8.4-8.6,8.4
	C447.7,168,443.9,164.5,443.9,159.8z M446.2,181.5H459v70.3h-12.8V181.5z"/>
<path class="st0" d="M521,181v12.4c-1-0.1-2-0.1-2.9-0.1c-13.7,0-22.1,8.3-22.1,23.7v35h-12.8v-70.3h12.2v11.8
	C499.9,185.2,508.8,181,521,181z"/>
<path class="st0" d="M602.4,153.4V252h-12.2v-11.2c-5.7,8-14.7,11.9-25,11.9c-20.5,0-35.5-14.4-35.5-36s15-35.8,35.5-35.8
	c9.9,0,18.8,3.8,24.6,11.4v-38.7h12.7L602.4,153.4L602.4,153.4z M589.9,216.8c0-15-10.2-24.7-23.6-24.7c-13.5,0-23.7,9.8-23.7,24.7
	s10.2,24.9,23.7,24.9C579.7,241.6,589.9,231.8,589.9,216.8z"/>
<path class="st0" d="M626.6,153.4h12.8V252h-12.8V153.4z"/>
<path class="st0" d="M726,181.5L691.8,259c-6.3,14.8-14.3,19.5-25,19.5c-6.8,0-13.7-2.3-18-6.5l5.4-9.6c3.5,3.3,7.9,5.2,12.7,5.2
	c6.1,0,9.9-2.8,13.4-10.9l2.3-4.9l-31-70.2h13.2l24.6,56.3l24.3-56.3H726V181.5z"/>
<g>
	<path class="st3" d="M346.4,260.7h5.5c4.2,0,7.1,2.6,7.1,6.5s-2.9,6.5-7.1,6.5h-5.5V260.7z M351.9,272.2c3.2,0,5.4-2,5.4-4.9
		s-2-4.9-5.4-4.9h-3.6v9.9h3.6V272.2z"/>
	<path class="st3" d="M371.7,272.2v1.6h-9.6v-13.2h9.3v1.6H364v4.1h6.7v1.6H364v4.2L371.7,272.2L371.7,272.2z"/>
	<path class="st3" d="M372.6,272.2l1.2-1.3c0.7,1,1.6,1.6,2.8,1.6c1.5,0,2.3-0.9,2.3-2.6v-7.4h-4.8v-1.6h6.7v9
		c0,2.9-1.5,4.4-4.1,4.4C374.9,274.1,373.4,273.4,372.6,272.2z"/>
	<path class="st3" d="M392.7,270.6h-7l-1.5,3.3h-1.9l6-13.2h1.9l6,13.2h-2L392.7,270.6z M391.9,269.2l-2.9-6.5l-2.9,6.5H391.9z"/>
	<path class="st3" d="M414.6,260.7l-5.8,13.2h-1.9l-5.8-13.2h2l4.8,10.9l4.8-10.9H414.6z"/>
	<path class="st3" d="M415.1,267.3c0-3.9,3.1-6.8,7-6.8c4.1,0,7,2.9,7,6.8s-3.1,6.8-7,6.8C418,274.1,415.1,271.2,415.1,267.3z
		 M427.3,267.3c0-2.9-2.2-5.1-5.1-5.1s-5.1,2.2-5.1,5.1s2.2,5.1,5.1,5.1S427.3,270.2,427.3,267.3z"/>
	<path class="st3" d="M432.1,260.7h1.9v11.6h7.1v1.6h-9V260.7z"/>
	<path class="st3" d="M451.8,270.6h-7l-1.5,3.3h-1.9l6-13.2h1.9l6,13.2h-2L451.8,270.6z M451.2,269.2l-2.9-6.5l-2.9,6.5H451.2z"/>
	<path class="st3" d="M466,274l-2.9-4.1c-0.3,0-0.6,0-0.9,0H459v4.1h-1.9v-13.2h5.1c3.5,0,5.5,1.7,5.5,4.7c0,2-1,3.5-2.9,4.2
		l3.2,4.5h-2L466,274L466,274z M466,265.2c0-1.9-1.3-2.9-3.6-2.9h-3.2v6h3.2C464.7,268.3,466,267.1,466,265.2z"/>
	<path class="st3" d="M478.7,262.3h-4.5v-1.6h10.9v1.6h-4.5V274h-1.9V262.3L478.7,262.3z"/>
	<path class="st3" d="M486.8,268.1v-7.6h1.9v7.4c0,2.9,1.3,4.2,3.8,4.2c2.3,0,3.8-1.3,3.8-4.2v-7.4h1.9v7.6c0,3.8-2,5.8-5.5,5.8
		C488.9,274.1,486.8,272.1,486.8,268.1z"/>
	<path class="st3" d="M506.9,260.7h1.9V274h-1.9V260.7z"/>
	<path class="st3" d="M525.1,274v-9.6l-4.8,8h-0.9l-4.8-8v9.6h-1.7v-13.2h1.6l5.5,9.3l5.4-9.3h1.6V274H525.1z"/>
	<path class="st3" d="M539.2,270.6h-7l-1.5,3.3h-1.9l6-13.2h1.9l6,13.2h-2L539.2,270.6z M538.7,269.2l-2.9-6.5l-2.9,6.5H538.7z"/>
	<path class="st3" d="M553.6,267.3h1.7v5.1c-1.3,1.2-3.2,1.7-4.9,1.7c-4.1,0-7-2.9-7-6.8s3.1-6.8,7.1-6.8c2,0,3.9,0.7,5.1,2
		l-1.2,1.2c-1.2-1-2.3-1.6-3.8-1.6c-3.1,0-5.2,2.2-5.2,5.1s2.2,5.1,5.2,5.1c1.2,0,2.2-0.3,3.1-0.9L553.6,267.3L553.6,267.3
		L553.6,267.3z"/>
	<path class="st3" d="M559.2,260.7h1.9V274h-1.9V260.7z"/>
	<path class="st3" d="M576.3,260.7V274h-1.6l-8-9.9v9.9h-1.9v-13.2h1.6l8,9.9v-9.9L576.3,260.7L576.3,260.7z"/>
	<path class="st3" d="M588.7,270.6h-7l-1.5,3.3h-1.9l6-13.2h1.9l6,13.2h-2L588.7,270.6z M588.1,269.2l-2.9-6.5l-2.9,6.5H588.1z"/>
	<path class="st3" d="M592.9,267.3c0-3.9,3.1-6.8,7-6.8c2,0,3.8,0.7,5.1,2l-1.2,1.2c-1-1-2.3-1.6-3.8-1.6c-3.1,0-5.2,2.2-5.2,5.1
		s2.2,5.1,5.2,5.1c1.5,0,2.8-0.6,3.8-1.6l1.2,1.2c-1.2,1.3-3.1,2-5.1,2C595.9,274.1,592.9,271.2,592.9,267.3z"/>
	<path class="st3" d="M607.6,260.7h1.9V274h-1.9V260.7z"/>
	<path class="st3" d="M612.4,267.3c0-3.9,3.1-6.8,7-6.8c4.1,0,7,2.9,7,6.8s-3.1,6.8-7,6.8C615.5,274.1,612.4,271.2,612.4,267.3z
		 M624.7,267.3c0-2.9-2.2-5.1-5.1-5.1s-5.1,2.2-5.1,5.1s2.2,5.1,5.1,5.1S624.7,270.2,624.7,267.3z M620.7,257.1h2.3l-3.2,2.5h-1.7
		L620.7,257.1z"/>
	<path class="st3" d="M640.8,260.7V274h-1.6l-8-9.9v9.9h-1.9v-13.2h1.6l8,9.9v-9.9L640.8,260.7L640.8,260.7z"/>
</g>
</svg>
