<?xml version="1.0" encoding="utf-8"?>
<!-- Generator: Adobe Illustrator 26.0.1, SVG Export Plug-In . SVG Version: 6.00 Build 0)  -->
<svg version="1.1" id="Capa_1" xmlns="http://www.w3.org/2000/svg" xmlns:xlink="http://www.w3.org/1999/xlink" x="0px" y="0px"
	 viewBox="0 0 799.9 436.7" style="enable-background:new 0 0 799.9 436.7;" xml:space="preserve">
<g>
	<path d="M89.8,261.6c-16.5-0.6-33.3,2.2-48.7,8.2c-2,0.8-2.8-2.4-0.9-3.2c6.3-2.5,12.9-4.4,19.6-5.7c-3.8-53.8,1.4-109.1,5.5-162.8
		c-6.2,0.6-12.4,1.5-18.5,2.5c-2.1,0.4-2.9-2.8-0.9-3.2c13.9-2.4,28-3.8,42.1-4.1c2.1,0,2.1,3.2,0,3.3c-5.8,0.1-11.5,0.5-17.3,1
		c0,0.1,0,0.2,0,0.3c-4.1,53.4-9.2,108.4-5.5,162c8.1-1.3,16.4-1.8,24.5-1.5C91.9,258.5,91.9,261.7,89.8,261.6z"/>
	<path d="M137.2,218.3c-4.9,8.4-11.3,23-23,20.9c-7.1-1.2-10-7.6-10.8-14c-0.6-4.7,0.2-9.7,0.4-14.5c0.1-4.6,0.6-11.4-1.4-11.4
		c-5.6,0-13.3,26.9-14,39.1c-0.2,2.7-4.7,2.5-5.3,0c-3.3-15.3-1.3-31.8,1.2-47.1c0.6-3.5,5.8-2,5.3,1.5c-1.7,10.7-2.8,22.1-2.3,32.3
		c3-12.9,8.9-30.8,17.5-30c7,0.7,4.8,15.4,4.4,20.2c-0.7,10.3-0.8,19,5.9,20.5c9.6,2.1,15.7-13.1,19.1-19
		C135.8,213.6,138.9,215.2,137.2,218.3z"/>
	<path d="M164.6,225.1c-7.3,60.1,5.6,82.2,17.5,76.1c3.1-1.6,5.1,1.5,1.8,2.7c-26.7,10.1-29.5-38-27.4-69.6
		c-7.8,7.6-14.8,10.5-19.8,5.2c-11.1-11.7,7-52.7,25-42.7c9.7-48.8,30.6-104.9,53.6-99.4c12.7,3,3.7,25.4,1.1,33.2
		C212.8,140.5,187.2,196.4,164.6,225.1z M160.9,200.8c-13.5-8-25.9,36.1-17.2,36.1c3.5,0,8.1-3.4,13.3-9.1c0.2-2.7,0.5-5.2,0.8-7.4
		C158.6,214.2,159.6,207.6,160.9,200.8z M165.7,217.1c25.4-34.8,58.1-104.8,50.1-113.3c-10.4-11-37.5,34.7-49,106
		C166.4,212.2,166,214.7,165.7,217.1z"/>
	<path d="M243.5,217.2c-3.3,7.9-16.2,38.1-29.2,29.6c-6.3-4.1-3.6-18.3-0.1-30.9c-5.5,12-12.7,24.3-19.3,23.8
		c-14.1-1-8.5-25.5,0.9-40.1c1.9-2.9,6.5-0.2,4.7,2.8c-6.2,10.3-13.2,31.7-5.7,33c8.4,1.4,19.7-25.4,23.6-38.6c1-3.4,6.1-2.4,5.4,1
		c-2.6,12.1-14.1,40.4-6.6,45.8c8.5,6.1,19.5-19,23-26.8C241.8,213.6,244.9,213.9,243.5,217.2z"/>
	<path d="M280.3,218.4c-5,10.8-13.5,27.9-25.5,31.2c-9,2.4-15.6-2.3-16.6-11.3c-1.3-11.1,3.2-24,8.6-33.6
		c3.2-5.7,10.7-14.3,16.5-6.3c2.1,2.8-1.4,4-3.4,1.2c-2.9-3.9-10.4,10.7-12.8,17.8c-2,6-7.6,27.8,1,29.1
		c16.3,2.4,26.8-23.8,29.6-29.5C279.2,213.8,281.8,215.3,280.3,218.4z"/>
	<path d="M304,218.6c-6.9,15.2-18.2,23.9-26.4,17.8c-5.4-4.1-2.2-16.7,1.6-22.7c4.3-6.7,11.5-12,15.8-7.5c5.2,5.4-7.3,17.7-15,21.6
		c-0.5,3.8,0.3,6.8,3.2,6.9c8.9,0.4,15.7-11.6,18.3-17.4C302.4,215.6,304.6,217.3,304,218.6z M280.7,223.3
		c7.9-4.8,15.7-15.4,11.3-15.8C287.8,207,282.6,215.8,280.7,223.3z"/>
	<path d="M444.5,92.6c-0.1,55.7,0,111.6-1.3,167.3c0,2.1-3.3,2.1-3.3,0c0.8-34.6,0.7-69.3,0.9-103.9c0.1-15.9,0.2-31.9,0.3-47.8
		c-4.5,23.8-14.6,70.4-35.4,70.9c-18.8,0.4-25.8-43.2-29-73.4c-4,52.7-7.1,105.5-7.3,158.4c0,3.5-5.5,3.5-5.5,0
		c0.2-60,4.2-119.9,8.9-179.7c0.3-3.5,5.1-3.5,5.5,0c0.5,5.4,7.5,91.2,28.6,91.2c21,0,31-72.8,34.3-83.4
		C441.9,90.4,444.5,90.7,444.5,92.6z"/>
	<path d="M497.6,218.3c-3.7,5.6-15.8,28.4-26,24.3c-5.6-2.2-5.4-6.5-6.2-8.8c-2.5,2.9-6.8,5.9-10.9,3.8c-4.9-2.5-3.8-10-2.1-14.3
		c2.9-7.5,11.5-15,17.9-14.4c0,0,0,0,0.1,0c1.7-1.4,4.7,0.8,4.4,1.7c-0.7,3.4-8.4,27.9-1.2,29.3c8,1.5,19.1-20.1,21.8-23.7
		C497.3,213.4,499.5,215.4,497.6,218.3z M469.1,212.3c-11.9,1.2-17.8,20.5-13.3,22.2C462.9,237,467.5,219.3,469.1,212.3z"/>
	<path d="M514.2,205.3c-14.5,4.4-16.1,26.3-15.7,39c0.1,2.6-3.9,3.8-5.1,1.4c-3.1-6.4,1.2-44.1,2.6-55.1c0.4-3.4,5.9-3.5,5.5,0
		c-1,8.1-1.9,16.2-2.5,24.4c3.3-6.3,8.3-11.5,15.4-13.6C517.8,200.3,517.6,204.3,514.2,205.3z"/>
	<path d="M569.7,218.5c-11.1,13.9-28.2,26.7-44.6,17.7c0.3,11.9,1.6,21.6,4.2,27.4c1.4,2.9-4.2,3.4-5.4,0.7
		c-15.9-38.1,6.7-176.8,40-167.2c23.6,6.8-3.9,55.5-34.4,82.1c-2.3,14.5-3.9,30.6-4.3,43.8c6.4-8.6,12.9-17.2,19.3-25.8
		c2.1-2.8,5.4-0.1,3.4,2.7c-7.5,10-15.3,19.9-22.8,29.9c0,0.5,0,1.1,0,1.6c14.9,10.7,32.3-2.7,41.9-14.7
		C569.1,213.9,571.8,215.8,569.7,218.5z M530.4,174.6c28.7-27.6,52.2-72.2,31.1-71.9C548.4,102.9,536.9,137.2,530.4,174.6z"/>
	<path d="M596,218.6c-6.9,15.2-18.2,23.9-26.4,17.8c-5.4-4.1-2.2-16.7,1.6-22.7c4.3-6.7,11.5-12,15.8-7.5c5.2,5.4-7.3,17.7-15,21.6
		c-0.5,3.8,0.3,6.8,3.2,6.9c8.9,0.4,15.7-11.6,18.3-17.4C594.4,215.6,596.6,217.3,596,218.6z M572.7,223.3
		c7.9-4.8,15.7-15.4,11.3-15.8C579.8,207,574.6,215.8,572.7,223.3z"/>
	<path d="M667.1,136.2c-18.9-0.6-38.3,0.4-57.5,3.2c-8.3,46.1-11.8,96-6.7,142.1c0.4,3.5-5.1,3.5-5.5,0
		c-5.1-45.9-1.6-95.2,6.5-141.2c-18.3,3.1-36.2,8-53,15.1c-2.2,0.9-3.2-2.7-1-3.6c17.3-7.3,35.8-12.3,54.7-15.4
		c0.6-3.5,1.2-6.9,1.9-10.3c0.7-3.5,6-2,5.3,1.5c-0.5,2.6-1,5.3-1.5,8c18.9-2.8,38.1-3.7,56.8-3.1
		C669.5,132.5,669.5,136.2,667.1,136.2z"/>
	<path d="M653.4,216.2c-2.5,9.3-12,29.9-25,24.1c-10.1-4.5-8.5-25.1-5.1-34.5c1.2-3.3,8-1.6,7,1.8c-2.1,7.1-4.6,27.3,0.7,29.6
		c8.6,3.6,17.1-13.9,19.4-22.2C651.4,211.5,654.3,212.8,653.4,216.2z M625.6,193.3c0-2.2,1.7-3.9,3.9-3.9s3.9,1.7,3.9,3.9
		s-1.7,3.9-3.9,3.9C627.4,197.2,625.6,195.5,625.6,193.3z"/>
	<path d="M703.4,218.3c-4.9,8.4-11.3,23-23,20.9c-7.1-1.2-10-7.6-10.8-14c-0.6-4.7,0.2-9.7,0.4-14.5c0.1-4.6,0.6-11.4-1.4-11.4
		c-5.6,0-13.3,26.9-14,39.1c-0.2,2.7-4.7,2.5-5.3,0c-3.3-15.3-1.3-31.8,1.2-47.1c0.6-3.5,5.8-2,5.3,1.5c-1.7,10.7-2.8,22.1-2.3,32.3
		c3-12.9,8.9-30.8,17.5-30c7,0.7,4.8,15.4,4.4,20.2c-0.7,10.3-0.8,19,5.9,20.5c9.6,2.1,15.7-13.1,19.1-19
		C702,213.6,705.2,215.2,703.4,218.3z"/>
	<path d="M759.7,217.7c-4,4.4-8.2,9-12.4,13.7c1,3.4,1.6,6.6,2,8.6c5.7,31.6-0.8,107.1-39.8,106.9c-19-0.1-25.9-32.5-2.8-69.6
		c10.8-17.3,22.7-32.1,33.9-44.5c-2-7.4-5-14-9-14c-11.2,0-27.4,16.3-31.5,4.3c-3.1-9.2,20.8-26.1,33.8-15.9
		c2.8,2.2-1.5,5.7-4.2,3.6c-10.4-7.9-27.5,8.7-25,12.1c4.4,6,15.6-8.7,29.5-8.7c5.5,0,9.2,6.3,11.7,12.9c3.9-4.2,7.7-8.2,11.3-11.8
		C759.7,212.7,762.1,215.1,759.7,217.7z M742.4,240c-0.2-0.8-0.3-1.6-0.5-2.4c-11,12.5-22.1,26.1-31.6,41.7
		c-17.2,28.4-15.3,59.7-2.9,62.6C739.9,349.5,746.8,262.1,742.4,240z"/>
</g>
<g>
	<path d="M176.6,326.9h-19.8l-4.3,9.6h-2.7l15.7-34.1h2.5l15.7,34.1H181L176.6,326.9z M175.7,324.8l-9-19.7l-8.9,19.7H175.7z"/>
	<path d="M211.8,311.1v22.7c0,8.5-4.1,12.4-12.3,12.4c-4.6,0-9.1-1.5-11.7-4l1.3-1.9c2.5,2.3,6.2,3.7,10.3,3.7c6.8,0,10-3.1,10-9.9
		v-4.3c-2.1,3.7-6,5.8-10.6,5.8c-7.2,0-12.7-5.1-12.7-12.4s5.5-12.3,12.7-12.3c4.7,0,8.6,2.1,10.7,6v-5.8L211.8,311.1L211.8,311.1z
		 M209.4,323.2c0-6-4.4-10.1-10.4-10.1s-10.4,4.1-10.4,10.1s4.4,10.2,10.4,10.2C205,333.4,209.4,329.2,209.4,323.2z"/>
	<path d="M243.7,324.4h-21.9c0.2,6,4.7,10.1,10.8,10.1c3.2,0,6.2-1.2,8.1-3.6l1.4,1.6c-2.2,2.7-5.8,4.1-9.6,4.1
		c-7.7,0-13.1-5.4-13.1-12.9c0-7.6,5.2-12.9,12.2-12.9s12.1,5.3,12.1,12.8C243.7,323.9,243.7,324.2,243.7,324.4z M221.8,322.5h19.5
		c-0.3-5.5-4.3-9.5-9.8-9.5S222.2,316.9,221.8,322.5z"/>
	<path d="M274.1,321.7v14.9h-2.4v-14.7c0-5.8-3.1-8.8-8.2-8.8c-6,0-9.7,3.9-9.7,9.9v13.6h-2.4v-25.5h2.3v5.5
		c1.7-3.6,5.3-5.7,10.1-5.7C269.9,310.9,274.1,314.5,274.1,321.7z"/>
	<path d="M281.4,323.8c0-7.6,5.4-12.9,12.9-12.9c4,0,7.6,1.6,9.7,4.7l-1.8,1.3c-1.9-2.6-4.7-3.8-7.9-3.8c-6,0-10.4,4.3-10.4,10.7
		c0,6.4,4.4,10.7,10.4,10.7c3.2,0,6-1.2,7.9-3.8l1.8,1.3c-2.1,3.1-5.6,4.7-9.7,4.7C286.8,336.7,281.4,331.4,281.4,323.8z"/>
	<path d="M310.5,302.9c0-1.1,0.9-2,2-2s2,0.9,2,2s-0.9,2-2,2S310.5,304,310.5,302.9z M311.3,311.1h2.4v25.5h-2.4V311.1z"/>
	<path d="M342.4,320.4v16.1h-2.3V332c-1.6,2.9-4.7,4.7-9.2,4.7c-5.7,0-9.2-2.9-9.2-7.3c0-3.9,2.4-7.1,9.5-7.1h8.7v-2
		c0-4.7-2.6-7.3-7.6-7.3c-3.5,0-6.7,1.3-8.8,3.2l-1.2-1.8c2.5-2.2,6.2-3.6,10.2-3.6C338.9,310.9,342.4,314.1,342.4,320.4z M340,329
		v-4.8h-8.7c-5.3,0-7.1,2.2-7.1,5.1c0,3.3,2.6,5.4,7.1,5.4C335.5,334.7,338.5,332.7,340,329z"/>
	<path d="M387.6,300.4v36.2h-2.4v-6c-2,4-5.9,6.2-10.4,6.2c-7.2,0-12.6-5.3-12.6-12.9c0-7.7,5.4-12.9,12.6-12.9
		c4.5,0,8.3,2.2,10.4,6.1v-16.6h2.4V300.4z M385.2,323.8c0-6.4-4.4-10.7-10.2-10.7c-5.9,0-10.2,4.3-10.2,10.7
		c0,6.4,4.4,10.7,10.2,10.7C380.8,334.6,385.2,330.2,385.2,323.8z"/>
	<path d="M419.4,324.4h-21.9c0.2,6,4.7,10.1,10.8,10.1c3.2,0,6.2-1.2,8.1-3.6l1.4,1.6c-2.2,2.7-5.8,4.1-9.6,4.1
		c-7.7,0-13.1-5.4-13.1-12.9c0-7.6,5.2-12.9,12.2-12.9s12.1,5.3,12.1,12.8C419.5,323.9,419.4,324.2,419.4,324.4z M397.6,322.5h19.5
		c-0.3-5.5-4.3-9.5-9.8-9.5S398,316.9,397.6,322.5z"/>
	<path d="M472.7,336.6v-29.2L458.3,332h-1.2l-14.3-24.6v29.1h-2.4v-34.1h2.1l15.3,26.4l15.3-26.4h2v34.1h-2.4V336.6z"/>
	<path d="M504.6,320.4v16.1h-2.3V332c-1.6,2.9-4.7,4.7-9.2,4.7c-5.7,0-9.2-2.9-9.2-7.3c0-3.9,2.4-7.1,9.5-7.1h8.7v-2
		c0-4.7-2.6-7.3-7.6-7.3c-3.5,0-6.7,1.3-8.8,3.2l-1.2-1.8c2.5-2.2,6.2-3.6,10.2-3.6C501.1,310.9,504.6,314.1,504.6,320.4z
		 M502.2,329v-4.8h-8.7c-5.3,0-7.1,2.2-7.1,5.1c0,3.3,2.6,5.4,7.1,5.4C497.7,334.7,500.7,332.7,502.2,329z"/>
	<path d="M526.7,310.9v2.4c-0.2,0-0.4,0-0.6,0c-5.7,0-9,3.8-9,10v13.3h-2.4v-25.5h2.3v5.6C518.6,312.9,522,310.9,526.7,310.9z"/>
	<path d="M542.5,322.9l-6.6,6.1v7.6h-2.4v-36.2h2.4V326l16.3-14.9h3.1l-11,10.3l12,15.2h-3L542.5,322.9z"/>
	<path d="M582.6,324.4h-21.9c0.2,6,4.7,10.1,10.8,10.1c3.2,0,6.2-1.2,8.1-3.6l1.4,1.6c-2.2,2.7-5.8,4.1-9.6,4.1
		c-7.7,0-13.1-5.4-13.1-12.9c0-7.6,5.2-12.9,12.2-12.9s12.1,5.3,12.1,12.8C582.7,323.9,582.6,324.2,582.6,324.4z M560.8,322.5h19.5
		c-0.3-5.5-4.3-9.5-9.8-9.5S561.2,316.9,560.8,322.5z"/>
	<path d="M602.9,334.9c-1.3,1.2-3.3,1.8-5.2,1.8c-4.5,0-6.9-2.6-6.9-6.9v-16.6h-4.7v-2.1h4.7v-5.6h2.4v5.6h8.1v2.1h-8.1v16.4
		c0,3.3,1.6,5.1,4.7,5.1c1.5,0,2.9-0.5,4-1.4L602.9,334.9z"/>
	<path d="M608.9,302.9c0-1.1,0.9-2,2-2s2,0.9,2,2s-0.9,2-2,2S608.9,304,608.9,302.9z M609.7,311.1h2.4v25.5h-2.4V311.1z"/>
	<path d="M645.2,321.7v14.9h-2.4v-14.7c0-5.8-3.1-8.8-8.2-8.8c-6,0-9.7,3.9-9.7,9.9v13.6h-2.4v-25.5h2.3v5.5
		c1.7-3.6,5.3-5.7,10.1-5.7C641.1,310.9,645.2,314.5,645.2,321.7z"/>
	<path d="M678.2,311.1v22.7c0,8.5-4.1,12.4-12.3,12.4c-4.6,0-9.1-1.5-11.7-4l1.3-1.9c2.5,2.3,6.2,3.7,10.3,3.7c6.8,0,10-3.1,10-9.9
		v-4.3c-2.1,3.7-6,5.8-10.6,5.8c-7.2,0-12.7-5.1-12.7-12.4s5.5-12.3,12.7-12.3c4.7,0,8.6,2.1,10.7,6v-5.8L678.2,311.1L678.2,311.1z
		 M675.8,323.2c0-6-4.4-10.1-10.4-10.1s-10.4,4.1-10.4,10.1s4.4,10.2,10.4,10.2C671.5,333.4,675.8,329.2,675.8,323.2z"/>
</g>
</svg>
