<?xml version="1.0" encoding="utf-8"?>
<!-- Generator: Adobe Illustrator 26.0.1, SVG Export Plug-In . SVG Version: 6.00 Build 0)  -->
<svg version="1.1" id="Capa_1" xmlns="http://www.w3.org/2000/svg" xmlns:xlink="http://www.w3.org/1999/xlink" x="0px" y="0px"
	 viewBox="0 0 800.1 436.7" style="enable-background:new 0 0 800.1 436.7;" xml:space="preserve">
<style type="text/css">
	.st0{fill:#F7AC06;}
</style>
<g>
	<g>
		<g>
			<path d="M253.2,354.9h7.7v12.8c-3.6,2.6-8.5,3.9-13,3.9c-9.9,0-17.1-6.7-17.1-16.1s7.2-16.1,17.3-16.1c5.8,0,10.5,2,13.5,5.7
				l-5.6,5c-2.1-2.3-4.6-3.5-7.5-3.5c-5.3,0-8.9,3.5-8.9,8.9c0,5.2,3.5,8.8,8.8,8.8c1.6,0,3.2-0.3,4.7-1v-8.4H253.2z"/>
			<path d="M280.1,362.9h-4.8v8.2h-8.8v-31h14.2c8.5,0,13.8,4.4,13.8,11.5c0,4.6-2.2,7.9-6.1,9.8l6.7,9.7h-9.4L280.1,362.9z
				 M280.2,347h-4.9v9.1h4.9c3.6,0,5.4-1.7,5.4-4.5C285.6,348.7,283.8,347,280.2,347z"/>
			<path d="M320,365.1h-13.1l-2.4,6h-8.9l13.7-31h8.6l13.7,31h-9.1L320,365.1z M317.5,358.6l-4-9.9l-4,9.9H317.5z"/>
			<path d="M334,340.1h14.6c10.3,0,17.3,6,17.3,15.5s-7,15.5-17.3,15.5H334V340.1z M348.3,364.1c5.3,0,8.8-3.1,8.8-8.5
				s-3.5-8.5-8.8-8.5h-5.5v17H348.3z"/>
			<path d="M395.5,364.3v6.8h-24.9v-31h24.3v6.8h-15.6v5.2H393v6.5h-13.8v5.7H395.5z"/>
			<path d="M422,346.9v6.8h13.7v6.8H422v10.6h-8.8v-31h24.3v6.8L422,346.9L422,346.9z"/>
			<path d="M439.8,355.6c0-9.3,7.3-16.1,17.2-16.1s17.2,6.8,17.2,16.1c0,9.3-7.3,16.1-17.2,16.1S439.8,364.9,439.8,355.6z
				 M465.3,355.6c0-5.4-3.7-8.9-8.4-8.9s-8.4,3.5-8.4,8.9s3.7,8.8,8.4,8.8S465.3,361,465.3,355.6z"/>
			<path d="M477.2,355.6c0-9.3,7.3-16.1,17.2-16.1s17.2,6.8,17.2,16.1c0,9.3-7.3,16.1-17.2,16.1S477.2,364.9,477.2,355.6z
				 M502.8,355.6c0-5.4-3.7-8.9-8.4-8.9s-8.4,3.5-8.4,8.9s3.7,8.8,8.4,8.8S502.8,361,502.8,355.6z"/>
			<path d="M516.2,340.1h14.6c10.3,0,17.3,6,17.3,15.5s-7,15.5-17.3,15.5h-14.6V340.1z M530.5,364.1c5.3,0,8.8-3.1,8.8-8.5
				s-3.5-8.5-8.8-8.5H525v17H530.5z"/>
		</g>
		<g>
			<path d="M295.7,399.3h-7.1l-1.4,3.3h-2.7l6.4-14.2h2.6l6.4,14.2h-2.8L295.7,399.3z M294.8,397.3l-2.7-6.2l-2.7,6.2H294.8z"/>
			<path d="M311.2,395.3h2.5v5.7c-1.5,1.2-3.6,1.8-5.6,1.8c-4.4,0-7.7-3.1-7.7-7.3c0-4.2,3.2-7.3,7.7-7.3c2.4,0,4.4,0.8,5.7,2.3
				l-1.7,1.6c-1.1-1.1-2.4-1.6-3.9-1.6c-3,0-5.2,2.1-5.2,5s2.1,5,5.1,5c1,0,2-0.2,2.9-0.7v-4.5H311.2z"/>
			<path d="M327.8,400.4v2.2h-10.7v-14.2h10.4v2.2h-7.7v3.7h6.9v2.2h-6.9v3.9L327.8,400.4L327.8,400.4z"/>
			<path d="M343.4,388.4v14.2h-2.2l-7.8-9.6v9.6h-2.6v-14.2h2.2l7.8,9.6v-9.6H343.4z"/>
			<path d="M346.2,395.5c0-4.2,3.2-7.3,7.6-7.3c2.3,0,4.3,0.8,5.6,2.4l-1.7,1.6c-1-1.1-2.3-1.7-3.8-1.7c-2.9,0-5.1,2.1-5.1,5
				s2.1,5,5.1,5c1.5,0,2.8-0.5,3.8-1.7l1.7,1.6c-1.3,1.5-3.3,2.4-5.6,2.4C349.4,402.8,346.2,399.8,346.2,395.5z"/>
			<path d="M362,388.4h2.6v14.2H362V388.4z"/>
			<path d="M377.7,399.3h-7.1l-1.4,3.3h-2.7l6.4-14.2h2.6l6.4,14.2h-2.8L377.7,399.3z M376.8,397.3l-2.7-6.2l-2.7,6.2H376.8z"/>
			<path d="M388.2,395.5c0-4.2,3.2-7.3,7.6-7.3c2.3,0,4.3,0.8,5.6,2.4l-1.7,1.6c-1-1.1-2.3-1.7-3.8-1.7c-2.9,0-5.1,2.1-5.1,5
				s2.1,5,5.1,5c1.5,0,2.8-0.5,3.8-1.7l1.7,1.6c-1.3,1.5-3.3,2.4-5.6,2.4C391.5,402.8,388.2,399.8,388.2,395.5z"/>
			<path d="M413.3,402.6l-2.9-4.2c-0.2,0-0.4,0-0.5,0h-3.2v4.1H404v-14.2h5.8c3.7,0,6.1,1.9,6.1,5.1c0,2.2-1.1,3.7-3,4.5l3.3,4.7
				H413.3z M409.7,390.6h-3.1v5.7h3.1c2.3,0,3.5-1.1,3.5-2.8C413.3,391.7,412.1,390.6,409.7,390.6z"/>
			<path d="M429.5,400.4v2.2h-10.7v-14.2h10.4v2.2h-7.7v3.7h6.9v2.2h-6.9v3.9L429.5,400.4L429.5,400.4z"/>
			<path d="M441.7,399.3h-7.1l-1.4,3.3h-2.7l6.4-14.2h2.6l6.4,14.2h-2.8L441.7,399.3z M440.8,397.3l-2.7-6.2l-2.7,6.2H440.8z"/>
			<path d="M449.9,390.6h-4.7v-2.2h12.1v2.2h-4.7v12H450L449.9,390.6L449.9,390.6z"/>
			<path d="M459.2,388.4h2.6v14.2h-2.6V388.4z"/>
			<path d="M478.6,388.4l-6.2,14.2h-2.6l-6.2-14.2h2.9l4.7,11l4.8-11H478.6z"/>
			<path d="M488.9,399.3h-7.1l-1.4,3.3h-2.7l6.4-14.2h2.6l6.4,14.2h-2.8L488.9,399.3z M488,397.3l-2.7-6.2l-2.7,6.2H488z"/>
		</g>
	</g>
	<g>
		<g>
			<path class="st0" d="M352.9,212.3c4.1,3.5,9,5.8,14.1,6.6l19,3.2v19.5c0,2,1.6,3.7,3.7,3.7c2,0,3.7-1.6,3.7-3.7V222l18.5-3.1
				c5.1-0.8,9.9-3.1,14.1-6.6c1.3-1.1,2.5-2.2,3.6-3.5c4.8-5.5,7.5-12.4,7.5-19.2v-8.3c0-1.1-0.5-2.1-1.3-2.8s-1.9-1-3-0.8l-3,0.5
				c4.7-5.5,7.2-12.2,7.2-18.9V151c0-1.1-0.5-2.1-1.3-2.8s-1.9-1-3-0.8l-3,0.5c4.7-5.5,7.2-12.2,7.2-18.9v-8.3
				c0-1.1-0.5-2.1-1.3-2.8c-0.8-0.7-1.9-1-3-0.8l-3,0.5c4.7-5.5,7.2-12.2,7.2-18.9v-8.3c0-1.1-0.5-2.1-1.3-2.8c-0.8-0.7-1.9-1-3-0.8
				l-17.8,3V58.4c0-2-1.6-3.7-3.7-3.7s-3.7,1.6-3.7,3.7V91c-4,1.1-7.7,3.1-11,5.9c-1.2,1-2.2,2.1-3.2,3.2v-50c0-2-1.6-3.7-3.7-3.7
				c-2,0-3.7,1.6-3.7,3.7v50.5c-1.1-1.3-2.3-2.6-3.7-3.7c-3.3-2.8-7.1-4.8-11-5.9V58.4c0-2-1.6-3.7-3.7-3.7c-2,0-3.7,1.6-3.7,3.7
				v31.2l-17.8-3c-1.1-0.2-2.2,0.1-3,0.8c-0.8,0.7-1.3,1.7-1.3,2.8v8.3c0,6.7,2.6,13.4,7.2,18.9l-3-0.5c-1.1-0.2-2.2,0.1-3,0.8
				c-0.8,0.7-1.3,1.7-1.3,2.8v8.3c0,6.7,2.6,13.4,7.2,18.9l-3-0.5c-1.1-0.2-2.2,0.1-3,0.8s-1.3,1.7-1.3,2.8v8.3
				c0,6.7,2.6,13.4,7.2,18.9l-3-0.5c-1.1-0.2-2.2,0.1-3,0.8s-1.3,1.7-1.3,2.8v8.3c0,6.8,2.6,13.6,7.5,19.2
				C350.5,210.1,351.7,211.3,352.9,212.3z M393.3,184.3v-3.9v-4c1-4.9,3.8-9.6,8-13.1c3.1-2.6,6.8-4.4,10.6-5l17.8-3v4
				c0,5.1-2,10.2-5.7,14.4c-0.8,1-1.8,1.9-2.7,2.7c-3.1,2.6-6.8,4.4-10.6,5L393.3,184.3z M393.3,153.9V150v-4c1-4.9,3.8-9.6,8-13.1
				c3.1-2.6,6.8-4.4,10.6-5l17.8-3v4c0,5.1-2,10.2-5.7,14.4c-0.8,1-1.8,1.9-2.7,2.7c-3.1,2.6-6.8,4.4-10.6,5L393.3,153.9z
				 M429.6,189.6c0,5.1-2,10.2-5.7,14.4c-0.8,1-1.8,1.9-2.7,2.7c-3.1,2.6-6.8,4.4-10.6,5l-17.3,2.9v-3.9v-4c1-4.9,3.8-9.6,8-13.1
				c3.1-2.6,6.8-4.4,10.6-5l17.8-3L429.6,189.6L429.6,189.6z M401.3,102.5c3.1-2.6,6.8-4.4,10.6-5h0.1l0,0l17.6-2.9v4
				c0,5.1-2,10.2-5.7,14.4c-0.8,1-1.8,1.9-2.7,2.7c-3.1,2.6-6.8,4.4-10.6,5l-17.3,2.9v-3.9v-4C394.4,110.7,397.2,106,401.3,102.5z
				 M357.7,115.6c-1-0.8-1.9-1.7-2.7-2.7c-3.7-4.2-5.7-9.3-5.7-14.4v-4l17.6,2.9l0,0h0.1c3.8,0.6,7.4,2.4,10.6,5
				c4.4,3.7,7.3,8.8,8.1,14.1c-0.1,1-0.2,2-0.2,3v3.9l-17.3-2.9l0,0l0,0C364.4,120,360.8,118.3,357.7,115.6z M357.7,146
				c-1-0.8-1.9-1.7-2.7-2.7c-3.7-4.2-5.7-9.3-5.7-14.4v-4l17.7,3l0,0l0,0c3.8,0.6,7.4,2.4,10.6,5c4.4,3.7,7.3,8.8,8.1,14.1
				c-0.1,1-0.2,2-0.2,3v3.9l-17.3-2.9l0,0l0,0C364.4,150.4,360.8,148.6,357.7,146z M357.7,176.4c-1-0.8-1.9-1.7-2.7-2.7
				c-3.7-4.2-5.7-9.3-5.7-14.4v-4l17.7,3l0,0l0,0c3.8,0.6,7.4,2.4,10.6,5c4.4,3.7,7.3,8.8,8.1,14.1c-0.1,1-0.2,2-0.2,3v3.9
				l-17.3-2.9l0,0l0,0C364.4,180.7,360.8,179,357.7,176.4z M349.2,185.6l17.7,3l0,0l0,0c3.8,0.6,7.4,2.4,10.6,5
				c4.4,3.7,7.3,8.8,8.1,14.1c-0.1,1-0.2,2-0.2,3v3.9l-17.3-2.9c-3.8-0.6-7.4-2.4-10.6-5c-1-0.8-1.9-1.7-2.7-2.7
				c-3.7-4.2-5.7-9.3-5.7-14.4v-4H349.2z"/>
		</g>
		<g>
			<path class="st0" d="M389.2,28c-74.8,0-135.6,60.8-135.6,135.6c0,13.4,2,26.4,5.6,38.6c0,0.1,0,0.1,0,0.2
				c0.1,0.2,0.1,0.4,0.2,0.6c0.3,0.8,0.5,1.7,0.8,2.5c0.4,1.3,0.8,2.6,1.3,3.8c0.2,0.5,0.4,1.1,0.6,1.6
				c16.4,44.3,54.1,76.2,99.6,85.5c0.3,0.1,0.5,0.1,0.8,0.1c1.7,0.3,3.3,0.6,5,0.9c0.8,0.1,1.6,0.3,2.5,0.4c1.1,0.2,2.2,0.3,3.3,0.4
				c1.1,0.1,2.2,0.3,3.3,0.4c0.6,0.1,1.2,0.1,1.9,0.1c3,0.2,6.1,0.4,9.1,0.4c0.1,0,0.3,0,0.4,0l0,0l0,0l0,0c0.4,0,0.8,0,1.3,0
				c74.8,0,135.6-60.8,135.6-135.6C524.9,88.8,464,28,389.2,28z M389.2,35.3c58.6,0,108.1,39.5,123.4,93.3h-60c-2,0-3.7,1.6-3.7,3.7
				c0,2,1.6,3.7,3.7,3.7h61.8c2,8.9,3,18.2,3,27.7c0,3.9-0.2,7.8-0.5,11.6h-64.3c-2,0-3.7,1.6-3.7,3.7s1.6,3.7,3.7,3.7h63.5
				c-0.8,5.2-1.9,10.2-3.2,15.2c-56.1,0.6-105.1,34.9-125,86.5c-19.6-50.8-67.3-84.8-122.3-86.4c-1.4-5-2.5-10.1-3.3-15.3h63.5
				c2,0,3.7-1.6,3.7-3.7s-1.6-3.7-3.7-3.7h-64.3c-0.3-3.8-0.5-7.7-0.5-11.6c0-9.5,1.1-18.8,3-27.7h61.8c2,0,3.7-1.6,3.7-3.7
				c0-2-1.6-3.7-3.7-3.7h-60C281.1,74.8,330.6,35.3,389.2,35.3z M377.4,291.4c-1-0.1-2-0.2-3-0.3c-1.1-0.1-2.2-0.3-3.2-0.4
				c-0.7-0.1-1.4-0.2-2.1-0.3c-46.2-7.3-84.2-39.4-100.1-82.1c-0.2-0.4-0.3-0.9-0.5-1.3c-0.2-0.6-0.4-1.1-0.6-1.7
				c52.7,2.6,97.9,36.6,115,86.5c-1.1-0.1-2.2-0.1-3.3-0.2C378.8,291.5,378.1,291.4,377.4,291.4z M393,291.8
				c17-49.9,62.3-84,115-86.5C490.9,255.1,445.7,289.2,393,291.8z"/>
		</g>
		<g>
			<path class="st0" d="M302.3,103c1.7,1,3.2,2.4,4.1,4.1l3.2,5.9l3.2-5.9c1-1.7,2.4-3.2,4.1-4.1l5.9-3.2l-5.9-3.2
				c-1.7-1-3.2-2.4-4.1-4.1l-3.2-5.9l-3.2,5.9c-1,1.7-2.4,3.2-4.1,4.1l-5.9,3.2L302.3,103z"/>
		</g>
		<g>
			<path class="st0" d="M465.5,107.1l3.2,5.9l3.2-5.9c1-1.7,2.4-3.2,4.1-4.1l5.9-3.2l-5.9-3.2c-1.7-1-3.2-2.4-4.1-4.1l-3.2-5.9
				l-3.2,5.9c-1,1.7-2.4,3.2-4.1,4.1l-5.9,3.2l5.9,3.2C463.2,103.9,464.6,105.3,465.5,107.1z"/>
		</g>
	</g>
</g>
</svg>
