<?xml version="1.0" encoding="utf-8"?>
<!-- Generator: Adobe Illustrator 24.2.0, SVG Export Plug-In . SVG Version: 6.00 Build 0)  -->
<svg version="1.1" id="Capa_1" xmlns="http://www.w3.org/2000/svg" xmlns:xlink="http://www.w3.org/1999/xlink" x="0px" y="0px"
	 width="270.5px" height="134px" viewBox="0 0 270.5 134" style="enable-background:new 0 0 270.5 134;" xml:space="preserve">
<g>
	<path d="M106.8,15.7c-19.5-4.1-24.9,13.6-26.7,29c-1.3,28.4,12.3,58.2,46.6,33.3c-18.6,19.6-52.1,10-59.5-13.3
		C60.3,43.1,75.7,8.4,106.8,15.7z"/>
	<path d="M112,16.8c0,0,10.7,6.6,16.6,19.4c0.1-6.9-0.1-14.8-0.1-20.4C125,23.2,112,16.8,112,16.8z"/>
	<path d="M127.5,88.1c3.3,0,9.2,0,11.2,0c-6.6-2-1.2-12.3,3.4-23.5c1.8,0,8,0,8.6,0c0.5,0,0.8-1.2,0-1.2c-1,0-8.2,0-8.2,0
		s1.7-4.3,2-5c0.3-0.7-1.2-1-1.5-0.4C142.9,58.5,131.2,86.9,127.5,88.1z"/>
	<path d="M137.2,15.9c25.9-0.1,17.4,78.9,55.3,71.1c-24.6-41.6-18.3-69.2-39.4-71.1C149,15.6,137.2,15.9,137.2,15.9z"/>
</g>
<g>
	<path d="M2.5,118.3h3.6v0.9H3.5v1.5H6v0.9H3.5v2.4h-1V118.3z"/>
	<path d="M19.7,118.3h1v5.7h-1V118.3z"/>
	<path d="M34.6,118.3h1.3l2.7,4.3h0v-4.3h1v5.7h-1.3l-2.8-4.4h0v4.4h-1L34.6,118.3L34.6,118.3z"/>
	<path d="M53.5,118.3h3.7v0.9h-2.7v1.4h2.6v0.9h-2.6v1.6h2.9v0.9h-3.9V118.3z"/>
	<path d="M87.9,118.3h0.9l2.4,5.7H90l-0.5-1.3h-2.4l-0.5,1.3h-1.1L87.9,118.3z M89.1,121.9l-0.9-2.3l-0.9,2.3H89.1z"/>
	<path d="M104.5,118.3h1.9c0.3,0,0.5,0,0.8,0.1s0.5,0.1,0.7,0.3s0.3,0.3,0.5,0.5c0.1,0.2,0.2,0.5,0.2,0.8c0,0.4-0.1,0.8-0.3,1
		s-0.5,0.5-1,0.5l1.5,2.5h-1.2l-1.3-2.4h-0.7v2.4h-1L104.5,118.3L104.5,118.3z M106.2,120.7c0.1,0,0.3,0,0.4,0
		c0.1,0,0.3-0.1,0.4-0.1c0.1-0.1,0.2-0.1,0.3-0.2c0.1-0.1,0.1-0.3,0.1-0.5c0-0.2,0-0.3-0.1-0.4c-0.1-0.1-0.2-0.2-0.3-0.2
		c-0.1-0.1-0.2-0.1-0.4-0.1s-0.3,0-0.4,0h-0.9v1.6L106.2,120.7L106.2,120.7z"/>
	<path d="M123.1,119.2h-1.7v-0.9h4.4v0.9h-1.7v4.8h-1V119.2z"/>
	<path d="M159.1,123.6c-0.7,0.4-1.5,0.6-2.3,0.6c-0.4,0-0.8-0.1-1.2-0.2c-0.4-0.1-0.7-0.3-0.9-0.6c-0.3-0.3-0.5-0.6-0.6-0.9
		c-0.1-0.4-0.2-0.8-0.2-1.2c0-0.5,0.1-0.9,0.2-1.2c0.1-0.4,0.3-0.7,0.6-1c0.3-0.3,0.6-0.5,0.9-0.6c0.4-0.1,0.8-0.2,1.2-0.2
		c0.4,0,0.8,0.1,1.2,0.2c0.4,0.1,0.7,0.3,1,0.6l-0.7,0.8c-0.2-0.2-0.4-0.3-0.6-0.4c-0.3-0.1-0.5-0.1-0.8-0.1c-0.3,0-0.6,0.1-0.8,0.2
		c-0.2,0.1-0.4,0.3-0.6,0.4c-0.2,0.2-0.3,0.4-0.4,0.6c-0.1,0.3-0.1,0.5-0.1,0.8c0,0.3,0.1,0.6,0.1,0.8c0.1,0.3,0.2,0.5,0.4,0.7
		c0.2,0.2,0.4,0.3,0.6,0.5c0.2,0.1,0.5,0.2,0.8,0.2c0.3,0,0.5,0,0.7-0.1c0.2-0.1,0.4-0.1,0.6-0.2v-1.4H157v-0.9h2.1L159.1,123.6
		L159.1,123.6z"/>
	<path d="M174.8,118.3h0.9l2.4,5.7H177l-0.5-1.3H174l-0.5,1.3h-1.1L174.8,118.3z M176.1,121.9l-0.9-2.3l-0.9,2.3H176.1z"/>
	<path d="M191.4,118.3h1v4.8h2.4v0.9h-3.4L191.4,118.3L191.4,118.3z"/>
	<path d="M208.2,118.3h1v4.8h2.4v0.9h-3.4L208.2,118.3L208.2,118.3z"/>
	<path d="M224.9,118.3h3.7v0.9h-2.7v1.4h2.6v0.9h-2.6v1.6h2.9v0.9h-3.9V118.3z"/>
	<path d="M242.4,118.3h1.9c0.3,0,0.5,0,0.8,0.1s0.5,0.1,0.7,0.3c0.2,0.1,0.3,0.3,0.5,0.5c0.1,0.2,0.2,0.5,0.2,0.8
		c0,0.4-0.1,0.8-0.3,1c-0.2,0.3-0.5,0.5-1,0.5l1.5,2.5h-1.2l-1.3-2.4h-0.7v2.4h-1L242.4,118.3L242.4,118.3z M244.2,120.7
		c0.1,0,0.3,0,0.4,0c0.1,0,0.3-0.1,0.4-0.1c0.1-0.1,0.2-0.1,0.3-0.2c0.1-0.1,0.1-0.3,0.1-0.5c0-0.2,0-0.3-0.1-0.4
		c-0.1-0.1-0.2-0.2-0.3-0.2c-0.1-0.1-0.2-0.1-0.4-0.1c-0.1,0-0.3,0-0.4,0h-0.9v1.6L244.2,120.7L244.2,120.7z"/>
	<path d="M261.1,121.6l-2.1-3.3h1.2l1.4,2.3l1.4-2.3h1.2l-2.1,3.3v2.5h-1L261.1,121.6L261.1,121.6z"/>
</g>
<g>
	<path d="M16,96.8c-0.5-0.7-1.2-1.2-1.9-1.6c-0.8-0.4-1.6-0.5-2.4-0.5c-1,0-1.9,0.2-2.8,0.6c-0.8,0.4-1.6,0.9-2.1,1.6
		c-0.6,0.7-1,1.4-1.4,2.3c-0.3,0.9-0.5,1.9-0.5,2.9c0,1,0.1,1.9,0.5,2.7c0.3,0.8,0.8,1.6,1.3,2.3c0.6,0.6,1.3,1.2,2.1,1.6
		c0.8,0.4,1.8,0.6,2.9,0.6c1,0,1.9-0.2,2.7-0.6c0.8-0.4,1.5-1,2-1.8l2.1,1.6c-0.1,0.2-0.4,0.5-0.7,0.8c-0.3,0.3-0.8,0.7-1.4,1
		c-0.6,0.3-1.2,0.6-2,0.9c-0.8,0.3-1.7,0.4-2.8,0.4c-1.4,0-2.7-0.3-3.9-0.8c-1.2-0.5-2.1-1.3-3-2.1c-0.8-0.9-1.4-1.9-1.9-3
		s-0.6-2.3-0.6-3.4c0-1.4,0.2-2.7,0.7-3.9C3.3,97,4,96,4.8,95.1c0.8-0.9,1.8-1.5,3-2s2.5-0.7,3.8-0.7c1.2,0,2.4,0.2,3.5,0.7
		c1.2,0.5,2.1,1.2,2.8,2.1L16,96.8z"/>
	<path d="M29.6,92.9h2.2l7.8,18.2h-2.9l-1.8-4.5h-8.6l-1.8,4.5h-2.9L29.6,92.9z M34,104.4l-3.4-8.4h-0.1l-3.4,8.4H34z"/>
	<path d="M44.5,92.9h6.4c1.2,0,2.1,0.2,2.9,0.5c0.8,0.3,1.4,0.7,1.8,1.2c0.4,0.5,0.7,1,0.9,1.6c0.2,0.6,0.3,1.2,0.3,1.7
		c0,0.6-0.1,1.2-0.3,1.7c-0.2,0.6-0.5,1.2-0.9,1.6c-0.4,0.5-1,0.9-1.8,1.2c-0.8,0.3-1.7,0.5-2.9,0.5H47v8h-2.5L44.5,92.9L44.5,92.9z
		 M47,100.9h3.2c0.5,0,1,0,1.4-0.1c0.5-0.1,0.9-0.2,1.3-0.4c0.4-0.2,0.6-0.5,0.9-0.9c0.2-0.4,0.3-0.9,0.3-1.5c0-0.6-0.1-1.1-0.3-1.5
		c-0.2-0.4-0.5-0.7-0.9-0.9c-0.4-0.2-0.8-0.3-1.3-0.4c-0.5-0.1-0.9-0.1-1.4-0.1H47V100.9z"/>
	<path d="M62.3,92.9h2.5v18.2h-2.5V92.9z"/>
	<path d="M75.8,95.2H70v-2.3h14.2v2.3h-5.8v15.9h-2.5V95.2z"/>
	<path d="M92.7,92.9h2.2l7.8,18.2h-2.9l-1.8-4.5h-8.6l-1.8,4.5h-2.9L92.7,92.9z M97.1,104.4l-3.4-8.4h-0.1l-3.4,8.4H97.1z"/>
	<path d="M107.6,92.9h2.5v15.9h8.4v2.3h-10.8L107.6,92.9L107.6,92.9z"/>
	<path d="M132.6,92.9h5.6c1.6,0,2.9,0.2,4,0.6c1.1,0.4,2,0.9,2.7,1.5c0.7,0.6,1.3,1.3,1.7,2c0.4,0.7,0.7,1.4,0.9,2.1
		c0.2,0.7,0.3,1.3,0.4,1.8c0.1,0.5,0.1,0.9,0.1,1.1c0,0.2,0,0.6-0.1,1.1c-0.1,0.5-0.2,1.1-0.4,1.8c-0.2,0.7-0.5,1.4-0.9,2.1
		c-0.4,0.7-1,1.4-1.7,2c-0.7,0.6-1.6,1.1-2.7,1.5c-1.1,0.4-2.4,0.6-4,0.6h-5.6V92.9z M134.3,109.5h3.5c1.2,0,2.3-0.1,3.4-0.5
		c1-0.3,1.9-0.8,2.7-1.4c0.8-0.6,1.4-1.4,1.8-2.3c0.5-1,0.7-2.1,0.7-3.4c0-1.3-0.2-2.4-0.7-3.4s-1-1.7-1.8-2.3
		c-0.8-0.6-1.7-1.1-2.7-1.4c-1-0.3-2.2-0.5-3.4-0.5h-3.5V109.5z"/>
	<path d="M154.5,92.9h11.1v1.6h-9.4v6.5h8.8v1.6h-8.8v7.1h9.8v1.6h-11.5V92.9z"/>
	<path d="M172.2,92.9h1.7v16.6h8.5v1.6h-10.2V92.9z"/>
	<path d="M202.4,92.9h2.2l7.8,18.2h-2.9l-1.8-4.5h-8.6l-1.8,4.5h-2.9L202.4,92.9z M206.8,104.4l-3.4-8.4h-0.1l-3.4,8.4H206.8z"/>
	<path d="M217.3,92.9h6.4c1.2,0,2.1,0.2,2.9,0.5c0.8,0.3,1.4,0.7,1.8,1.2c0.4,0.5,0.7,1,0.9,1.6c0.2,0.6,0.3,1.2,0.3,1.7
		c0,0.6-0.1,1.1-0.3,1.7c-0.2,0.6-0.5,1-0.9,1.5c-0.4,0.4-0.8,0.8-1.4,1.1s-1.2,0.5-1.9,0.6l5.2,8.3h-3.1l-4.6-8h-2.7v8h-2.5
		L217.3,92.9L217.3,92.9z M219.8,100.9h3.2c0.5,0,1,0,1.4-0.1c0.5-0.1,0.9-0.2,1.3-0.4c0.4-0.2,0.6-0.5,0.9-0.9
		c0.2-0.4,0.3-0.9,0.3-1.5c0-0.6-0.1-1.1-0.3-1.5c-0.2-0.4-0.5-0.7-0.9-0.9c-0.4-0.2-0.8-0.3-1.3-0.4c-0.5-0.1-1-0.1-1.4-0.1h-3.2
		V100.9z"/>
	<path d="M238.9,95.2h-5.8v-2.3h14.2v2.3h-5.8v15.9h-2.5L238.9,95.2L238.9,95.2z"/>
	<path d="M252.4,92.9h11.7v2.3h-9.3v5.4h8.6v2.3h-8.6v5.8h9.7v2.3h-12.2L252.4,92.9L252.4,92.9z"/>
</g>
</svg>
