<?xml version="1.0" encoding="utf-8"?>
<!-- Generator: Adobe Illustrator 24.2.0, SVG Export Plug-In . SVG Version: 6.00 Build 0)  -->
<svg version="1.1" id="Capa_1" xmlns="http://www.w3.org/2000/svg" xmlns:xlink="http://www.w3.org/1999/xlink" x="0px" y="0px"
	 width="270.5px" height="134px" viewBox="0 0 270.5 134" style="enable-background:new 0 0 270.5 134;" xml:space="preserve">
<style type="text/css">
	.st0{fill:#B1B1B1;}
	.st1{fill:#363636;}
</style>
<g>
	<path class="st0" d="M132.5,45.7C96.5,28.9-13,47.5,21.3,87.3C-34.4,55,52.7,10,132.5,45.7z"/>
	<g>
		<path class="st1" d="M41.9,75.1h10.5c0.1,0.8,0.1,1.7,0.1,2.7c0,1.8,0,3.1-0.1,3.9c-0.2,2.9-1.2,4.8-3.2,5.7c-1,0.4-3.4,0.7-7,0.7
			c-2.4,0-4.2-0.1-5.3-0.4s-2.1-0.8-2.8-1.5c-1.2-1.1-1.9-2.8-2-5.1c-0.1-0.9-0.1-2-0.1-3.4c0-0.3,0-1.1,0-2.6c0-0.4,0-0.7,0-1
			c0-2.2,0.1-3.9,0.3-5c0.2-1.2,0.5-2.2,0.9-3.1c0.8-1.6,2.2-2.6,4.2-3c0.8-0.1,2.3-0.2,4.5-0.2c2.4,0,4.1,0,4.9,0.1
			s1.6,0.2,2.2,0.4c2.1,0.7,3.2,2.3,3.4,4.8c0,0.4,0.1,1.3,0.1,2.6h-3.2c0-1.8-0.2-3.1-0.4-3.7c-0.3-0.6-1-1-2.3-1.2
			c-0.9-0.1-2.5-0.1-4.9-0.1c-2,0-3.4,0.1-4.2,0.4c-1,0.3-1.6,1.1-1.9,2.5c-0.1,0.7-0.2,3-0.3,6.7c0,3,0,4.7,0.1,5.2
			c0.1,1.3,0.2,2.2,0.6,2.8c0.3,0.6,0.9,1.1,1.6,1.3c0.9,0.3,2.9,0.4,5.9,0.4c1.6,0,2.8-0.1,3.5-0.2c0.8-0.2,1.3-0.4,1.6-0.8
			c0.4-0.6,0.7-2.1,0.7-4.6c0-0.3,0-0.7,0-1.2h-7.4V75.1z"/>
		<path class="st1" d="M60.5,66v7.4H73v2.9H60.5v8.3h12.9v3H57.3V63h16.2v3H60.5z"/>
		<path class="st1" d="M88.2,62.7c1.8,0,3.1,0.1,4,0.2c0.9,0.1,1.7,0.3,2.4,0.6c2,0.9,3.2,2.9,3.6,6c0.1,0.8,0.2,2.4,0.2,4.6
			c0,3.8-0.1,6.2-0.2,7.1c-0.2,1.6-0.6,2.8-1.1,3.7c-0.5,0.9-1.2,1.6-2.2,2.1c-1,0.5-2.3,0.8-3.9,0.9c-0.8,0-1.9,0.1-3.1,0.1
			c-2.1,0-3.6-0.1-4.5-0.2c-0.9-0.1-1.7-0.4-2.5-0.7c-1.4-0.7-2.4-2-2.9-3.7c-0.3-1.2-0.5-2.6-0.5-4.3c0-1.1,0-2.7,0-4.8
			c0-2.3,0.1-3.8,0.2-4.7c0.4-3.1,1.6-5.1,3.6-6c0.9-0.4,2.1-0.7,3.5-0.7C85.6,62.7,86.8,62.7,88.2,62.7z M87.6,65.7
			c-1.6,0-2.7,0-3.3,0.1c-0.7,0.1-1.2,0.2-1.7,0.4c-0.8,0.4-1.4,1.1-1.6,2.3c-0.2,0.8-0.3,1.8-0.3,2.9v3.8c0,3,0,4.7,0.1,5.3
			c0.1,1.1,0.3,2,0.6,2.6c0.3,0.6,0.7,1,1.3,1.2c0.5,0.2,1.3,0.4,2.3,0.4c0.8,0,1.8,0.1,3.1,0.1c1.7,0,2.9,0,3.6-0.1
			s1.3-0.2,1.7-0.4c0.8-0.4,1.4-1.1,1.6-2.4c0.2-0.9,0.3-1.8,0.3-2.9v-3.8c0-3,0-4.7-0.1-5.3c-0.1-1.1-0.3-2-0.6-2.6
			c-0.3-0.6-0.7-1-1.3-1.2c-0.5-0.2-1.3-0.4-2.3-0.4C90.1,65.8,89,65.7,87.6,65.7z"/>
		<path class="st1" d="M129.9,63v24.6h-3.2V66.1l-8.6,21.5H115l-8.6-21.5v21.5h-3.2V63h5l8.3,21l8.3-21H129.9z"/>
		<path class="st1" d="M162.4,63v24.6h-3.2V66.1l-8.6,21.5h-3.1l-8.6-21.5v21.5h-3.2V63h5l8.3,21l8.3-21H162.4z"/>
		<path class="st1" d="M182.8,82.5H171l-1.9,5.1h-3.4l9-24.6h4.1l9.2,24.6h-3.4L182.8,82.5z M181.7,79.7l-4.9-13.1l-4.8,13.1H181.7z
			"/>
		<path class="st1" d="M199.7,75.1h10.5c0.1,0.8,0.1,1.7,0.1,2.7c0,1.8,0,3.1-0.1,3.9c-0.2,2.9-1.2,4.8-3.2,5.7
			c-1,0.4-3.4,0.7-7,0.7c-2.4,0-4.2-0.1-5.3-0.4s-2.1-0.8-2.8-1.5c-1.2-1.1-1.9-2.8-2-5.1c-0.1-0.9-0.1-2-0.1-3.4c0-0.3,0-1.1,0-2.6
			c0-0.4,0-0.7,0-1c0-2.2,0.1-3.9,0.3-5s0.5-2.2,0.9-3.1c0.8-1.6,2.2-2.6,4.2-3c0.8-0.1,2.3-0.2,4.5-0.2c2.4,0,4.1,0,4.9,0.1
			c0.8,0.1,1.6,0.2,2.2,0.4c2.1,0.7,3.2,2.3,3.4,4.8c0,0.4,0.1,1.3,0.1,2.6H207c0-1.8-0.2-3.1-0.4-3.7c-0.3-0.6-1-1-2.3-1.2
			c-0.9-0.1-2.5-0.1-4.9-0.1c-2,0-3.4,0.1-4.2,0.4c-1,0.3-1.6,1.1-1.9,2.5c-0.1,0.7-0.2,3-0.3,6.7c0,3,0,4.7,0.1,5.2
			c0.1,1.3,0.2,2.2,0.6,2.8c0.3,0.6,0.9,1.1,1.6,1.3c0.9,0.3,2.9,0.4,5.9,0.4c1.6,0,2.8-0.1,3.5-0.2c0.8-0.2,1.3-0.4,1.6-0.8
			c0.4-0.6,0.7-2.1,0.7-4.6c0-0.3,0-0.7,0-1.2h-7.4V75.1z"/>
	</g>
	<g>
		<path d="M54.3,93.2v5.2c0,0.6-0.1,1.1-0.4,1.6c-0.3,0.4-0.6,0.8-1.1,1c-0.5,0.2-1.1,0.4-1.7,0.4c-1,0-1.8-0.3-2.3-0.8
			c-0.6-0.5-0.8-1.3-0.8-2.2v-5.2h1.3v5.1c0,0.7,0.2,1.2,0.5,1.5s0.8,0.5,1.4,0.5c1.2,0,1.9-0.7,1.9-2v-5.1H54.3z"/>
		<path d="M60.4,101.3h-1.3v-3.8c0-0.5-0.1-0.8-0.3-1.1s-0.5-0.3-0.9-0.3c-0.5,0-0.9,0.2-1.2,0.5s-0.4,0.9-0.4,1.6v3H55v-6.1h1
			l0.2,0.8h0.1c0.2-0.3,0.4-0.5,0.8-0.7c0.3-0.2,0.7-0.2,1.1-0.2c1.5,0,2.2,0.7,2.2,2.2V101.3z"/>
		<path d="M61,93.6c0-0.2,0.1-0.4,0.2-0.5s0.3-0.2,0.5-0.2c0.2,0,0.4,0.1,0.5,0.2s0.2,0.3,0.2,0.5c0,0.2-0.1,0.4-0.2,0.5
			s-0.3,0.2-0.5,0.2c-0.2,0-0.4-0.1-0.5-0.2S61,93.8,61,93.6z M62.4,101.3h-1.3v-6.1h1.3V101.3z"/>
		<path d="M65.2,101.4c-0.8,0-1.4-0.3-1.8-0.8c-0.4-0.6-0.6-1.3-0.6-2.3c0-1,0.2-1.8,0.6-2.3c0.4-0.6,1-0.8,1.8-0.8
			c0.8,0,1.4,0.3,1.8,0.9h0.1c-0.1-0.4-0.1-0.8-0.1-1v-2.2h1.3v8.6h-1l-0.2-0.8H67C66.6,101.1,66,101.4,65.2,101.4z M65.5,100.4
			c0.5,0,0.9-0.1,1.2-0.4s0.4-0.8,0.4-1.5v-0.2c0-0.8-0.1-1.3-0.4-1.6c-0.3-0.3-0.6-0.5-1.2-0.5c-0.5,0-0.8,0.2-1.1,0.6
			c-0.2,0.4-0.4,0.9-0.4,1.6c0,0.7,0.1,1.2,0.4,1.5C64.7,100.2,65,100.4,65.5,100.4z"/>
		<path d="M72.9,101.3l-0.3-0.9h0c-0.3,0.4-0.6,0.6-0.9,0.8c-0.3,0.1-0.7,0.2-1.1,0.2c-0.6,0-1.1-0.2-1.4-0.5
			c-0.3-0.3-0.5-0.8-0.5-1.4c0-0.6,0.2-1.1,0.7-1.4c0.5-0.3,1.2-0.5,2.1-0.5l1.1,0v-0.3c0-0.4-0.1-0.7-0.3-0.9
			c-0.2-0.2-0.5-0.3-0.8-0.3c-0.3,0-0.6,0-0.9,0.1c-0.3,0.1-0.6,0.2-0.8,0.3l-0.4-0.9c0.3-0.2,0.7-0.3,1.1-0.4
			c0.4-0.1,0.8-0.1,1.1-0.1c0.8,0,1.4,0.2,1.8,0.5s0.6,0.9,0.6,1.6v4.1H72.9z M70.9,100.4c0.5,0,0.8-0.1,1.1-0.4
			c0.3-0.3,0.4-0.6,0.4-1.1v-0.5l-0.8,0c-0.6,0-1.1,0.1-1.3,0.3s-0.4,0.5-0.4,0.8c0,0.3,0.1,0.5,0.2,0.6
			C70.4,100.4,70.6,100.4,70.9,100.4z"/>
		<path d="M76.5,101.4c-0.8,0-1.4-0.3-1.8-0.8s-0.6-1.3-0.6-2.3c0-1,0.2-1.8,0.6-2.3c0.4-0.6,1-0.8,1.8-0.8c0.8,0,1.4,0.3,1.8,0.9
			h0.1c-0.1-0.4-0.1-0.8-0.1-1v-2.2h1.3v8.6h-1l-0.2-0.8h-0.1C77.9,101.1,77.3,101.4,76.5,101.4z M76.9,100.4c0.5,0,0.9-0.1,1.2-0.4
			c0.2-0.3,0.4-0.8,0.4-1.5v-0.2c0-0.8-0.1-1.3-0.4-1.6c-0.3-0.3-0.6-0.5-1.2-0.5c-0.5,0-0.8,0.2-1.1,0.6c-0.2,0.4-0.4,0.9-0.4,1.6
			c0,0.7,0.1,1.2,0.4,1.5C76,100.2,76.4,100.4,76.9,100.4z"/>
		<path d="M86,101.4c-0.8,0-1.4-0.3-1.8-0.8s-0.6-1.3-0.6-2.3c0-1,0.2-1.8,0.6-2.3c0.4-0.6,1-0.8,1.8-0.8c0.8,0,1.4,0.3,1.8,0.9H88
			c-0.1-0.4-0.1-0.8-0.1-1v-2.2h1.3v8.6h-1l-0.2-0.8h-0.1C87.5,101.1,86.9,101.4,86,101.4z M86.4,100.4c0.5,0,0.9-0.1,1.2-0.4
			c0.2-0.3,0.4-0.8,0.4-1.5v-0.2c0-0.8-0.1-1.3-0.4-1.6c-0.3-0.3-0.6-0.5-1.2-0.5c-0.5,0-0.8,0.2-1.1,0.6c-0.2,0.4-0.4,0.9-0.4,1.6
			c0,0.7,0.1,1.2,0.4,1.5S85.9,100.4,86.4,100.4z"/>
		<path d="M92.6,101.4c-0.9,0-1.7-0.3-2.2-0.8c-0.5-0.6-0.8-1.3-0.8-2.3c0-1,0.2-1.8,0.7-2.4c0.5-0.6,1.2-0.9,2-0.9
			c0.8,0,1.4,0.2,1.9,0.7s0.7,1.2,0.7,2v0.7h-4.1c0,0.6,0.2,1,0.5,1.4s0.7,0.5,1.3,0.5c0.4,0,0.7,0,1-0.1c0.3-0.1,0.6-0.2,1-0.3v1.1
			c-0.3,0.2-0.6,0.3-1,0.3S93,101.4,92.6,101.4z M92.3,96.1c-0.4,0-0.7,0.1-1,0.4c-0.2,0.3-0.4,0.6-0.4,1.1h2.8
			c0-0.5-0.1-0.9-0.4-1.1S92.7,96.1,92.3,96.1z"/>
		<path d="M103.6,93.2h1.4l-2.8,8.1h-1.4L98,93.2h1.4l1.7,5c0.1,0.2,0.2,0.5,0.3,0.9c0.1,0.4,0.2,0.7,0.2,0.8c0-0.3,0.1-0.6,0.2-1
			c0.1-0.4,0.2-0.6,0.2-0.8L103.6,93.2z"/>
		<path d="M107.5,101.4c-0.9,0-1.7-0.3-2.2-0.8c-0.5-0.6-0.8-1.3-0.8-2.3c0-1,0.2-1.8,0.7-2.4s1.2-0.9,2-0.9c0.8,0,1.4,0.2,1.9,0.7
			s0.7,1.2,0.7,2v0.7h-4.1c0,0.6,0.2,1,0.5,1.4s0.7,0.5,1.3,0.5c0.4,0,0.7,0,1-0.1c0.3-0.1,0.6-0.2,1-0.3v1.1
			c-0.3,0.2-0.6,0.3-1,0.3S107.9,101.4,107.5,101.4z M107.2,96.1c-0.4,0-0.7,0.1-1,0.4s-0.4,0.6-0.4,1.1h2.8c0-0.5-0.1-0.9-0.4-1.1
			C108,96.2,107.6,96.1,107.2,96.1z"/>
		<path d="M113.3,95.1c0.3,0,0.5,0,0.6,0.1l-0.1,1.2c-0.2,0-0.4-0.1-0.6-0.1c-0.5,0-0.9,0.2-1.3,0.5c-0.3,0.3-0.5,0.8-0.5,1.3v3.2
			h-1.3v-6.1h1l0.2,1.1h0.1c0.2-0.4,0.5-0.7,0.8-0.9S112.9,95.1,113.3,95.1z"/>
		<path d="M113.9,93.6c0-0.2,0.1-0.4,0.2-0.5s0.3-0.2,0.5-0.2c0.2,0,0.4,0.1,0.5,0.2s0.2,0.3,0.2,0.5c0,0.2-0.1,0.4-0.2,0.5
			s-0.3,0.2-0.5,0.2c-0.2,0-0.4-0.1-0.5-0.2S113.9,93.8,113.9,93.6z M115.2,101.3h-1.3v-6.1h1.3V101.3z"/>
		<path d="M119,96.2h-1.5v5.1h-1.3v-5.1h-1v-0.6l1-0.4v-0.4c0-0.7,0.2-1.3,0.5-1.6s0.9-0.5,1.6-0.5c0.5,0,0.9,0.1,1.3,0.2l-0.3,1
			c-0.3-0.1-0.6-0.2-0.9-0.2c-0.3,0-0.5,0.1-0.6,0.3c-0.1,0.2-0.2,0.5-0.2,0.8v0.4h1.5V96.2z M120,93.6c0-0.2,0.1-0.4,0.2-0.5
			s0.3-0.2,0.5-0.2c0.2,0,0.4,0.1,0.5,0.2s0.2,0.3,0.2,0.5c0,0.2-0.1,0.4-0.2,0.5s-0.3,0.2-0.5,0.2c-0.2,0-0.4-0.1-0.5-0.2
			S120,93.8,120,93.6z M121.4,101.3h-1.3v-6.1h1.3V101.3z"/>
		<path d="M124.5,101.4c-0.9,0-1.6-0.3-2.1-0.8s-0.7-1.3-0.7-2.3c0-1,0.3-1.8,0.8-2.4c0.5-0.6,1.2-0.8,2.2-0.8
			c0.6,0,1.2,0.1,1.7,0.4l-0.4,1c-0.5-0.2-1-0.3-1.4-0.3c-1.1,0-1.6,0.7-1.6,2.1c0,0.7,0.1,1.2,0.4,1.5c0.3,0.3,0.6,0.5,1.2,0.5
			c0.6,0,1.1-0.1,1.6-0.4v1.1c-0.2,0.1-0.5,0.2-0.7,0.3C125.2,101.4,124.9,101.4,124.5,101.4z"/>
		<path d="M134.3,101.4c-0.9,0-1.6-0.3-2.1-0.8s-0.7-1.3-0.7-2.3c0-1,0.3-1.8,0.8-2.4c0.5-0.6,1.2-0.8,2.2-0.8
			c0.6,0,1.2,0.1,1.7,0.4l-0.4,1c-0.5-0.2-1-0.3-1.4-0.3c-1.1,0-1.6,0.7-1.6,2.1c0,0.7,0.1,1.2,0.4,1.5c0.3,0.3,0.6,0.5,1.2,0.5
			c0.6,0,1.1-0.1,1.6-0.4v1.1c-0.2,0.1-0.5,0.2-0.7,0.3C135,101.4,134.6,101.4,134.3,101.4z"/>
		<path d="M130.4,101.3l-0.3-0.9h0c-0.3,0.4-0.6,0.6-0.9,0.8s-0.7,0.2-1.1,0.2c-0.6,0-1.1-0.2-1.4-0.5c-0.3-0.3-0.5-0.8-0.5-1.4
			c0-0.6,0.2-1.1,0.7-1.4c0.5-0.3,1.2-0.5,2.1-0.5l1.1,0v-0.3c0-0.4-0.1-0.7-0.3-0.9c-0.2-0.2-0.5-0.3-0.8-0.3c-0.3,0-0.6,0-0.9,0.1
			c-0.3,0.1-0.6,0.2-0.8,0.3l-0.4-0.9c0.3-0.2,0.7-0.3,1.1-0.4c0.4-0.1,0.8-0.1,1.1-0.1c0.8,0,1.4,0.2,1.8,0.5
			c0.4,0.3,0.6,0.9,0.6,1.6v4.1H130.4z M128.4,100.4c0.5,0,0.8-0.1,1.1-0.4c0.3-0.3,0.4-0.6,0.4-1.1v-0.5l-0.8,0
			c-0.6,0-1.1,0.1-1.3,0.3c-0.3,0.2-0.4,0.5-0.4,0.8c0,0.3,0.1,0.5,0.2,0.6S128.1,100.4,128.4,100.4z"/>
		<path d="M136.8,93.6c0-0.2,0.1-0.4,0.2-0.5c0.1-0.1,0.3-0.2,0.5-0.2c0.2,0,0.4,0.1,0.5,0.2c0.1,0.1,0.2,0.3,0.2,0.5
			c0,0.2-0.1,0.4-0.2,0.5c-0.1,0.1-0.3,0.2-0.5,0.2c-0.2,0-0.4-0.1-0.5-0.2C136.9,94,136.8,93.8,136.8,93.6z M138.2,101.3h-1.3v-6.1
			h1.3V101.3z"/>
		<path d="M144.3,98.2c0,1-0.3,1.8-0.8,2.3c-0.5,0.6-1.2,0.8-2.1,0.8c-0.6,0-1.1-0.1-1.5-0.4c-0.4-0.3-0.8-0.6-1-1.1
			c-0.2-0.5-0.4-1-0.4-1.7c0-1,0.3-1.8,0.8-2.3c0.5-0.6,1.2-0.8,2.1-0.8c0.9,0,1.6,0.3,2.1,0.9C144.1,96.5,144.3,97.3,144.3,98.2z
			 M139.9,98.2c0,1.4,0.5,2.1,1.6,2.1c1,0,1.5-0.7,1.5-2.1c0-1.4-0.5-2.1-1.6-2.1c-0.5,0-0.9,0.2-1.2,0.5
			C140,97.1,139.9,97.6,139.9,98.2z M140.6,94.5v-0.1c0.2-0.3,0.4-0.5,0.6-0.9s0.4-0.6,0.5-0.8h1.5v0.1c-0.2,0.2-0.5,0.5-0.9,0.9
			c-0.4,0.4-0.7,0.6-1,0.8H140.6z"/>
		<path d="M150.1,101.3h-1.3v-3.8c0-0.5-0.1-0.8-0.3-1.1c-0.2-0.2-0.5-0.3-0.9-0.3c-0.5,0-0.9,0.2-1.2,0.5s-0.4,0.9-0.4,1.6v3h-1.3
			v-6.1h1l0.2,0.8h0.1c0.2-0.3,0.4-0.5,0.8-0.7s0.7-0.2,1.1-0.2c1.5,0,2.2,0.7,2.2,2.2V101.3z"/>
		<path d="M159.5,101.3l-0.8-2.2h-3.1l-0.8,2.2h-1.4l3-8.1h1.4l3,8.1H159.5z M158.4,97.9l-0.8-2.2c-0.1-0.1-0.1-0.4-0.2-0.7
			c-0.1-0.3-0.2-0.5-0.2-0.7c-0.1,0.5-0.2,0.9-0.4,1.5l-0.7,2.1H158.4z"/>
		<path d="M163.2,101.4c-0.9,0-1.6-0.3-2.1-0.8s-0.7-1.3-0.7-2.3c0-1,0.3-1.8,0.8-2.4c0.5-0.6,1.2-0.8,2.2-0.8
			c0.6,0,1.2,0.1,1.7,0.4l-0.4,1c-0.5-0.2-1-0.3-1.4-0.3c-1.1,0-1.6,0.7-1.6,2.1c0,0.7,0.1,1.2,0.4,1.5c0.3,0.3,0.6,0.5,1.2,0.5
			c0.6,0,1.1-0.1,1.6-0.4v1.1c-0.2,0.1-0.5,0.2-0.7,0.3C163.9,101.4,163.5,101.4,163.2,101.4z"/>
		<path d="M168.3,95.1c0.3,0,0.5,0,0.6,0.1l-0.1,1.2c-0.2,0-0.4-0.1-0.6-0.1c-0.5,0-0.9,0.2-1.3,0.5c-0.3,0.3-0.5,0.8-0.5,1.3v3.2
			h-1.3v-6.1h1l0.2,1.1h0.1c0.2-0.4,0.5-0.7,0.8-0.9S167.9,95.1,168.3,95.1z"/>
		<path d="M171.6,101.4c-0.9,0-1.7-0.3-2.2-0.8s-0.8-1.3-0.8-2.3c0-1,0.2-1.8,0.7-2.4c0.5-0.6,1.2-0.9,2-0.9c0.8,0,1.4,0.2,1.9,0.7
			c0.5,0.5,0.7,1.2,0.7,2v0.7h-4.1c0,0.6,0.2,1,0.5,1.4s0.7,0.5,1.3,0.5c0.4,0,0.7,0,1-0.1c0.3-0.1,0.6-0.2,1-0.3v1.1
			c-0.3,0.2-0.6,0.3-1,0.3C172.4,101.4,172,101.4,171.6,101.4z M171.3,96.1c-0.4,0-0.7,0.1-1,0.4c-0.2,0.3-0.4,0.6-0.4,1.1h2.8
			c0-0.5-0.1-0.9-0.4-1.1S171.8,96.1,171.3,96.1z"/>
		<path d="M176.4,101.4c-0.8,0-1.4-0.3-1.8-0.8s-0.6-1.3-0.6-2.3c0-1,0.2-1.8,0.6-2.3c0.4-0.6,1-0.8,1.8-0.8c0.8,0,1.4,0.3,1.8,0.9
			h0.1c-0.1-0.4-0.1-0.8-0.1-1v-2.2h1.3v8.6h-1l-0.2-0.8h-0.1C177.8,101.1,177.2,101.4,176.4,101.4z M176.7,100.4
			c0.5,0,0.9-0.1,1.2-0.4s0.4-0.8,0.4-1.5v-0.2c0-0.8-0.1-1.3-0.4-1.6s-0.6-0.5-1.2-0.5c-0.5,0-0.8,0.2-1.1,0.6
			c-0.2,0.4-0.4,0.9-0.4,1.6c0,0.7,0.1,1.2,0.4,1.5C175.9,100.2,176.2,100.4,176.7,100.4z"/>
		<path d="M180.1,93.6c0-0.2,0.1-0.4,0.2-0.5c0.1-0.1,0.3-0.2,0.5-0.2c0.2,0,0.4,0.1,0.5,0.2c0.1,0.1,0.2,0.3,0.2,0.5
			c0,0.2-0.1,0.4-0.2,0.5c-0.1,0.1-0.3,0.2-0.5,0.2c-0.2,0-0.4-0.1-0.5-0.2C180.2,94,180.1,93.8,180.1,93.6z M181.5,101.3h-1.3v-6.1
			h1.3V101.3z"/>
		<path d="M184.5,100.4c0.3,0,0.6,0,0.9-0.1v1c-0.1,0.1-0.3,0.1-0.6,0.2c-0.2,0-0.5,0.1-0.7,0.1c-1.2,0-1.8-0.6-1.8-1.9v-3.3h-0.8
			v-0.6l0.9-0.5l0.4-1.3h0.8v1.4h1.7v1h-1.7v3.3c0,0.3,0.1,0.5,0.2,0.7S184.3,100.4,184.5,100.4z"/>
		<path d="M189.4,101.3l-0.3-0.9h0c-0.3,0.4-0.6,0.6-0.9,0.8s-0.7,0.2-1.1,0.2c-0.6,0-1.1-0.2-1.4-0.5s-0.5-0.8-0.5-1.4
			c0-0.6,0.2-1.1,0.7-1.4c0.5-0.3,1.2-0.5,2.1-0.5l1.1,0v-0.3c0-0.4-0.1-0.7-0.3-0.9c-0.2-0.2-0.5-0.3-0.8-0.3c-0.3,0-0.6,0-0.9,0.1
			c-0.3,0.1-0.6,0.2-0.8,0.3l-0.4-0.9c0.3-0.2,0.7-0.3,1.1-0.4c0.4-0.1,0.8-0.1,1.1-0.1c0.8,0,1.4,0.2,1.8,0.5
			c0.4,0.3,0.6,0.9,0.6,1.6v4.1H189.4z M187.4,100.4c0.5,0,0.8-0.1,1.1-0.4c0.3-0.3,0.4-0.6,0.4-1.1v-0.5l-0.8,0
			c-0.6,0-1.1,0.1-1.3,0.3c-0.3,0.2-0.4,0.5-0.4,0.8c0,0.3,0.1,0.5,0.2,0.6C186.9,100.4,187.1,100.4,187.4,100.4z"/>
		<path d="M193,101.4c-0.8,0-1.4-0.3-1.8-0.8s-0.6-1.3-0.6-2.3c0-1,0.2-1.8,0.6-2.3c0.4-0.6,1-0.8,1.8-0.8c0.8,0,1.4,0.3,1.8,0.9
			h0.1c-0.1-0.4-0.1-0.8-0.1-1v-2.2h1.3v8.6h-1l-0.2-0.8h-0.1C194.5,101.1,193.8,101.4,193,101.4z M193.4,100.4
			c0.5,0,0.9-0.1,1.2-0.4c0.2-0.3,0.4-0.8,0.4-1.5v-0.2c0-0.8-0.1-1.3-0.4-1.6c-0.3-0.3-0.6-0.5-1.2-0.5c-0.5,0-0.8,0.2-1.1,0.6
			c-0.2,0.4-0.4,0.9-0.4,1.6c0,0.7,0.1,1.2,0.4,1.5S192.9,100.4,193.4,100.4z"/>
		<path d="M200.7,101.3l-0.3-0.9h0c-0.3,0.4-0.6,0.6-0.9,0.8s-0.7,0.2-1.1,0.2c-0.6,0-1.1-0.2-1.4-0.5c-0.3-0.3-0.5-0.8-0.5-1.4
			c0-0.6,0.2-1.1,0.7-1.4c0.5-0.3,1.2-0.5,2.1-0.5l1.1,0v-0.3c0-0.4-0.1-0.7-0.3-0.9c-0.2-0.2-0.5-0.3-0.8-0.3c-0.3,0-0.6,0-0.9,0.1
			s-0.6,0.2-0.8,0.3l-0.4-0.9c0.3-0.2,0.7-0.3,1.1-0.4c0.4-0.1,0.8-0.1,1.1-0.1c0.8,0,1.4,0.2,1.8,0.5c0.4,0.3,0.6,0.9,0.6,1.6v4.1
			H200.7z M198.8,100.4c0.5,0,0.8-0.1,1.1-0.4c0.3-0.3,0.4-0.6,0.4-1.1v-0.5l-0.8,0c-0.6,0-1.1,0.1-1.3,0.3s-0.4,0.5-0.4,0.8
			c0,0.3,0.1,0.5,0.2,0.6S198.5,100.4,198.8,100.4z"/>
	</g>
	<g>
		<g>
			<path class="st0" d="M231.5,75.3h2.6v13.5c0,1.7-0.2,2.9-0.5,3.6c-0.5,1.1-1.5,1.9-2.9,2.3c-0.8,0.2-2.2,0.3-4.4,0.3
				c-1.6,0-2.7,0-3.4-0.1s-1.3-0.2-1.8-0.4c-1.2-0.4-2-1.1-2.4-2.1c-0.4-0.8-0.5-2-0.5-3.6V75.3h2.6v13.5c0,1.4,0.1,2.3,0.3,2.7
				c0.3,0.5,0.9,0.8,1.7,1c0.5,0.1,1.5,0.1,3,0.1c2.2,0,3.6-0.1,4.3-0.3c0.6-0.2,1-0.7,1.2-1.5c0.1-0.4,0.2-1.1,0.2-2V75.3z"/>
			<path class="st0" d="M250,75.3h2.8l-7.1,19.4h-3.4l-7.2-19.4h2.8l6.1,16.6L250,75.3z"/>
			<path class="st0" d="M262.5,90.7h-9.6l-1.5,4h-2.8l7.4-19.4h3.3l7.5,19.4H264L262.5,90.7z M261.6,88.5l-4-10.4l-3.9,10.4H261.6z"
				/>
		</g>
	</g>
</g>
</svg>
