<?xml version="1.0" encoding="utf-8"?>
<!-- Generator: Adobe Illustrator 24.2.0, SVG Export Plug-In . SVG Version: 6.00 Build 0)  -->
<svg version="1.1" id="Capa_1" xmlns:v="https://vecta.io/nano"
	 xmlns="http://www.w3.org/2000/svg" xmlns:xlink="http://www.w3.org/1999/xlink" x="0px" y="0px" width="101px" height="79px"
	 viewBox="0 0 101 79" style="enable-background:new 0 0 101 79;" xml:space="preserve">
<style type="text/css">
	.st0{opacity:0.1;fill-rule:evenodd;clip-rule:evenodd;fill:#766DF4;enable-background:new    ;}
	.st1{fill:#766DF4;}
</style>
<path class="st0" d="M37.3,74.9c17.9,8.7,53.2,3.1,61.9-14.8s-17.1-38.1-35-46.8s-42-21.7-50.7-3.9S19.4,66.2,37.3,74.9L37.3,74.9z"
	/>
<path class="st1" d="M54.5,78.8H7.3c-3.8,0-6.9-3.1-6.9-6.9v-40c0-3.8,3.1-6.9,6.9-6.9h47.2c3.8,0,6.9,3.1,6.9,6.9v40
	C61.4,75.7,58.3,78.8,54.5,78.8z M7.3,27c-2.7,0-4.9,2.2-4.9,4.9v40c0,2.7,2.2,4.9,4.9,4.9h47.2c2.7,0,4.9-2.2,4.9-4.9v-40
	c0-2.7-2.2-4.9-4.9-4.9H7.3z"/>
<path class="st1" d="M52.1,63H35.9c-0.6,0-1-0.5-1-1c0-0.6,0.5-1,1-1h16.2c0.6,0,1,0.5,1,1C53.2,62.5,52.7,63,52.1,63z"/>
<path class="st1" d="M52.1,70.5H35.9c-0.6,0-1-0.5-1-1c0-0.6,0.5-1,1-1h16.2c0.6,0,1,0.5,1,1C53.2,70,52.7,70.5,52.1,70.5z"/>
<path class="st1" d="M52.1,48.1H35.9c-0.6,0-1-0.5-1-1c0-0.6,0.5-1,1-1h16.2c0.6,0,1,0.5,1,1C53.2,47.6,52.7,48.1,52.1,48.1z"/>
<path class="st1" d="M52.1,55.5H35.9c-0.6,0-1-0.5-1-1c0-0.6,0.5-1,1-1h16.2c0.6,0,1,0.5,1,1C53.2,55.1,52.7,55.5,52.1,55.5z"/>
<path class="st1" d="M60.4,38.7h-59c-0.6,0-1-0.5-1-1s0.5-1,1-1h59c0.6,0,1,0.5,1,1S61,38.7,60.4,38.7z"/>
<path class="st1" d="M15.3,35c-1.8,0-3.2-1.4-3.2-3.2c0-1.8,1.4-3.2,3.2-3.2c1.8,0,3.2,1.4,3.2,3.2C18.5,33.6,17.1,35,15.3,35z
	 M15.3,30.7c-0.6,0-1.1,0.5-1.1,1.1c0,0.6,0.5,1.1,1.1,1.1c0.6,0,1.1-0.5,1.1-1.1C16.4,31.2,15.9,30.7,15.3,30.7z"/>
<path class="st1" d="M7.8,35c-1.8,0-3.2-1.4-3.2-3.2c0-1.8,1.4-3.2,3.2-3.2c1.8,0,3.2,1.4,3.2,3.2C11.1,33.6,9.6,35,7.8,35z
	 M7.8,30.7c-0.6,0-1.1,0.5-1.1,1.1c0,0.6,0.5,1.1,1.1,1.1C8.5,33,9,32.5,9,31.8C9,31.2,8.5,30.7,7.8,30.7z"/>
<path class="st1" d="M22.7,35c-1.8,0-3.2-1.4-3.2-3.2c0-1.8,1.4-3.2,3.2-3.2c1.8,0,3.2,1.4,3.2,3.2C25.9,33.6,24.5,35,22.7,35z
	 M22.7,30.7c-0.6,0-1.1,0.5-1.1,1.1c0,0.6,0.5,1.1,1.1,1.1c0.6,0,1.1-0.5,1.1-1.1C23.9,31.2,23.4,30.7,22.7,30.7z"/>
<path class="st1" d="M28.1,70.5H9.4c-0.6,0-1-0.5-1-1V47c0-0.6,0.5-1,1-1h18.7c0.6,0,1,0.5,1,1v22.4C29.2,70,28.7,70.5,28.1,70.5z
	 M10.4,68.4h16.7V48.1H10.4V68.4z"/>
</svg>
