<?xml version="1.0" encoding="utf-8"?>
<!-- Generator: Adobe Illustrator 24.2.0, SVG Export Plug-In . SVG Version: 6.00 Build 0)  -->
<svg version="1.1" id="Capa_1" xmlns:v="https://vecta.io/nano"
	 xmlns="http://www.w3.org/2000/svg" xmlns:xlink="http://www.w3.org/1999/xlink" x="0px" y="0px" width="102px" height="79px"
	 viewBox="0 0 102 79" style="enable-background:new 0 0 102 79;" xml:space="preserve">
<style type="text/css">
	.st0{fill-rule:evenodd;clip-rule:evenodd;fill:#F74F78;fill-opacity:0.1;}
	.st1{fill:#F74F78;}
</style>
<path class="st0" d="M37.9,74.8c17.9,8.7,53.2,3.1,61.9-14.8S82.7,22,64.8,13.2s-42-21.7-50.7-3.9S20,66.1,37.9,74.8z"/>
<path class="st1" d="M22.9,43c-2.1,1.1-3.6,3.2-3.9,5.5l-1.1,6.9c-0.1,0.6,0.1,1.2,0.6,1.6c0.3,0.2,0.6,0.3,1,0.3
	c0.2,0,0.5,0,0.7-0.1l6-2.7c0,0.5,0.2,0.9,0.5,1.2l-0.6,2c-0.2,0.6-0.1,1.2,0.3,1.8c0.2,0.3,0.5,0.5,0.9,0.7
	c-0.4,0.5-0.7,1.1-0.9,1.7c-1.1-0.7-2.4-1-3.7-1c-3,0-5.7,1.9-6.8,4.6h-5.1V38.9h12.6c0.5,0,0.9-0.4,0.9-0.9c0-0.5-0.4-0.9-0.9-0.9
	H9.7c-0.5,0-0.9,0.4-0.9,0.9v28.4c0,0.5,0.4,0.9,0.9,0.9h46.7c0.5,0,0.9-0.4,0.9-0.9V37.9c0-0.5-0.4-0.9-0.9-0.9H42.9
	c-0.5,0-0.9,0.4-0.9,0.9c0,0.5,0.4,0.9,0.9,0.9h12.6v26.5h-5.1c-1.1-2.8-3.7-4.6-6.8-4.6c-1.3,0-2.6,0.4-3.7,1
	c-0.2-0.6-0.5-1.2-0.9-1.8c0.3-0.1,0.5-0.3,0.7-0.6c0.4-0.5,0.5-1.2,0.3-1.8l-0.6-1.8c0.4-0.4,0.6-0.8,0.6-1.4l6,2.7
	c0.2,0.1,0.4,0.1,0.7,0.1c0.4,0,0.7-0.1,1-0.3c0.5-0.4,0.7-1,0.6-1.6l-1.1-6.9c-0.4-2.3-1.9-4.4-3.9-5.5L40,41.3v-9.5
	c0-2.3-0.5-4.6-1.5-6.7l-2.7-5.6c-0.5-1.1-1.6-1.7-2.8-1.7c-1.2,0-2.2,0.7-2.8,1.7l-2.7,5.6c-1,2.1-1.5,4.4-1.5,6.7v9.5L22.9,43z
	 M19.8,55.2l1.1-6.4c0.3-1.8,1.4-3.3,3-4.2l2.3-1.2v8.9L19.8,55.2z M37.6,56.5l0.5,1.7c0,0,0,0,0,0.1c0,0-0.1,0-0.1,0H27.9
	c0,0,0,0-0.1,0c0,0,0-0.1,0-0.1l0.5-1.7h0H37.6z M39.9,64.1c1-0.9,2.3-1.5,3.7-1.5c2,0,3.7,1.1,4.7,2.8H17.9
	c0.9-1.7,2.7-2.8,4.7-2.8c1.4,0,2.7,0.5,3.7,1.5c0.3,0.2,0.6,0.3,1,0.2c0.3-0.1,0.6-0.4,0.6-0.8c0.2-1.3,0.8-2.5,1.8-3.3h7
	c1,0.9,1.6,2,1.8,3.3c0,0.4,0.3,0.6,0.6,0.8C39.3,64.4,39.7,64.3,39.9,64.1z M42.3,44.6c1.6,0.8,2.7,2.4,3,4.2l1.1,6.4L40,52.4v-8.9
	L42.3,44.6z M28,31.8c0-2,0.5-4.1,1.3-5.9l2.7-5.6c0.2-0.4,0.6-0.7,1.1-0.7s0.9,0.2,1.1,0.7l2.7,5.6c0.9,1.8,1.3,3.9,1.3,5.9v22.4
	c0,0.2-0.2,0.4-0.4,0.4h-9.4c-0.2,0-0.4-0.2-0.4-0.4L28,31.8L28,31.8z"/>
<path class="st1" d="M33.1,38.4c2.4,0,4.3-1.9,4.3-4.3s-1.9-4.3-4.3-4.3s-4.3,1.9-4.3,4.3S30.7,38.4,33.1,38.4z M33.1,31.7
	c1.3,0,2.4,1.1,2.4,2.4s-1.1,2.4-2.4,2.4s-2.4-1.1-2.4-2.4C30.7,32.8,31.7,31.7,33.1,31.7z"/>
<path class="st1" d="M63.1,69h-2.2V36.2c0-1.6-1.3-2.9-2.9-2.9H42.9c-0.5,0-0.9,0.4-0.9,0.9c0,0.5,0.4,0.9,0.9,0.9H58
	c0.6,0,1.1,0.5,1.1,1.1V69h-52V36.2c0-0.6,0.5-1.1,1.1-1.1h15.1c0.5,0,0.9-0.4,0.9-0.9c0-0.5-0.4-0.9-0.9-0.9H8.1
	c-1.6,0-2.9,1.3-2.9,2.9V69H3c-1.2,0-2.1,0.9-2.1,2.1c0,3.1,2.5,5.6,5.6,5.6h53.2c3.1,0,5.6-2.5,5.6-5.6C65.3,69.9,64.3,69,63.1,69z
	 M36.9,74.8h-7.6c-1.1,0-1.9-0.9-1.9-1.9v-2h11.5v2C38.8,73.9,37.9,74.8,36.9,74.8z M2.8,71.1c0-0.1,0.1-0.2,0.2-0.2h22.5v2
	c0,0.7,0.2,1.4,0.5,1.9H6.4C4.4,74.8,2.8,73.1,2.8,71.1z M59.7,74.8H40.2c0.3-0.6,0.5-1.2,0.5-1.9v-2h22.5c0.1,0,0.2,0.1,0.2,0.2
	C63.4,73.1,61.7,74.8,59.7,74.8z"/>
</svg>
