<?xml version="1.0" encoding="utf-8"?>
<!-- Generator: Adobe Illustrator 24.2.0, SVG Export Plug-In . SVG Version: 6.00 Build 0)  -->
<svg version="1.1" id="Capa_1" xmlns:v="https://vecta.io/nano"
	 xmlns="http://www.w3.org/2000/svg" xmlns:xlink="http://www.w3.org/1999/xlink" x="0px" y="0px" width="100px" height="80px"
	 viewBox="0 0 100 80" style="enable-background:new 0 0 100 80;" xml:space="preserve">
<style type="text/css">
	.st0{opacity:0.1;fill-rule:evenodd;clip-rule:evenodd;fill:#FFBD5C;enable-background:new    ;}
	.st1{fill:#FFBD5C;}
</style>
<path class="st0" d="M36.3,74.9c17.9,8.7,53.2,3.1,61.9-14.8s-17.1-38.1-35-46.8s-42-21.7-50.7-3.9S18.4,66.2,36.3,74.9L36.3,74.9z"
	/>
<g>
	<path class="st1" d="M35.6,76.5L24.5,60.7c0.4-0.1,0.7-0.3,1.1-0.4c1.1-0.5,1.5-1.7,1-2.8c-0.5-1.1-1.7-1.5-2.8-1
		c-1.7,0.8-3.6,1.2-5.6,1.2H4.6V44c0-7.5,6.1-13.6,13.6-13.6c5.8,0,11,3.7,12.9,9.2c0.4,1.1,1.6,1.7,2.6,1.3
		c1.1-0.4,1.7-1.6,1.3-2.6c-2.4-7.2-9.2-12.1-16.8-12.1c-9.8,0-17.8,8-17.8,17.8v33.6c0,1.2,0.9,2.1,2.1,2.1s2.1-0.9,2.1-2.1V61.8
		h13.6c0.6,0,1.3,0,1.9-0.1l12.1,17.2c0.4,0.6,1.1,0.9,1.7,0.9c0.4,0,0.8-0.1,1.2-0.4C36,78.7,36.3,77.4,35.6,76.5L35.6,76.5z"/>
	<path class="st1" d="M30.7,55.5c-0.4,0-0.9-0.1-1.2-0.4c-0.9-0.7-1.1-2-0.4-2.9c1.3-1.7,2.2-3.8,2.6-6c0.2-1.1,1.3-1.9,2.4-1.7
		c1.1,0.2,1.9,1.3,1.7,2.4c-0.5,2.9-1.6,5.5-3.3,7.8C32,55.2,31.4,55.5,30.7,55.5L30.7,55.5z"/>
</g>
</svg>
