<?xml version="1.0" encoding="utf-8"?>
<!-- Generator: Adobe Illustrator 24.2.0, SVG Export Plug-In . SVG Version: 6.00 Build 0)  -->
<svg version="1.1" id="Capa_1" xmlns:v="https://vecta.io/nano"
	 xmlns="http://www.w3.org/2000/svg" xmlns:xlink="http://www.w3.org/1999/xlink" x="0px" y="0px" width="98px" height="79px"
	 viewBox="0 0 98 79" style="enable-background:new 0 0 98 79;" xml:space="preserve">
<style type="text/css">
	.st0{opacity:0.1;fill-rule:evenodd;clip-rule:evenodd;fill:#16C995;enable-background:new    ;}
	.st1{fill:#16C995;}
</style>
<path class="st0" d="M34.3,74.9c17.9,8.7,53.2,3.1,61.9-14.8S79.1,22,61.2,13.3s-42-21.7-50.7-3.9S16.4,66.2,34.3,74.9L34.3,74.9z"
	/>
<g>
	<g>
		<path class="st1" d="M30.2,60.7L30.2,60.7c-0.6,0-1,0.4-1,1c0,0.5,0.4,1,1,1c0.5,0,1-0.4,1-1C31.2,61.1,30.8,60.7,30.2,60.7z"/>
	</g>
</g>
<g>
	<path class="st1" d="M25.6,33.8c0.4,0,0.8-0.3,0.8-0.8V28c0-0.4-0.3-0.8-0.8-0.8c-0.4,0-0.8,0.3-0.8,0.8v5.1
		C24.8,33.5,25.1,33.8,25.6,33.8L25.6,33.8z"/>
	<path class="st1" d="M11.4,39.3c0.3,0.3,0.8,0.3,1.1,0c0.3-0.3,0.3-0.8,0-1.1l-3.6-3.6c-0.3-0.3-0.8-0.3-1.1,0
		c-0.3,0.3-0.3,0.8,0,1.1L11.4,39.3z"/>
	<path class="st1" d="M6.3,51.6H1.2c-0.4,0-0.8,0.3-0.8,0.8s0.3,0.8,0.8,0.8h5.1c0.4,0,0.8-0.3,0.8-0.8S6.7,51.6,6.3,51.6z"/>
	<path class="st1" d="M11.4,65.4L7.8,69c-0.3,0.3-0.3,0.8,0,1.1c0.3,0.3,0.8,0.3,1.1,0l3.6-3.6c0.3-0.3,0.3-0.8,0-1.1
		C12.2,65.1,11.7,65.1,11.4,65.4z"/>
	<path class="st1" d="M39.7,65.4c-0.3-0.3-0.8-0.3-1.1,0c-0.3,0.3-0.3,0.8,0,1.1l3.6,3.6c0.3,0.3,0.8,0.3,1.1,0
		c0.3-0.3,0.3-0.8,0-1.1L39.7,65.4z"/>
	<path class="st1" d="M49.9,51.6h-5.1c-0.4,0-0.8,0.3-0.8,0.8s0.3,0.8,0.8,0.8h5.1c0.4,0,0.8-0.3,0.8-0.8S50.4,51.6,49.9,51.6z"/>
	<path class="st1" d="M42.3,34.6l-3.6,3.6c-0.3,0.3-0.3,0.8,0,1.1c0.3,0.3,0.8,0.3,1.1,0l3.6-3.6c0.3-0.3,0.3-0.8,0-1.1
		C43,34.3,42.6,34.3,42.3,34.6z"/>
	<path class="st1" d="M40.6,50.8c0-8.4-6.7-15.2-15-15.2c-2.9,0-5.7,0.8-8.1,2.4c-2.4,1.5-4.2,3.7-5.4,6.3c-0.2,0.4,0,0.8,0.4,1
		c0.4,0.2,0.8,0,1-0.4c2.2-4.8,7-7.8,12.2-7.8C33,37.1,39,43.3,39,50.8c0,3.6-1.4,7-3.8,9.5c-1.4,1.5-2.6,2.9-2.9,4.9H19
		c-0.4-2.1-1.8-3.5-3.1-4.8c-2.5-2.6-3.9-6-3.9-9.6c0-0.9,0.1-1.8,0.3-2.7c0.1-0.4-0.2-0.8-0.6-0.9c-0.4-0.1-0.8,0.2-0.9,0.6
		c-0.2,1-0.3,2-0.3,3c0,4,1.5,7.8,4.3,10.7c1.6,1.6,2.7,3,2.7,4.9c0,0,0,0,0,0l0,4.5c0,1.4,0.8,2.7,1.9,3.4v0.8
		c0,2.1,1.7,3.8,3.8,3.8H28c2.1,0,3.8-1.7,3.8-3.8v-0.8c1.2-0.7,1.9-2,1.9-3.4c0,0,0-5,0-5c0.1-1.8,1.2-3,2.6-4.4
		C39.1,58.5,40.6,54.8,40.6,50.8L40.6,50.8z M30.3,75.1c0,1.3-1,2.3-2.3,2.3h-4.7c-1.3,0-2.3-1-2.3-2.3v-0.3c0.2,0,0.4,0,0.6,0h8.1
		c0.2,0,0.4,0,0.6,0V75.1z M29.8,73.3h-8.1c-1.4,0-2.5-1.1-2.5-2.5v-0.1h7.7c0.4,0,0.8-0.3,0.8-0.8s-0.3-0.8-0.8-0.8h-7.7v-2.5h13
		l0,2.5h-1.8c-0.4,0-0.8,0.3-0.8,0.8s0.3,0.8,0.8,0.8h1.8v0.1C32.2,72.2,31.1,73.3,29.8,73.3z"/>
	<path class="st1" d="M30.5,50.9c-0.3,0.3-0.2,0.8,0.1,1.1c0.3,0.3,0.8,0.2,1.1-0.1l1.5-1.9c0.4-0.5,0.6-1.1,0.5-1.8
		c-0.1-0.6-0.4-1.2-0.9-1.6c-0.5-0.4-1.1-0.6-1.8-0.5c-0.6,0.1-1.2,0.4-1.6,0.9l-4.9,6.3l-2.8-3.1c-0.9-1-2.4-1.1-3.4-0.2
		c-0.5,0.4-0.8,1-0.8,1.7c0,0.6,0.2,1.3,0.6,1.8l4.8,5.3c1,1.1,2.8,1,3.7-0.1l3-3.9c0.3-0.3,0.2-0.8-0.1-1.1s-0.8-0.2-1.1,0.1
		l-3,3.9c-0.3,0.4-1,0.5-1.4,0.1l-4.8-5.3c-0.3-0.4-0.3-0.9,0.1-1.3c0.4-0.3,0.9-0.3,1.3,0.1l3.4,3.8c0.3,0.3,0.9,0.3,1.2,0l5.5-7
		c0.3-0.4,0.9-0.5,1.3-0.2c0.4,0.3,0.5,0.9,0.2,1.3L30.5,50.9z"/>
</g>
</svg>
