<?xml version="1.0" encoding="utf-8"?>
<!-- Generator: Adobe Illustrator 24.2.0, SVG Export Plug-In . SVG Version: 6.00 Build 0)  -->
<svg version="1.1" id="Capa_1" xmlns:v="https://vecta.io/nano"
	 xmlns="http://www.w3.org/2000/svg" xmlns:xlink="http://www.w3.org/1999/xlink" x="0px" y="0px" width="102px" height="79px"
	 viewBox="0 0 102 79" style="enable-background:new 0 0 102 79;" xml:space="preserve">
<style type="text/css">
	.st0{fill-rule:evenodd;clip-rule:evenodd;fill:#F74F78;fill-opacity:0.1;}
	.st1{fill:#F74F78;}
</style>
<path class="st0" d="M37.9,74.8c17.9,8.7,53.2,3.1,61.9-14.8s-17.1-38-35-46.8s-42-21.7-50.7-3.9S20,66.1,37.9,74.8z"/>
<path class="st1" d="M59.6,68.4h-6v-8c0-1.1,0.4-2.1,1-3c1.3-1.7,2-3.8,2-6c0-2.7-1.6-5.2-4-6.3V34.3c0-1.7-1.3-3-3-3h-15v-12
	c0-0.6-0.4-1-1-1h-32c-0.6,0-1,0.4-1,1v38c0,0.6,0.4,1,1,1h22v4c0,1.7,1.3,3,3,3h19v3h-6c-0.6,0-1,0.4-1,1v8c0,0.6,0.4,1,1,1h20
	c0.6,0,1-0.4,1-1v-8C60.6,68.8,60.2,68.4,59.6,68.4z M17.6,27.3c-0.6,0-1-0.4-1-1s0.4-1,1-1s1,0.4,1,1
	C18.6,26.9,18.1,27.3,17.6,27.3z M18.6,29.3v4.2c-0.6-0.2-1.4-0.2-2,0v-4.2H18.6z M17.6,35.3c0.6,0,1,0.4,1,1c0,0.6-0.4,1-1,1
	s-1-0.4-1-1C16.6,35.8,17,35.3,17.6,35.3z M20.6,26.3c0-1.7-1.3-3-3-3s-3,1.3-3,3v1H8.1l-4.7-7h28.3l-4.7,7h-6.5V26.3z M2.5,56.4
	V22.6l4.2,6.3c0.2,0.3,0.5,0.4,0.8,0.4h7V36c-1.3,1.5-1.7,3.5-1.1,5.4l0.1,0.3l1.9-0.6l-0.1-0.3c-0.2-0.7-0.2-1.5,0-2.3
	c1.2,1.2,3.1,1.2,4.2,0.1c0.6-0.6,0.9-1.3,0.9-2.2v-7h7c0.3,0,0.6-0.2,0.8-0.4l4.2-6.3v8.8c-0.5,0.1-0.9,0.4-1.3,0.8l-6.8,6.8
	c-0.6,0.6-0.9,1.3-0.9,2.1v6.2h-7v2h7v2h-3v2h3v3H2.5z M26.6,63.4c-0.6,0-1-0.4-1-1V41.2c0-0.3,0.1-0.5,0.3-0.7l5.7-5.7v3.6
	c0,0.6-0.4,1-1,1h-2v2h2c1.7,0,3-1.3,3-3v-5h16c0.6,0,1,0.4,1,1v10.1c-2.2-0.3-4.3,0.4-5.9,1.9h-4.1v2h2.7c-0.4,0.9-0.7,2-0.7,3h-10
	v2h10.2c0.3,1.5,0.9,2.8,1.8,4c0.2,0.3,0.4,0.6,0.6,1h-4.6v2h5v3H26.6z M46.2,56.2c-1-1.4-1.6-3.1-1.6-4.8c0-2.8,2.2-5,5-5
	s5,2.2,5,5c0,1.7-0.6,3.4-1.6,4.8c-0.9,1.2-1.4,2.7-1.4,4.2v8h-4v-8C47.6,58.9,47.1,57.4,46.2,56.2z M58.6,76.4h-18v-6h18V76.4z"/>
</svg>
