<?xml version="1.0" encoding="utf-8"?>
<!-- Generator: Adobe Illustrator 24.2.0, SVG Export Plug-In . SVG Version: 6.00 Build 0)  -->
<svg version="1.1" id="Capa_1" xmlns:v="https://vecta.io/nano"
	 xmlns="http://www.w3.org/2000/svg" xmlns:xlink="http://www.w3.org/1999/xlink" x="0px" y="0px" width="102px" height="79px"
	 viewBox="0 0 102 79" style="enable-background:new 0 0 102 79;" xml:space="preserve">
<style type="text/css">
	.st0{opacity:0.1;fill-rule:evenodd;clip-rule:evenodd;fill:#6A9BF4;enable-background:new    ;}
	.st1{fill:#6A9BF4;}
</style>
<g>
	<path class="st0" d="M37.9,74.8c17.9,8.7,53.2,3.1,61.9-14.8s-17.1-38-35-46.8s-42-21.7-50.7-3.9S20,66.1,37.9,74.8z"/>
</g>
<g>
	<path class="st1" d="M55.4,56.4c-0.8,0-1.5,0.7-1.5,1.5V71c0,2.5-2,4.4-4.4,4.4H7.9c-2.5,0-4.4-2-4.4-4.4V32.4c0-2.5,2-4.4,4.4-4.4
		h13.2c0.8,0,1.5-0.7,1.5-1.5c0-0.8-0.7-1.5-1.5-1.5H7.9c-4.1,0-7.4,3.3-7.4,7.4V71c0,4.1,3.3,7.4,7.4,7.4h41.6
		c4.1,0,7.4-3.3,7.4-7.4V57.9C56.9,57,56.3,56.4,55.4,56.4z"/>
	<path class="st1" d="M56.3,21.2c-2.6-2.6-6.8-2.6-9.4,0L20.5,47.6c-0.2,0.2-0.3,0.4-0.4,0.7l-3.5,12.6c-0.1,0.5,0,1.1,0.4,1.4
		c0.4,0.4,0.9,0.5,1.4,0.4L31,59.2c0.2-0.1,0.5-0.2,0.7-0.4l26.4-26.4c2.6-2.6,2.6-6.8,0-9.4L56.3,21.2z M23.7,48.6l21.6-21.6l7,7
		L30.7,55.6L23.7,48.6z M22.3,51.4l5.6,5.6l-7.7,2.1L22.3,51.4z M56,30.2l-1.6,1.6l-7-7l1.6-1.6c1.4-1.4,3.8-1.4,5.2,0L56,25
		C57.4,26.5,57.4,28.8,56,30.2z"/>
</g>
</svg>
