<?xml version="1.0" encoding="utf-8"?>
<!-- Generator: Adobe Illustrator 24.2.0, SVG Export Plug-In . SVG Version: 6.00 Build 0)  -->
<svg version="1.1" id="Capa_1" xmlns:v="https://vecta.io/nano"
	 xmlns="http://www.w3.org/2000/svg" xmlns:xlink="http://www.w3.org/1999/xlink" x="0px" y="0px" width="102px" height="79px"
	 viewBox="0 0 102 79" style="enable-background:new 0 0 102 79;" xml:space="preserve">
<style type="text/css">
	.st0{opacity:0.1;fill-rule:evenodd;clip-rule:evenodd;fill:#6A9BF4;enable-background:new    ;}
	.st1{fill:#6A9BF4;}
</style>
<g>
	<path class="st0" d="M37.9,74.8c17.9,8.7,53.2,3.1,61.9-14.8s-17.1-38-35-46.8s-42-21.7-50.7-3.9S20,66.1,37.9,74.8z"/>
</g>
<g>
	<path class="st1" d="M60.2,34.2c0-1.7-1.5-3.2-3.4-3.2H40.4v-7.9c0-1.3-1.2-2.4-2.6-2.4H14.5c-1.5,0-2.6,1.1-2.6,2.4v22.6H5.6
		c-0.5,0-0.9,0.4-0.9,0.8s0.4,0.8,0.9,0.8h6.3v1.8H5.6c-0.5,0-0.9,0.4-0.9,0.8c0,0.5,0.4,0.8,0.9,0.8h6.3v0.3c0,0.5,0.4,0.8,0.9,0.8
		s0.9-0.4,0.9-0.8v-0.3h5c0.5,0,0.9-0.4,0.9-0.8c0-0.5-0.4-0.8-0.9-0.8h-5v-1.8h5c0.5,0,0.9-0.4,0.9-0.8c0-0.5-0.4-0.8-0.9-0.8h-5
		V23.1c0-0.4,0.4-0.7,0.8-0.7h23.3c0.4,0,0.8,0.3,0.8,0.7V31h-2.3v-5.4c0-0.7-0.6-1.3-1.4-1.3H17.4c-0.8,0-1.4,0.6-1.4,1.3v11.5
		c0,0.4,0.2,0.7,0.5,1c0.3,0.2,0.6,0.3,1,0.3h10.2c0.5,0,0.9-0.4,0.9-0.8c0-0.5-0.4-0.8-0.9-0.8h-7.9l6.4-4.3l5.5,3.7v22.1H14.5
		c-0.4,0-0.8-0.3-0.8-0.7v-2c0-0.5-0.4-0.8-0.9-0.8s-0.9,0.4-0.9,0.8v2c0,1.3,1.2,2.4,2.6,2.4h17.1v15.5c0,1.7,1.5,3.2,3.4,3.2h21.7
		c1.9,0,3.4-1.4,3.4-3.2V56.1c0-0.5-0.4-0.8-0.9-0.8c-0.5,0-0.9,0.4-0.9,0.8v12.1H33.5V39.5h24.9v12.3c0,0.5,0.4,0.8,0.9,0.8
		c0.5,0,0.9-0.4,0.9-0.8L60.2,34.2z M32.6,26l-6.4,4.3L19.8,26H32.6z M17.9,35.9v-9.1l6.7,4.5L17.9,35.9z M34.5,26.8v4.2
		c-1.5,0.3-2.7,1.5-2.8,3l-4-2.7L34.5,26.8z M58.4,69.9v5.4c0,0.8-0.7,1.5-1.6,1.5H35.1c-0.9,0-1.6-0.7-1.6-1.5v-5.4H58.4z
		 M33.5,37.8v-3.6c0-0.8,0.7-1.5,1.6-1.5h21.7c0.9,0,1.6,0.7,1.6,1.5v3.6H33.5z"/>
	<ellipse class="st1" cx="45.9" cy="73.5" rx="1.6" ry="1.5"/>
	<path class="st1" d="M44.1,25.1h9.8c0.5,0,0.9-0.4,0.9-0.8c0-0.5-0.4-0.8-0.9-0.8h-9.8c-0.5,0-0.9,0.4-0.9,0.8
		C43.2,24.7,43.6,25.1,44.1,25.1z"/>
	<path class="st1" d="M44.1,28.7h3.5c0.5,0,0.9-0.4,0.9-0.8S48.1,27,47.6,27h-3.5c-0.5,0-0.9,0.4-0.9,0.8S43.6,28.7,44.1,28.7z"/>
	<path class="st1" d="M2.1,40.6l1.6-1.7C4,38.6,4,38,3.6,37.7c-0.4-0.3-1-0.3-1.3,0.1l-2.1,2.3c-0.3,0.3-0.3,0.8,0,1.1l2.1,2.3
		c0.3,0.4,0.9,0.4,1.3,0.1C4,43.2,4,42.7,3.7,42.3L2.1,40.6z"/>
	<path class="st1" d="M6.3,43.5c0.4,0.3,1,0.3,1.3-0.1l2.1-2.3c0.3-0.3,0.3-0.8,0-1.1l-2.1-2.3c-0.3-0.4-0.9-0.4-1.3-0.1
		c-0.4,0.3-0.4,0.8-0.1,1.2l1.6,1.7l-1.6,1.7C5.9,42.7,5.9,43.2,6.3,43.5z"/>
	<path class="st1" d="M50.3,60.4c0.4,0,0.5,0.1,0.8,0.4c0.4,0.3,1,0.8,2,0.8c0.5,0,0.9-0.4,0.9-0.8s-0.4-0.8-0.9-0.8
		c-0.4,0-0.5-0.1-0.8-0.4c-0.4-0.3-1-0.8-2-0.8s-1.6,0.4-2,0.8c-0.3,0.2-0.5,0.4-0.8,0.4c-0.4,0-0.5-0.1-0.8-0.4
		c-0.4-0.3-1-0.8-2-0.8s-1.6,0.4-2,0.8c-0.3,0.2-0.5,0.4-0.8,0.4c-0.4,0-0.5-0.1-0.8-0.4c-0.4-0.3-1-0.8-2-0.8
		c-0.5,0-0.9,0.4-0.9,0.8s0.4,0.8,0.9,0.8c0.4,0,0.5,0.1,0.8,0.4c0.4,0.3,1,0.8,2,0.8c1.1,0,1.6-0.4,2-0.8c0.3-0.2,0.5-0.4,0.8-0.4
		s0.5,0.1,0.8,0.4c0.4,0.3,1,0.8,2,0.8c1.1,0,1.6-0.4,2-0.8C49.7,60.5,49.9,60.4,50.3,60.4z"/>
	<path class="st1" d="M46.6,63.2c-0.4-0.3-1-0.8-2-0.8s-1.6,0.4-2,0.8c-0.3,0.2-0.5,0.4-0.8,0.4c-0.4,0-0.5-0.1-0.8-0.4
		c-0.4-0.3-1-0.8-2-0.8c-0.5,0-0.9,0.4-0.9,0.8s0.4,0.8,0.9,0.8c0.4,0,0.5,0.1,0.8,0.4c0.4,0.3,1,0.8,2,0.8c1.1,0,1.6-0.4,2-0.8
		c0.3-0.2,0.5-0.4,0.8-0.4s0.5,0.1,0.8,0.4c0.4,0.3,1,0.8,2,0.8c0.5,0,0.9-0.4,0.9-0.8c0-0.5-0.4-0.8-0.9-0.8
		C47,63.5,46.9,63.4,46.6,63.2z"/>
	<path class="st1" d="M26.8,47.4c0.5,0,0.9-0.4,0.9-0.8c0-0.5-0.4-0.8-0.9-0.8h-4.6c-0.5,0-0.9,0.4-0.9,0.8c0,0.5,0.4,0.8,0.9,0.8
		H26.8z"/>
	<path class="st1" d="M46.6,42c-3,0-5.5,1.5-6.8,3.8l-3.2,0.3c-0.4,0-0.6,0.5-0.3,0.8l2.3,1.8l-2.3,1.8c-0.3,0.3-0.2,0.8,0.3,0.8
		l2.8,0.3c1.1,2.7,3.9,4.7,7.2,4.7c4.3,0,7.7-3.2,7.7-7.1S50.9,42,46.6,42L46.6,42z M46.6,54.5c-3.2,0-5.9-2.4-5.9-5.4
		s2.6-5.4,5.9-5.4s5.9,2.4,5.9,5.4S49.9,54.5,46.6,54.5z"/>
	<ellipse class="st1" cx="44.7" cy="48.4" rx="1.4" ry="1.3"/>
</g>
</svg>
