<?xml version="1.0" encoding="utf-8"?>
<!-- Generator: Adobe Illustrator 24.2.0, SVG Export Plug-In . SVG Version: 6.00 Build 0)  -->
<svg version="1.1" id="Capa_1" xmlns:v="https://vecta.io/nano"
	 xmlns="http://www.w3.org/2000/svg" xmlns:xlink="http://www.w3.org/1999/xlink" x="0px" y="0px" width="101px" height="79px"
	 viewBox="0 0 101 79" style="enable-background:new 0 0 101 79;" xml:space="preserve">
<style type="text/css">
	.st0{opacity:0.1;fill-rule:evenodd;clip-rule:evenodd;fill:#766DF4;enable-background:new    ;}
	.st1{fill:#766DF4;}
</style>
<path class="st0" d="M37.3,74.9c17.9,8.7,53.2,3.1,61.9-14.8S82.1,22,64.2,13.3s-42-21.7-50.7-3.9S19.4,66.2,37.3,74.9L37.3,74.9z"
	/>
<g>
	<path class="st1" d="M44.4,55.2l-32.9,0.1l-3.5,7.1l3.2,0l0.1,15.9l33.5-0.1l-0.1-15.9l3.2,0L44.4,55.2z M43.3,57l1.8,3.5l-13.9,0
		L29.4,57L43.3,57z M12.7,57.1l13.9,0l-1.8,3.5l-13.9,0L12.7,57.1z M43.1,76.4l-14.1,0l0-6.2l-1.8,0l0,6.2l-14.1,0l0-14.1l12.9,0
		l1.2-2.4l0,7.7l1.8,0l0-7.7l1.2,2.4l12.9,0L43.1,76.4z"/>
	<path class="st1" d="M14.8,69.4l5.3,0l0,1.8l-5.3,0L14.8,69.4z"/>
	<path class="st1" d="M14.8,73l5.3,0l0,1.8l-5.3,0L14.8,73z"/>
	<path class="st1" d="M21.9,72.9l1.8,0l0,1.8l-1.8,0L21.9,72.9z"/>
	<path class="st1" d="M23.9,37.9l4.1-1.1l4.1,1l0.3-4.4l2.2-3.7l-3.8-1.6l-2.7-3.4l-2.7,3.4l-3.8,1.7l2.2,3.7L23.9,37.9z M26.3,29.6
		l1.6-2l1.6,2l2.4,1l-1.4,2.3l-0.2,2.7L27.9,35l-2.5,0.6l-0.2-2.7l-1.4-2.3L26.3,29.6z"/>
	<path class="st1" d="M10.3,39.7l1.3-2.2l-2.3-1l-1.6-2l-1.6,2l-2.3,1L5,39.7l0.2,2.6l2.4-0.6l2.4,0.6L10.3,39.7z M8.5,39.2
		l-0.1,0.9l-0.8-0.2l-0.8,0.2l-0.1-0.9l-0.5-0.8L7.1,38l0.5-0.7L8.2,38L9,38.3L8.5,39.2z"/>
	<path class="st1" d="M50.9,39.6l1.3-2.2l-2.3-1l-1.6-2l-1.6,2l-2.3,1l1.3,2.2l0.2,2.6l2.4-0.6l2.4,0.6L50.9,39.6z M49.1,39L49.1,40
		l-0.8-0.2L47.4,40L47.3,39l-0.5-0.8l0.8-0.4l0.5-0.7l0.5,0.7l0.8,0.4L49.1,39z"/>
	<path class="st1" d="M11.6,44.6c1.7,1.1,3.2,2.5,4.4,4.1l3.5,4.4l-0.7-5.8c-0.4-3-2-5.8-4.5-7.6L13.5,39l-2.6,5.2L11.6,44.6z
		 M14.1,41.7c1.5,1.4,2.5,3.3,2.9,5.3c-1.1-1.3-2.4-2.5-3.8-3.5L14.1,41.7z"/>
	<path class="st1" d="M37.1,47.1l-0.7,5.8l3.5-4.4c1.3-1.6,2.7-3,4.4-4.1L45,44l-2.6-5.2l-0.8,0.6C39.1,41.3,37.5,44.1,37.1,47.1z
		 M42.7,43.5c-1.4,1-2.7,2.2-3.8,3.5c0.3-2,1.3-3.9,2.8-5.3L42.7,43.5z"/>
	<path class="st1" d="M31.5,53.5l1.8,0l0-3.7c0-4.2,1.5-8.4,4.2-11.6L36.1,37c-3,3.6-4.6,8.1-4.6,12.8L31.5,53.5z"/>
	<path class="st1" d="M37.6,34l1.8,0l0,1.8l-1.8,0L37.6,34z"/>
	<path class="st1" d="M40.3,30.5l1.8,0l0,1.8l-1.8,0L40.3,30.5z"/>
	<path class="st1" d="M22.7,53.5l1.8,0l0-3.7c0-4.7-1.7-9.2-4.7-12.7l-1.4,1.1c2.7,3.2,4.2,7.4,4.2,11.6L22.7,53.5z"/>
	<path class="st1" d="M16.4,34.1l1.8,0l0,1.8l-1.8,0L16.4,34.1z"/>
	<path class="st1" d="M13.8,30.6l1.8,0l0,1.8l-1.8,0L13.8,30.6z"/>
	<path class="st1" d="M27.1,38.5l1.8,0l0,1.8l-1.8,0L27.1,38.5z"/>
	<path class="st1" d="M27.1,42l1.8,0l0,11.5l-1.8,0L27.1,42z"/>
	<path class="st1" d="M51.8,47.2l1.8,0l0,1.8l-1.8,0L51.8,47.2z"/>
	<path class="st1" d="M51.8,50.8l1.8,0l0,1.8l-1.8,0L51.8,50.8z"/>
	<path class="st1" d="M53.6,49l1.8,0l0,1.8l-1.8,0L53.6,49z"/>
	<path class="st1" d="M50,49l1.8,0l0,1.8l-1.8,0L50,49z"/>
	<path class="st1" d="M49.1,23.4l1.8,0l0,1.8l-1.8,0L49.1,23.4z"/>
	<path class="st1" d="M49.1,26.9l1.8,0l0,1.8l-1.8,0L49.1,26.9z"/>
	<path class="st1" d="M50.8,25.2l1.8,0l0,1.8l-1.8,0L50.8,25.2z"/>
	<path class="st1" d="M47.3,25.2l1.8,0l0,1.8l-1.8,0L47.3,25.2z"/>
	<path class="st1" d="M2.4,50.9l1.8,0l0,1.8l-1.8,0L2.4,50.9z"/>
	<path class="st1" d="M2.4,54.5l1.8,0l0,1.8l-1.8,0L2.4,54.5z"/>
	<path class="st1" d="M4.2,52.7l1.8,0l0,1.8l-1.8,0L4.2,52.7z"/>
	<path class="st1" d="M0.6,52.7l1.8,0l0,1.8l-1.8,0L0.6,52.7z"/>
	<path class="st1" d="M2.3,23.6l1.8,0l0,1.8l-1.8,0L2.3,23.6z"/>
	<path class="st1" d="M2.3,27.1l1.8,0l0,1.8l-1.8,0L2.3,27.1z"/>
	<path class="st1" d="M4.1,25.3l1.8,0l0,1.8l-1.8,0L4.1,25.3z"/>
	<path class="st1" d="M0.5,25.3l1.8,0l0,1.8l-1.8,0L0.5,25.3z"/>
</g>
</svg>
