<?xml version="1.0" encoding="utf-8"?>
<!-- Generator: Adobe Illustrator 24.2.0, SVG Export Plug-In . SVG Version: 6.00 Build 0)  -->
<svg version="1.1" id="Capa_1" xmlns:v="https://vecta.io/nano"
	 xmlns="http://www.w3.org/2000/svg" xmlns:xlink="http://www.w3.org/1999/xlink" x="0px" y="0px" width="102px" height="79px"
	 viewBox="0 0 102 79" style="enable-background:new 0 0 102 79;" xml:space="preserve">
<style type="text/css">
	.st0{opacity:0.1;fill-rule:evenodd;clip-rule:evenodd;fill:#6A9BF4;enable-background:new    ;}
	.st1{fill:#6A9BF4;}
</style>
<g>
	<path class="st0" d="M37.9,74.8c17.9,8.7,53.2,3.1,61.9-14.8s-17.1-38-35-46.8s-42-21.7-50.7-3.9S20,66.1,37.9,74.8z"/>
</g>
<g id="Page-1">
	<g id="_x30_18---Shopping-Cart" transform="translate(0 -1)">
		<circle id="Oval" class="st1" cx="19.9" cy="75" r="1"/>
		<circle id="Oval_1_" class="st1" cx="39.3" cy="75" r="1"/>
		<path id="Shape" class="st1" d="M9,38.6l1.9,3.3c0.4,0.7,1,1.1,1.8,1.3c0.2,0.1,0.5,0.1,0.7,0.1c0.1,0,0.2,0,0.4,0l1.2,3.6h-4.7
			l-0.5-2.4c-0.4-2-2.2-3.4-4.2-3.4H2.5c-0.5,0-1,0.4-1,1c0,0.5,0.4,1,1,1h3.2c1.1,0,2.1,0.8,2.3,1.9L12.6,68
			c0.4,1.9,1.8,3.4,3.7,3.9c-0.7,0.9-1.1,2-1.2,3.1c0,2.7,2.2,4.8,4.8,4.8s4.8-2.2,4.8-4.8c0-1-0.3-2.1-1-2.9h11.6
			c-0.6,0.8-1,1.9-1,2.9c0,2.7,2.2,4.8,4.8,4.8s4.8-2.2,4.8-4.8c0-1-0.3-2.1-1-2.9h1c0.5,0,1-0.4,1-1c0-0.5-0.4-1-1-1H17.6
			c-1.3,0-2.4-0.8-2.9-1.9h28.8c1.2,0,2.3-0.9,2.6-2.1l3.9-16c0.2-0.8,0-1.6-0.5-2.2c-0.5-0.6-1.3-1-2.1-1H43L49,41
			c1.3-1.2,2-3,1.9-4.8c0-1.8-0.7-3.5-2-4.8c-1.3-1.3-3-2-4.8-2s-3.5,0.7-4.8,2l-4.8,4.8L29.6,41c-1.5,1.6-2.2,3.7-1.8,5.9h-1.7
			l-1.4-4.1l3.5-2.1c0.8-0.5,1.4-1.4,1.4-2.3l0.2-4.3l3.4-2c1.4-0.8,1.8-2.6,1-4l1.7-1c0.7-0.4,1.1-1,1.3-1.8
			c0.2-0.7,0.1-1.5-0.3-2.2c-0.4-0.7-1-1.1-1.8-1.3c-0.7-0.2-1.5-0.1-2.2,0.3l-2.3,1.4l-0.1-0.1c-0.7-0.2-1.5-0.1-2.2,0.3l-2.7,1.6
			c-0.6-0.3-1.3-0.3-1.9,0L12,32.3c-0.4,0.3-0.8,0.7-0.9,1.2c0,0.2-0.1,0.3,0,0.5L10,34.6c-0.7,0.4-1.2,1-1.4,1.8
			C8.5,37.2,8.6,38,9,38.6L9,38.6z M22.8,75c0,1.6-1.3,2.9-2.9,2.9c-1.6,0-2.9-1.3-2.9-2.9s1.3-2.9,2.9-2.9
			C21.5,72.1,22.8,73.4,22.8,75z M42.2,75c0,1.6-1.3,2.9-2.9,2.9s-2.9-1.3-2.9-2.9s1.3-2.9,2.9-2.9S42.2,73.4,42.2,75z M25.4,48.8
			h0.5l0.2,4.8h-3.5L22,48.8H25.4z M29,48.8h2.4l-0.2,4.8H28l-0.2-4.8H29z M43,48.8l-1,4.8h-3.4l0.6-4.8H43z M45.4,60.5h-2.7l1-4.8
			h2.9L45.4,60.5z M40.7,60.5h-2.9l0.6-4.8h3.3L40.7,60.5z M31,60.5h-2.7l-0.2-4.8h3.1L31,60.5z M33.1,55.6h3.3l-0.6,4.8h-2.9
			L33.1,55.6z M26.3,60.5h-3l-0.5-4.8h3.3L26.3,60.5z M21.4,60.5h-2.9l-1-4.8h3.3L21.4,60.5z M16.5,60.5H13l-1-4.8h3.5L16.5,60.5z
			 M13.4,62.4h3.5l0.8,3.9h-3.5L13.4,62.4z M18.9,62.4h2.8l0.5,3.9h-2.5L18.9,62.4z M23.6,62.4h2.8l0.2,3.9h-2.5L23.6,62.4z
			 M28.4,62.4h2.5l-0.2,3.9h-2.2L28.4,62.4z M32.8,62.4h2.8l-0.5,3.9h-2.5L32.8,62.4z M37.6,62.4h2.8l-0.8,3.9h-2.5L37.6,62.4z
			 M36.7,53.7h-3.5l0.2-4.8h3.9L36.7,53.7z M20,48.8l0.6,4.8h-3.4l-1-4.8H20z M14.2,48.8l1,4.8h-3.5l-1-4.8H14.2z M43.5,66.3h-1.9
			l0.8-3.9h2.6l-0.8,3.3C44.1,66,43.8,66.3,43.5,66.3z M47.8,49.1c0.1,0.2,0.2,0.4,0.2,0.6l-1,4h-3l1-4.8h2.3
			C47.5,48.9,47.7,48.9,47.8,49.1z M40.7,32.9c0.9-0.9,2.1-1.4,3.4-1.4s2.5,0.5,3.4,1.4c0.9,0.9,1.4,2.1,1.4,3.4
			c0,1.3-0.5,2.5-1.4,3.4l-4.2,4.2L36.5,37L40.7,32.9z M31,42.4l4.1-4.1l6.9,6.8l-1.7,1.8H29.7C29.4,45.3,29.9,43.6,31,42.4L31,42.4
			z M17,46.9l-1.5-4.3l5.5-3.3l0.3-0.2l2.6,7.7L17,46.9z M27.7,38.3c0,0.3-0.2,0.6-0.5,0.8L24.1,41l-1-2.8l4.7-2.8L27.7,38.3z
			 M34,23.8c0.2-0.1,0.5-0.2,0.7-0.1c0.2,0.1,0.5,0.2,0.6,0.4c0.1,0.2,0.2,0.5,0.1,0.7c-0.1,0.2-0.2,0.5-0.4,0.6l-1.7,1l-1-1.7
			L34,23.8z M24.7,27.1l-0.3,2.4L14,35.7L13,34L24.7,27.1z M11,36.3l0.8-0.5l0.5,0.8c0.5,0.9,1.7,1.2,2.7,0.7l10.4-6.2
			c0.5-0.3,0.9-0.8,1-1.5l0.3-2.4c0-0.1,0-0.2,0-0.2l2.7-1.6c0.5-0.3,1.1-0.1,1.3,0.3l1.9,3.3c0.1,0.2,0.2,0.5,0.1,0.7
			c-0.1,0.2-0.2,0.5-0.4,0.6l-10.8,6.4l-2.1,1.2L14,41.3c-0.2,0.1-0.5,0.2-0.7,0.1c-0.2-0.1-0.5-0.2-0.6-0.4l-1.9-3.3
			C10.4,37.2,10.6,36.6,11,36.3L11,36.3z"/>
		<path id="Shape_1_" class="st1" d="M43.4,35.6c0.2-0.2,0.4-0.3,0.7-0.3s0.5,0.1,0.7,0.3c0.2,0.2,0.4,0.3,0.7,0.3
			c0.3,0,0.5-0.1,0.7-0.3c0.4-0.4,0.4-1,0-1.4c-1.2-1.1-3-1.1-4.2,0c-0.4,0.4-0.4,1,0,1.4C42.4,36,43,36,43.4,35.6L43.4,35.6z"/>
		<path id="Shape_2_" class="st1" d="M5.4,26.6c-0.5,0-1,0.4-1,1v1.9c0,0.5,0.4,1,1,1s1-0.4,1-1v-1.9C6.4,27,6,26.6,5.4,26.6z"/>
		<path id="Shape_3_" class="st1" d="M4.5,35.3c0,0.5,0.4,1,1,1s1-0.4,1-1v-1.9c0-0.5-0.4-1-1-1s-1,0.4-1,1V35.3z"/>
		<path id="Shape_4_" class="st1" d="M9.3,30.5H7.4c-0.5,0-1,0.4-1,1c0,0.5,0.4,1,1,1h1.9c0.5,0,1-0.4,1-1
			C10.3,30.9,9.8,30.5,9.3,30.5z"/>
		<path id="Shape_5_" class="st1" d="M3.5,30.5H1.6c-0.5,0-1,0.4-1,1c0,0.5,0.4,1,1,1h1.9c0.5,0,1-0.4,1-1C4.5,30.9,4,30.5,3.5,30.5
			z"/>
		<path id="Shape_6_" class="st1" d="M54.6,28.7l1.5,1.5c0.2,0.2,0.4,0.3,0.7,0.3s0.5-0.1,0.7-0.3c0.2-0.2,0.3-0.4,0.3-0.7
			c0-0.3-0.1-0.5-0.3-0.7l-1.5-1.5c-0.4-0.4-1-0.4-1.4,0C54.2,27.7,54.2,28.4,54.6,28.7z"/>
		<path id="Shape_7_" class="st1" d="M51.7,25.8c0.2,0.2,0.4,0.3,0.7,0.3s0.5-0.1,0.7-0.3c0.2-0.2,0.3-0.4,0.3-0.7s-0.1-0.5-0.3-0.7
			L51.6,23c-0.4-0.4-1-0.4-1.4,0s-0.4,1,0,1.4L51.7,25.8z"/>
		<path id="Shape_8_" class="st1" d="M50.2,30.2c0.2,0.2,0.4,0.3,0.7,0.3s0.5-0.1,0.7-0.3l1.5-1.5c0.2-0.2,0.3-0.6,0.3-0.9
			s-0.4-0.6-0.7-0.7s-0.7,0-0.9,0.3l-1.5,1.5c-0.2,0.2-0.3,0.4-0.3,0.7C49.9,29.8,50,30,50.2,30.2L50.2,30.2z"/>
		<path id="Shape_9_" class="st1" d="M55.3,26.1c0.3,0,0.5-0.1,0.7-0.3l1.5-1.5c0.2-0.2,0.3-0.6,0.3-0.9s-0.4-0.6-0.7-0.7
			c-0.3-0.1-0.7,0-0.9,0.3l-1.5,1.5c-0.2,0.2-0.3,0.4-0.3,0.7s0.1,0.5,0.3,0.7C54.8,26,55,26.1,55.3,26.1L55.3,26.1z"/>
		<path id="Shape_10_" class="st1" d="M50.9,43.5c0,1.9,1.5,3.4,3.4,3.4c1.9,0,3.4-1.5,3.4-3.4s-1.5-3.4-3.4-3.4
			c-0.9,0-1.8,0.4-2.4,1C51.3,41.8,50.9,42.6,50.9,43.5z M55.7,43.5c0,0.8-0.6,1.5-1.5,1.5c-0.8,0-1.5-0.6-1.5-1.5s0.6-1.5,1.5-1.5
			C55.1,42.1,55.7,42.7,55.7,43.5z"/>
	</g>
</g>
</svg>
