<?xml version="1.0" encoding="utf-8"?>
<!-- Generator: Adobe Illustrator 24.2.0, SVG Export Plug-In . SVG Version: 6.00 Build 0)  -->
<svg version="1.1" id="Capa_1" xmlns:v="https://vecta.io/nano"
	 xmlns="http://www.w3.org/2000/svg" xmlns:xlink="http://www.w3.org/1999/xlink" x="0px" y="0px" width="102px" height="79px"
	 viewBox="0 0 102 79" style="enable-background:new 0 0 102 79;" xml:space="preserve">
<style type="text/css">
	.st0{opacity:0.1;fill-rule:evenodd;clip-rule:evenodd;fill:#6A9BF4;enable-background:new    ;}
	.st1{fill:#6A9BF4;}
</style>
<g>
	<path class="st0" d="M37.9,74.8c17.9,8.7,53.2,3.1,61.9-14.8s-17.1-38-35-46.8s-42-21.7-50.7-3.9S20,66.1,37.9,74.8z"/>
</g>
<g>
	<path class="st1" d="M10.4,52.5c-0.4,0-0.7,0.3-0.7,0.7v0.3H5.2v-4.6h4.2c0.4,0,0.7-0.3,0.7-0.7c0-0.4-0.3-0.7-0.7-0.7H4.5
		c-0.4,0-0.6,0.3-0.6,0.6v5.9c0,0.3,0.2,0.6,0.6,0.6c0,0,0,0,0.1,0h5.9c0.3,0,0.6-0.3,0.7-0.6c0,0,0,0,0,0v-1
		C11.1,52.8,10.8,52.5,10.4,52.5z"/>
	<path class="st1" d="M10.5,49.2L8.4,51l-0.7-0.7C7.4,50,7,50,6.8,50.3c-0.3,0.3-0.3,0.7,0,0.9c0,0,0,0,0,0l1.1,1.1
		c0.2,0.2,0.6,0.3,0.9,0l2.6-2.2c0.3-0.2,0.3-0.6,0.1-0.9C11.2,49,10.8,49,10.5,49.2L10.5,49.2z"/>
	<path class="st1" d="M22.1,49.2h-8.2c-0.4,0-0.7,0.3-0.7,0.7c0,0.4,0.3,0.7,0.7,0.7h8.2c0.4,0,0.7-0.3,0.7-0.7
		C22.7,49.5,22.4,49.2,22.1,49.2z"/>
	<path class="st1" d="M10.4,58H4.5c-0.4,0-0.7,0.3-0.7,0.7v5.9c0,0.4,0.3,0.7,0.7,0.7h5.9c0.4,0,0.7-0.3,0.7-0.7v-5.9
		C11.1,58.3,10.8,58,10.4,58z M9.8,64H5.2v-4.7h4.6V64z"/>
	<path class="st1" d="M3.9,37.8v5.9c0,0.4,0.2,0.7,0.6,0.7h5.9c0.4,0,0.7-0.3,0.7-0.7v-1c0-0.4-0.3-0.7-0.7-0.7s-0.7,0.3-0.7,0.7
		v0.3H5.2v-4.6h4.2c0.4,0,0.7-0.3,0.7-0.7s-0.3-0.7-0.7-0.7H4.5C4.2,37.2,3.9,37.4,3.9,37.8C3.9,37.8,3.9,37.8,3.9,37.8z"/>
	<path class="st1" d="M10.5,38.8l-2.1,1.8l-0.7-0.7c-0.3-0.3-0.7-0.3-0.9,0c-0.3,0.3-0.3,0.7,0,0.9c0,0,0,0,0,0l1.1,1.1
		c0.2,0.2,0.6,0.3,0.9,0l2.6-2.2c0.3-0.2,0.3-0.6,0.1-0.9C11.2,38.6,10.8,38.6,10.5,38.8L10.5,38.8z"/>
	<path class="st1" d="M13.2,39.5c0,0.4,0.3,0.7,0.7,0.7h8.2c0.4,0,0.7-0.3,0.7-0.7c0-0.4-0.3-0.7-0.7-0.7h-8.2
		C13.5,38.8,13.2,39.1,13.2,39.5z"/>
	<path class="st1" d="M13.2,42.1c0,0.4,0.3,0.7,0.7,0.7h12.5c0.4,0,0.7-0.3,0.7-0.7c0-0.4-0.3-0.7-0.7-0.7H13.9
		C13.5,41.4,13.2,41.7,13.2,42.1z"/>
	<path class="st1" d="M4.4,32.5c0-0.4-0.3-0.7-0.7-0.7H3.6c-0.4,0-0.7,0.3-0.7,0.7s0.3,0.7,0.7,0.7h0.2C4.1,33.2,4.4,32.9,4.4,32.5z
		"/>
	<path class="st1" d="M5.9,33.2h10c0.4,0,0.7-0.3,0.7-0.7s-0.3-0.7-0.7-0.7h-10c-0.4,0-0.7,0.3-0.7,0.7S5.6,33.2,5.9,33.2z"/>
	<path class="st1" d="M48.2,73.9l-6.5-6.5c-0.3-0.3-0.7-0.3-0.9,0l-0.4,0.4l-0.2-0.2c3.1-4.2,2.7-10-1-13.7l0,0
		c-0.7-0.7-1.5-1.3-2.3-1.7V30.4c0-0.5-0.2-1-0.6-1.3l-5.5-4.8c-0.3-0.3-0.7-0.4-1.2-0.4H9.5c-0.7,0-1.3,0.2-1.9,0.5
		c-1,0.6-1.7,1.8-1.7,3v1.3H3.7c-2,0-3.6,1.6-3.6,3.6v34.4c0,2,1.6,3.6,3.6,3.6h22.3c1.7,1.1,3.6,1.6,5.6,1.6h0
		c2.3,0,4.5-0.7,6.3-2.1l0.2,0.2l-0.4,0.4c-0.3,0.3-0.3,0.7,0,0.9c0,0,0,0,0,0l6.5,6.5c1.1,1.1,2.8,1.1,3.9,0
		C49.3,76.7,49.3,75,48.2,73.9L48.2,73.9z M30.6,26l3.8,3.2h-3.8V26z M3.7,68.9L3.7,68.9c-1.2,0-2.2-1-2.3-2.3V32.2
		c0-1.2,1-2.3,2.3-2.3h0h19.9v4.7c0,0.3,0.3,0.6,0.6,0.6c0,0,0,0,0,0h5.5v7.2c0,0.4,0.3,0.7,0.6,0.7c0.4,0,0.7-0.3,0.7-0.6
		c0,0,0,0,0,0v-7.4c0-0.5-0.2-0.9-0.6-1.3L25,29.1c-0.3-0.3-0.8-0.4-1.2-0.4H7.3v-1.2c0-0.5,0.2-1,0.5-1.4c0.4-0.6,1.1-0.9,1.8-0.9
		h19.8v4.7c0,0.3,0.3,0.6,0.6,0.6l0,0h5.6v21c-1.4-0.6-2.9-0.8-4.5-0.7v-3.7c0-0.4-0.3-0.7-0.7-0.7s-0.7,0.3-0.7,0.7V51
		c-1,0.2-2,0.5-2.9,1c-0.1-0.1-0.3-0.2-0.5-0.2H13.9c-0.4,0-0.7,0.3-0.7,0.7c0,0.4,0.3,0.7,0.7,0.7h11.2c-2,1.6-3.4,4-3.8,6.5h-7.4
		c-0.4,0-0.7,0.3-0.7,0.7c0,0.4,0.3,0.7,0.7,0.7h7.3c0,0.1,0,0.2,0,0.3c0,0.4,0,0.7,0.1,1.1h-7.4c-0.4,0-0.7,0.3-0.7,0.7
		c0,0.4,0.3,0.7,0.7,0.7h7.6c0.4,1.9,1.4,3.7,2.8,5.1c0.1,0.1,0.1,0.1,0.2,0.2H3.7z M24.9,34v-3.2l3.7,3.2H24.9z M38.2,67.8
		c-1.7,1.7-4.1,2.7-6.5,2.7h0c-5.1,0-9.2-4.2-9.2-9.3c0-2.4,1-4.8,2.7-6.5c1.4-1.4,3.2-2.3,5.2-2.6c0.4-0.1,0.9-0.1,1.3-0.1
		c5.1,0,9.2,4.1,9.2,9.2C40.9,63.8,39.9,66.1,38.2,67.8L38.2,67.8z M39,68.9c0,0,0.1-0.1,0.1-0.1c0,0,0.1-0.1,0.1-0.2l0.2,0.2
		L39.1,69L39,68.9z M39.2,70.9l2.1-2.1l0.6,0.6l-2.1,2.1L39.2,70.9z M47.3,76.9c-0.6,0.6-1.5,0.6-2.1,0l-4.5-4.5l2.1-2.1l4.5,4.5
		C47.8,75.4,47.8,76.3,47.3,76.9C47.3,76.9,47.3,76.9,47.3,76.9L47.3,76.9z"/>
	<path class="st1" d="M37.6,55.3c-3.3-3.3-8.6-3.3-11.9,0c-3.3,3.3-3.3,8.6,0,11.9s8.6,3.3,11.9,0C40.9,64,40.9,58.6,37.6,55.3
		C37.6,55.3,37.6,55.3,37.6,55.3L37.6,55.3z M36.7,66.3c-2.8,2.8-7.3,2.8-10.1,0c-2.8-2.8-2.8-7.3,0-10.1c1.1-1.1,2.5-1.8,4-2
		c0.3-0.1,0.7-0.1,1-0.1c3.9,0,7.1,3.2,7.1,7.1C38.8,63.2,38,65,36.7,66.3L36.7,66.3z"/>
	<path class="st1" d="M38.1,61.1c-0.1-0.2-2.9-3.9-6.4-3.9s-6.3,3.7-6.4,3.9c-0.2,0.2-0.2,0.5,0,0.8c0.1,0.2,2.9,3.9,6.4,3.9
		s6.3-3.7,6.4-3.9C38.2,61.6,38.2,61.3,38.1,61.1z M28.1,62.9c-0.5-0.4-1-0.9-1.4-1.4c0.4-0.5,0.9-1,1.4-1.4
		C27.7,61,27.7,62,28.1,62.9z M31.7,64c-1.4,0-2.6-1.1-2.6-2.6c0-1.4,1.1-2.6,2.6-2.6c1.4,0,2.6,1.1,2.6,2.6
		C34.2,62.9,33.1,64,31.7,64L31.7,64z M35.3,62.9c0.3-0.9,0.3-1.9,0-2.8c0.5,0.4,1,0.9,1.4,1.4C36.3,62,35.8,62.4,35.3,62.9
		L35.3,62.9z"/>
</g>
</svg>
