<?xml version="1.0" encoding="utf-8"?>
<!-- Generator: Adobe Illustrator 24.2.0, SVG Export Plug-In . SVG Version: 6.00 Build 0)  -->
<svg version="1.1" id="Capa_1" xmlns:v="https://vecta.io/nano"
	 xmlns="http://www.w3.org/2000/svg" xmlns:xlink="http://www.w3.org/1999/xlink" x="0px" y="0px" width="101px" height="79px"
	 viewBox="0 0 101 79" style="enable-background:new 0 0 101 79;" xml:space="preserve">
<style type="text/css">
	.st0{opacity:0.1;fill-rule:evenodd;clip-rule:evenodd;fill:#766DF4;enable-background:new    ;}
	.st1{fill:#766DF4;}
</style>
<path class="st0" d="M37.3,74.9c17.9,8.7,53.2,3.1,61.9-14.8S82.1,22,64.2,13.3s-42-21.7-50.7-3.9S19.4,66.2,37.3,74.9L37.3,74.9z"
	/>
<g>
	<path class="st1" d="M35.7,72c0.1,0,0.2,0.1,0.3,0.1c0.2,0,0.5-0.1,0.6-0.3l7-7c0.1-0.1,0.2-0.3,0.3-0.6l0.6-6.7l6.1-6.1
		c3.1-3.1,2.8-9.3,2.8-9.6c0-0.5-0.4-0.8-0.9-0.9c-0.3,0-6.5-0.3-9.6,2.8l-6.1,6.1l-6.7,0.6c-0.2,0-0.4,0.1-0.6,0.3l-7,7
		c-0.3,0.3-0.3,0.6-0.2,1c0.1,0.3,0.5,0.6,0.8,0.6h5.1L27.5,62c-0.1,0.2-0.1,0.3,0,0.5c-1,1-1.7,4.3-1.9,5.3c0,0.3,0,0.5,0.2,0.7
		c0.2,0.2,0.4,0.3,0.7,0.3c0.1,0,0.1,0,0.2,0c1-0.2,4.3-0.9,5.3-1.9l0,0c0.1,0,0.1,0,0.2,0c0.1,0,0.2,0,0.3,0l2.6-0.9v5.1
		C35.1,71.5,35.3,71.9,35.7,72z M32.4,65l-3-3l0.6-1.9l4.3,4.3L32.4,65z M32.8,56.5l5.1,5.1L36,63.5l-5.1-5.1L32.8,56.5z M42.2,63.8
		L36.9,69v-3.8l5.6-5.6L42.2,63.8z M43.1,56.5l-3.9,3.9l-5.1-5.1l9.6-9.6l5.1,5.1L43.1,56.5z M50,49.4l-5-5c2.1-1.4,5.2-1.7,6.7-1.7
		C51.7,44.2,51.4,47.4,50,49.4L50,49.4z M25.4,57.5l5.2-5.2l4.2-0.4l-5.6,5.6H25.4z M28.7,63.9l1.9,1.9c-0.9,0.5-1.9,0.8-2.9,1
		C27.9,65.8,28.2,64.8,28.7,63.9L28.7,63.9z"/>
	<path class="st1" d="M43,48.9c-0.4,0.4-0.4,0.9,0,1.3l1.3,1.3c0.4,0.3,0.9,0.3,1.3,0c0.3-0.3,0.4-0.9,0-1.3l-1.3-1.3
		c-0.2-0.2-0.4-0.3-0.6-0.3S43.2,48.7,43,48.9z"/>
	<path class="st1" d="M41.8,51.4c-0.4-0.3-0.9-0.3-1.3,0c-0.3,0.3-0.4,0.9,0,1.3l1.3,1.3c0.4,0.3,0.9,0.3,1.3,0
		c0.3-0.3,0.4-0.9,0-1.3L41.8,51.4z"/>
	<path class="st1" d="M48.3,71.5c3.6-4,4.4-9.8,2.1-14.7c-0.1-0.3-0.4-0.5-0.7-0.5c-0.3,0-0.6,0.1-0.8,0.4c-0.2,0.3-0.2,0.6-0.1,0.9
		c0.7,1.6,1.1,3.3,1.1,5c0,4.8-2.9,9.1-7.3,10.9c-4.4,1.8-9.5,0.8-12.8-2.6c-0.3-0.3-0.9-0.3-1.3,0c-0.4,0.3-0.4,0.9,0,1.3
		c5,5.1,13.2,5.4,18.6,0.7l5.8,5.8c0.4,0.3,0.9,0.3,1.3,0c0.3-0.3,0.4-0.9,0-1.3L48.3,71.5z"/>
	<path class="st1" d="M3,67.1h19.8c0.5,0,0.9-0.4,0.9-0.9c0-0.5-0.4-0.9-0.9-0.9H3c-0.5,0-0.9-0.4-0.9-0.9v-9c0-0.5,0.4-0.9,0.9-0.9
		h19.8c0.5,0,0.9-0.4,0.9-0.9c0-0.5-0.4-0.9-0.9-0.9H5.7v-3.6c0-0.5-0.4-0.9-0.9-0.9c-0.5,0-0.9,0.4-0.9,0.9v3.6H3
		c-1.5,0-2.7,1.2-2.7,2.7v9C0.3,65.9,1.5,67.1,3,67.1z"/>
	<path class="st1" d="M3.9,57.2v5.4c0,0.5,0.4,0.9,0.9,0.9c0.5,0,0.9-0.4,0.9-0.9v-5.4c0-0.5-0.4-0.9-0.9-0.9
		C4.3,56.3,3.9,56.7,3.9,57.2z"/>
	<path class="st1" d="M24.7,31c0.5,0,0.9-0.4,0.9-0.9v-1.8h4.7c0.4,1.2,1.7,2,3,1.8c1.3-0.2,2.2-1.3,2.2-2.7s-0.9-2.4-2.2-2.7
		c-1.3-0.2-2.6,0.5-3,1.8h-8.3c-1,0-1.8,0.8-1.8,1.8v1.8c0,0.5,0.4,0.9,0.9,0.9c0.5,0,0.9-0.4,0.9-0.9v-1.8h1.8v1.8
		C23.8,30.6,24.2,31,24.7,31z M32.8,26.5c0.5,0,0.9,0.4,0.9,0.9c0,0.5-0.4,0.9-0.9,0.9c-0.5,0-0.9-0.4-0.9-0.9
		C31.9,26.9,32.3,26.5,32.8,26.5z"/>
	<path class="st1" d="M20.1,37.3c0,0.5,0.4,0.9,0.9,0.9c0.5,0,0.9-0.4,0.9-0.9v-1.8h1.8v1.8c0,0.5,0.4,0.9,0.9,0.9
		c0.5,0,0.9-0.4,0.9-0.9v-1.8h4.7c0.4,1.2,1.7,2,3,1.8c1.3-0.2,2.2-1.3,2.2-2.7c0-1.3-0.9-2.4-2.2-2.7c-1.3-0.2-2.6,0.5-3,1.8h-8.3
		c-1,0-1.8,0.8-1.8,1.8V37.3z M32.8,33.7c0.5,0,0.9,0.4,0.9,0.9c0,0.5-0.4,0.9-0.9,0.9c-0.5,0-0.9-0.4-0.9-0.9
		C31.9,34.1,32.3,33.7,32.8,33.7z"/>
	<path class="st1" d="M4.8,42.7c-0.5,0-0.9,0.4-0.9,0.9v1.8c0,0.5,0.4,0.9,0.9,0.9c0.5,0,0.9-0.4,0.9-0.9v-1.8
		C5.7,43.1,5.3,42.7,4.8,42.7z"/>
	<path class="st1" d="M5.7,38.2c0-0.5-0.4-0.9-0.9-0.9c-0.5,0-0.9,0.4-0.9,0.9V40c0,0.5,0.4,0.9,0.9,0.9c0.5,0,0.9-0.4,0.9-0.9V38.2
		z"/>
	<path class="st1" d="M5.7,32.8c0-0.5-0.4-0.9-0.9-0.9c-0.5,0-0.9,0.4-0.9,0.9v1.8c0,0.5,0.4,0.9,0.9,0.9c0.5,0,0.9-0.4,0.9-0.9
		V32.8z"/>
	<path class="st1" d="M17.4,26.5h-1.8c-0.5,0-0.9,0.4-0.9,0.9c0,0.5,0.4,0.9,0.9,0.9h1.8c0.5,0,0.9-0.4,0.9-0.9
		C18.3,26.9,17.9,26.5,17.4,26.5z"/>
	<path class="st1" d="M12,26.5h-1.8c-0.5,0-0.9,0.4-0.9,0.9c0,0.5,0.4,0.9,0.9,0.9H12c0.5,0,0.9-0.4,0.9-0.9
		C12.9,26.9,12.5,26.5,12,26.5z"/>
	<path class="st1" d="M17.4,33.7h-1.8c-0.5,0-0.9,0.4-0.9,0.9c0,0.5,0.4,0.9,0.9,0.9h1.8c0.5,0,0.9-0.4,0.9-0.9
		C18.3,34.1,17.9,33.7,17.4,33.7z"/>
	<path class="st1" d="M12,33.7H8.4c-0.5,0-0.9,0.4-0.9,0.9c0,0.5,0.4,0.9,0.9,0.9H12c0.5,0,0.9-0.4,0.9-0.9
		C12.9,34.1,12.5,33.7,12,33.7z"/>
	<path class="st1" d="M24.7,45.5c0.5,0,0.9-0.4,0.9-0.9v-1.8h4.7c0.4,1.2,1.7,2,3,1.8c1.3-0.2,2.2-1.3,2.2-2.7
		c0-1.3-0.9-2.4-2.2-2.7c-1.3-0.2-2.6,0.5-3,1.8h-8.3c-1,0-1.8,0.8-1.8,1.8v1.8c0,0.5,0.4,0.9,0.9,0.9c0.5,0,0.9-0.4,0.9-0.9v-1.8
		h1.8v1.8C23.8,45,24.2,45.5,24.7,45.5z M32.8,40.9c0.5,0,0.9,0.4,0.9,0.9c0,0.5-0.4,0.9-0.9,0.9c-0.5,0-0.9-0.4-0.9-0.9
		C31.9,41.3,32.3,40.9,32.8,40.9z"/>
	<path class="st1" d="M17.4,40.9h-1.8c-0.5,0-0.9,0.4-0.9,0.9c0,0.5,0.4,0.9,0.9,0.9h1.8c0.5,0,0.9-0.4,0.9-0.9
		C18.3,41.3,17.9,40.9,17.4,40.9z"/>
	<path class="st1" d="M12,40.9H8.4c-0.5,0-0.9,0.4-0.9,0.9c0,0.5,0.4,0.9,0.9,0.9H12c0.5,0,0.9-0.4,0.9-0.9
		C12.9,41.3,12.5,40.9,12,40.9z"/>
	<path class="st1" d="M6.6,28.3c0.5,0,0.9-0.4,0.9-0.9c0-0.5-0.4-0.9-0.9-0.9c-1.5,0-2.7,1.2-2.7,2.7c0,0.3,0.2,0.6,0.5,0.8
		c0.3,0.2,0.6,0.2,0.9,0c0.3-0.2,0.5-0.5,0.5-0.8C5.7,28.7,6.1,28.3,6.6,28.3z"/>
</g>
</svg>
