<?xml version="1.0" encoding="utf-8"?>
<!-- Generator: Adobe Illustrator 24.2.0, SVG Export Plug-In . SVG Version: 6.00 Build 0)  -->
<svg version="1.1" id="Capa_1" xmlns:v="https://vecta.io/nano"
	 xmlns="http://www.w3.org/2000/svg" xmlns:xlink="http://www.w3.org/1999/xlink" x="0px" y="0px" width="102px" height="79px"
	 viewBox="0 0 102 79" style="enable-background:new 0 0 102 79;" xml:space="preserve">
<style type="text/css">
	.st0{fill-rule:evenodd;clip-rule:evenodd;fill:#F74F78;fill-opacity:0.1;}
	.st1{fill:#F74F78;}
</style>
<path class="st0" d="M37.9,74.8c17.9,8.7,53.2,3.1,61.9-14.8s-17.1-38-35-46.8s-42-21.7-50.7-3.9S20,66.1,37.9,74.8z"/>
<g>
	<path class="st1" d="M3.7,78.4h26.5c1.6,0,2.8-1.3,2.8-2.8v-0.9h1.9c0.5,0,0.9-0.4,0.9-0.9c0-0.5-0.4-0.9-0.9-0.9H33v-7.6h13.2v1.9
		c0,0.5,0.4,0.9,0.9,0.9c0.5,0,0.9-0.4,0.9-0.9v-1.9h6.6c1.6,0,2.8-1.3,2.8-2.8V24.5c0-1.6-1.3-2.8-2.8-2.8H20.7
		c-1.6,0-2.8,1.3-2.8,2.8V33H16c-0.5,0-0.9,0.4-0.9,0.9c0,0.5,0.4,0.9,0.9,0.9h1.9v13.2h-7.6v-1.9c0-0.5-0.4-0.9-0.9-0.9
		c-0.5,0-0.9,0.4-0.9,0.9v1.9H3.7c-1.6,0-2.8,1.3-2.8,2.8v24.6C0.8,77.1,2.1,78.4,3.7,78.4z M30.1,76.5H3.7c-0.5,0-0.9-0.4-0.9-0.9
		v-0.9h28.4v0.9C31.1,76.1,30.7,76.5,30.1,76.5z M46.3,43.9c0.2-0.3,0.5-0.5,0.8-0.5c0.4,0,0.7,0.2,0.8,0.5l7.1,13.7H39.3l2.6-5
		L46.3,43.9z M39.1,53.8l-2,3.8h-2.4l3.9-7.5c0-0.1,0.1-0.1,0.1-0.1c0.1,0,0.1,0,0.1,0.1l1,2L39.1,53.8z M21.9,71.6l3.8-7.3
		c0.1-0.3,0.4-0.3,0.5,0l4.3,8.4h-9.1L21.9,71.6L21.9,71.6z M19.2,72.7h-2.5l2.1-3.5l1.2,2L19.2,72.7z M54.8,63.3H33v-3.8h22.7v2.8
		C55.7,62.8,55.3,63.3,54.8,63.3z M2.7,51c0-0.5,0.4-0.9,0.9-0.9h22.7c0.5,0,0.9-0.4,0.9-0.9c0-0.5-0.4-0.9-0.9-0.9h-6.6V24.5
		c0-0.5,0.4-0.9,0.9-0.9h34.1c0.5,0,0.9,0.4,0.9,0.9v30.2l-6-11.6c-0.5-0.9-1.5-1.5-2.5-1.5c-1.1,0-2,0.6-2.5,1.5l-3.6,7l-0.4-0.8
		c-0.4-0.7-1.1-1.1-1.8-1.1s-1.5,0.4-1.8,1.1l-4,7.7v-2.2c0-0.5-0.4-0.9-0.9-0.9c-0.5,0-0.9,0.4-0.9,0.9v15l-3.3-6.3
		c-0.4-0.7-1.1-1.2-1.9-1.2c-0.8,0-1.6,0.5-1.9,1.2l-3,5.8l-0.8-1.4c-0.3-0.5-0.8-0.8-1.4-0.8c-0.6,0-1.1,0.3-1.4,0.8l-2.9,4.8H2.7
		V51z"/>
	<path class="st1" d="M23.6,58.8c0,0.1,0,0.1,0.1,0.2c0,0.1,0.1,0.1,0.1,0.1c0,0.1,0.1,0.1,0.1,0.2c0,0,0,0,0,0
		c0.2,0.1,0.4,0.2,0.6,0.2h2.8c0.5,0,0.9-0.4,0.9-0.9c0-0.5-0.4-0.9-0.9-0.9h-0.9l7.3-9.1c0.2-0.3,0.3-0.6,0.1-0.9
		c-0.1-0.3-0.4-0.5-0.7-0.6c-0.3-0.1-0.7,0.1-0.9,0.3l-6.8,8.5v-0.1c0-0.5-0.4-0.9-0.9-0.9c-0.5,0-0.9,0.4-0.9,0.9v2.8
		c0,0,0,0,0,0.1C23.5,58.7,23.6,58.7,23.6,58.8z"/>
	<path class="st1" d="M32,30.6c0-2.9-2.3-5.2-5.2-5.2c-2.9,0-5.2,2.3-5.2,5.2s2.3,5.2,5.2,5.2C29.7,35.8,32,33.5,32,30.6z
		 M26.8,33.9c-1.3,0-2.5-0.8-3.1-2c-0.5-1.2-0.2-2.7,0.7-3.6c0.9-0.9,2.4-1.2,3.6-0.7c1.2,0.5,2,1.7,2,3.1
		C30.1,32.4,28.7,33.9,26.8,33.9z"/>
	<path class="st1" d="M8.4,51.9c-2.1,0-3.8,1.7-3.8,3.8c0,2.1,1.7,3.8,3.8,3.8s3.8-1.7,3.8-3.8C12.2,53.6,10.5,51.9,8.4,51.9z
		 M8.4,57.6c-1,0-1.9-0.8-1.9-1.9c0-1,0.8-1.9,1.9-1.9s1.9,0.8,1.9,1.9C10.3,56.7,9.4,57.6,8.4,57.6z"/>
	<path class="st1" d="M38.2,39.6h9.5c1.7,0,3.3-1,3.9-2.6c0.7-1.6,0.3-3.4-0.9-4.6c-1.2-1.2-3-1.6-4.6-1c-0.6-2.1-2.6-3.4-4.7-3.1
		c-2.1,0.3-3.7,2.1-3.7,4.2c0,0.2,0,0.3,0,0.5c-1.7,0.2-3,1.8-2.9,3.5C35,38.3,36.4,39.6,38.2,39.6z M38.2,34.9c0.1,0,0.2,0,0.3,0
		c0.1,0,0.2,0,0.3,0l0.3,0c0.3,0,0.6-0.2,0.7-0.5c0.1-0.3,0.1-0.6,0-0.9c-0.4-0.9-0.3-1.9,0.4-2.6c0.7-0.7,1.7-0.9,2.6-0.6
		c0.9,0.4,1.5,1.2,1.5,2.2c0,0.1,0,0.2,0,0.3c0,0.3,0.1,0.6,0.3,0.8c0.2,0.2,0.5,0.3,0.8,0.3l0.1,0c0.2,0,0.4-0.1,0.5-0.3
		c0.8-0.7,1.9-0.9,2.9-0.3c0.9,0.5,1.4,1.6,1.1,2.7c-0.3,1-1.2,1.7-2.3,1.7h-9.5c-0.8,0-1.4-0.6-1.4-1.4
		C36.8,35.5,37.4,34.9,38.2,34.9z"/>
	<path class="st1" d="M9.3,39.6c-0.5,0-0.9,0.4-0.9,0.9v1.9c0,0.5,0.4,0.9,0.9,0.9c0.5,0,0.9-0.4,0.9-0.9v-1.9
		C10.3,40,9.9,39.6,9.3,39.6z"/>
	<path class="st1" d="M10.3,35.8c0-0.5,0.4-0.9,0.9-0.9h0.9c0.5,0,0.9-0.4,0.9-0.9c0-0.5-0.4-0.9-0.9-0.9h-0.9
		c-1.6,0-2.8,1.3-2.8,2.8v0.9c0,0.5,0.4,0.9,0.9,0.9c0.5,0,0.9-0.4,0.9-0.9V35.8z"/>
	<path class="st1" d="M48.1,71.8v-0.9c0-0.5-0.4-0.9-0.9-0.9c-0.5,0-0.9,0.4-0.9,0.9v0.9c0,0.5-0.4,0.9-0.9,0.9h-0.9
		c-0.5,0-0.9,0.4-0.9,0.9c0,0.5,0.4,0.9,0.9,0.9h0.9C46.9,74.6,48.1,73.4,48.1,71.8z"/>
	<path class="st1" d="M38.7,74.6h1.9c0.5,0,0.9-0.4,0.9-0.9c0-0.5-0.4-0.9-0.9-0.9h-1.9c-0.5,0-0.9,0.4-0.9,0.9
		C37.7,74.2,38.1,74.6,38.7,74.6z"/>
</g>
</svg>
