<?xml version="1.0" encoding="utf-8"?>
<!-- Generator: Adobe Illustrator 24.2.0, SVG Export Plug-In . SVG Version: 6.00 Build 0)  -->
<svg version="1.1" id="Capa_1" xmlns:v="https://vecta.io/nano"
	 xmlns="http://www.w3.org/2000/svg" xmlns:xlink="http://www.w3.org/1999/xlink" x="0px" y="0px" width="98px" height="79px"
	 viewBox="0 0 98 79" style="enable-background:new 0 0 98 79;" xml:space="preserve">
<style type="text/css">
	.st0{opacity:0.1;fill-rule:evenodd;clip-rule:evenodd;fill:#16C995;enable-background:new    ;}
	.st1{fill:#16C995;}
</style>
<path class="st0" d="M34.3,74.9c17.9,8.7,53.2,3.1,61.9-14.8S79.1,22,61.2,13.3s-42-21.7-50.7-3.9S16.4,66.2,34.3,74.9L34.3,74.9z"
	/>
<g>
	<path class="st1" d="M10.9,69.9c-0.5,0-0.9,0.4-0.9,0.9c0,0.5,0.4,0.9,0.9,0.9H22c0.5,0,0.9-0.4,0.9-0.9c0-0.5-0.4-0.9-0.9-0.9
		H10.9z"/>
	<path class="st1" d="M49.3,27.2H3.2c-1.4,0-2.6,1.1-2.6,2.6v46.1c0,1.4,1.1,2.6,2.6,2.6h38.4c0.5,0,0.9-0.4,0.9-0.9
		c0-0.5-0.4-0.9-0.9-0.9H3.2c-0.5,0-0.9-0.4-0.9-0.9V64.6c0.3,0.1,0.6,0.2,0.9,0.2h0.9c0.5,0,0.9,0.4,0.9,0.9v5.1
		c0,0.4,0.2,0.7,0.6,0.8c0.1,0,0.2,0.1,0.3,0.1c0.2,0,0.5-0.1,0.6-0.3l5.5-6.2c0.2-0.2,0.4-0.3,0.6-0.3h12V69c0,1.4,1.1,2.6,2.6,2.6
		H40c0.2,0,0.5,0.1,0.6,0.3l5.5,6.2c0.2,0.2,0.4,0.3,0.6,0.3c0.1,0,0.2,0,0.3-0.1c0.3-0.1,0.6-0.4,0.6-0.8v-5.1
		c0-0.5,0.4-0.9,0.9-0.9h0.9c1.4,0,2.6-1.1,2.6-2.6V58.8c0-1.4-1.1-2.6-2.6-2.6H28v-4.3c0-1.4-1.1-2.6-2.6-2.6H3.2
		c-0.3,0-0.6,0.1-0.9,0.2V35.7h47.8v17.9c0,0.5,0.4,0.9,0.9,0.9c0.5,0,0.9-0.4,0.9-0.9V29.8C51.9,28.3,50.7,27.2,49.3,27.2z
		 M50.2,58.8V69c0,0.5-0.4,0.9-0.9,0.9h-0.9c-1.4,0-2.6,1.1-2.6,2.6v2.9l-4-4.5c-0.5-0.6-1.2-0.9-1.9-0.9H27.1
		c-0.5,0-0.9-0.4-0.9-0.9V58.8c0-0.5,0.4-0.9,0.9-0.9h22.2C49.8,57.9,50.2,58.3,50.2,58.8z M3.2,51.1h22.2c0.5,0,0.9,0.4,0.9,0.9
		v4.4c0,0-0.1,0-0.1,0c0,0-0.1,0-0.1,0.1c-0.1,0-0.2,0.1-0.3,0.2c0,0-0.1,0-0.1,0.1c-0.1,0.1-0.2,0.2-0.3,0.2c0,0,0,0-0.1,0
		c-0.1,0.1-0.2,0.2-0.3,0.3c0,0,0,0.1-0.1,0.1c-0.1,0.1-0.1,0.2-0.2,0.3c0,0,0,0.1-0.1,0.1c0,0.1-0.1,0.2-0.1,0.3c0,0,0,0.1,0,0.1
		c0,0.2,0,0.3,0,0.5V63h-12c-0.7,0-1.4,0.3-1.9,0.9l-4,4.5v-2.9c0-1.4-1.1-2.6-2.6-2.6H3.2c-0.5,0-0.9-0.4-0.9-0.9V51.9
		C2.4,51.5,2.8,51.1,3.2,51.1z M2.4,34v-4.3c0-0.5,0.4-0.9,0.9-0.9h46.1c0.5,0,0.9,0.4,0.9,0.9V34H2.4z"/>
	<path class="st1" d="M5.8,31.5c0,0.5-0.4,0.9-0.9,0.9c-0.5,0-0.9-0.4-0.9-0.9c0-0.5,0.4-0.9,0.9-0.9C5.4,30.6,5.8,31,5.8,31.5z"/>
	<path class="st1" d="M9.2,31.5c0,0.5-0.4,0.9-0.9,0.9c-0.5,0-0.9-0.4-0.9-0.9c0-0.5,0.4-0.9,0.9-0.9C8.8,30.6,9.2,31,9.2,31.5z"/>
	<path class="st1" d="M12.6,31.5c0,0.5-0.4,0.9-0.9,0.9c-0.5,0-0.9-0.4-0.9-0.9c0-0.5,0.4-0.9,0.9-0.9C12.2,30.6,12.6,31,12.6,31.5z
		"/>
	<path class="st1" d="M35.9,67.9c0.2,0.2,0.4,0.2,0.6,0.3h0.1c0.2,0,0.5-0.1,0.6-0.3l5.1-6.8c0.3-0.4,0.2-0.9-0.2-1.2
		c-0.4-0.3-0.9-0.2-1.2,0.2l-4.5,6l-1.9-1.9c-0.3-0.3-0.9-0.3-1.2,0c-0.3,0.3-0.3,0.9,0,1.2L35.9,67.9z"/>
	<path class="st1" d="M4.9,61.3H22c0.5,0,0.9-0.4,0.9-0.9c0-0.5-0.4-0.9-0.9-0.9H4.9c-0.5,0-0.9,0.4-0.9,0.9
		C4.1,61,4.5,61.3,4.9,61.3z"/>
	<path class="st1" d="M4.9,57.9H22c0.5,0,0.9-0.4,0.9-0.9c0-0.5-0.4-0.9-0.9-0.9H4.9c-0.5,0-0.9,0.4-0.9,0.9
		C4.1,57.5,4.5,57.9,4.9,57.9z"/>
	<path class="st1" d="M4.9,54.5h18.8c0.5,0,0.9-0.4,0.9-0.9c0-0.5-0.4-0.9-0.9-0.9H4.9c-0.5,0-0.9,0.4-0.9,0.9
		C4.1,54.1,4.5,54.5,4.9,54.5z"/>
	<path class="st1" d="M5.8,37.4c-0.9,0-1.7,0.8-1.7,1.7V46c0,0.9,0.8,1.7,1.7,1.7H16c0.9,0,1.7-0.8,1.7-1.7v-6.8
		c0-0.9-0.8-1.7-1.7-1.7H5.8z M5.8,46v-6.8H16V46H5.8z"/>
	<path class="st1" d="M48.5,39.1c0-0.9-0.8-1.7-1.7-1.7H21.2c-0.9,0-1.7,0.8-1.7,1.7V46c0,0.9,0.8,1.7,1.7,1.7h25.6
		c0.9,0,1.7-0.8,1.7-1.7V39.1z M46.8,41.7H28v-2.6h18.8V41.7z M21.2,39.1h5.1V46h-5.1V39.1z M28,46v-2.6h18.8V46H28z"/>
	<path class="st1" d="M47.6,49.4H30.5c-0.5,0-0.9,0.4-0.9,0.9c0,0.5,0.4,0.9,0.9,0.9h17.1c0.5,0,0.9-0.4,0.9-0.9
		C48.5,49.8,48.1,49.4,47.6,49.4z"/>
	<path class="st1" d="M47.6,52.8H30.5c-0.5,0-0.9,0.4-0.9,0.9c0,0.5,0.4,0.9,0.9,0.9h17.1c0.5,0,0.9-0.4,0.9-0.9
		C48.5,53.2,48.1,52.8,47.6,52.8z"/>
</g>
</svg>
