<?xml version="1.0" encoding="utf-8"?>
<!-- Generator: Adobe Illustrator 24.2.0, SVG Export Plug-In . SVG Version: 6.00 Build 0)  -->
<svg version="1.1" id="Capa_1" xmlns:v="https://vecta.io/nano"
	 xmlns="http://www.w3.org/2000/svg" xmlns:xlink="http://www.w3.org/1999/xlink" x="0px" y="0px" width="98px" height="79px"
	 viewBox="0 0 98 79" style="enable-background:new 0 0 98 79;" xml:space="preserve">
<style type="text/css">
	.st0{opacity:0.1;fill-rule:evenodd;clip-rule:evenodd;fill:#16C995;enable-background:new    ;}
	.st1{fill:#16C995;}
</style>
<path class="st0" d="M34.3,74.9c17.9,8.7,53.2,3.1,61.9-14.8S79.1,22,61.2,13.3s-42-21.7-50.7-3.9S16.4,66.2,34.3,74.9L34.3,74.9z"
	/>
<g>
	<path id="XMLID_294_" class="st1" d="M48.4,35.4h-2.4v-5c0-1.6-1.3-3-3-3H9c-1.6,0-3,1.3-3,3v5H3.6c-1.6,0-3,1.3-3,3v28.6
		c0,1.6,1.3,3,3,3h17.5v2.4h-1.9c-1.6,0-3,1.3-3,3v2c0,0.5,0.4,1,1,1h17.7c0.5,0,1-0.4,1-1v-2c0-1.6-1.3-3-3-3H31v-2.4h17.5
		c1.6,0,3-1.3,3-3V38.4C51.4,36.7,50.1,35.4,48.4,35.4z M48.4,37.4c0.5,0,1,0.4,1,1v22.8h-3.4V37.4L48.4,37.4z M9,29.5h34.1
		c0.5,0,1,0.4,1,1v5H8v-5C8,29.9,8.4,29.5,9,29.5z M3.6,37.4H6v7.4c0,0.5,0.4,1,1,1s1-0.4,1-1v-7.4h36.1v23.8H39v-3.3
		c0-0.5-0.4-1-1-1h-1.3c-0.2-0.8-0.5-1.5-0.9-2.2l0.9-0.9c0.4-0.4,0.4-1,0-1.4l-3-3c-0.4-0.4-1-0.4-1.4,0l-0.9,0.9
		c-0.7-0.4-1.5-0.7-2.2-0.9v-1.3c0-0.5-0.4-1-1-1h-4.3c-0.5,0-1,0.4-1,1v1.3c-0.8,0.2-1.5,0.5-2.2,0.9l-0.9-0.9
		c-0.4-0.4-1-0.4-1.4,0l-3,3c-0.4,0.4-0.4,1,0,1.4l0.9,0.9c-0.4,0.7-0.7,1.5-0.9,2.2H14c-0.5,0-1,0.4-1,1v3.3H8v-7.4
		c0-0.5-0.4-1-1-1s-1,0.4-1,1v7.4H2.6V38.4C2.6,37.8,3.1,37.4,3.6,37.4L3.6,37.4z M18.2,53.8l-0.8-0.8l1.6-1.6l0.8,0.8
		c0.3,0.3,0.8,0.4,1.2,0.1c0.9-0.6,2-1,3.1-1.3c0.5-0.1,0.8-0.5,0.8-1V49h2.3v1.1c0,0.5,0.3,0.9,0.8,1c1.1,0.2,2.1,0.7,3.1,1.3
		c0.4,0.3,0.9,0.2,1.2-0.1l0.8-0.8l1.6,1.6l-0.8,0.8c-0.3,0.3-0.4,0.8-0.1,1.2c0.6,0.9,1,2,1.3,3.1c0.1,0.5,0.5,0.8,1,0.8H37v2.3
		h-6.2c0.1-0.4,0.1-0.8,0.1-1.1c0-2.7-2.2-5-5-5s-5,2.2-5,5c0,0.4,0,0.8,0.1,1.1H15v-2.3h1.1c0.5,0,0.9-0.3,1-0.8
		c0.2-1.1,0.7-2.1,1.3-3.1C18.6,54.7,18.5,54.2,18.2,53.8L18.2,53.8z M23,60.1c0-1.6,1.3-3,3-3c1.6,0,3,1.3,3,3
		c0,0.4-0.1,0.8-0.2,1.1h-5.5C23.1,60.8,23,60.4,23,60.1z M33.9,75.3v1H18.2v-1c0-0.5,0.4-1,1-1h13.7C33.4,74.3,33.9,74.7,33.9,75.3
		L33.9,75.3z M29,72.3h-5.9v-2.4H29V72.3z M48.4,67.9H3.6c-0.5,0-1-0.4-1-1v-3.8h46.8v3.8C49.4,67.5,49,67.9,48.4,67.9z"/>
	<path id="XMLID_1617_" class="st1" d="M29,33.4h10.7c0.5,0,1-0.4,1-1c0-0.5-0.4-1-1-1H29c-0.5,0-1,0.4-1,1C28,33,28.5,33.4,29,33.4
		z"/>
	<path id="XMLID_1618_" class="st1" d="M16.7,33.4c0.3,0,0.5-0.1,0.7-0.3c0.2-0.2,0.3-0.4,0.3-0.7c0-0.3-0.1-0.5-0.3-0.7
		s-0.4-0.3-0.7-0.3s-0.5,0.1-0.7,0.3s-0.3,0.4-0.3,0.7c0,0.3,0.1,0.5,0.3,0.7C16.2,33.3,16.4,33.4,16.7,33.4z"/>
	<path id="XMLID_1620_" class="st1" d="M12.3,33.4c0.3,0,0.5-0.1,0.7-0.3c0.2-0.2,0.3-0.4,0.3-0.7c0-0.3-0.1-0.5-0.3-0.7
		s-0.4-0.3-0.7-0.3c-0.3,0-0.5,0.1-0.7,0.3s-0.3,0.4-0.3,0.7c0,0.3,0.1,0.5,0.3,0.7C11.8,33.3,12.1,33.4,12.3,33.4z"/>
	<path id="XMLID_1623_" class="st1" d="M21.1,33.4c0.3,0,0.5-0.1,0.7-0.3c0.2-0.2,0.3-0.4,0.3-0.7c0-0.3-0.1-0.5-0.3-0.7
		s-0.4-0.3-0.7-0.3c-0.3,0-0.5,0.1-0.7,0.3s-0.3,0.4-0.3,0.7c0,0.3,0.1,0.5,0.3,0.7C20.6,33.3,20.8,33.4,21.1,33.4z"/>
	<path id="XMLID_1624_" class="st1" d="M11.7,42.2h2.4c0.5,0,1-0.4,1-1c0-0.5-0.4-1-1-1h-2.4c-0.5,0-1,0.4-1,1
		C10.8,41.7,11.2,42.2,11.7,42.2z"/>
	<path id="XMLID_1626_" class="st1" d="M18.5,42.2h9.1c0.5,0,1-0.4,1-1c0-0.5-0.4-1-1-1h-9.1c-0.5,0-1,0.4-1,1
		C17.5,41.7,17.9,42.2,18.5,42.2z"/>
	<path id="XMLID_1627_" class="st1" d="M11.7,46.9h5.8c0.5,0,1-0.4,1-1c0-0.5-0.4-1-1-1h-5.8c-0.5,0-1,0.4-1,1
		C10.8,46.5,11.2,46.9,11.7,46.9z"/>
	<path id="XMLID_1628_" class="st1" d="M31.9,42.2h8.4c0.5,0,1-0.4,1-1c0-0.5-0.4-1-1-1h-8.4c-0.5,0-1,0.4-1,1
		C30.9,41.7,31.4,42.2,31.9,42.2z"/>
	<path id="XMLID_1633_" class="st1" d="M40.3,44.9h-6.8c-0.5,0-1,0.4-1,1c0,0.5,0.4,1,1,1h6.8c0.5,0,1-0.4,1-1
		C41.3,45.4,40.9,44.9,40.3,44.9z"/>
	<path id="XMLID_1635_" class="st1" d="M7,50.3c0.3,0,0.5-0.1,0.7-0.3C7.9,49.8,8,49.6,8,49.3s-0.1-0.5-0.3-0.7
		c-0.2-0.2-0.4-0.3-0.7-0.3s-0.5,0.1-0.7,0.3S6,49,6,49.3s0.1,0.5,0.3,0.7C6.5,50.2,6.7,50.3,7,50.3z"/>
</g>
</svg>
