<?xml version="1.0" encoding="utf-8"?>
<!-- Generator: Adobe Illustrator 24.2.0, SVG Export Plug-In . SVG Version: 6.00 Build 0)  -->
<svg version="1.1" id="Capa_1" xmlns:v="https://vecta.io/nano"
	 xmlns="http://www.w3.org/2000/svg" xmlns:xlink="http://www.w3.org/1999/xlink" x="0px" y="0px" width="102px" height="79px"
	 viewBox="0 0 102 79" style="enable-background:new 0 0 102 79;" xml:space="preserve">
<style type="text/css">
	.st0{fill-rule:evenodd;clip-rule:evenodd;fill:#F74F78;fill-opacity:0.1;}
	.st1{fill:#F74F78;}
</style>
<path class="st0" d="M37.9,74.8c17.9,8.7,53.2,3.1,61.9-14.8s-17.1-38-35-46.8s-42-21.7-50.7-3.9S20,66.1,37.9,74.8z"/>
<g>
	<path class="st1" d="M55.9,44.4h-5.7c-0.5,0-0.8,0.4-0.8,0.8c0,0.5,0.4,0.8,0.8,0.8h5.3v4.2c0,1.7-0.2,3.3-0.5,4.9
		c-0.9,4.8-3.1,9.1-6.1,12.6l-6.9-5c1.9-2,3.4-4.5,4.2-7.2c0.1-0.3,0-0.5-0.1-0.7c-0.2-0.2-0.4-0.3-0.7-0.3H29.7v-8.5h16.8
		c0.5,0,0.8-0.4,0.8-0.8c0-0.5-0.4-0.8-0.8-0.8H29.3c-0.7,0-1.3,0.6-1.3,1.3V55c0,0.7,0.6,1.3,1.3,1.3h14.9
		c-2.4,6.3-8.5,10.5-15.3,10.5c-3.6,0-7-1.1-9.9-3.3c-0.4-0.3-0.9-0.2-1.2,0.2c-0.3,0.4-0.2,0.9,0.2,1.2c3.2,2.4,6.9,3.6,10.9,3.6
		c3.9,0,7.7-1.2,10.9-3.6c0.3-0.3,0.7-0.5,1-0.8l7,5.1c-4.9,4.9-11.6,7.8-18.9,7.8c-0.1,0-0.1,0-0.2,0c-10-0.1-18.8-5.8-23.3-14.1
		l7.1-4.8c0.7,1.5,1.6,3,2.8,4.2c0.2,0.2,0.4,0.3,0.6,0.3c0.2,0,0.4-0.1,0.5-0.2c0.3-0.3,0.4-0.8,0.1-1.2c-2.7-3-4.1-6.9-4.1-11
		c0.1-9,7.4-16.3,16.4-16.3c4.2,0,8.3,1.6,11.3,4.5c0.5,0.5,1.3,0.5,1.8,0l6.6-6.6c0.2-0.2,0.4-0.6,0.4-0.9c0-0.3-0.1-0.7-0.4-0.9
		c-5.3-5.1-12.3-7.9-19.6-7.9c-4.3,0-8.4,0.9-12.2,2.8c-0.4,0.2-0.6,0.7-0.4,1.1c0.2,0.4,0.7,0.6,1.1,0.4c3.6-1.7,7.5-2.6,11.5-2.6
		c6.8,0,13.3,2.6,18.2,7.2l-6,6c-3.3-3.1-7.7-4.7-12.2-4.7c-4.8,0-9.4,1.9-12.8,5.2c-1.3,1.3-2.4,2.8-3.2,4.4l-6.9-5
		c2.1-3.5,4.9-6.5,8.4-8.8c0.4-0.2,0.5-0.8,0.2-1.1c-0.2-0.4-0.8-0.5-1.1-0.2c-8,5.2-12.8,14.1-12.8,23.6c0,7.5,2.9,14.6,8.2,20
		c5.3,5.3,12.3,8.3,19.9,8.3c0.1,0,0.1,0,0.2,0c6.6,0,13-2.3,18.1-6.5c5-4.2,8.5-10.1,9.7-16.5c0.3-1.7,0.5-3.5,0.5-5.2v-4.6
		C57.1,45,56.6,44.4,55.9,44.4L55.9,44.4z M5.2,38.3l7,5.1c-0.9,2.1-1.4,4.4-1.4,6.8c0,2.1,0.4,4.3,1.1,6.2l-7.2,4.9
		C3.2,58,2.3,54.2,2.3,50.3C2.3,46.1,3.3,42,5.2,38.3L5.2,38.3z"/>
</g>
</svg>
