<?xml version="1.0" encoding="utf-8"?>
<!-- Generator: Adobe Illustrator 24.2.0, SVG Export Plug-In . SVG Version: 6.00 Build 0)  -->
<svg version="1.1" id="Capa_1" xmlns:v="https://vecta.io/nano"
	 xmlns="http://www.w3.org/2000/svg" xmlns:xlink="http://www.w3.org/1999/xlink" x="0px" y="0px" width="102px" height="79px"
	 viewBox="0 0 102 79" style="enable-background:new 0 0 102 79;" xml:space="preserve">
<style type="text/css">
	.st0{opacity:0.1;fill-rule:evenodd;clip-rule:evenodd;fill:#6A9BF4;enable-background:new    ;}
	.st1{fill:#6A9BF4;}
</style>
<g>
	<path class="st0" d="M37.9,74.8c17.9,8.7,53.2,3.1,61.9-14.8s-17.1-38-35-46.8s-42-21.7-50.7-3.9S20,66.1,37.9,74.8z"/>
</g>
<g>
	<path class="st1" d="M7.1,59.4V61c0,0.6,0.5,1.1,1.1,1.1h17c0.6,0,1.1-0.5,1.1-1.1v-1.7c0-3.2-1.7-6.2-4.3-8
		c0.9-1.1,1.4-2.5,1.4-4.1c0-3.7-3-6.6-6.6-6.6c-3.7,0-6.6,3-6.6,6.6c0,1.5,0.5,2.9,1.4,4.1C8.7,53.1,7.1,56.1,7.1,59.4z M24,59.4
		V60H9.2v-0.6c0-2.7,1.5-5.2,3.8-6.5c1,0.7,2.3,1.1,3.6,1.1c1.3,0,2.5-0.4,3.6-1.1C22.6,54.2,24,56.7,24,59.4L24,59.4z M16.6,42.9
		c2.5,0,4.5,2,4.5,4.5c0,2.5-2,4.5-4.5,4.5c-2.5,0-4.5-2-4.5-4.5C12.2,44.9,14.2,42.9,16.6,42.9L16.6,42.9z"/>
	<path class="st1" d="M21.2,30.2c0.6,0,1.1-0.5,1.1-1.1c0-0.6-0.5-1.1-1.1-1.1h-9.1c-0.6,0-1.1,0.5-1.1,1.1c0,0.6,0.5,1.1,1.1,1.1
		H21.2z"/>
	<path class="st1" d="M47.2,28.9c-4-3.9-10.1-4.5-14.6-1.6C32,25,30,23.4,27.5,23.4H5.7c-2.9,0-5.3,2.4-5.3,5.3v23.5
		c0,0.6,0.5,1.1,1.1,1.1s1.1-0.5,1.1-1.1V28.7c0-1.8,1.4-3.2,3.2-3.2h21.8c1.8,0,3.2,1.4,3.2,3.2v0.1c0,0,0,0-0.1,0.1
		c-1.8,1.8-3,4.1-3.3,6.7c-0.3,2.3,0.1,4.7,1.1,6.8l-1.9,6c-0.1,0.4,0,0.8,0.3,1.1c0.2,0.2,0.5,0.3,0.8,0.3c0.1,0,0.2,0,0.3-0.1
		l2.9-0.9v22.5H2.6v-9.3c0-0.6-0.5-1.1-1.1-1.1s-1.1,0.5-1.1,1.1v11.3c0,2.9,2.4,5.3,5.3,5.3h21.8c2.9,0,5.3-2.4,5.3-5.3V48l1-0.3
		c2.1,1,4.5,1.4,6.8,1.1c2.5-0.4,4.8-1.5,6.7-3.3c2.2-2.2,3.4-5.2,3.4-8.3C50.7,34,49.5,31.1,47.2,28.9z M27.5,76.3H5.7
		c-1.7,0-3.1-1.3-3.2-3h28.1C30.6,75,29.2,76.3,27.5,76.3L27.5,76.3z M45.7,43.9c-3,3-7.6,3.6-11.3,1.7c-0.3-0.1-0.6-0.2-0.8-0.1
		L29.1,47l1.4-4.5c0.1-0.3,0.1-0.6-0.1-0.8c-2-3.7-1.3-8.3,1.7-11.3c1.9-1.9,4.3-2.8,6.8-2.8c2.5,0,4.9,0.9,6.8,2.8
		c1.8,1.8,2.8,4.2,2.8,6.8C48.5,39.7,47.5,42.1,45.7,43.9L45.7,43.9z"/>
	<path class="st1" d="M44.5,33c-1.4-1.5-3.9-1.5-5.5-0.1c-1.7-1.4-4.1-1.4-5.5,0.1c-1.7,1.8-1.7,4.7,0,6.4c0,0,0,0,0,0l4.8,4.6
		c0.2,0.2,0.5,0.3,0.7,0.3c0.3,0,0.5-0.1,0.7-0.3l4.8-4.6c0,0,0,0,0,0C46.2,37.7,46.2,34.8,44.5,33L44.5,33z M42.9,37.9l-4,3.9
		l-4-3.9C34,37,34,35.5,35,34.5c0.8-0.8,2-0.5,2.7,0.1l0,0c0.3,0.3,0.7,0.6,1.2,0.6c0.5,0,0.9-0.3,1.2-0.6l0,0
		c0.7-0.7,2-0.9,2.7-0.1C43.8,35.5,43.8,37,42.9,37.9L42.9,37.9z"/>
	<path class="st1" d="M1.5,58.1c0.6,0,1.1-0.5,1.1-1.1v0c0-0.6-0.5-1.1-1.1-1.1S0.4,56.4,0.4,57S0.9,58.1,1.5,58.1z"/>
</g>
</svg>
