<?xml version="1.0" encoding="utf-8"?>
<!-- Generator: Adobe Illustrator 24.2.0, SVG Export Plug-In . SVG Version: 6.00 Build 0)  -->
<svg version="1.1" id="Capa_1" xmlns:v="https://vecta.io/nano"
	 xmlns="http://www.w3.org/2000/svg" xmlns:xlink="http://www.w3.org/1999/xlink" x="0px" y="0px" width="101px" height="79px"
	 viewBox="0 0 101 79" style="enable-background:new 0 0 101 79;" xml:space="preserve">
<style type="text/css">
	.st0{opacity:0.1;fill-rule:evenodd;clip-rule:evenodd;fill:#766DF4;enable-background:new    ;}
	.st1{fill:#766DF4;}
</style>
<path class="st0" d="M37.3,74.9c17.9,8.7,53.2,3.1,61.9-14.8S82.1,22,64.2,13.3s-42-21.7-50.7-3.9S19.4,66.2,37.3,74.9L37.3,74.9z"
	/>
<path class="st1" d="M36.5,51.2c1.5,0,3-0.7,4-1.8c0.4-0.4,0.3-1.1-0.1-1.5c-0.4-0.4-1.1-0.3-1.5,0.1c-0.6,0.7-1.5,1.1-2.4,1.1
	c-0.9,0-1.8-0.4-2.4-1.1c-0.4-0.4-1-0.5-1.5-0.1c-0.4,0.4-0.5,1-0.1,1.5C33.5,50.5,35,51.2,36.5,51.2z M48.5,49.7c0.6,0,1-0.5,1-1
	v-2c0-0.6-0.5-1-1-1c-0.6,0-1,0.5-1,1v2C47.5,49.2,47.9,49.7,48.5,49.7z M24.5,49.7c0.6,0,1-0.5,1-1v-2c0-0.6-0.5-1-1-1
	c-0.6,0-1,0.5-1,1v2C23.4,49.2,23.9,49.7,24.5,49.7z M53.9,64.8c0.3,0.8,1.1,1.4,2,1.4h0c0.9,0,1.7-0.5,2-1.4l0.8-1.9l2.8,2.8
	c0.2,0.2,0.5,0.3,0.7,0.3c0.3,0,0.5-0.1,0.7-0.3c0.4-0.4,0.4-1.1,0-1.5l-2.8-2.8l1.9-0.8c0.8-0.3,1.4-1.1,1.4-2c0-0.9-0.5-1.7-1.4-2
	l-8.2-3.3c-1-0.4-2-0.2-2.7,0.6c-0.7,0.7-0.9,1.8-0.6,2.7L53.9,64.8z M52.6,55.4c0.1-0.1,0.2-0.1,0.3-0.1c0.1,0,0.1,0,0.2,0l8.2,3.3
	c0,0,0.1,0,0.1,0.1c0,0.1,0,0.1-0.1,0.1L58,60.1c-0.1,0-0.2,0.1-0.3,0.2c0,0,0,0-0.1,0c0,0,0,0,0,0c0,0,0,0,0,0c0,0,0,0,0,0
	c-0.1,0.1-0.1,0.2-0.2,0.3L56,64.1c0,0,0,0.1-0.1,0.1h0c-0.1,0-0.1,0-0.1-0.1l-3.3-8.2C52.5,55.6,52.6,55.4,52.6,55.4z M65,24.9
	h-1.7c-0.6,0-1,0.5-1,1c0,0.6,0.5,1,1,1H65c2.7,0,4.9,2.2,4.9,4.9v5.8H3.1v-5.8C3.1,29.2,5.3,27,8,27h50.5c0.6,0,1-0.5,1-1
	c0-0.6-0.5-1-1-1H8C4.1,24.9,1,28,1,31.8v37.8c0,0.6,0.5,1,1,1s1-0.5,1-1v-4.9c5.9-0.8,12.1-1,18.8-0.3c0.2,1.4,1.5,2.5,3,2.5h13
	c3.1,0.7,6.1,1.4,9,2.1c7.1,1.7,13.2,3.1,18,3.1c1.9,0,3.5-0.2,5-0.7v0c0,2.7-2.2,4.9-4.9,4.9H8c-1.7,0-3.3-0.9-4.2-2.4
	c-0.3-0.5-0.9-0.7-1.4-0.4c-0.5,0.3-0.7,0.9-0.4,1.4c1.2,2.1,3.5,3.4,6,3.4h57c3.8,0,6.9-3.1,6.9-6.9v-1.6c0,0,0,0,0,0v-38
	C71.9,28,68.8,24.9,65,24.9z M38,64.9C38,64.9,38,64.9,38,64.9H24.9c-0.5,0-0.9-0.4-0.9-0.9v-2.1c0-0.5,0.4-0.9,0.9-0.9h23.1
	c0.5,0,0.9,0.4,0.9,0.9v2.1c0,0.5-0.4,0.9-0.9,0.9H38z M69.9,69.2c-4.6,2-12.6,0.1-22.5-2.2c-0.1,0-0.1,0-0.2,0h0.9c1.7,0,3-1.3,3-3
	v-2.1c0-1.7-1.3-3-3-3H24.9c-1.7,0-3,1.3-3,3v0.4C15.2,61.7,9,61.8,3.1,62.6V39.7h66.8V69.2z M44.3,71.7c0.6,0,1-0.5,1-1
	c0-0.6-0.5-1-1-1H28.7c-0.6,0-1,0.5-1,1c0,0.6,0.5,1,1,1H44.3z M17,32.3c0,2.3,1.8,4.1,4.1,4.1c2.3,0,4.1-1.8,4.1-4.1
	c0-2.3-1.8-4.1-4.1-4.1C18.8,28.2,17,30,17,32.3z M23.1,32.3c0,1.1-0.9,2-2,2c-1.1,0-2-0.9-2-2c0-1.1,0.9-2,2-2
	C22.2,30.3,23.1,31.2,23.1,32.3z M14.4,29.2c-0.4-0.4-1.1-0.4-1.5,0l-1.6,1.6l-1.6-1.6c-0.4-0.4-1.1-0.4-1.5,0
	c-0.4,0.4-0.4,1.1,0,1.5l1.6,1.6l-1.6,1.6c-0.4,0.4-0.4,1.1,0,1.5c0.2,0.2,0.5,0.3,0.7,0.3c0.3,0,0.5-0.1,0.7-0.3l1.6-1.6l1.6,1.6
	c0.2,0.2,0.5,0.3,0.7,0.3c0.3,0,0.5-0.1,0.7-0.3c0.4-0.4,0.4-1.1,0-1.5l-1.6-1.6l1.6-1.6C14.8,30.2,14.8,29.6,14.4,29.2z M6.6,51.2
	h4.1c0.6,0,1-0.5,1-1c0-0.6-0.5-1-1-1H6.6c-0.6,0-1,0.5-1,1C5.6,50.7,6,51.2,6.6,51.2z M6.6,44.2h4.1c0.6,0,1-0.5,1-1
	c0-0.6-0.5-1-1-1H6.6c-0.6,0-1,0.5-1,1C5.6,43.7,6,44.2,6.6,44.2z M6.6,47.7h4.1c0.6,0,1-0.5,1-1c0-0.6-0.5-1-1-1H6.6
	c-0.6,0-1,0.5-1,1C5.6,47.2,6,47.7,6.6,47.7z"/>
</svg>
