<?xml version="1.0" encoding="utf-8"?>
<!-- Generator: Adobe Illustrator 24.2.0, SVG Export Plug-In . SVG Version: 6.00 Build 0)  -->
<svg version="1.1" id="Capa_1" xmlns:v="https://vecta.io/nano"
	 xmlns="http://www.w3.org/2000/svg" xmlns:xlink="http://www.w3.org/1999/xlink" x="0px" y="0px" width="102px" height="79px"
	 viewBox="0 0 102 79" style="enable-background:new 0 0 102 79;" xml:space="preserve">
<style type="text/css">
	.st0{fill-rule:evenodd;clip-rule:evenodd;fill:#F74F78;fill-opacity:0.1;}
	.st1{fill:#F74F78;}
</style>
<path class="st0" d="M37.9,74.8c17.9,8.7,53.2,3.1,61.9-14.8s-17.1-38-35-46.8s-42-21.7-50.7-3.9S20,66.1,37.9,74.8z"/>
<g>
	<path class="st1" d="M51.4,59.4h-1.7c0.2-0.5,0.2-1,0.2-1.6V24.1c0-3.1-2.5-5.5-5.5-5.5H6.5C3.5,18.5,1,21,1,24.1v10.5
		c0,0.5,0.4,0.9,0.9,0.9s0.9-0.4,0.9-0.9v-4h27.4c0.5,0,0.9-0.4,0.9-0.9s-0.4-0.9-0.9-0.9H2.8v-4.8c0-2.1,1.7-3.8,3.8-3.8h37.9
		c2.1,0,3.8,1.7,3.8,3.8v4.8h-6.8v-1.3c0-1-0.8-1.8-1.8-1.8h-1.7c-1,0-2,0.6-2.4,1.6c-1.2,3-4.1,4.9-7.4,4.9H13.9
		c-1.8,0-3.2,1.4-3.2,3.2V36H8.2C6.5,36,5,37.5,5,39.2c0,1.8,1.4,3.2,3.2,3.2h2.5V43c0,1.8,1.4,3.2,3.2,3.2H16l1.5,2.9
		c0.2,0.4,0.8,0.6,1.2,0.4c0.4-0.2,0.6-0.8,0.4-1.2L18,46.2h6.7l-0.3,3.2c-0.2,2.2,0.7,4.5,2.3,6l0.3,0.3c-0.6,0.7-1,1.7-1,2.7v0.2
		L25,59c-0.1,0.1-0.3,0-0.4-0.1l-3.7-7.1c-0.2-0.4-0.8-0.6-1.2-0.4c-0.4,0.2-0.6,0.8-0.4,1.2l3.7,7.1c0.4,0.7,1.1,1.1,1.8,1.1
		c0.6,0,1.1-0.3,1.1-0.3v1.1H6.5c-2.1,0-3.8-1.7-3.8-3.8V38.9c0-0.5-0.4-0.9-0.9-0.9S1,38.4,1,38.9v18.9c0,3.1,2.5,5.5,5.5,5.5H26
		v5.6c0,2.3,1.9,4.2,4.2,4.2h5.4v1c0,2.3,1.9,4.2,4.2,4.2h11.6c2.3,0,4.2-1.9,4.2-4.2V63.6C55.6,61.3,53.7,59.4,51.4,59.4L51.4,59.4
		z M53.9,63.6V65H46v-3.9h5.4C52.8,61.1,53.9,62.2,53.9,63.6z M27.8,58.4c0-1.3,1.1-2.4,2.4-2.4h11.6c1.3,0,2.4,1.1,2.4,2.4v1.4
		H27.8L27.8,58.4L27.8,58.4z M41.4,35.5c2,0.1,3.6,1.7,3.6,3.7s-1.6,3.7-3.6,3.7V35.5z M37.1,28c0.1-0.3,0.4-0.5,0.7-0.5h1.7
		c0,0,0.1,0,0.1,0.1v23.4c0,0,0,0.1-0.1,0.1h-1.7c-0.3,0-0.6-0.2-0.7-0.5c-1.5-3.6-5-6-9-6h-3.4V34h3.4C32,34,35.6,31.6,37.1,28z
		 M8.2,40.6c-0.8,0-1.4-0.6-1.4-1.4c0-0.8,0.6-1.4,1.4-1.4h2.5v2.9L8.2,40.6L8.2,40.6z M12.5,43v-7.6c0-0.8,0.7-1.5,1.5-1.5h5.3
		v10.5h-5.3C13.1,44.5,12.5,43.8,12.5,43z M21,44.5V34H23v10.5L21,44.5L21,44.5z M28.1,46.2c3.2,0,6.1,1.9,7.4,4.9
		c0.4,1,1.3,1.6,2.4,1.6h1.7c1,0,1.8-0.8,1.8-1.8v-6.2c3-0.1,5.3-2.5,5.3-5.5s-2.4-5.4-5.3-5.5v-3.1h6.8v27.2c0,0.6-0.1,1.1-0.4,1.6
		H46v-1c0-2.3-1.9-4.2-4.2-4.2H30.2c-0.7,0-1.3,0.2-1.8,0.4l-0.5-0.5c-0.2-0.2-0.4-0.4-0.6-0.6c1.2-0.5,2-1.6,2-3
		c0-1.7-1.3-3.1-3-3.2l0.1-1.2L28.1,46.2L28.1,46.2z M26.4,52c-0.3-0.8-0.4-1.6-0.3-2.4l0-0.4c0.8,0,1.4,0.6,1.4,1.4
		C27.6,51.3,27.1,51.9,26.4,52L26.4,52z M27.8,68.9v-7.3h16.5v7.3c0,1.3-1.1,2.4-2.4,2.4H30.2C28.8,71.3,27.8,70.2,27.8,68.9z
		 M51.4,76.5H39.8c-1.3,0-2.4-1.1-2.4-2.4v-1h2.3c0,0,0,0.1,0,0.1c0,0.5,0.4,0.9,0.9,0.9h10.4c0.5,0,0.9-0.4,0.9-0.9
		s-0.4-0.9-0.9-0.9h-6.7c0.7-0.5,1.2-1.1,1.5-1.8h5.2c0.5,0,0.9-0.4,0.9-0.9s-0.4-0.9-0.9-0.9H46v-2h7.9V74
		C53.9,75.4,52.8,76.5,51.4,76.5z"/>
	<path class="st1" d="M6,24.6c0,1.5,1.2,2.7,2.7,2.7s2.7-1.2,2.7-2.7c0-1.5-1.2-2.7-2.7-2.7S6,23.1,6,24.6z M9.8,24.6
		c0,0.5-0.4,1-1,1c-0.5,0-1-0.4-1-1c0-0.5,0.4-1,1-1C9.3,23.6,9.8,24.1,9.8,24.6z"/>
	<path class="st1" d="M15.2,23.9c-0.5,0-0.9,0.4-0.9,0.9c0,0.5,0.4,0.9,0.9,0.9h7c0.5,0,0.9-0.4,0.9-0.9c0-0.5-0.4-0.9-0.9-0.9H15.2
		z"/>
	<path class="st1" d="M26,23.9c-0.5,0-0.9,0.4-0.9,0.9c0,0.5,0.4,0.9,0.9,0.9h2.5c0.5,0,0.9-0.4,0.9-0.9c0-0.5-0.4-0.9-0.9-0.9H26z"
		/>
	<path class="st1" d="M56.1,39.1h-3.4c-0.5,0-0.9,0.4-0.9,0.9s0.4,0.9,0.9,0.9h3.4c0.5,0,0.9-0.4,0.9-0.9S56.6,39.1,56.1,39.1z"/>
	<path class="st1" d="M52.7,33.8c0.2,0,0.4-0.1,0.6-0.2l2.6-2.2c0.4-0.3,0.4-0.9,0.1-1.2c-0.3-0.4-0.9-0.4-1.2-0.1l-2.6,2.2
		c-0.4,0.3-0.4,0.9-0.1,1.2C52.2,33.7,52.5,33.8,52.7,33.8L52.7,33.8z"/>
	<path class="st1" d="M55.8,48.6l-2.6-2.2c-0.4-0.3-0.9-0.3-1.2,0.1c-0.3,0.4-0.3,0.9,0.1,1.2l2.6,2.2c0.2,0.1,0.4,0.2,0.6,0.2
		c0.2,0,0.5-0.1,0.7-0.3C56.3,49.5,56.2,49,55.8,48.6L55.8,48.6z"/>
	<path class="st1" d="M42.1,64.4c0-0.5-0.4-0.9-0.9-0.9H30.9c-0.5,0-0.9,0.4-0.9,0.9c0,0.5,0.4,0.9,0.9,0.9h10.4
		C41.7,65.3,42.1,64.9,42.1,64.4z"/>
	<path class="st1" d="M37.6,67.2h-6.7c-0.5,0-0.9,0.4-0.9,0.9c0,0.5,0.4,0.9,0.9,0.9h6.7c0.5,0,0.9-0.4,0.9-0.9S38.1,67.2,37.6,67.2
		z"/>
</g>
</svg>
