<?xml version="1.0" encoding="utf-8"?>
<!-- Generator: Adobe Illustrator 24.2.0, SVG Export Plug-In . SVG Version: 6.00 Build 0)  -->
<svg version="1.1" id="Capa_1" xmlns:v="https://vecta.io/nano"
	 xmlns="http://www.w3.org/2000/svg" xmlns:xlink="http://www.w3.org/1999/xlink" x="0px" y="0px" width="101px" height="79px"
	 viewBox="0 0 101 79" style="enable-background:new 0 0 101 79;" xml:space="preserve">
<style type="text/css">
	.st0{opacity:0.1;fill-rule:evenodd;clip-rule:evenodd;fill:#766DF4;enable-background:new    ;}
	.st1{fill:#766DF4;}
</style>
<path class="st0" d="M37.3,74.9c17.9,8.7,53.2,3.1,61.9-14.8S82.1,22,64.2,13.3s-42-21.7-50.7-3.9S19.4,66.2,37.3,74.9L37.3,74.9z"
	/>
<g>
	<path class="st1" d="M38.5,43.8c0-10.3-8.4-18.7-18.7-18.7S1.1,33.5,1.1,43.8c0,6.1,3,11.9,8,15.3v5.3c-1.4,0.5-2.1,2-1.6,3.4
		c0.1,0.3,0.3,0.6,0.5,0.9c-1,1.1-0.9,2.8,0.2,3.8c0.3,0.2,0.6,0.4,0.9,0.5v1c0,2.5,2,4.4,4.5,4.5H26c2.5,0,4.4-2,4.5-4.5v-1
		c1.4-0.5,2.1-2,1.6-3.4c-0.1-0.3-0.3-0.6-0.5-0.9c1-1.1,0.9-2.8-0.2-3.8c-0.3-0.2-0.6-0.4-0.9-0.5v-5.3
		C35.5,55.7,38.5,49.9,38.5,43.8z M2.8,43.8c0-9.3,7.6-16.9,16.9-16.9s16.9,7.6,16.9,16.9c0,5.7-2.9,11-7.6,14.1
		c-0.2,0.2-0.4,0.4-0.4,0.7v5.6h-1.8v-7.9c0-1.4-0.4-2.8-1.1-4l-5.3-9c-0.2-0.4-0.8-0.6-1.2-0.3c-0.1,0.1-0.2,0.2-0.3,0.3l-5.3,9
		c-0.7,1.2-1.1,2.6-1.1,4v7.9h-1.8v-5.6c0-0.3-0.2-0.6-0.4-0.7C5.7,54.8,2.8,49.5,2.8,43.8z M17.2,50h5.2l1.9,3.2
		c0.1,0.1,0.1,0.2,0.2,0.3h-9.3c0.1-0.1,0.1-0.2,0.2-0.3L17.2,50z M18.2,48.3l1.6-2.7l1.6,2.7H18.2z M14.5,55.4h1.7v8.9h-1.8v-7.9
		C14.4,56.1,14.4,55.7,14.5,55.4L14.5,55.4z M18,55.4h3.6v8.9H18V55.4z M23.3,55.4H25c0.1,0.3,0.1,0.7,0.1,1v7.9h-1.8V55.4z
		 M10,66.1h19.6c0.5,0,0.9,0.4,0.9,0.9c0,0.5-0.4,0.9-0.9,0.9H10c-0.5,0-0.9-0.4-0.9-0.9C9.1,66.5,9.5,66.1,10,66.1z M26,76.8H13.5
		c-1.5,0-2.7-1.2-2.7-2.7v-0.9h17.8v0.9C28.7,75.6,27.5,76.7,26,76.8z M29.6,71.4H10c-0.5,0-0.9-0.4-0.9-0.9s0.4-0.9,0.9-0.9h19.6
		c0.5,0,0.9,0.4,0.9,0.9S30,71.4,29.6,71.4z"/>
	<path class="st1" d="M12.6,49.2c0-0.5-0.4-0.9-0.9-0.9H8.2c-0.5,0-0.9,0.4-0.9,0.9c0,0.5,0.4,0.9,0.9,0.9h3.6
		C12.2,50,12.6,49.6,12.6,49.2z"/>
	<path class="st1" d="M26.9,49.2c0,0.5,0.4,0.9,0.9,0.9h3.6c0.5,0,0.9-0.4,0.9-0.9c0-0.5-0.4-0.9-0.9-0.9h-3.6
		C27.3,48.3,26.9,48.7,26.9,49.2z"/>
	<path class="st1" d="M19.8,41.1c0.5,0,0.9-0.4,0.9-0.9v-3.6c0-0.5-0.4-0.9-0.9-0.9s-0.9,0.4-0.9,0.9v3.6
		C18.9,40.7,19.3,41.1,19.8,41.1z"/>
	<path class="st1" d="M26,44.7c0.2,0,0.5-0.1,0.6-0.3l3.6-3.6c0.3-0.3,0.3-0.9,0-1.3c-0.3-0.3-0.9-0.3-1.3,0l-3.6,3.6
		c-0.3,0.3-0.3,0.9,0,1.3C25.5,44.6,25.8,44.7,26,44.7z"/>
	<path class="st1" d="M12.9,44.4c0.3,0.3,0.9,0.3,1.3,0c0.3-0.3,0.3-0.9,0-1.3l-3.6-3.6c-0.3-0.3-0.9-0.3-1.3,0
		C9,40,9,40.5,9.3,40.9L12.9,44.4z"/>
</g>
</svg>
