<?xml version="1.0" encoding="utf-8"?>
<!-- Generator: Adobe Illustrator 24.2.0, SVG Export Plug-In . SVG Version: 6.00 Build 0)  -->
<svg version="1.1" id="Capa_1" xmlns:v="https://vecta.io/nano"
	 xmlns="http://www.w3.org/2000/svg" xmlns:xlink="http://www.w3.org/1999/xlink" x="0px" y="0px" width="102px" height="79px"
	 viewBox="0 0 102 79" style="enable-background:new 0 0 102 79;" xml:space="preserve">
<style type="text/css">
	.st0{opacity:0.1;fill-rule:evenodd;clip-rule:evenodd;fill:#6A9BF4;enable-background:new    ;}
	.st1{fill:#6A9BF4;}
</style>
<g>
	<path class="st0" d="M37.9,74.8c17.9,8.7,53.2,3.1,61.9-14.8s-17.1-38-35-46.8s-42-21.7-50.7-3.9S20,66.1,37.9,74.8z"/>
</g>
<g>
	<g>
		<g>
			<path class="st1" d="M55.5,22.7h-5.7V21c0-2-1.6-3.6-3.6-3.6c-2,0-3.6,1.6-3.6,3.6v1.7H22.8V21c0-2-1.6-3.6-3.6-3.6
				S15.7,19,15.7,21v1.7c-0.1,0-0.2,0-0.3,0h-4.7c-3.3,0-5.9,2.7-5.9,5.9v20.2c0,0.7,0.5,1.2,1.2,1.2s1.2-0.5,1.2-1.2V34.9h42.8
				c0.7,0,1.2-0.5,1.2-1.2s-0.5-1.2-1.2-1.2H7.1v-3.9c0-2,1.6-3.6,3.6-3.6h4.7c0.1,0,0.2,0,0.3,0v1.5c0,2,1.6,3.6,3.6,3.6
				s3.6-1.6,3.6-3.6V25h19.9v1.5c0,2,1.6,3.6,3.6,3.6c2,0,3.6-1.6,3.6-3.6V25h5.7c2,0,3.6,1.6,3.6,3.6v45.1c0,1.2-1,2.1-2.1,2.1
				s-2.1-1-2.1-2.1v-3.1c0-0.7-0.5-1.2-1.2-1.2H39.8c-0.7,0-1.2,0.5-1.2,1.2s0.5,1.2,1.2,1.2h12.6v1.9c0,0.8,0.2,1.5,0.5,2.1H5.2
				c-1.2,0-2.1-1-2.1-2.1v-1.9h26.5c0.7,0,1.2-0.5,1.2-1.2s-0.5-1.2-1.2-1.2H17.8c2.1-1.8,3.4-4.4,3.4-7.4c0-5.4-4.4-9.7-9.7-9.7
				S1.7,56.7,1.7,62c0,2.9,1.3,5.6,3.4,7.4H1.9c-0.7,0-1.2,0.5-1.2,1.2v3.1c0,2.5,2,4.5,4.5,4.5h51.7c2.5,0,4.5-2,4.5-4.5V28.6
				C61.4,25.3,58.8,22.7,55.5,22.7z M20.4,26.5c0,0.7-0.5,1.2-1.2,1.2S18,27.2,18,26.5V21c0-0.7,0.5-1.2,1.2-1.2s1.2,0.5,1.2,1.2
				V26.5z M47.5,26.5c0,0.7-0.5,1.2-1.2,1.2s-1.2-0.5-1.2-1.2V21c0-0.7,0.5-1.2,1.2-1.2s1.2,0.5,1.2,1.2V26.5z M4.1,62
				c0-4.1,3.3-7.4,7.4-7.4s7.4,3.3,7.4,7.4s-3.3,7.4-7.4,7.4S4.1,66.1,4.1,62z"/>
		</g>
	</g>
	<g>
		<g>
			<path class="st1" d="M56.2,32.9c-0.2-0.2-0.5-0.3-0.8-0.3c-0.3,0-0.6,0.1-0.8,0.3s-0.3,0.5-0.3,0.8c0,0.3,0.1,0.6,0.3,0.8
				c0.2,0.2,0.5,0.3,0.8,0.3c0.3,0,0.6-0.1,0.8-0.3c0.2-0.2,0.3-0.5,0.3-0.8C56.6,33.4,56.4,33.1,56.2,32.9z"/>
		</g>
	</g>
	<g>
		<g>
			<path class="st1" d="M36.1,69.8c-0.2-0.2-0.5-0.3-0.8-0.3c-0.3,0-0.6,0.1-0.8,0.3c-0.2,0.2-0.3,0.5-0.3,0.8
				c0,0.3,0.1,0.6,0.3,0.8c0.2,0.2,0.5,0.3,0.8,0.3c0.3,0,0.6-0.1,0.8-0.3c0.2-0.2,0.3-0.5,0.3-0.8C36.5,70.3,36.3,70,36.1,69.8z"/>
		</g>
	</g>
	<g>
		<g>
			<path class="st1" d="M27.5,53.5c-2.5,0-4.5,2-4.5,4.5s2,4.5,4.5,4.5s4.5-2,4.5-4.5S30,53.5,27.5,53.5z M27.5,60.1
				c-1.2,0-2.1-1-2.1-2.1s1-2.1,2.1-2.1c1.2,0,2.1,1,2.1,2.1S28.7,60.1,27.5,60.1z"/>
		</g>
	</g>
	<g>
		<g>
			<path class="st1" d="M38.6,53.5c-2.5,0-4.5,2-4.5,4.5s2,4.5,4.5,4.5s4.5-2,4.5-4.5S41.1,53.5,38.6,53.5z M38.6,60.1
				c-1.2,0-2.1-1-2.1-2.1s1-2.1,2.1-2.1s2.1,1,2.1,2.1S39.8,60.1,38.6,60.1z"/>
		</g>
	</g>
	<g>
		<g>
			<path class="st1" d="M49.7,53.5c-2.5,0-4.5,2-4.5,4.5s2,4.5,4.5,4.5c2.5,0,4.5-2,4.5-4.5S52.1,53.5,49.7,53.5z M49.7,60.1
				c-1.2,0-2.1-1-2.1-2.1s1-2.1,2.1-2.1s2.1,1,2.1,2.1S50.8,60.1,49.7,60.1z"/>
		</g>
	</g>
	<g>
		<g>
			<path class="st1" d="M16.4,41.2c-2.5,0-4.5,2-4.5,4.5s2,4.5,4.5,4.5s4.5-2,4.5-4.5S18.9,41.2,16.4,41.2z M16.4,47.8
				c-1.2,0-2.1-1-2.1-2.1s1-2.1,2.1-2.1s2.1,1,2.1,2.1S17.6,47.8,16.4,47.8z"/>
		</g>
	</g>
	<g>
		<g>
			<path class="st1" d="M38.6,41.2c-2.5,0-4.5,2-4.5,4.5s2,4.5,4.5,4.5s4.5-2,4.5-4.5S41.1,41.2,38.6,41.2z M38.6,47.8
				c-1.2,0-2.1-1-2.1-2.1s1-2.1,2.1-2.1s2.1,1,2.1,2.1S39.8,47.8,38.6,47.8z"/>
		</g>
	</g>
	<g>
		<g>
			<path class="st1" d="M49.7,41.2c-2.5,0-4.5,2-4.5,4.5s2,4.5,4.5,4.5c2.5,0,4.5-2,4.5-4.5S52.1,41.2,49.7,41.2z M49.7,47.8
				c-1.2,0-2.1-1-2.1-2.1s1-2.1,2.1-2.1s2.1,1,2.1,2.1S50.8,47.8,49.7,47.8z"/>
		</g>
	</g>
	<g>
		<g>
			<path class="st1" d="M27.5,41.2c-2.5,0-4.5,2-4.5,4.5s2,4.5,4.5,4.5s4.5-2,4.5-4.5S30,41.2,27.5,41.2z M27.5,47.8
				c-1.2,0-2.1-1-2.1-2.1s1-2.1,2.1-2.1c1.2,0,2.1,1,2.1,2.1S28.7,47.8,27.5,47.8z"/>
		</g>
	</g>
	<g>
		<g>
			<path class="st1" d="M15.6,59.1c-0.5-0.5-1.2-0.5-1.7,0L10.1,63l-1.3-1.3c-0.5-0.5-1.2-0.5-1.7,0c-0.5,0.5-0.5,1.2,0,1.7l2.2,2.2
				c0.2,0.2,0.5,0.3,0.8,0.3c0.3,0,0.6-0.1,0.8-0.3l4.7-4.7C16.1,60.4,16.1,59.6,15.6,59.1z"/>
		</g>
	</g>
</g>
</svg>
