<?xml version="1.0" encoding="utf-8"?>
<!-- Generator: Adobe Illustrator 24.2.0, SVG Export Plug-In . SVG Version: 6.00 Build 0)  -->
<svg version="1.1" id="Capa_1" xmlns:v="https://vecta.io/nano"
	 xmlns="http://www.w3.org/2000/svg" xmlns:xlink="http://www.w3.org/1999/xlink" x="0px" y="0px" width="98px" height="79px"
	 viewBox="0 0 98 79" style="enable-background:new 0 0 98 79;" xml:space="preserve">
<style type="text/css">
	.st0{opacity:0.1;fill-rule:evenodd;clip-rule:evenodd;fill:#16C995;enable-background:new    ;}
	.st1{fill:#16C995;}
</style>
<path class="st0" d="M34.3,74.9c17.9,8.7,53.2,3.1,61.9-14.8S79.1,22,61.2,13.3s-42-21.7-50.7-3.9S16.4,66.2,34.3,74.9L34.3,74.9z"
	/>
<g>
	<g>
		<path class="st1" d="M30.2,60.7L30.2,60.7c-0.6,0-1,0.4-1,1c0,0.5,0.4,1,1,1c0.5,0,1-0.4,1-1C31.2,61.1,30.8,60.7,30.2,60.7z"/>
	</g>
</g>
<g>
	<g>
		<path class="st1" d="M35.9,79c-1.3,0-2.5-0.6-3.3-1.7c-0.2-0.3-0.5-0.4-0.8-0.4H29c-0.5,0-1-0.3-1.3-0.7c-0.3-0.5-0.3-1,0-1.5
			l1-1.7c0.6-1,0.9-2.2,0.9-3.3v-0.5l-2-0.4c-1.3-0.2-2.1-1.5-1.9-2.7c0.2-1.3,1.5-2.1,2.7-1.9l1.1,0.2v-1.2c0-3.5,2.8-6.3,6.3-6.3
			s6.3,2.8,6.3,6.3v1.2l1.1-0.2c1.3-0.2,2.5,0.6,2.7,1.9c0.1,0.6,0,1.2-0.4,1.8c-0.4,0.5-0.9,0.9-1.5,1l-2,0.4v0.5
			c0,1.2,0.3,2.3,0.9,3.3l1,1.7c0.3,0.5,0.3,1,0,1.5c-0.3,0.5-0.7,0.7-1.3,0.7H40c-0.3,0-0.6,0.1-0.8,0.4C38.4,78.4,37.2,79,35.9,79
			L35.9,79z M29.1,75.4h2.8c0.8,0,1.5,0.4,2,1c0.5,0.6,1.2,1,2,1s1.6-0.4,2-1c0.5-0.6,1.2-1,2-1h2.8l-1-1.7
			c-0.7-1.2-1.1-2.7-1.1-4.1v-1.2c0-0.4,0.3-0.7,0.6-0.8l2.6-0.5c0.4-0.1,0.7-0.5,0.7-1c-0.1-0.4-0.5-0.7-1-0.7l-2,0.4
			c-0.2,0-0.5,0-0.6-0.2c-0.2-0.1-0.3-0.4-0.3-0.6v-2.1c0-2.7-2.2-4.8-4.8-4.8c-2.7,0-4.8,2.2-4.8,4.8v2.1c0,0.2-0.1,0.4-0.3,0.6
			C30.7,66,30.5,66,30.2,66l-2-0.4c-0.4-0.1-0.9,0.2-1,0.7c-0.1,0.4,0.2,0.9,0.7,1l2.6,0.5c0.4,0.1,0.6,0.4,0.6,0.8v1.2
			c0,1.4-0.4,2.9-1.1,4.1L29.1,75.4z"/>
	</g>
	<g>
		<path class="st1" d="M15.8,50.5h-4.2c-0.6,0-1.1-0.5-1.1-1.1V46c0-0.4,0.3-0.8,0.8-0.8s0.8,0.3,0.8,0.8v3h3.3v-7.9
			c0-0.5,0.4-1,1-1H18v-3.3h-1.6c-0.5,0-1-0.4-1-1v-1.1c0-1.8,1.5-3.3,3.3-3.3h0.7v-3.3h-0.7c-3.7,0-6.6,3-6.6,6.6v1.1
			c0,0.5-0.4,1-1,1H9.5v3.3h1.6c0.5,0,1,0.4,1,1v1c0,0.4-0.3,0.8-0.8,0.8s-0.8-0.3-0.8-0.8v-0.4H9c-0.6,0-1.1-0.5-1.1-1.1v-4.2
			c0-0.6,0.5-1.1,1.1-1.1h1.5v-0.5c0-4.5,3.7-8.2,8.2-8.2h1.2c0.6,0,1.1,0.5,1.1,1.1V32c0,0.6-0.5,1.1-1.1,1.1h-1.2
			c-1,0-1.8,0.8-1.8,1.8v0.5h1.5c0.6,0,1.1,0.5,1.1,1.1v4.2c0,0.6-0.5,1.1-1.1,1.1h-1.5v7.8C16.9,50.1,16.4,50.5,15.8,50.5
			L15.8,50.5z"/>
	</g>
	<g>
		<path class="st1" d="M38.4,54.4H26.7c-2.4,0-4.3-1.9-4.3-4.3V38.4c0-2.4,1.9-4.3,4.3-4.3H28c0.4,0,0.8,0.3,0.8,0.8
			c0,0.4-0.3,0.8-0.8,0.8h-1.3c-1.5,0-2.8,1.2-2.8,2.8v11.7c0,1.5,1.2,2.8,2.8,2.8h11.7c1.5,0,2.8-1.2,2.8-2.8V38.4
			c0-1.5-1.2-2.8-2.8-2.8h-6.5c-0.4,0-0.8-0.3-0.8-0.8c0-0.4,0.3-0.8,0.8-0.8h6.5c2.4,0,4.3,1.9,4.3,4.3v11.7
			C42.7,52.5,40.7,54.4,38.4,54.4L38.4,54.4z"/>
	</g>
	<g>
		<path class="st1" d="M32.5,48.8c-2.5,0-4.5-2-4.5-4.5c0-2.5,2-4.5,4.5-4.5s4.5,2,4.5,4.5C37,46.8,35,48.8,32.5,48.8z M32.5,41.3
			c-1.6,0-3,1.3-3,3c0,1.6,1.3,3,3,3c1.6,0,3-1.3,3-3C35.5,42.7,34.2,41.3,32.5,41.3z"/>
	</g>
	<g>
		<circle class="st1" cx="37.8" cy="39" r="1.1"/>
	</g>
	<g>
		<path class="st1" d="M9.4,71.7c-3.7,0-7.1-2-8.8-5.3c-0.2-0.4-0.2-0.9,0.1-1.2c0.3-0.3,0.7-0.5,1.2-0.3c0.8,0.3,1.5,0.4,2.3,0.4
			c-0.7-1-1.3-2-1.6-3.2c-0.1-0.4,0.1-0.8,0.5-0.9c0.4-0.1,0.8,0.1,0.9,0.5c0.4,1.3,1.1,2.5,2.1,3.5c0,0,0,0,0,0
			c0.2,0.3,0.3,0.6,0.2,0.9c-0.1,0.3-0.4,0.6-0.8,0.6c-1,0.1-2.1,0.1-3.1-0.1c1.6,2.2,4.1,3.6,6.9,3.6c3.8,0,7.1-2.6,8.1-6.2
			c0.1-0.3,0.3-0.6,0.6-0.7c1.1-0.5,2-1.5,2.3-2.8c0.1-0.4,0.5-0.7,0.9-0.7h0c0.3,0,0.5,0,0.7-0.1c-0.3-0.1-0.5-0.4-0.5-0.7
			c0-0.3,0.1-0.6,0.4-0.8C22,58.1,22,58,22.1,58h-1.3c-0.4,0-0.7-0.2-0.9-0.5c-0.7-1.4-2.2-2.3-3.8-2.3c-2.3,0-4.1,1.8-4.2,4
			c0,0.2-0.1,0.5-0.3,0.6C11.5,60,11.3,60,11,60c-2.2-0.3-4.3-1.3-5.9-2.9c-0.3-0.3-0.5-0.6-0.8-0.9c-0.2,0.6-0.4,1.2-0.5,1.9
			c-0.1,0.4-0.5,0.7-0.9,0.6c-0.4-0.1-0.7-0.5-0.6-0.9c0.2-1.1,0.5-2.1,1-3c0.2-0.3,0.5-0.6,0.9-0.6c0.4,0,0.7,0.2,1,0.5
			c0.3,0.5,0.7,0.9,1.1,1.3c1.2,1.2,2.7,2,4.3,2.4c0.5-2.7,2.9-4.7,5.7-4.7c2,0,3.9,1.1,4.9,2.8h2.1c0.3,0,0.6,0.2,0.8,0.5
			c0.2,0.3,0.2,0.6,0,0.9c-0.1,0.2-0.3,0.5-0.5,0.8l0.1,0.1c0.3,0.1,0.5,0.4,0.6,0.8c0,0.3-0.1,0.7-0.4,0.9
			c-0.4,0.3-1.1,0.8-2.2,0.9c-0.5,1.4-1.5,2.6-2.8,3.3C17.7,68.7,13.8,71.7,9.4,71.7L9.4,71.7z"/>
	</g>
</g>
</svg>
