<?xml version="1.0" encoding="utf-8"?>
<!-- Generator: Adobe Illustrator 24.2.0, SVG Export Plug-In . SVG Version: 6.00 Build 0)  -->
<svg version="1.1" id="Capa_1" xmlns:v="https://vecta.io/nano"
	 xmlns="http://www.w3.org/2000/svg" xmlns:xlink="http://www.w3.org/1999/xlink" x="0px" y="0px" width="102px" height="79px"
	 viewBox="0 0 102 79" style="enable-background:new 0 0 102 79;" xml:space="preserve">
<style type="text/css">
	.st0{opacity:0.1;fill-rule:evenodd;clip-rule:evenodd;fill:#6A9BF4;enable-background:new    ;}
	.st1{fill:#6A9BF4;}
</style>
<g>
	<path class="st0" d="M37.9,74.8c17.9,8.7,53.2,3.1,61.9-14.8s-17.1-38-35-46.8s-42-21.7-50.7-3.9S20,66.1,37.9,74.8z"/>
</g>
<g>
	<g>
		<g>
			<path class="st1" d="M57.3,72.8h-2.9V54.5c0-0.5-0.4-1-1-1c-0.3,0-0.6,0.2-0.8,0.4L39.1,73.2c-0.3,0.4-0.2,1,0.2,1.3
				c0.2,0.1,0.4,0.2,0.6,0.2h12.5v2.9c0,0.5,0.4,1,1,1c0.5,0,1-0.4,1-1v-2.9h2.9c0.5,0,1-0.4,1-1S57.8,72.8,57.3,72.8z M52.5,72.8
				H41.8l10.7-15.3V72.8z"/>
			<path class="st1" d="M39.9,76.7H28.5l10.6-12.5c0,0,0-0.1,0.1-0.1c2-3,1.3-7-1.5-9.1c-3.5-2.5-8.3-1.7-10.8,1.8
				c-0.9,1.3-1.5,2.9-1.5,4.5c0,0.5,0.4,1,1,1c0.5,0,1-0.4,1-1c0-3.2,2.6-5.8,5.8-5.8c1.2,0,2.4,0.4,3.4,1.1c2,1.5,2.5,4.3,1.1,6.4
				L25.7,77c-0.3,0.4-0.3,1,0.1,1.4c0.2,0.1,0.4,0.2,0.6,0.2h13.5c0.5,0,1-0.4,1-1S40.5,76.7,39.9,76.7z"/>
			<path class="st1" d="M26.4,71.9c0-0.5-0.4-1-0.9-1c0,0,0,0,0,0C12.9,70.4,2.8,60.3,2.3,47.7h3.8c0.5,0,1-0.4,1-1s-0.4-1-1-1H2.3
				c0.5-12.6,10.6-22.6,23.1-23.1v2.9c0,0.5,0.4,1,1,1c0.5,0,1-0.4,1-1v-2.9C39.8,23.2,49.8,33,50.5,45.4l-3.8-3.8
				c-0.4-0.4-1-0.4-1.4,0c-0.4,0.4-0.4,1,0,1.3l5.4,5.4c0.1,0.1,0.2,0.2,0.4,0.3c0,0,0.1,0,0.1,0c0.1,0,0.1,0,0.2,0c0,0,0,0,0,0
				s0,0,0,0c0.1,0,0.1,0,0.2,0c0,0,0.1,0,0.1,0c0.1,0,0.2-0.1,0.3-0.2l5.5-5.5c0.4-0.4,0.4-1,0-1.4c-0.4-0.4-1-0.4-1.3,0l-3.9,3.9
				c-0.7-13.8-12.1-24.7-25.9-24.7c0,0,0,0-0.1,0s0,0-0.1,0c-14.3,0-26,11.6-26,26c0,0,0,0,0,0.1s0,0,0,0.1c0,14,11.1,25.5,25.1,26
				h0C26,72.8,26.4,72.4,26.4,71.9z"/>
			<path class="st1" d="M39.4,33.8c-0.4-0.4-1-0.4-1.4,0L27.6,44.2c-0.8-0.3-1.7-0.3-2.5,0l-4.9-4.9c-0.4-0.4-1-0.4-1.4,0
				c-0.4,0.4-0.4,1,0,1.3l4.9,4.9c-0.7,1.4-0.1,3.2,1.4,3.9c1.1,0.5,2.4,0.3,3.3-0.6c0.9-0.9,1.1-2.2,0.6-3.3l10.4-10.4
				C39.8,34.8,39.8,34.2,39.4,33.8z M27.1,47.5C27.1,47.5,27.1,47.5,27.1,47.5c-0.4,0.4-1,0.4-1.4,0c-0.4-0.4-0.4-1,0-1.4
				c0.4-0.4,1-0.4,1.4,0C27.5,46.5,27.5,47.1,27.1,47.5z"/>
		</g>
	</g>
</g>
</svg>
