<?xml version="1.0" encoding="utf-8"?>
<!-- Generator: Adobe Illustrator 24.2.0, SVG Export Plug-In . SVG Version: 6.00 Build 0)  -->
<svg version="1.1" id="Capa_1" xmlns="http://www.w3.org/2000/svg" xmlns:xlink="http://www.w3.org/1999/xlink" x="0px" y="0px"
	 width="682px" height="682px" viewBox="0 0 682 682" style="enable-background:new 0 0 682 682;" xml:space="preserve">
<style type="text/css">
	.st0{fill:#FFFFFF;}
	.st1{fill-rule:evenodd;clip-rule:evenodd;fill:#FFFFFF;}
</style>
<g>
	<path class="st0" d="M341,9.6C157.2,9.6,8.5,158.3,8.5,342.1c0,54.2,13.3,107.7,38.4,155.3l-12.8,123
		c-1.7,16.4,12.1,30.2,28.5,28.5l123-12.8c47.6,25.2,101.1,38.4,155.3,38.4c183.8,0,332.5-148.7,332.5-332.5
		C673.5,158.3,524.8,9.6,341,9.6z M341,622.6c-48.1,0-95.5-12.4-137.2-35.8c-4.6-2.6-10-3.7-15.4-3.2l-99.2,10.3l10.3-99.2
		c0.6-5.3-0.6-10.7-3.2-15.4c-23.4-41.7-35.8-89.1-35.8-137.2C60.5,187.1,186,61.6,341,61.6s280.5,125.5,280.5,280.5
		S496.1,622.6,341,622.6z"/>
	<path class="st1" d="M502.4,407c-8.4-4.2-49.9-24.6-57.6-27.4s-13.4-4.2-19,4.2c-5.6,8.4-21.8,27.4-26.7,33.1
		c-4.9,5.6-9.8,6.3-18.3,2.1c-8.4-4.2-35.6-13.1-67.8-41.9c-25.1-22.4-42-50-46.9-58.4s0-12.6,3.7-17.2
		c9.1-11.3,18.3-23.2,21.1-28.8c2.8-5.6,1.4-10.6-0.7-14.8c-2.1-4.2-19-45.7-26-62.6c-6.9-16.4-13.8-14.2-19-14.5
		c-4.9-0.2-10.5-0.3-16.2-0.3c-5.6,0-14.8,2.1-22.5,10.6c-7.7,8.4-29.5,28.8-29.5,70.3s30.2,81.6,34.4,87.2
		c4.2,5.6,59.5,90.8,144.1,127.3c20.1,8.7,35.8,13.9,48.1,17.8c20.2,6.4,38.6,5.5,53.1,3.3c16.2-2.4,49.9-20.4,56.9-40.1
		s7-36.6,4.9-40.1C516.4,413.3,510.8,411.2,502.4,407z"/>
</g>
</svg>
