<?xml version="1.0" encoding="UTF-8"?>
<svg id="BACKGROUND" xmlns="http://www.w3.org/2000/svg" xmlns:xlink="http://www.w3.org/1999/xlink" viewBox="0 0 1626.57 954.76">
  <defs>
    <style>
      .cls-1 {
        fill: none;
      }

      .cls-2 {
        fill: url(#linear-gradient);
      }

      .cls-3 {
        clip-path: url(#clippath);
      }

      .cls-4 {
        fill: #fff;
      }

      .cls-5, .cls-6 {
        fill: #fde985;
      }

      .cls-7 {
        fill: #adadad;
      }

      .cls-8 {
        clip-path: url(#clippath-1);
      }

      .cls-6 {
        opacity: .22;
      }

      .cls-9 {
        fill: url(#linear-gradient-8);
      }

      .cls-10 {
        fill: url(#linear-gradient-3);
      }

      .cls-11 {
        fill: url(#linear-gradient-4);
      }

      .cls-12 {
        fill: url(#linear-gradient-2);
      }

      .cls-13 {
        fill: url(#linear-gradient-6);
      }

      .cls-14 {
        fill: url(#linear-gradient-7);
      }

      .cls-15 {
        fill: url(#linear-gradient-5);
      }
    </style>
    <clipPath id="clippath">
      <rect class="cls-1" x="876.57" y="454.76" width="750" height="500"/>
    </clipPath>
    <clipPath id="clippath-1">
      <path class="cls-1" d="M1626.57,454.76h-91.88c-88.77,11.2-130.89,59.4-191.54,120.04-62.33,62.33-122.38,41.32-144.2,30.21-2.7-1.98-5.59-3.66-8.64-5.02h0c-10.1-4.5-21.83-5.44-33.19-1.78-5.48,1.77-10.4,4.46-14.66,7.83-11.51-7.98-26.46-10.7-40.82-6.08-.25,.08-.5,.18-.75,.26-.26-1.86-.67-3.72-1.27-5.57-5.58-17.3-24.12-26.81-41.42-21.23-1.44,.46-2.82,1.03-4.15,1.66-2.83-8.36-11.85-12.92-20.28-10.21-8.51,2.74-13.18,11.86-10.44,20.36,1.96,6.1,7.21,10.23,13.15,11.06-1.57,5.9-1.53,12.3,.48,18.54,4.66,14.46,18.39,23.47,32.87,22.78-.99,6.81-.48,13.93,1.77,20.92,3.19,9.9,9.39,17.99,17.25,23.6-3.11,9.15-3.42,19.33-.23,29.23,1.5,4.66,3.68,8.92,6.37,12.71h0s.01,.01,.03,.03c.71,.99,1.46,1.95,2.24,2.88,5.03,7.25,14.73,26.84-10.77,44.69-20.66,14.37-35.45,19.72-47.48,61.8-26.77,93.59-162.47,121.25-162.47,121.25l756.39,13V455.7s-4.24-.72-6.39-.94Z"/>
    </clipPath>
    <linearGradient id="linear-gradient" x1="1133.63" y1="432.19" x2="1338.86" y2="962.39" gradientUnits="userSpaceOnUse">
      <stop offset="0" stop-color="#6a9bf4"/>
      <stop offset="1" stop-color="#0f356d"/>
    </linearGradient>
    <linearGradient id="linear-gradient-2" x1="1119.76" y1="482.18" x2="1135.53" y2="482.18" gradientTransform="translate(-105.98 1031.85) rotate(-45)" gradientUnits="userSpaceOnUse">
      <stop offset="0" stop-color="#ffcb44"/>
      <stop offset="1" stop-color="#e31d72"/>
    </linearGradient>
    <linearGradient id="linear-gradient-3" x1="1103.85" y1="428.84" x2="1103.85" y2="454.06" gradientTransform="translate(-105.98 1031.85) rotate(-45)" gradientUnits="userSpaceOnUse">
      <stop offset="0" stop-color="#6a9bf4"/>
      <stop offset="1" stop-color="#6a9bf4"/>
    </linearGradient>
    <linearGradient id="linear-gradient-4" x1="1151.44" y1="422.33" x2="1151.44" y2="455.6" xlink:href="#linear-gradient-3"/>
    <linearGradient id="linear-gradient-5" x1="1116.5" y1="458.3" x2="1138.79" y2="458.3" gradientTransform="translate(-112.19 100.25)" xlink:href="#linear-gradient-3"/>
    <linearGradient id="linear-gradient-6" x1="1128.45" y1="419.24" x2="1173.77" y2="419.24" gradientTransform="translate(1505.88 -580.01) rotate(135) scale(1 -1)" gradientUnits="userSpaceOnUse">
      <stop offset="0" stop-color="#f2f2f2"/>
      <stop offset="1" stop-color="#b3b3b3"/>
    </linearGradient>
    <linearGradient id="linear-gradient-7" x1="1119.35" y1="404.15" x2="1135.37" y2="404.15" gradientTransform="translate(-105.98 1031.85) rotate(-45)" gradientUnits="userSpaceOnUse">
      <stop offset="0" stop-color="#b3b3b3"/>
      <stop offset="1" stop-color="#f2f2f2"/>
    </linearGradient>
    <linearGradient id="linear-gradient-8" x1="1121.78" y1="404.15" x2="1133.11" y2="404.15" xlink:href="#linear-gradient-3"/>
  </defs>
  <g class="cls-3">
    <g class="cls-8">
      <g>
        <rect class="cls-2" x="844.84" y="450.06" width="790.13" height="513.4"/>
        <circle class="cls-6" cx="1188.83" cy="618.87" r="57.89"/>
        <circle class="cls-6" cx="1188.83" cy="618.87" r="40.93"/>
        <circle class="cls-5" cx="1188.83" cy="618.87" r="23.82"/>
      </g>
      <g>
        <path class="cls-4" d="M1436.57,650.93c-4.41,.23-4.6,.42-4.83,4.83-.23-4.41-.42-4.6-4.83-4.83,4.41-.23,4.6-.42,4.83-4.83,.23,4.41,.42,4.6,4.83,4.83Z"/>
        <path class="cls-4" d="M1490.57,478.76c-4.41,.23-4.6,.42-4.83,4.83-.23-4.41-.42-4.6-4.83-4.83,4.41-.23,4.6-.42,4.83-4.83,.23,4.41,.42,4.6,4.83,4.83Z"/>
        <path class="cls-4" d="M1570.88,708.69c-6,.32-6.26,.57-6.57,6.57-.32-6-.57-6.26-6.57-6.57,6-.32,6.26-.57,6.57-6.57,.32,6,.57,6.26,6.57,6.57Z"/>
        <path class="cls-4" d="M1460.29,711.33c-2.79,.15-2.91,.27-3.05,3.05-.15-2.79-.27-2.91-3.05-3.05,2.79-.15,2.91-.27,3.05-3.05,.15,2.79,.27,2.91,3.05,3.05Z"/>
        <path class="cls-4" d="M1559.48,583.76c-4.41,.23-4.6,.42-4.83,4.83-.23-4.41-.42-4.6-4.83-4.83,4.41-.23,4.6-.42,4.83-4.83,.23,4.41,.42,4.6,4.83,4.83Z"/>
        <path class="cls-4" d="M1180.66,716.22c-6.88,.36-7.17,.66-7.54,7.54-.36-6.88-.66-7.17-7.54-7.54,6.88-.36,7.17-.66,7.54-7.54,.36,6.88,.66,7.17,7.54,7.54Z"/>
        <path class="cls-4" d="M1062.32,624.52c-3.99,.21-4.16,.38-4.37,4.37-.21-3.99-.38-4.16-4.37-4.37,3.99-.21,4.16-.38,4.37-4.37,.21,3.99,.38,4.16,4.37,4.37Z"/>
        <path class="cls-4" d="M1399.85,568.72c-4.41,.23-4.6,.42-4.83,4.83-.23-4.41-.42-4.6-4.83-4.83,4.41-.23,4.6-.42,4.83-4.83,.23,4.41,.42,4.6,4.83,4.83Z"/>
        <path class="cls-4" d="M1310.49,691.76c-4.41,.23-4.6,.42-4.83,4.83-.23-4.41-.42-4.6-4.83-4.83,4.41-.23,4.6-.42,4.83-4.83,.23,4.41,.42,4.6,4.83,4.83Z"/>
        <circle class="cls-4" cx="1570.19" cy="666.64" r="1.63"/>
        <circle class="cls-4" cx="1475.9" cy="609.93" r="1.63"/>
        <circle class="cls-4" cx="1376.45" cy="638.43" r="1.89"/>
        <circle class="cls-4" cx="1111.9" cy="767.87" r="1.89"/>
        <circle class="cls-4" cx="1494.23" cy="522.76" r="1.83"/>
        <circle class="cls-4" cx="1537.9" cy="496.43" r="2"/>
        <circle class="cls-4" cx="1278.9" cy="638.76" r="1"/>
        <circle class="cls-4" cx="1202.9" cy="755.09" r="1"/>
        <circle class="cls-4" cx="1102.57" cy="636.54" r="1"/>
      </g>
      <g>
        <path class="cls-4" d="M1194.1,934.89c-4.41,.23-4.6,.42-4.83,4.83-.23-4.41-.42-4.6-4.83-4.83,4.41-.23,4.6-.42,4.83-4.83,.23,4.41,.42,4.6,4.83,4.83Z"/>
        <path class="cls-4" d="M1248.1,762.72c-4.41,.23-4.6,.42-4.83,4.83-.23-4.41-.42-4.6-4.83-4.83,4.41-.23,4.6-.42,4.83-4.83,.23,4.41,.42,4.6,4.83,4.83Z"/>
        <path class="cls-4" d="M1317.01,867.72c-4.41,.23-4.6,.42-4.83,4.83-.23-4.41-.42-4.6-4.83-4.83,4.41-.23,4.6-.42,4.83-4.83,.23,4.41,.42,4.6,4.83,4.83Z"/>
        <path class="cls-4" d="M819.85,908.48c-3.99,.21-4.16,.38-4.37,4.37-.21-3.99-.38-4.16-4.37-4.37,3.99-.21,4.16-.38,4.37-4.37,.21,3.99,.38,4.16,4.37,4.37Z"/>
        <path class="cls-4" d="M1157.39,852.68c-4.41,.23-4.6,.42-4.83,4.83-.23-4.41-.42-4.6-4.83-4.83,4.41-.23,4.6-.42,4.83-4.83,.23,4.41,.42,4.6,4.83,4.83Z"/>
        <circle class="cls-4" cx="1327.73" cy="950.6" r="1.63"/>
        <circle class="cls-4" cx="1233.44" cy="893.89" r="1.63"/>
        <circle class="cls-4" cx="1133.99" cy="922.39" r="1.89"/>
        <circle class="cls-4" cx="1251.77" cy="806.72" r="1.83"/>
        <circle class="cls-4" cx="1295.44" cy="780.39" r="2"/>
        <circle class="cls-4" cx="1036.44" cy="922.72" r="1"/>
        <circle class="cls-4" cx="860.1" cy="920.5" r="1"/>
      </g>
      <g>
        <path class="cls-4" d="M1531,894.02c-6.88,.36-7.17,.66-7.54,7.54-.36-6.88-.66-7.17-7.54-7.54,6.88-.36,7.17-.66,7.54-7.54,.36,6.88,.66,7.17,7.54,7.54Z"/>
        <path class="cls-4" d="M1412.66,802.31c-3.99,.21-4.16,.38-4.37,4.37-.21-3.99-.38-4.16-4.37-4.37,3.99-.21,4.16-.38,4.37-4.37,.21,3.99,.38,4.16,4.37,4.37Z"/>
        <circle class="cls-4" cx="1462.24" cy="945.67" r="1.89"/>
        <circle class="cls-4" cx="1553.24" cy="932.89" r="1"/>
        <circle class="cls-4" cx="1452.91" cy="814.34" r="1"/>
      </g>
    </g>
    <g>
      <path class="cls-12" d="M1050.41,593.51c-15.38-29.25-30.7-41.58-30.7-41.58l-5.44,5.44h0s-5.44,5.44-5.44,5.44c0,0,12.34,15.32,41.58,30.7h0s0,0,0,0c0,0,0,0,0,0h0Z"/>
      <path class="cls-10" d="M976.07,549l7.37,26.32c.95,3.38,5.18,4.49,7.67,2.01l9.48-9.48c1.79-1.79,1.79-4.7,0-6.49l-16.85-16.85c-3.34-3.34-8.94-.07-7.67,4.48Z"/>
      <path class="cls-11" d="M1005.9,519.17l26.32,7.37c3.38,.95,4.49,5.18,2.01,7.67l-9.48,9.48c-1.79,1.79-4.7,1.79-6.49,0l-16.85-16.85c-3.34-3.34-.07-8.94,4.48-7.67Z"/>
      <rect class="cls-15" x="1004.3" y="552.94" width="22.3" height="11.23" rx="3.13" ry="3.13" transform="translate(-97.54 881.63) rotate(-45)"/>
      <path class="cls-13" d="M997.33,567c3.36,2.55,8.1,2.23,11.08-.76l14.73-14.73c2.99-2.99,3.31-7.72,.76-11.08-18.56-24.48-17.41-23.1-19.94-25.63-11.94-11.94-28.85-15.88-44.07-11.82-4.06,15.22-.13,32.13,11.82,44.07,2.49,2.49,1.27,1.48,25.63,19.94Z"/>
      <path class="cls-7" d="M997.33,567c3.36,2.55,8.1,2.23,11.08-.76l7.36-7.36s-12.06,.31-34.13-18.36-21.76-37.53-21.76-37.53c-4.06,15.22-.13,32.13,11.82,44.07,2.49,2.49,1.27,1.48,25.63,19.94Z"/>
      <circle class="cls-14" cx="977.16" cy="520.26" r="8.06"/>
      <circle class="cls-9" cx="977.16" cy="520.26" r="5.7"/>
    </g>
  </g>
</svg>