<?xml version="1.0" encoding="UTF-8"?>
<svg id="Capa_1" data-name="Capa 1" xmlns="http://www.w3.org/2000/svg" xmlns:xlink="http://www.w3.org/1999/xlink" viewBox="0 0 2664.18 1275.01">
  <defs>
    <style>
      .cls-1 {
        fill: #006ab3;
      }

      .cls-2 {
        fill: #e9f0ff;
      }

      .cls-3 {
        fill: #f5f8ff;
      }

      .cls-4 {
        fill: #e56a6a;
      }

      .cls-5 {
        fill: #e3d2ff;
      }

      .cls-6 {
        fill: #fff;
      }

      .cls-7 {
        fill: #7f2412;
      }

      .cls-8, .cls-9 {
        fill: #b7c5ff;
      }

      .cls-10 {
        fill: #c1581e;
      }

      .cls-11 {
        fill: #d14b7f;
      }

      .cls-12 {
        fill: #d7c2ff;
      }

      .cls-13 {
        fill: #d66627;
      }

      .cls-14 {
        fill: #d86060;
      }

      .cls-15 {
        fill: #89a1ef;
      }

      .cls-16 {
        fill: #5375e0;
      }

      .cls-17, .cls-18 {
        fill: #5574d8;
      }

      .cls-19 {
        fill: #4801e4;
      }

      .cls-20 {
        fill: #3b03d6;
      }

      .cls-21, .cls-22 {
        fill: #748ffe;
      }

      .cls-23 {
        fill: #7994d8;
      }

      .cls-24 {
        fill: #4c1a13;
      }

      .cls-25 {
        fill: #7c2312;
      }

      .cls-22, .cls-18, .cls-9 {
        opacity: .5;
      }

      .cls-22, .cls-18, .cls-9, .cls-26, .cls-27 {
        isolation: isolate;
      }

      .cls-26 {
        fill: url(#Degradado_sin_nombre_7);
      }

      .cls-26, .cls-27 {
        opacity: .6;
      }

      .cls-27 {
        fill: url(#Degradado_sin_nombre_8);
      }

      .cls-28 {
        fill: url(#Degradado_sin_nombre_30);
      }

      .cls-29 {
        fill: url(#Degradado_sin_nombre_32);
      }

      .cls-30 {
        fill: url(#Degradado_sin_nombre_31);
      }

      .cls-31 {
        fill: url(#Degradado_sin_nombre_36);
      }

      .cls-32 {
        fill: url(#Degradado_sin_nombre_35);
      }

      .cls-33 {
        fill: url(#Degradado_sin_nombre_34);
      }

      .cls-34 {
        fill: url(#Degradado_sin_nombre_33);
      }

      .cls-35 {
        fill: url(#Degradado_sin_nombre_10);
      }

      .cls-36 {
        fill: url(#Degradado_sin_nombre_19);
      }

      .cls-37 {
        fill: url(#Degradado_sin_nombre_20);
      }

      .cls-38 {
        fill: url(#Degradado_sin_nombre_21);
      }

      .cls-39 {
        fill: url(#Degradado_sin_nombre_22);
      }

      .cls-40 {
        fill: url(#Degradado_sin_nombre_23);
      }

      .cls-41 {
        fill: url(#Degradado_sin_nombre_24);
      }

      .cls-42 {
        fill: url(#Degradado_sin_nombre_25);
      }

      .cls-43 {
        fill: url(#Degradado_sin_nombre_26);
      }

      .cls-44 {
        fill: url(#Degradado_sin_nombre_27);
      }

      .cls-45 {
        fill: url(#Degradado_sin_nombre_28);
      }

      .cls-46 {
        fill: url(#Degradado_sin_nombre_11);
      }

      .cls-47 {
        fill: url(#Degradado_sin_nombre_13);
      }

      .cls-48 {
        fill: url(#Degradado_sin_nombre_12);
      }

      .cls-49 {
        fill: url(#Degradado_sin_nombre_18);
      }

      .cls-50 {
        fill: url(#Degradado_sin_nombre_15);
      }

      .cls-51 {
        fill: url(#Degradado_sin_nombre_14);
      }

      .cls-52 {
        fill: url(#Degradado_sin_nombre_17);
      }

      .cls-53 {
        fill: url(#Degradado_sin_nombre_16);
      }

      .cls-54 {
        fill: url(#Degradado_sin_nombre_29);
      }

      .cls-55 {
        fill: url(#Degradado_sin_nombre_6);
      }

      .cls-56 {
        fill: url(#Degradado_sin_nombre_2);
      }

      .cls-57 {
        fill: url(#Degradado_sin_nombre_3);
      }

      .cls-58 {
        fill: url(#Degradado_sin_nombre_9);
      }

      .cls-59 {
        fill: url(#Degradado_sin_nombre_4);
      }

      .cls-60 {
        fill: url(#Degradado_sin_nombre_5);
      }

      .cls-61 {
        fill: url(#Degradado_sin_nombre);
      }
    </style>
    <linearGradient id="Degradado_sin_nombre" data-name="Degradado sin nombre" x1="4047.31" y1="482.65" x2="4045.42" y2="325.56" gradientTransform="translate(-1882.24 -334.42) rotate(21.44) scale(1 -1)" gradientUnits="userSpaceOnUse">
      <stop offset="0" stop-color="#ffe6f0"/>
      <stop offset="1" stop-color="#f9b2df"/>
    </linearGradient>
    <linearGradient id="Degradado_sin_nombre_2" data-name="Degradado sin nombre 2" x1="3939.17" y1="330.51" x2="4080.22" y2="330.51" gradientTransform="translate(-1882.24 -334.42) rotate(21.44) scale(1 -1)" gradientUnits="userSpaceOnUse">
      <stop offset="0" stop-color="#ffe6f0"/>
      <stop offset="1" stop-color="#f9b2df"/>
    </linearGradient>
    <linearGradient id="Degradado_sin_nombre_3" data-name="Degradado sin nombre 3" x1="2455.84" y1="1247.74" x2="2453.96" y2="1090.65" gradientTransform="translate(-427.55 1987.13) rotate(-2.88) scale(1 -1)" gradientUnits="userSpaceOnUse">
      <stop offset="0" stop-color="#ffe6f0"/>
      <stop offset="1" stop-color="#f9b2df"/>
    </linearGradient>
    <linearGradient id="Degradado_sin_nombre_4" data-name="Degradado sin nombre 4" x1="6239.03" y1="1380.4" x2="6237.12" y2="1221.94" gradientTransform="translate(6908.86 -334.42) rotate(158.56)" gradientUnits="userSpaceOnUse">
      <stop offset="0" stop-color="#ffe6f0"/>
      <stop offset="1" stop-color="#f9b2df"/>
    </linearGradient>
    <linearGradient id="Degradado_sin_nombre_5" data-name="Degradado sin nombre 5" x1="6129.94" y1="1226.88" x2="6272.22" y2="1226.88" gradientTransform="translate(6908.86 -334.42) rotate(158.56)" gradientUnits="userSpaceOnUse">
      <stop offset="0" stop-color="#ffe6f0"/>
      <stop offset="1" stop-color="#f9b2df"/>
    </linearGradient>
    <linearGradient id="Degradado_sin_nombre_6" data-name="Degradado sin nombre 6" x1="4821.95" y1="1163.93" x2="4820.03" y2="1005.45" gradientTransform="translate(5454.17 1987.13) rotate(-177.12)" gradientUnits="userSpaceOnUse">
      <stop offset="0" stop-color="#ffe6f0"/>
      <stop offset="1" stop-color="#f9b2df"/>
    </linearGradient>
    <linearGradient id="Degradado_sin_nombre_7" data-name="Degradado sin nombre 7" x1="994.74" y1="37.43" x2="1095.97" y2="37.43" gradientTransform="translate(0 807.01) scale(1 -1)" gradientUnits="userSpaceOnUse">
      <stop offset="0" stop-color="#569ffc"/>
      <stop offset="1" stop-color="#4f8ffe"/>
    </linearGradient>
    <linearGradient id="Degradado_sin_nombre_8" data-name="Degradado sin nombre 8" x1="811.97" y1="-136.12" x2="843.59" y2="-8.18" gradientTransform="translate(0 807.01) scale(1 -1)" gradientUnits="userSpaceOnUse">
      <stop offset="0" stop-color="#569ffc"/>
      <stop offset="1" stop-color="#4f8ffe"/>
    </linearGradient>
    <linearGradient id="Degradado_sin_nombre_9" data-name="Degradado sin nombre 9" x1="784.92" y1="-337.25" x2="748.65" y2="-347.81" gradientTransform="translate(0 807.01) scale(1 -1)" gradientUnits="userSpaceOnUse">
      <stop offset="0" stop-color="#8a3d28"/>
      <stop offset="1" stop-color="#5b2015"/>
    </linearGradient>
    <linearGradient id="Degradado_sin_nombre_10" data-name="Degradado sin nombre 10" x1="679.16" y1="-328.88" x2="705.41" y2="-342.95" gradientTransform="translate(0 807.01) scale(1 -1)" gradientUnits="userSpaceOnUse">
      <stop offset="0" stop-color="#8a3d28"/>
      <stop offset="1" stop-color="#5b2015"/>
    </linearGradient>
    <linearGradient id="Degradado_sin_nombre_11" data-name="Degradado sin nombre 11" x1="629.9" y1="-172.71" x2="742.08" y2="-174.18" gradientTransform="translate(0 807.01) scale(1 -1)" gradientUnits="userSpaceOnUse">
      <stop offset="0" stop-color="#4b81ff"/>
      <stop offset="1" stop-color="#006ab3"/>
    </linearGradient>
    <linearGradient id="Degradado_sin_nombre_12" data-name="Degradado sin nombre 12" x1="925.38" y1="-210.94" x2="795.76" y2="-184.54" gradientTransform="translate(0 807.01) scale(1 -1)" gradientUnits="userSpaceOnUse">
      <stop offset="0" stop-color="#4b81ff"/>
      <stop offset="1" stop-color="#006ab3"/>
    </linearGradient>
    <linearGradient id="Degradado_sin_nombre_13" data-name="Degradado sin nombre 13" x1="721.67" y1="51.94" x2="796.9" y2="-2.18" gradientTransform="translate(0 807.01) scale(1 -1)" gradientUnits="userSpaceOnUse">
      <stop offset="0" stop-color="#9d58ff"/>
      <stop offset="1" stop-color="#4801e4"/>
    </linearGradient>
    <linearGradient id="Degradado_sin_nombre_14" data-name="Degradado sin nombre 14" x1="756.22" y1="65.65" x2="868.26" y2="28.3" gradientTransform="translate(0 807.01) scale(1 -1)" gradientUnits="userSpaceOnUse">
      <stop offset="0" stop-color="#9d58ff"/>
      <stop offset="1" stop-color="#4801e4"/>
    </linearGradient>
    <linearGradient id="Degradado_sin_nombre_15" data-name="Degradado sin nombre 15" x1="3811.47" y1="134.42" x2="3786.48" y2="134.52" gradientTransform="translate(4636.15 807.01) rotate(-180)" gradientUnits="userSpaceOnUse">
      <stop offset="0" stop-color="#ffac7d"/>
      <stop offset="1" stop-color="#ea7025"/>
    </linearGradient>
    <linearGradient id="Degradado_sin_nombre_16" data-name="Degradado sin nombre 16" x1="3798.01" y1="111.72" x2="3812.02" y2="107.89" gradientTransform="translate(4636.15 807.01) rotate(-180)" gradientUnits="userSpaceOnUse">
      <stop offset="0" stop-color="#ffac7d"/>
      <stop offset="1" stop-color="#ea7025"/>
    </linearGradient>
    <linearGradient id="Degradado_sin_nombre_17" data-name="Degradado sin nombre 17" x1="753.5" y1="-76.2" x2="797.88" y2="-81.98" gradientTransform="translate(0 807.01) scale(1 -1)" gradientUnits="userSpaceOnUse">
      <stop offset="0" stop-color="#ffac7d"/>
      <stop offset="1" stop-color="#ea7025"/>
    </linearGradient>
    <linearGradient id="Degradado_sin_nombre_18" data-name="Degradado sin nombre 18" x1="979.42" y1="-18.93" x2="851.68" y2="5.43" gradientTransform="translate(0 807.01) scale(1 -1)" gradientUnits="userSpaceOnUse">
      <stop offset="0" stop-color="#9d58ff"/>
      <stop offset="1" stop-color="#4801e4"/>
    </linearGradient>
    <linearGradient id="Degradado_sin_nombre_19" data-name="Degradado sin nombre 19" x1="807.4" y1="154.06" x2="847.27" y2="168.67" gradientTransform="translate(0 807.01) scale(1 -1)" gradientUnits="userSpaceOnUse">
      <stop offset="0" stop-color="#ffac7d"/>
      <stop offset="1" stop-color="#ea7025"/>
    </linearGradient>
    <linearGradient id="Degradado_sin_nombre_20" data-name="Degradado sin nombre 20" x1="927.05" y1="116.6" x2="921.64" y2="72.58" gradientTransform="translate(0 807.01) scale(1 -1)" gradientUnits="userSpaceOnUse">
      <stop offset="0" stop-color="#ffac7d"/>
      <stop offset="1" stop-color="#ea7025"/>
    </linearGradient>
    <linearGradient id="Degradado_sin_nombre_21" data-name="Degradado sin nombre 21" x1="766.94" y1="242.43" x2="822.11" y2="163.12" gradientTransform="translate(0 807.01) scale(1 -1)" gradientUnits="userSpaceOnUse">
      <stop offset="0" stop-color="#c65842"/>
      <stop offset="1" stop-color="#982e14"/>
    </linearGradient>
    <linearGradient id="Degradado_sin_nombre_22" data-name="Degradado sin nombre 22" x1="1987.24" y1="92.71" x2="2021.88" y2="79.17" gradientTransform="translate(0 807.01) scale(1 -1)" gradientUnits="userSpaceOnUse">
      <stop offset="0" stop-color="#ffaeae"/>
      <stop offset="1" stop-color="#f47272"/>
    </linearGradient>
    <linearGradient id="Degradado_sin_nombre_23" data-name="Degradado sin nombre 23" x1="1924.64" y1="145.36" x2="1892.17" y2="100.26" gradientTransform="translate(0 807.01) scale(1 -1)" gradientUnits="userSpaceOnUse">
      <stop offset="0" stop-color="#ff8d88"/>
      <stop offset="1" stop-color="#f3658e"/>
    </linearGradient>
    <linearGradient id="Degradado_sin_nombre_24" data-name="Degradado sin nombre 24" x1="1928.12" y1="170.05" x2="1930.56" y2="133.51" gradientTransform="translate(0 807.01) scale(1 -1)" gradientUnits="userSpaceOnUse">
      <stop offset="0" stop-color="#9d58ff"/>
      <stop offset="1" stop-color="#4801e4"/>
    </linearGradient>
    <linearGradient id="Degradado_sin_nombre_25" data-name="Degradado sin nombre 25" x1="1891.77" y1="133.08" x2="1932.64" y2="142.82" gradientTransform="translate(0 807.01) scale(1 -1)" gradientUnits="userSpaceOnUse">
      <stop offset="0" stop-color="#ffaeae"/>
      <stop offset="1" stop-color="#f47272"/>
    </linearGradient>
    <linearGradient id="Degradado_sin_nombre_26" data-name="Degradado sin nombre 26" x1="1939.91" y1="-250.48" x2="1929.35" y2="-276.19" gradientTransform="translate(0 807.01) scale(1 -1)" gradientUnits="userSpaceOnUse">
      <stop offset="0" stop-color="#8a3d28"/>
      <stop offset="1" stop-color="#5b2015"/>
    </linearGradient>
    <linearGradient id="Degradado_sin_nombre_27" data-name="Degradado sin nombre 27" x1="1779.98" y1="-266.44" x2="1751.03" y2="-282.67" gradientTransform="translate(0 807.01) scale(1 -1)" gradientUnits="userSpaceOnUse">
      <stop offset="0" stop-color="#8a3d28"/>
      <stop offset="1" stop-color="#5b2015"/>
    </linearGradient>
    <linearGradient id="Degradado_sin_nombre_28" data-name="Degradado sin nombre 28" x1="1980.29" y1="-73.07" x2="1852.02" y2="-75.51" gradientTransform="translate(0 807.01) scale(1 -1)" gradientUnits="userSpaceOnUse">
      <stop offset="0" stop-color="#9d58ff"/>
      <stop offset="1" stop-color="#4801e4"/>
    </linearGradient>
    <linearGradient id="Degradado_sin_nombre_29" data-name="Degradado sin nombre 29" x1="1910.88" y1="24.91" x2="1844.98" y2="23.66" gradientTransform="translate(0 807.01) scale(1 -1)" gradientUnits="userSpaceOnUse">
      <stop offset="0" stop-color="#9d58ff"/>
      <stop offset="1" stop-color="#4801e4"/>
    </linearGradient>
    <linearGradient id="Degradado_sin_nombre_30" data-name="Degradado sin nombre 30" x1="1903.09" y1="-109.5" x2="1764.26" y2="-73.77" gradientTransform="translate(0 807.01) scale(1 -1)" gradientUnits="userSpaceOnUse">
      <stop offset="0" stop-color="#9d58ff"/>
      <stop offset="1" stop-color="#4801e4"/>
    </linearGradient>
    <linearGradient id="Degradado_sin_nombre_31" data-name="Degradado sin nombre 31" x1="1873.12" y1="40.64" x2="1796.73" y2="60.3" gradientTransform="translate(0 807.01) scale(1 -1)" gradientUnits="userSpaceOnUse">
      <stop offset="0" stop-color="#9d58ff"/>
      <stop offset="1" stop-color="#4801e4"/>
    </linearGradient>
    <linearGradient id="Degradado_sin_nombre_32" data-name="Degradado sin nombre 32" x1="1904.43" y1="203.14" x2="1813.5" y2="106.53" gradientTransform="translate(0 807.01) scale(1 -1)" gradientUnits="userSpaceOnUse">
      <stop offset="0" stop-color="#ff8d88"/>
      <stop offset="1" stop-color="#f3658e"/>
    </linearGradient>
    <linearGradient id="Degradado_sin_nombre_33" data-name="Degradado sin nombre 33" x1="1863.67" y1="208.47" x2="1872.69" y2="238.06" gradientTransform="translate(0 807.01) scale(1 -1)" gradientUnits="userSpaceOnUse">
      <stop offset="0" stop-color="#ffaeae"/>
      <stop offset="1" stop-color="#f47272"/>
    </linearGradient>
    <linearGradient id="Degradado_sin_nombre_34" data-name="Degradado sin nombre 34" x1="1908.64" y1="193.95" x2="1905.76" y2="239.41" gradientTransform="translate(0 807.01) scale(1 -1)" gradientUnits="userSpaceOnUse">
      <stop offset="0" stop-color="#ffaeae"/>
      <stop offset="1" stop-color="#f47272"/>
    </linearGradient>
    <linearGradient id="Degradado_sin_nombre_35" data-name="Degradado sin nombre 35" x1="1936.01" y1="289" x2="1927.35" y2="236.68" gradientTransform="translate(0 807.01) scale(1 -1)" gradientUnits="userSpaceOnUse">
      <stop offset="0" stop-color="#c65842"/>
      <stop offset="1" stop-color="#982e14"/>
    </linearGradient>
    <linearGradient id="Degradado_sin_nombre_36" data-name="Degradado sin nombre 36" x1="1766.49" y1="141.87" x2="1860.3" y2="171.46" gradientTransform="translate(0 807.01) scale(1 -1)" gradientUnits="userSpaceOnUse">
      <stop offset="0" stop-color="#ff8d88"/>
      <stop offset="1" stop-color="#f3658e"/>
    </linearGradient>
  </defs>
  <g id="Layer_3" data-name="Layer 3">
    <path class="cls-2" d="M606.68,707.17c112.01,309.73,508.2,406.02,748.12,404.94,258.8-1.17,625.12-116.67,701.45-373.46,6.09-20.5,51.91-182.04-30.87-267.36-135.59-139.75-448.14,95.62-647.85-57.39-110.38-84.57-59.63-190.87-180.78-273.87-129.63-88.82-349.73-78.07-489.28,43.3-165.16,143.62-151.19,384.49-100.8,523.84Z"/>
  </g>
  <g id="Layer_2" data-name="Layer 2">
    <g>
      <path class="cls-61" d="M2169.89,710.19s-58.04,18.34-105.31,92.07c-5.83,9.09-12.37,17.4-19.42,24.9h0c-50.14,53.36-126.06,66.43-154.61,36.09,1.64-46.59,5.05-37.31,5.05-37.31,0,0,25.59-45.74,69.2-80.43,27.47-21.86,62.09-39.33,101.96-38.22l103.14,2.9h0Z"/>
      <path class="cls-6" d="M1920.88,844.45h-.03c-1.41-.03-2.53-1.18-2.51-2.59,.03-1.39,1.15-2.5,2.53-2.51,.44-.03,19.35-1.59,77.69-53.55,31.87-28.38,60.52-43.48,78.95-51.16,20.09-8.37,32.5-9.96,33.02-10.02,1.39-.18,2.67,.82,2.84,2.22,.17,1.4-.82,2.67-2.22,2.84-.23,.03-12.5,1.65-31.92,9.77-18.02,7.53-46.05,22.34-77.28,50.16-60.6,53.97-79.93,54.84-81.07,54.84h0Z"/>
      <path class="cls-56" d="M2045.15,827.16c-50.14,53.36-126.06,66.43-154.61,36.09,1.64-46.59,5.05-37.31,5.05-37.31,0,0,25.59-45.74,69.2-80.43-9.22,17.43-23.07,53.24,.69,79.61,32.35,35.9,79.09,2.48,79.68,2.05h0Z"/>
    </g>
    <g>
      <path class="cls-57" d="M2067.28,585.95s-45.34,40.61-58.04,127.27c-1.57,10.68-4.1,20.95-7.44,30.69h0c-23.7,69.28-87.51,112.46-126.02,96.57-17.71-43.13-10.77-36.08-10.77-36.08,0,0,4.48-52.22,29.93-101.79,16.03-31.24,40.38-61.41,77.18-76.82l95.18-39.84h-.01Z"/>
      <path class="cls-6" d="M1894.65,811.09c-.99,0-1.93-.57-2.34-1.53-.55-1.28,.02-2.75,1.28-3.33,.4-.21,16.97-9.42,48.74-80.79,17.35-38.99,37.24-64.55,50.87-79.13,14.86-15.9,25.52-22.46,25.97-22.73,1.2-.73,2.77-.35,3.5,.85,.73,1.2,.35,2.77-.85,3.5-.2,.12-10.71,6.65-25.06,22.05-13.32,14.28-32.75,39.32-49.76,77.54-33.33,74.9-50.6,83.07-51.32,83.38-.33,.15-.68,.21-1.01,.21h0Z"/>
    </g>
    <g>
      <path class="cls-59" d="M487.59,675.87s58.55,18.5,106.23,92.87c5.88,9.17,12.48,17.55,19.59,25.12h0c50.57,53.82,127.16,67.01,155.96,36.4-1.65-47.01-5.09-37.64-5.09-37.64,0,0-25.82-46.14-69.8-81.13-27.71-22.06-62.63-39.68-102.86-38.55l-104.04,2.93Z"/>
      <path class="cls-6" d="M738.78,811.32c-1.15,0-20.65-.88-81.79-55.32-31.51-28.06-59.79-43.01-77.96-50.6-19.68-8.23-32.08-9.84-32.2-9.85-1.41-.18-2.41-1.46-2.24-2.87s1.45-2.42,2.87-2.24c.52,.06,13.05,1.67,33.31,10.11,18.59,7.74,47.5,22.98,79.64,51.61,58.85,52.42,77.92,54,78.37,54.02,1.4,0,2.53,1.13,2.55,2.53,.03,1.42-1.11,2.59-2.53,2.61h-.02Z"/>
      <path class="cls-60" d="M613.42,793.86c50.57,53.82,127.16,67.01,155.96,36.4-1.65-47.01-5.09-37.64-5.09-37.64,0,0-25.82-46.14-69.8-81.13,9.3,17.58,23.28,53.7-.69,80.3-32.63,36.21-79.78,2.5-80.38,2.06h0Z"/>
    </g>
    <g>
      <path class="cls-55" d="M591.09,550.55s45.74,40.97,58.55,128.38c1.58,10.78,4.14,21.13,7.51,30.96h0c23.91,69.88,88.28,113.45,127.12,97.41,17.86-43.51,10.87-36.4,10.87-36.4,0,0-4.52-52.68-30.19-102.68-16.17-31.51-40.73-61.95-77.85-77.49l-96.02-40.19h0Z"/>
      <path class="cls-6" d="M765.25,777.65c-.34,0-.69-.07-1.02-.21-.73-.32-18.15-8.56-51.77-84.11-17.16-38.55-36.77-63.81-50.2-78.22-14.55-15.6-25.18-22.18-25.28-22.24-1.21-.74-1.6-2.32-.85-3.54,.74-1.21,2.32-1.6,3.53-.86,.45,.27,11.2,6.9,26.19,22.93,13.75,14.71,33.81,40.5,51.32,79.83,32.04,72,48.77,81.29,49.16,81.5,1.26,.58,1.84,2.07,1.28,3.36-.42,.97-1.36,1.55-2.36,1.55h0Z"/>
    </g>
    <g>
      <path class="cls-21" d="M1875.47,246.52V869.67c0,20.81-16.87,37.68-37.68,37.68H912.26c-12.92,0-24.32-6.5-31.12-16.42-4.14-6.06-6.57-13.37-6.57-21.26V246.52c0-20.81,16.87-37.68,37.68-37.68h925.53c10.22,0,19.48,4.06,26.26,10.68,7.05,6.83,11.42,16.41,11.42,27.01h0Z"/>
      <path class="cls-3" d="M946.13,242.8h857.78c20.8,0,37.69,16.89,37.69,37.69v487.23c0,20.8-16.89,37.69-37.69,37.69H946.13c-20.8,0-37.69-16.89-37.69-37.69V280.49c0-20.8,16.89-37.69,37.69-37.69h0Z"/>
      <circle class="cls-3" cx="1375.03" cy="858.18" r="34.69"/>
      <circle class="cls-21" cx="1375" cy="858.13" r="23.09"/>
      <path class="cls-21" d="M1485.74,1003.94h-214.87c-5.2,0-7.48-6.54-3.42-9.77,8.95-7.13,20.33-16.85,26.34-24.54,6.54-8.35,9.03-29.34,9.97-44.64,.62-10.04,.57-17.64,.57-17.64h147.95s-.22,35.82,6.61,54.66h0c1.11,3.07,2.41,5.69,3.93,7.62,6.01,7.68,17.39,17.41,26.34,24.54,4.06,3.23,1.78,9.77-3.42,9.77h0Z"/>
      <path class="cls-8" d="M1458.89,962.01h0l-155.13-37.02c.62-10.04,.57-17.64,.57-17.64h147.95s-.22,35.82,6.61,54.66h0Z"/>
    </g>
    <g>
      <rect class="cls-8" x="1472.71" y="277.66" width="310.52" height="240.58" rx="10.46" ry="10.46"/>
      <path class="cls-17" d="M1503.51,484.77c7.31-23.48,20.16-46.3,39.55-53.38,17.42-6.36,22.94,14.96,38.44,11.89,27.71-5.47,26.7-48.34,49.51-54.21,27.94-7.19,33.07,36.44,54.48,33.19,29.86-4.53,24.34-94.36,53.1-81.87,15.94,6.93,10.68,33.43,13.83,144.37h-248.91Z"/>
      <g>
        <path class="cls-17" d="M1597.35,316.28h-73.19c-2.46,0-4.45-2-4.45-4.45h0c0-2.46,2-4.45,4.45-4.45h73.19c2.46,0,4.45,2,4.45,4.45h0c0,2.46-2,4.45-4.45,4.45Z"/>
        <path class="cls-17" d="M1504.47,316.28h0c-2.46,0-4.45-2-4.45-4.45h0c0-2.46,2-4.45,4.45-4.45h0c2.46,0,4.45,2,4.45,4.45h0c0,2.46-2,4.45-4.45,4.45Z"/>
        <path class="cls-17" d="M1597.35,335.69h-73.19c-2.46,0-4.45-2-4.45-4.45h0c0-2.46,2-4.45,4.45-4.45h73.19c2.46,0,4.45,2,4.45,4.45h0c0,2.46-2,4.45-4.45,4.45Z"/>
        <path class="cls-17" d="M1504.47,335.69h0c-2.46,0-4.45-2-4.45-4.45h0c0-2.46,2-4.45,4.45-4.45h0c2.46,0,4.45,2,4.45,4.45h0c0,2.46-2,4.45-4.45,4.45Z"/>
      </g>
    </g>
    <g>
      <rect class="cls-8" x="1472.71" y="552.67" width="310.52" height="197.82" rx="19.3" ry="19.3"/>
      <g>
        <rect class="cls-17" x="1504.63" y="586" width="65.76" height="10.91" rx="2.14" ry="2.14"/>
        <rect class="cls-18" x="1504.63" y="607.02" width="127.67" height="5.46" rx="2.14" ry="2.14"/>
      </g>
      <g>
        <path class="cls-17" d="M1751.31,597.87c0,3.99-1.51,7.63-3.98,10.39-2.84,3.17-6.98,5.17-11.57,5.17s-8.74-2-11.58-5.17c-2.48-2.75-3.98-6.4-3.98-10.39,0-8.6,6.96-15.56,15.56-15.56s15.55,6.96,15.55,15.56Z"/>
        <circle class="cls-3" cx="1735.76" cy="592.61" r="4.84" transform="translate(89.35 1400.94) rotate(-45)"/>
        <path class="cls-3" d="M1747.33,608.27c-2.84,3.17-6.98,5.17-11.57,5.17s-8.74-2-11.58-5.17c1.96-4.44,6.42-7.54,11.58-7.54s9.61,3.1,11.57,7.54Z"/>
      </g>
      <path class="cls-17" d="M1583.1,661.52l-7.73,4.67c1.65,3.7,2.56,7.8,2.56,12.1,0,9.45-4.41,17.9-11.29,23.38l4.69,7.72c9.45-7.09,15.58-18.39,15.58-31.1,0-6.01-1.37-11.69-3.81-16.76h0Z"/>
      <path class="cls-3" d="M1548.04,639.41c-5.37,0-10.48,1.09-15.14,3.07l4.31,7.94c3.36-1.31,7.02-2.03,10.83-2.03,9.5,0,17.97,4.45,23.45,11.38l7.74-4.67c-7.1-9.52-18.44-15.7-31.19-15.7h0Z"/>
      <path class="cls-17" d="M1548.04,708.17c-16.47,0-29.88-13.41-29.88-29.89,0-9.98,4.93-18.85,12.48-24.27l-4.31-7.95h0c-10.34,6.99-17.15,18.83-17.15,32.22,0,21.44,17.43,38.87,38.86,38.87,6.06,0,11.79-1.39,16.9-3.87l-4.69-7.72c-3.73,1.67-7.86,2.61-12.21,2.61h0Z"/>
      <g>
        <rect class="cls-3" x="1632.33" y="650.45" width="9.47" height="5.94" rx="2.14" ry="2.14"/>
        <rect class="cls-17" x="1654.95" y="649.49" width="62.87" height="7.86" rx="2.14" ry="2.14"/>
        <rect class="cls-3" x="1632.33" y="675.31" width="9.47" height="5.94" rx="2.14" ry="2.14"/>
        <rect class="cls-17" x="1654.95" y="674.35" width="82.12" height="7.86" rx="2.14" ry="2.14"/>
        <rect class="cls-3" x="1632.33" y="700.17" width="9.47" height="5.94" rx="2.14" ry="2.14"/>
        <rect class="cls-17" x="1654.95" y="699.21" width="38.82" height="7.86" rx="2.14" ry="2.14"/>
      </g>
    </g>
    <g>
      <rect class="cls-8" x="953.12" y="454.58" width="464.65" height="296" rx="28.87" ry="28.87"/>
      <g>
        <rect class="cls-17" x="1016.37" y="655.29" width="31.18" height="58.5"/>
        <rect class="cls-3" x="1077.76" y="623.28" width="31.18" height="90.51"/>
        <rect class="cls-17" x="1139.15" y="594.21" width="31.18" height="119.58"/>
        <rect class="cls-3" x="1200.55" y="572.51" width="31.18" height="141.28"/>
        <rect class="cls-17" x="1261.94" y="542.7" width="31.18" height="171.08"/>
        <rect class="cls-3" x="1323.33" y="513.94" width="31.18" height="199.85"/>
      </g>
      <g>
        <rect class="cls-17" x="1015.4" y="493.37" width="76.06" height="12.62" rx="2.48" ry="2.48"/>
        <path class="cls-18" d="M1158.38,526.67h-138.27c-2.6,0-4.7-2.11-4.7-4.7h0c0-2.6,2.11-4.7,4.7-4.7h138.27c2.6,0,4.7,2.11,4.7,4.7h0c0,2.6-2.11,4.7-4.7,4.7Z"/>
      </g>
    </g>
    <g>
      <path class="cls-26" d="M1094.06,907.35h-99.32l6.46-275.56s110.52,63.76,92.86,275.56Z"/>
      <path class="cls-21" d="M1036.63,1017.94c-8.9,23.85-20.47,44.9-35.34,61.14-68.02,74.33-176.99,108.34-291.94,79.99-87.43-21.55-119.29-85.74-117.34-140.18,.61-17.14,4.57-33.32,11.2-46.89,27.71-56.69,107.71-101.49,142.35-119.71,34.64-18.23,67.39-111.76,75.58-153.81,8.19-42.04,26.14-100.92,117.31-91,43.56,4.74,76.9,27.47,97.59,66.61h0c10.53,19.92,17.79,44.08,21.46,72.27,8.49,65.34,10.92,186.34-20.88,271.58Z"/>
      <path class="cls-16" d="M1036.63,1017.94c-8.9,23.85-20.47,44.9-35.34,61.14-68.02,74.33-176.99,108.34-291.94,79.99-87.43-21.55-119.29-85.74-117.34-140.18,1.11,.6,46.55,147.33,327.63,83.46,100.05-22.73,114.64-82.69,116.99-84.41h0Z"/>
      <path class="cls-27" d="M699.98,939.61s9.36,24.24,66.57,14.34c48.12-8.32,70.65,57.51,142.33,14.34,34.26-20.63,28.16-106.44-16.5-125.05-42.35-17.66-196.58,24.92-192.41,96.37h0Z"/>
      <path class="cls-58" d="M774.54,1127.59s1.89,13.65,1.89,21.41,14.91,22.88,14.07,28.76c-.84,5.88-10.71,4.62-21.63,1.26-10.92-3.36-21.63-6.93-20.57-16.59,1.05-9.65-.07-19.32-.07-19.32l-6.65,6.3s-8.4-8.61-6.3-13.65c3.78-4.83,15.33-15.12,18.27-20.16,12.17,7.56,21,11.97,21,11.97h0Z"/>
      <path class="cls-35" d="M714.07,1116.67l2.84,1.47s7.03,10.29,6.83,21.63l-9.65,5.25-3.99-5.88s-11.76,22.04-17.21,24.99c-5.46,2.94-34.22-1.26-34.22-1.26,0,0-10.49-10.92,8.19-16.8,18.68-5.88,28.76-25.19,28.13-32.12,9.45,2.52,19.11,2.73,19.11,2.73h0Z"/>
      <path class="cls-46" d="M828.66,853.5c-17.74,18.32-32.01,80.35-32.01,80.35l-40.22,9.76-22.93,5.56c-11.47,2.78-19.44,13.19-19.13,24.99,1.12,42.53,3.5,137.87,2.53,143.98,0,0-18.58,4.41-25.19-5.04-5.04-16.38-34.2-127.86-38.2-158.41s12.79-43.46,27.07-53.54c14.28-10.08,82.96-51.96,90.03-55.74,7.07-3.78,15.47-1.47,15.47-1.47l14,3.14,28.57,6.42Z"/>
      <path class="cls-1" d="M828.66,853.5c-17.74,18.32-32.01,80.35-32.01,80.35l-48.55,11.78c45.63-36.05,58.78-93.11,58.78-93.11l-6.79-5.44,28.57,6.42h0Z"/>
      <path class="cls-48" d="M861.46,1029.8c-49.95,60.32-75.87,90.68-83.81,99.91-1.62,1.89-4.3,2.46-6.55,1.4-6.62-3.11-19.45-9.83-19.45-15.28,4.41-9.66,69.18-124.93,74.54-136.26,5.35-11.34,9.45-14.49-1.26-24.25-7.19-6.55-15.22-14.53-19.73-19.06-2.23-2.24-5.47-3.15-8.54-2.41,0,0,14.27-62.03,32.01-80.35l55.01,12.35s8.5,19.4,20.31,51.52c11.81,32.12,18.89,38.26-42.52,112.43h0Z"/>
      <path class="cls-47" d="M795.96,690.78c-.75,29.66-1.71,73.24-3.56,105.88-.15,2.64-.3,5.21-.46,7.69-1.21,18.65-2.76,32.51-4.8,36.02,0,0-50.71,33.7-64.57,33.07-.23-1.38-.46-2.7-.68-3.96-.47-2.72-.89-5.18-1.27-7.41l-3.72-21.7s34.33-15.43,41.88-49.44c7.56-34.01,14.67-96.96,37.16-100.15h0Z"/>
      <path class="cls-20" d="M791.93,804.35c-1.21,18.65-2.76,32.51-4.8,36.02,0,0-50.71,33.7-64.57,33.07-.23-1.38-.46-2.7-.68-3.96,58.26-19.11,62.36-87.37,62.36-87.37l7.68,22.23Z"/>
      <path class="cls-51" d="M908.88,738.48c-5.4,29.44-7.1,57.1-5.85,81.42,0,.12,.01,.25,.02,.37,1.51,30.64-4.64,49.39-18.36,48.44-2.71-.18-8.15-.97-15.17-2.14-17.6-2.96-45.11-8.4-64.31-13.23h-.02c-12.14-3.06-20.95-5.85-21.83-7.62-2.84-5.67,5.67-32.44,0-70.55s4.1-79.36,9.14-83.14c5.04-3.78,24.41-10.71,24.41-10.71l38.42-3.37,3.62,1.48s44.72,11.34,55.11,34.96c-2,8.14-3.72,16.17-5.17,24.08h0Z"/>
      <path class="cls-20" d="M903.03,819.9c0,.12,.01,.25,.02,.37l-33.54,46.3c-17.6-2.96-45.11-8.4-64.31-13.23,43.57,6.37,68.51-23.66,64.31-46.12-4.2-22.47,5.49-68.58,5.49-68.58l33.88-.16c-5.4,29.44-7.1,57.1-5.85,81.42Z"/>
      <path class="cls-50" d="M851.51,654.25l-.28,23.46-17,13.07s-8.66-.95-11.34-7.56c.25-1.93,.37-3.91,.41-5.78,.1-5.11-.41-9.35-.41-9.35l28.06-13.68,.57-.18h0Z"/>
      <path class="cls-10" d="M851.51,655.19l-.21,5.54-22.19,28.55c.04-2.22-3.25-1.02-4.58-5.14-1.74-5.41-1.65-16.04-1.65-16.04l28.06-13.68,.57,.76h0Z"/>
      <path class="cls-53" d="M822.29,696.45s4.35,10.36,5.95,10.98c1.6,.62,7.57,.97,8.95-2.49,1.38-3.46,3.69-11.21,3.69-11.21l-7.63-6.77-3.35-.46-4.33,3.25-3.28,6.7h0Z"/>
      <path class="cls-5" d="M823.27,678.19l8.9,8.56-11.03,11.76-4.25-17.16s2.66-4.41,6.37-3.14h0Z"/>
      <path class="cls-5" d="M832.17,686.74l8.82,11.76,17.95-19.05s-2.84-6.77-7.72-6.3l-19.05,13.6h0Z"/>
      <polygon class="cls-8" points="807.84 884.71 709.35 868.75 738.25 915.17 807.84 884.71"/>
      <path class="cls-23" d="M807.84,884.71l-74.64,29.43,1.77,10.34,66.64-26.43c4.75-1.88,6.61-4.74,6.38-9.85l-.16-3.49h0Z"/>
      <path class="cls-23" d="M623.98,902.15l.81,5.51c.25,1.73,1.62,3.09,3.35,3.33l106.84,13.5,2.25-9.67c-.27-1.73-1.64-3.08-3.38-3.31l-105.46-13.83c-2.59-.34-4.79,1.89-4.41,4.48h0Z"/>
      <path class="cls-23" d="M630.2,895.68l-23.52-76.85c-1.11-8.12,7.75-12.04,12.35-11.56l91.85,9.5c2.83,.29,5.17,2.34,5.85,5.1l21.74,88.88s2.37,1.98,2.58,4.89c.33,4.53,.99,6.19,.99,6.19l-7.06,2.65-1.77-10.34-46.85-13.94-56.15-4.53h0Z"/>
      <path class="cls-8" d="M733.21,914.14l-107.92-13.44-18.43-80.21c-.64-2.8,.54-5.48,2.65-6.98,1.27-.92,2.88-1.41,4.62-1.22l91.85,9.5c2.83,.29,5.17,2.34,5.85,5.1l19.63,80.09,1.76,7.16h0Z"/>
      <circle class="cls-6" cx="666.97" cy="861.82" r="12.72" transform="translate(-422.77 869.55) rotate(-52.67)"/>
      <path class="cls-8" d="M658.23,858.52c-1.84,4.81,.56,10.21,5.38,12.05,4.81,1.84,10.21-.56,12.05-5.38,1.84-4.81-.56-10.21-5.38-12.05-4.81-1.84-10.21,.56-12.05,5.38Z"/>
      <path class="cls-52" d="M806.87,877.14s-20.09-.73-31.21-1.45c-2.71-.18-5.42,.27-7.94,1.31-9.46,3.9-20.42,9.56-22.16,12.58-2,3.47,2.2,3.99,3.88,2.63,0,0-.13,5.03,5.38,1.86,0,0,.45,3.81,4.33,2.13,0,0,1.65,1.82,4.02,.63s9.07-3.44,13-6.11c3.54-2.4,8.58-2.24,13.85-.75,5.27,1.5,15.67,.55,15.67,.55l1.18-13.39h0Z"/>
      <path class="cls-49" d="M911.19,711.82c2.13,.75,3.83,2.39,4.72,4.48,3.75,8.86,14.84,38.52,14.84,79.35,0,49.13-1.57,63.06-20.47,73.1-18.89,10.05-66.76,26.74-110.54,24.22,0,0-2.94-11.23,0-18.58,9.87-4.83,44.72-21,63.83-27.92s23.52-9.87,20.16-20.36-16.9-59.73-8.71-87.44c7.32-24.77,25.45-30.59,36.19-26.82h0Z"/>
      <path class="cls-36" d="M799.01,636.83s7.86,37.89,16.72,40.07c8.87,2.18,36.79-23.21,36.79-23.21l2.92-3.02,3.78-9.07-3.05-9.11-16.2-19.65-40.96,24h0Z"/>
      <path class="cls-37" d="M1019.69,720.86l-37.51,18.75c-31.4-22.5-77.21,17.21-117.03,3.02-32.86-11.7-36.37-29.3-36.59-35.1,0,0,1.22,.5,3.87,.23,.03,0,.06,0,.09-.01,2.6-.28,3.66-1.39,3.66-1.39,5.73,8.08,26.49,14.14,48.82,9.84,24.25-4.67,57.89-30.05,86.81-25.82,28.92,4.23,47.89,30.48,47.89,30.48h0Z"/>
      <path class="cls-13" d="M1019.69,720.86l-37.51,18.75c-31.4-22.5-77.21,17.21-117.03,3.02-32.86-11.7-36.37-29.3-36.59-35.1,0,0,1.22,.5,3.87,.23,.03,0,.06,0,.09-.01,2.99,5.66,13.87,21.96,41.47,25.92,33.56,4.82,63.62-20.52,89.31-22.88,31.93-2.96,56.4,10.08,56.4,10.08h0Z"/>
      <path class="cls-38" d="M858.95,650.46h0c-2,1.69-4.18,2.85-6.42,3.23,0,0,6.84-14.63-.58-17.96-7.43-3.33-8.31,7.43-8.31,7.43,0,0,.08-19.95-3.96-25.91,0,0-38.8,34.89-73.67,22.65-24.16-8.49-24.05-34.01-13.8-52.35,0-.01,0-.02,0-.02,4.55-8.12,11.08-14.83,18.37-18.02,23.76-10.38,34.2,3.62,34.15,24-.04,20.38,21.73,12.66,28.62,4.82,6.9-7.84,21.17-4.2,20.46,8.88-.72,13.08,8.37,9.82,13.56,17.38,4.1,5.97-.88,19.54-8.42,25.86h0Z"/>
      <path class="cls-7" d="M858.95,650.46h0c-2,1.69-4.18,2.85-6.42,3.23,0,0,6.84-14.63-.58-17.96-7.43-3.33-8.31,7.43-8.31,7.43,0,0,.08-19.95-3.96-25.91,0,0-38.8,34.89-73.67,22.65-24.16-8.49-24.05-34.01-13.8-52.35-.11,.99-4.14,36.28,27.34,38.95,31.93,2.7,51.96-19.78,62.51-16.66,10.55,3.13,5.8,16.88,5.8,16.88,0,0,8.95,.23,11.37,7.35,3.6,10.62-.11,16.15-.27,16.38h0Z"/>
      <path class="cls-9" d="M733.21,914.14l-107.92-13.44-18.43-80.21c-.64-2.8,.54-5.48,2.65-6.98,9.72,9.91,75.05,75.33,121.95,93.47l1.76,7.16h0Z"/>
    </g>
    <g>
      <path class="cls-39" d="M2016.72,724.93c-.85,8.28-7.76,9.68-15.14,7.68-3.03-.82-6.14-2.21-8.93-3.93-9.6-5.92-13.08-5.58-13.08-5.58,0,0-4.6-6.91,5.71-12.84,0,0,3.98-1.65,8.43-2.63,4.58-1.01,9.64-1.29,11.33,1.69,3.33,5.89-4.73,2.2-5.65,6.25-.92,4.05,18.52-2.32,17.33,9.36h0Z"/>
      <path class="cls-4" d="M2001.59,732.62c-3.03-.82-6.14-2.21-8.93-3.93-9.6-5.92-13.08-5.58-13.08-5.58,0,0-4.6-6.91,5.71-12.84,0,0,3.98-1.65,8.43-2.63,.49,2.01,1.74,8.02,.64,13.33-1.35,6.5,7.24,11.66,7.24,11.66h0Z"/>
      <path class="cls-40" d="M1979.33,723.8c-19.13,2.26-52.38-1.02-73.73-9.82,0,0-.01,0-.02-.01-8.85-3.64-15.65-8.23-18.56-13.78-4.33-8.25-8.51-16.33-12.16-23.45-7.34-14.29-12.53-24.68-12.53-24.68l14.37-71.42s16.59,.36,28.9,38.25c4.56,14.04,9.14,33.38,13.64,52.98,7.63,33.32,64.02,28.95,70.6,39.18,1.94,3.02,2.5,11.21-10.51,12.75h0Z"/>
      <path class="cls-11" d="M1905.58,713.97c-8.85-3.64-15.65-8.23-18.56-13.78-4.33-8.25-8.51-16.33-12.16-23.45l2.25-31.26,15.13-33.55s5.7,15.3,5.1,37.45c-.61,22.14-8.64,56.92,8.24,64.58h0Z"/>
      <g>
        <polygon class="cls-19" points="1953.08 630.04 1923.4 630.04 1899.53 669.55 1902.51 674.1 1953.08 630.04"/>
        <polygon class="cls-41" points="1956.06 634.59 1955.95 634.76 1932.19 674.1 1902.51 674.1 1926.38 634.59 1956.06 634.59"/>
        <polygon class="cls-19" points="1923.4 630.04 1926.31 634.59 1955.99 634.59 1953.08 630.04 1923.4 630.04"/>
        <path class="cls-19" d="M1955.99,634.59s-.01,.06-.04,.18l-23.76,39.34h-29.68c28.43-1.12,53.48-39.52,53.48-39.52Z"/>
      </g>
      <path class="cls-42" d="M1920.07,679.19c-2.56,1.13-5.32,1.85-8.12,1.94-12.63,.44-16.42,0-16.42,0l1.62-12.99s2.43-3.26,5.42-6.21c2.78-2.73,6.04-5.22,8.29-4.61,4.69,1.26-4.51,9.02-1.81,9.56,2.7,.54,21.47-11.18,24.36-5.23,2.25,4.63-4.36,13.59-13.35,17.54h0Z"/>
      <path class="cls-4" d="M1920.07,679.19c-2.56,1.13-5.32,1.85-8.12,1.94-12.63,.44-16.42,0-16.42,0l1.62-12.99s2.43-3.26,5.42-6.21c.37,4.28,2.73,18.68,17.49,17.26Z"/>
      <path class="cls-43" d="M1969.67,1082.48c-1.14,2.84-50.51,3.69-50.51,3.69l-3.69-12.2-3.97,12.2h-13.34s-3.12-24.68,5.68-36.61c2.3-3.11,5.06-4.31,7.89-4.37,7.99-.2,16.51,8.63,16.51,8.63,0,0,11.64,17.87,23.27,18.15,6.24,.15,11.34,2.35,14.55,4.8,2.77,2.1,4.14,4.39,3.61,5.7h0Z"/>
      <path class="cls-24" d="M1969.67,1082.48c-1.14,2.84-50.51,3.69-50.51,3.69l-3.69-12.2-3.97,12.2h-13.34s-3.12-24.68,5.68-36.61c2.3-3.11,5.06-4.31,7.89-4.37l6.43,9.31s.81,23.81,19.75,24.35c14.36,.41,24.21-1.26,28.14-2.08,2.77,2.1,4.14,4.39,3.61,5.7h0Z"/>
      <path class="cls-44" d="M1789.09,1104.93c-16.6-.72-22.73-3.25-32.84-12.26-10.1-9.02-9.02-9.9-9.02-9.9l3.43-11.93-7.94,7.04s-3.97-5.78-3.97-11.19,15.52-18.94,15.52-18.94c0,0,4.32-.46,8.65,1.3,3.78,1.55,7.56,4.79,8.49,11.51,0,0,1.08,16.96,13.35,27.06,4.7,3.88,8.88,7.43,11.3,10.31,3.9,4.62,3.26,7.46-6.96,7.01h0Z"/>
      <path class="cls-24" d="M1789.09,1104.93c-16.6-.72-22.73-3.25-32.84-12.26-10.1-9.02-9.02-9.9-9.02-9.9l3.43-11.93-7.94,7.04s-3.97-5.78-3.97-11.19,15.52-18.94,15.52-18.94c0,0,4.32-.46,8.65,1.3l-.9,7.53s-10.01,21.75,4.87,33.38c11.6,9.07,24.17,8.61,29.15,7.96,3.9,4.62,3.26,7.46-6.96,7.01h0Z"/>
      <path class="cls-45" d="M1931.84,1052.34c-3.11,13.8-31.02,0-31.02,0,0,0-10.03-95.99-14.18-135.48h0c-.37-3.49-.68-6.54-.95-9.03-3.25-30.85-30.85-63.32-30.85-63.32,0,0-12.87-66.35-17.4-103.09-1.51-12.28-2.1-21.24-.95-23.33,4.55-8.35,20.79-23.34,41.08-2.04,0,0,46.82,113.04,54.26,144.7,7.44,31.66,3.11,177.8,0,191.6h0Z"/>
      <path class="cls-12" d="M1917.96,1058.2c-.03-.82-3.43-83.19-6.64-150.07-3.2-66.72-55.11-151.12-55.63-151.96l1.07-.66c.13,.21,13.3,21.53,26.69,50.83,12.36,27.06,27.46,66.69,29.13,101.74,3.21,66.88,6.6,149.25,6.64,150.08l-1.26,.05h0Z"/>
      <path class="cls-54" d="M1854.85,844.5s-12.87-66.35-17.4-103.09l11.99-19.51,32.2,4.33,5.18,12.43s-28.31,16.24-22.31,55.75c5.94,39.14-9.67,50.09-9.67,50.09h0Z"/>
      <path class="cls-28" d="M1854.4,916.22c-18.77,32.48-74.69,145.77-78.66,147.94-3.97,2.17-24.18-8.3-23.46-17.32,.73-9.02,59.8-152.27,60.21-180.41,.25-16.85-13.24-48.06-17.83-81.31-3.08-22.28-2.15-45.49,9.58-65.9,35.72-11.37,50.16,11.54,50.16,11.54,0,0,.7,4.27,1.82,11.21,4.02,24.97,13.52,84.45,15.5,102.81,2.53,23.46,1.44,38.97-17.32,71.45Z"/>
      <path class="cls-30" d="M1856.22,741.96s0,.02,0,.03c-53.74,.06-61.55,43.13-61.55,43.13h0c-3.08-22.29-2.15-45.5,9.58-65.91,35.72-11.37,50.16,11.54,50.16,11.54,0,0,.7,4.27,1.82,11.21h0Z"/>
      <path class="cls-12" d="M1764.23,1060.86l-1.11-.61c.66-1.19,66.1-119.23,78.12-178.57,12-59.27-19.77-149.09-20.09-149.99l1.19-.42c.08,.23,8.16,22.93,14.65,52.69,5.99,27.49,11.81,66.81,5.49,97.97-12.06,59.53-77.59,177.75-78.25,178.93h0Z"/>
      <path class="cls-12" d="M1829.4,756.45l-.18-1.25c3.01-.42,5.41-1.82,7.12-4.16,4.75-6.5,2.84-18.2,2.82-18.32l1.24-.21c.08,.5,2.03,12.34-3.04,19.28-1.92,2.62-4.6,4.19-7.96,4.67h0Z"/>
      <path class="cls-29" d="M1888.67,724.62c.86,9.55-26.64,10.97-48.71,11.01h0c-8.79,.01-16.71-.19-21.65-.19-17.31,0-22.01-4.33-17.31-33.56,2.75-17.13,3.76-42.82,5.54-65.24,1.26-15.82,2.91-30.03,5.82-38.43,7.03-20.31,43.12-23.53,43.12-23.53,24.18,1.26,27.78,11.01,33.56,27.97,5.78,16.95,3.25,31.39-3.61,65.67-6.86,34.28,2.05,42.94,3.25,56.29h0Z"/>
      <path class="cls-11" d="M1839.96,735.63c-8.79,.01-16.71-.19-21.65-.19-17.31,0-22.01-4.33-17.31-33.56,2.75-17.13,3.76-42.82,5.54-65.24l27.82-11.28c-.39,.7-22.85,41.63,15.08,36.56-9.21,20.19-10.18,35.75-10.18,35.75,0,0-8.23,.41-11.75,15.29-3.48,14.71,12.02,22.49,12.44,22.65h0Z"/>
      <path class="cls-34" d="M1883.26,585.7s-10.1,2.53-12.63,10.65c-.9,2.89-3.94,2.67-7.18,.59-5.87-3.76-12.4-13.64-7.98-22.24,6.5-2.66,11.75-6.15,15.34-8.94,3.49-2.72,5.41-4.77,5.41-4.77,0,0,9.74,12.45,7.03,24.71Z"/>
      <path class="cls-14" d="M1883.26,585.7s-10.1,2.53-12.63,10.65c-.9,2.89,2.53-11.39,.18-30.59,3.49-2.72,5.41-4.77,5.41-4.77,0,0,9.74,12.45,7.03,24.71Z"/>
      <path class="cls-33" d="M1938.47,576.86s-36.08,38.61-47.99,34.82c-11.91-3.79-13.17-42.94-13.17-42.94,0,0-8.39-10.55-2.71-22.73s39.51-4.33,39.51-4.33c0,0,26.25,17.86,24.36,35.18h0Z"/>
      <path class="cls-32" d="M1999.21,561c-5.69,21.64-22.57,40.67-49.92,36.7-50.33-7.31-38.97-48.98-43.7-48.98s-22.61,20.57-19.9,13.26c2.7-7.31,1.08-17.59-7.31-13.8-7.94,3.59-5.5,10.72-5.22,11.49,.01,.04,.03,.06,.03,.06-11.72-9.74-16.19-32.12-.57-39.42,15.62-7.31,25.52,15.15,27.68,2.97,2.17-12.17,20.84-19.49,27.87-2.44,7.04,17.05,27.34,38.7,24.63,20.57-2.7-18.14,11.37-49.8,36.54-28.42,11.5,9.76,14.64,29.8,9.86,48h0Z"/>
      <path class="cls-25" d="M1999.21,561c-5.69,21.64-22.57,40.67-49.92,36.7-50.33-7.31-38.97-48.98-43.7-48.98s-22.61,20.57-19.9,13.26c2.7-7.31,1.08-17.59-7.31-13.8-7.94,3.59-5.5,10.72-5.22,11.49-.54-1.16-7.97-17.72,1.68-20.47,10-2.85,17.38,8.99,17.38,8.99,0,0,11.23-14.07,21.69-6.13,10.46,7.94,4.33,33.2,36.81,37.7,32.48,4.51,48.46-18.76,48.46-18.76h0s0,.01,0,.01Z"/>
      <path class="cls-31" d="M1823.73,592.01c15.1,13.59,14.08,34.1,3.25,52.5-10.82,18.4-8.12,19.49-8.12,19.49,0,0,74.15-5.41,79.56-3.79s0,25.98,0,25.98c0,0-72.53,16.78-110.95,16.78s3.79-140.18,36.26-110.95h0Z"/>
    </g>
    <path class="cls-15" d="M1401.8,427.84h-432.72c-9.32,0-16.91-7.58-16.91-16.91v-117.3c0-9.33,7.58-16.91,16.91-16.91h432.72c9.32,0,16.91,7.58,16.91,16.91v117.3c0,9.33-7.58,16.91-16.91,16.91Zm-432.72-149.22c-8.28,0-15.02,6.74-15.02,15.02v117.3c0,8.28,6.74,15.02,15.02,15.02h432.72c8.28,0,15.02-6.74,15.02-15.02v-117.3c0-8.28-6.74-15.02-15.02-15.02h-432.72Z"/>
    <g>
      <rect class="cls-8" x="848.41" y="173.58" width="544" height="222.01" rx="21.07" ry="21.07"/>
      <g>
        <g>
          <path class="cls-17" d="M1054.1,284.57c0,37.63-30.51,68.13-68.13,68.13s-68.13-30.51-68.13-68.13,30.51-68.13,68.13-68.13v26.57c-22.95,0-41.55,18.6-41.55,41.55s18.6,41.56,41.55,41.56,41.56-18.6,41.56-41.56h26.57Z"/>
          <path class="cls-3" d="M1054.1,284.57h-26.57c0-22.95-18.6-41.55-41.56-41.55v-26.57c37.63,0,68.13,30.51,68.13,68.13h0Z"/>
        </g>
        <path class="cls-21" d="M1313.18,248.27h-191.87c-5.41,0-9.8-4.39-9.8-9.8h0c0-5.41,4.39-9.8,9.8-9.8h191.87c5.41,0,9.8,4.39,9.8,9.8h0c0,5.41-4.39,9.8-9.8,9.8Z"/>
        <path class="cls-22" d="M1121.31,274.78h191.86c5.41,0,9.8,4.39,9.8,9.8h0c0,5.41-4.39,9.8-9.8,9.8h-191.86c-5.41,0-9.8-4.39-9.8-9.8h0c0-5.41,4.39-9.8,9.8-9.8Z"/>
        <path class="cls-22" d="M1120.43,320.89h111.94c4.93,0,8.92,4,8.92,8.92v1.75c0,4.93-4,8.92-8.92,8.92h-111.94c-4.93,0-8.92-4-8.92-8.92v-1.75c0-4.93,4-8.92,8.92-8.92h0Z"/>
      </g>
    </g>
    <g>
      <ellipse class="cls-8" cx="652.86" cy="504.31" rx="95.09" ry="78.36"/>
      <circle class="cls-17" cx="652.86" cy="504.29" r="10.82"/>
      <circle class="cls-17" cx="690.54" cy="504.31" r="10.82"/>
      <circle class="cls-17" cx="615.18" cy="504.32" r="10.82"/>
      <path class="cls-8" d="M732.47,543.82l2.6,42.19-33.71-17.12s15.31-27.58,31.11-25.06h0Z"/>
    </g>
  </g>
</svg>