<?xml version="1.0" encoding="utf-8"?>
<!-- Generator: Adobe Illustrator 24.2.0, SVG Export Plug-In . SVG Version: 6.00 Build 0)  -->
<svg version="1.1" id="Capa_1" xmlns="http://www.w3.org/2000/svg" xmlns:xlink="http://www.w3.org/1999/xlink" x="0px" y="0px"
	 width="428.4px" height="122.9px" viewBox="0 0 428.4 122.9" style="enable-background:new 0 0 428.4 122.9;" xml:space="preserve"
	>
<style type="text/css">
	.st0{fill:#FFFFFF;}
	.st1{fill:#6A9BF4;}
</style>
<g>
	<g>
		<g>
			<path class="st0" d="M108.8,76.3v-60h9.8v60H108.8z"/>
			<path class="st0" d="M184.4,76.3h-12l-29.5-47.8h-0.3l0.2,2.7c0.4,5.1,0.6,9.7,0.6,13.9v31.2h-8.9v-60h11.9l29.4,47.5h0.2
				c-0.1-0.6-0.2-2.9-0.3-6.9c-0.2-4-0.2-7-0.2-9.3V16.3h9L184.4,76.3L184.4,76.3z"/>
			<path class="st0" d="M249,45.7c0,9.9-2.8,17.5-8.2,22.7c-5.5,5.2-13.4,7.9-23.8,7.9h-16.8v-60h18.5c9.5,0,17,2.6,22.3,7.7
				C246.4,29.2,249,36.4,249,45.7z M238.7,46.1c0-14.4-6.7-21.5-20.1-21.5h-8.5v43.5h7C231.5,68.1,238.7,60.7,238.7,46.1z"/>
			<path class="st0" d="M308.9,16.3v38.8c0,4.4-1,8.3-2.9,11.6c-1.9,3.3-4.6,5.9-8.2,7.7c-3.6,1.8-7.9,2.7-12.9,2.7
				c-7.4,0-13.2-2-17.4-5.9c-4.1-3.9-6.2-9.4-6.2-16.2V16.3h9.8v37.9c0,5,1.1,8.6,3.4,11c2.3,2.4,5.8,3.5,10.6,3.5
				c9.2,0,13.9-4.9,13.9-14.6V16.3H308.9z"/>
			<path class="st0" d="M349.8,23.9c-5.6,0-10.1,2-13.3,6c-3.2,4-4.8,9.5-4.8,16.5c0,7.4,1.6,12.9,4.7,16.7s7.6,5.7,13.5,5.7
				c2.5,0,5-0.3,7.4-0.8s4.9-1.2,7.4-1.9v8.4c-4.7,1.8-10,2.7-16,2.7c-8.8,0-15.5-2.7-20.2-8s-7.1-12.9-7.1-22.8
				c0-6.2,1.1-11.7,3.4-16.4s5.6-8.3,9.9-10.7c4.3-2.5,9.4-3.7,15.2-3.7c6.1,0,11.8,1.3,17,3.9l-3.5,8.2c-2-1-4.2-1.8-6.4-2.5
				C354.7,24.2,352.3,23.9,349.8,23.9z"/>
			<path class="st0" d="M411.5,76.3h-33.9v-60h33.9v8.3h-24.1v16.3H410v8.2h-22.6V68h24.1V76.3z"/>
		</g>
		<g>
			<g>
				<polygon class="st0" points="50.7,80.4 10.2,80.4 10.2,11.4 79.2,11.4 79.2,40.3 69.8,40.3 69.8,20.9 19.7,20.9 19.7,71 
					50.7,71 				"/>
			</g>
			<g>
				<rect x="69.8" y="48.5" class="st1" width="9.5" height="31.8"/>
			</g>
		</g>
	</g>
	<g>
		<path class="st0" d="M419.9,16.3c-2.7,0-4.9-2.2-4.9-4.9s2.2-4.9,4.9-4.9c2.7,0,4.9,2.2,4.9,4.9S422.6,16.3,419.9,16.3z
			 M419.9,7.4c-2.2,0-4.1,1.8-4.1,4.1s1.8,4.1,4.1,4.1c2.2,0,4.1-1.8,4.1-4.1S422.1,7.4,419.9,7.4z"/>
		<g>
			<path class="st0" d="M422,10.7c0,0.8-0.3,1.3-1,1.5l1.2,1.7h-1l-1.1-1.6h-1v1.6h-0.8V9.2h1.7c0.7,0,1.2,0.1,1.5,0.4
				C421.9,9.8,422,10.2,422,10.7z M421,11.4c0.2-0.1,0.2-0.4,0.2-0.7s-0.1-0.5-0.2-0.6c-0.2-0.1-0.5-0.2-0.9-0.2h-1v1.7h1
				C420.5,11.6,420.8,11.5,421,11.4z"/>
		</g>
	</g>
	<g>
		<path class="st1" d="M207.6,87v14.7h-1.5V90l-5.8,9.9h-0.7l-5.8-9.8v11.7h-1.5V87h1.3l6.4,10.9l6.3-10.9H207.6z"/>
		<path class="st1" d="M221.6,97.8h-8.2l-1.8,3.9H210l6.7-14.7h1.5l6.7,14.7h-1.6L221.6,97.8z M221,96.5l-3.5-7.9l-3.5,7.9H221z"/>
		<path class="st1" d="M237.4,101.7L234,97c-0.4,0-0.8,0.1-1.2,0.1H229v4.7h-1.6V87h5.5c3.7,0,6,1.9,6,5c0,2.3-1.2,3.9-3.4,4.6
			l3.6,5L237.4,101.7L237.4,101.7z M237.4,92.1c0-2.4-1.6-3.7-4.5-3.7H229v7.4h3.9C235.8,95.7,237.4,94.4,237.4,92.1z"/>
		<path class="st1" d="M247.2,94.8l-3,3v3.9h-1.6V87h1.6v8.9l8.6-8.9h1.8l-6.4,6.7l6.8,8h-1.8L247.2,94.8z"/>
		<path class="st1" d="M267.9,100.4v1.3h-10.4V87h10.1v1.3h-8.5v5.2h7.6v1.3h-7.6v5.5L267.9,100.4L267.9,100.4z"/>
		<path class="st1" d="M274.4,88.4h-5.2V87h11.9v1.3H276v13.4h-1.6V88.4z"/>
		<path class="st1" d="M283.6,87h1.6v14.7h-1.6V87z"/>
		<path class="st1" d="M302.3,87v14.7H301l-9.4-11.9v11.9H290V87h1.3l9.5,11.9V87H302.3z"/>
		<path class="st1" d="M317.4,94.4h1.5v5.6c-1.4,1.2-3.4,1.9-5.4,1.9c-4.5,0-7.7-3.2-7.7-7.5s3.3-7.5,7.8-7.5c2.2,0,4.2,0.7,5.5,2.1
			l-1,1c-1.2-1.2-2.7-1.7-4.4-1.7c-3.6,0-6.3,2.6-6.3,6.1s2.7,6.1,6.3,6.1c1.4,0,2.7-0.3,3.8-1.1L317.4,94.4L317.4,94.4z"/>
		<path class="st1" d="M328.8,87h6c4.7,0,7.9,3,7.9,7.3s-3.2,7.3-7.9,7.3h-6V87z M334.7,100.4c3.9,0,6.4-2.5,6.4-6s-2.5-6-6.4-6
			h-4.3v12H334.7z"/>
		<path class="st1" d="M346.1,87h1.6v14.7h-1.6V87z"/>
		<path class="st1" d="M362.8,94.4h1.5v5.6c-1.4,1.2-3.4,1.9-5.4,1.9c-4.5,0-7.7-3.2-7.7-7.5s3.3-7.5,7.8-7.5c2.2,0,4.2,0.7,5.5,2.1
			l-1,1c-1.2-1.2-2.7-1.7-4.4-1.7c-3.6,0-6.3,2.6-6.3,6.1s2.7,6.1,6.3,6.1c1.4,0,2.7-0.3,3.8-1.1L362.8,94.4L362.8,94.4z"/>
		<path class="st1" d="M368.7,87h1.6v14.7h-1.6V87z"/>
		<path class="st1" d="M377.9,88.4h-5.2V87h11.9v1.3h-5.2v13.4h-1.6V88.4H377.9z"/>
		<path class="st1" d="M395.6,97.8h-8.2l-1.8,3.9H384l6.7-14.7h1.5l6.7,14.7h-1.6L395.6,97.8z M395,96.5l-3.5-7.9l-3.5,7.9H395z"/>
		<path class="st1" d="M401.4,87h1.6v13.4h8.2v1.3h-9.8L401.4,87L401.4,87z"/>
	</g>
</g>
</svg>
